<?xml version="1.0"?>
<svg xmlns="http://www.w3.org/2000/svg" width="500" height="420" version="1.0" id="ezcGraph"><defs/><g id="ezcGraphChart" color-rendering="optimizeQuality" shape-rendering="geometricPrecision" text-rendering="optimizeLegibility"><path d=" M 0.0000,420.0000 L 0.0000,0.0000 L 500.0000,0.0000 L 500.0000,420.0000 L 0.0000,420.0000 z " style="fill: #eeeeec; fill-opacity: 1.00; stroke: none;" id="ezcGraphPolygon_1"/><path d=" M 0.0000,42.0000 L 0.0000,0.0000 L 500.0000,0.0000 L 500.0000,42.0000 L 0.0000,42.0000 z " style="fill: #000000; fill-opacity: 0.00; stroke: none;" id="ezcGraphPolygon_2"/><path d=" M 0.0000,420.0000 L 0.0000,42.0000 L 100.0000,42.0000 L 100.0000,420.0000 L 0.0000,420.0000 z " style="fill: #000000; fill-opacity: 0.00; stroke: none;" id="ezcGraphPolygon_4"/><path d=" M 2.0000,58.0000 L 2.0000,44.0000 L 16.0000,44.0000 L 16.0000,58.0000 L 2.0000,58.0000 z " style="fill: #3465a4; fill-opacity: 1.00; stroke: none; cursor: pointer;" id="ezcGraphPolygon_5" onclick="top.location = 'https://bsd-hardware.info/?view=computers&amp;type=notebook&amp;f=mon_area&amp;v=90&amp;p=-1'"/><path d=" M 2.0000,76.0000 L 2.0000,62.0000 L 16.0000,62.0000 L 16.0000,76.0000 L 2.0000,76.0000 z " style="fill: #4e9a06; fill-opacity: 1.00; stroke: none; cursor: pointer;" id="ezcGraphPolygon_7" onclick="top.location = 'https://bsd-hardware.info/?view=computers&amp;type=notebook&amp;f=mon_area&amp;v=100&amp;p=-1'"/><path d=" M 2.0000,94.0000 L 2.0000,80.0000 L 16.0000,80.0000 L 16.0000,94.0000 L 2.0000,94.0000 z " style="fill: #cc0000; fill-opacity: 1.00; stroke: none; cursor: pointer;" id="ezcGraphPolygon_9" onclick="top.location = 'https://bsd-hardware.info/?view=computers&amp;type=notebook&amp;f=mon_area&amp;v=350&amp;p=-1'"/><path d=" M 2.0000,112.0000 L 2.0000,98.0000 L 16.0000,98.0000 L 16.0000,112.0000 L 2.0000,112.0000 z " style="fill: #edd400; fill-opacity: 1.00; stroke: none; cursor: pointer;" id="ezcGraphPolygon_11" onclick="top.location = 'https://bsd-hardware.info/?view=computers&amp;type=notebook&amp;f=mon_area&amp;v=110&amp;p=-1'"/><path d=" M 2.0000,130.0000 L 2.0000,116.0000 L 16.0000,116.0000 L 16.0000,130.0000 L 2.0000,130.0000 z " style="fill: #75505b; fill-opacity: 1.00; stroke: none; cursor: pointer;" id="ezcGraphPolygon_13" onclick="top.location = 'https://bsd-hardware.info/?view=computers&amp;type=notebook&amp;f=mon_area&amp;v=80&amp;p=-1'"/><path d=" M 2.0000,148.0000 L 2.0000,134.0000 L 16.0000,134.0000 L 16.0000,148.0000 L 2.0000,148.0000 z " style="fill: #f57900; fill-opacity: 1.00; stroke: none;" id="ezcGraphPolygon_15"/><path d=" M 100.0000,382.2000 L 500.0000,382.2000" style="fill: none; stroke: #2e3436; stroke-width: 1; stroke-opacity: 1.00; stroke-linecap: round; stroke-linejoin: round;" id="ezcGraphLine_17"/><path d=" M 492.0000,378.2000 L 500.0000,382.2000 L 492.0000,386.2000 L 492.0000,378.2000 z " style="fill: #2e3436; fill-opacity: 1.00; stroke: none;" id="ezcGraphPolygon_18"/><path d=" M 193.3333,79.8000 L 193.3333,382.2000" style="fill: none; stroke: #000000; stroke-width: 1; stroke-opacity: 0.00; stroke-linecap: round; stroke-linejoin: round;" id="ezcGraphLine_21"/><path d=" M 193.3333,379.2000 L 193.3333,385.2000" style="fill: none; stroke: #2e3436; stroke-width: 1; stroke-opacity: 1.00; stroke-linecap: round; stroke-linejoin: round;" id="ezcGraphLine_22"/><path d=" M 246.6667,79.8000 L 246.6667,382.2000" style="fill: none; stroke: #000000; stroke-width: 1; stroke-opacity: 0.00; stroke-linecap: round; stroke-linejoin: round;" id="ezcGraphLine_24"/><path d=" M 246.6667,379.2000 L 246.6667,385.2000" style="fill: none; stroke: #2e3436; stroke-width: 1; stroke-opacity: 1.00; stroke-linecap: round; stroke-linejoin: round;" id="ezcGraphLine_25"/><path d=" M 300.0000,79.8000 L 300.0000,382.2000" style="fill: none; stroke: #000000; stroke-width: 1; stroke-opacity: 0.00; stroke-linecap: round; stroke-linejoin: round;" id="ezcGraphLine_27"/><path d=" M 300.0000,379.2000 L 300.0000,385.2000" style="fill: none; stroke: #2e3436; stroke-width: 1; stroke-opacity: 1.00; stroke-linecap: round; stroke-linejoin: round;" id="ezcGraphLine_28"/><path d=" M 353.3333,79.8000 L 353.3333,382.2000" style="fill: none; stroke: #000000; stroke-width: 1; stroke-opacity: 0.00; stroke-linecap: round; stroke-linejoin: round;" id="ezcGraphLine_30"/><path d=" M 353.3333,379.2000 L 353.3333,385.2000" style="fill: none; stroke: #2e3436; stroke-width: 1; stroke-opacity: 1.00; stroke-linecap: round; stroke-linejoin: round;" id="ezcGraphLine_31"/><path d=" M 406.6667,79.8000 L 406.6667,382.2000" style="fill: none; stroke: #000000; stroke-width: 1; stroke-opacity: 0.00; stroke-linecap: round; stroke-linejoin: round;" id="ezcGraphLine_33"/><path d=" M 406.6667,379.2000 L 406.6667,385.2000" style="fill: none; stroke: #2e3436; stroke-width: 1; stroke-opacity: 1.00; stroke-linecap: round; stroke-linejoin: round;" id="ezcGraphLine_34"/><path d=" M 460.0000,79.8000 L 460.0000,382.2000" style="fill: none; stroke: #000000; stroke-width: 1; stroke-opacity: 0.00; stroke-linecap: round; stroke-linejoin: round;" id="ezcGraphLine_36"/><path d=" M 460.0000,379.2000 L 460.0000,385.2000" style="fill: none; stroke: #2e3436; stroke-width: 1; stroke-opacity: 1.00; stroke-linecap: round; stroke-linejoin: round;" id="ezcGraphLine_37"/><path d=" M 140.0000,420.0000 L 140.0000,42.0000" style="fill: none; stroke: #2e3436; stroke-width: 1; stroke-opacity: 1.00; stroke-linecap: round; stroke-linejoin: round;" id="ezcGraphLine_38"/><path d=" M 136.0000,50.0000 L 140.0000,42.0000 L 144.0000,50.0000 L 136.0000,50.0000 z " style="fill: #2e3436; fill-opacity: 1.00; stroke: none;" id="ezcGraphPolygon_39"/><path d=" M 140.0000,79.8000 L 460.0000,79.8000" style="fill: none; stroke: #000000; stroke-width: 1; stroke-opacity: 0.00; stroke-linecap: round; stroke-linejoin: round;" id="ezcGraphLine_42"/><path d=" M 140.0000,79.8000 L 143.0000,79.8000" style="fill: none; stroke: #2e3436; stroke-width: 1; stroke-opacity: 1.00; stroke-linecap: round; stroke-linejoin: round;" id="ezcGraphLine_43"/><path d=" M 166.6667,257.6112 L 166.6667,257.6112" style="fill: none; stroke: #3465a4; stroke-width: 1; stroke-opacity: 1.00; stroke-linecap: round; stroke-linejoin: round;" id="ezcGraphLine_45"/><path d=" M 166.6667,257.6112 L 220.0000,252.7728" style="fill: none; stroke: #3465a4; stroke-width: 1; stroke-opacity: 1.00; stroke-linecap: round; stroke-linejoin: round;" id="ezcGraphLine_47"/><path d=" M 220.0000,252.7728 L 273.3333,270.3120" style="fill: none; stroke: #3465a4; stroke-width: 1; stroke-opacity: 1.00; stroke-linecap: round; stroke-linejoin: round;" id="ezcGraphLine_49"/><path d=" M 273.3333,270.3120 L 326.6667,209.2272" style="fill: none; stroke: #3465a4; stroke-width: 1; stroke-opacity: 1.00; stroke-linecap: round; stroke-linejoin: round;" id="ezcGraphLine_51"/><path d=" M 326.6667,209.2272 L 380.0000,122.7408" style="fill: none; stroke: #3465a4; stroke-width: 1; stroke-opacity: 1.00; stroke-linecap: round; stroke-linejoin: round;" id="ezcGraphLine_53"/><path d=" M 380.0000,122.7408 L 433.3333,191.0832" style="fill: none; stroke: #3465a4; stroke-width: 1; stroke-opacity: 1.00; stroke-linecap: round; stroke-linejoin: round;" id="ezcGraphLine_55"/><path d=" M 166.6667,204.3888 L 166.6667,204.3888" style="fill: none; stroke: #4e9a06; stroke-width: 1; stroke-opacity: 1.00; stroke-linecap: round; stroke-linejoin: round;" id="ezcGraphLine_57"/><path d=" M 166.6667,204.3888 L 220.0000,209.2272" style="fill: none; stroke: #4e9a06; stroke-width: 1; stroke-opacity: 1.00; stroke-linecap: round; stroke-linejoin: round;" id="ezcGraphLine_59"/><path d=" M 220.0000,209.2272 L 273.3333,270.3120" style="fill: none; stroke: #4e9a06; stroke-width: 1; stroke-opacity: 1.00; stroke-linecap: round; stroke-linejoin: round;" id="ezcGraphLine_61"/><path d=" M 273.3333,270.3120 L 326.6667,238.2576" style="fill: none; stroke: #4e9a06; stroke-width: 1; stroke-opacity: 1.00; stroke-linecap: round; stroke-linejoin: round;" id="ezcGraphLine_63"/><path d=" M 326.6667,238.2576 L 380.0000,231.0000" style="fill: none; stroke: #4e9a06; stroke-width: 1; stroke-opacity: 1.00; stroke-linecap: round; stroke-linejoin: round;" id="ezcGraphLine_65"/><path d=" M 380.0000,231.0000 L 433.3333,223.1376" style="fill: none; stroke: #4e9a06; stroke-width: 1; stroke-opacity: 1.00; stroke-linecap: round; stroke-linejoin: round;" id="ezcGraphLine_67"/><path d=" M 166.6667,328.9776 L 166.6667,328.9776" style="fill: none; stroke: #cc0000; stroke-width: 1; stroke-opacity: 1.00; stroke-linecap: round; stroke-linejoin: round;" id="ezcGraphLine_69"/><path d=" M 166.6667,328.9776 L 273.3333,337.4448" style="fill: none; stroke: #cc0000; stroke-width: 1; stroke-opacity: 1.00; stroke-linecap: round; stroke-linejoin: round;" id="ezcGraphLine_71"/><path d=" M 273.3333,337.4448 L 326.6667,353.1696" style="fill: none; stroke: #cc0000; stroke-width: 1; stroke-opacity: 1.00; stroke-linecap: round; stroke-linejoin: round;" id="ezcGraphLine_73"/><path d=" M 326.6667,353.1696 L 380.0000,339.2592" style="fill: none; stroke: #cc0000; stroke-width: 1; stroke-opacity: 1.00; stroke-linecap: round; stroke-linejoin: round;" id="ezcGraphLine_75"/><path d=" M 380.0000,339.2592 L 433.3333,286.6416" style="fill: none; stroke: #cc0000; stroke-width: 1; stroke-opacity: 1.00; stroke-linecap: round; stroke-linejoin: round;" id="ezcGraphLine_77"/><path d=" M 166.6667,328.9776 L 166.6667,328.9776" style="fill: none; stroke: #edd400; stroke-width: 1; stroke-opacity: 1.00; stroke-linecap: round; stroke-linejoin: round;" id="ezcGraphLine_79"/><path d=" M 166.6667,328.9776 L 220.0000,295.7136" style="fill: none; stroke: #edd400; stroke-width: 1; stroke-opacity: 1.00; stroke-linecap: round; stroke-linejoin: round;" id="ezcGraphLine_81"/><path d=" M 220.0000,295.7136 L 273.3333,315.0672" style="fill: none; stroke: #edd400; stroke-width: 1; stroke-opacity: 1.00; stroke-linecap: round; stroke-linejoin: round;" id="ezcGraphLine_83"/><path d=" M 273.3333,315.0672 L 326.6667,353.1696" style="fill: none; stroke: #edd400; stroke-width: 1; stroke-opacity: 1.00; stroke-linecap: round; stroke-linejoin: round;" id="ezcGraphLine_85"/><path d=" M 326.6667,353.1696 L 380.0000,339.2592" style="fill: none; stroke: #edd400; stroke-width: 1; stroke-opacity: 1.00; stroke-linecap: round; stroke-linejoin: round;" id="ezcGraphLine_87"/><path d=" M 380.0000,339.2592 L 433.3333,318.6960" style="fill: none; stroke: #edd400; stroke-width: 1; stroke-opacity: 1.00; stroke-linecap: round; stroke-linejoin: round;" id="ezcGraphLine_89"/><path d=" M 166.6667,346.5168 L 166.6667,346.5168" style="fill: none; stroke: #75505b; stroke-width: 1; stroke-opacity: 1.00; stroke-linecap: round; stroke-linejoin: round;" id="ezcGraphLine_91"/><path d=" M 166.6667,346.5168 L 220.0000,339.2592" style="fill: none; stroke: #75505b; stroke-width: 1; stroke-opacity: 1.00; stroke-linecap: round; stroke-linejoin: round;" id="ezcGraphLine_93"/><path d=" M 220.0000,339.2592 L 273.3333,337.4448" style="fill: none; stroke: #75505b; stroke-width: 1; stroke-opacity: 1.00; stroke-linecap: round; stroke-linejoin: round;" id="ezcGraphLine_95"/><path d=" M 273.3333,337.4448 L 326.6667,324.7440" style="fill: none; stroke: #75505b; stroke-width: 1; stroke-opacity: 1.00; stroke-linecap: round; stroke-linejoin: round;" id="ezcGraphLine_97"/><path d=" M 326.6667,324.7440 L 433.3333,350.1456" style="fill: none; stroke: #75505b; stroke-width: 1; stroke-opacity: 1.00; stroke-linecap: round; stroke-linejoin: round;" id="ezcGraphLine_99"/><path d=" M 166.6667,221.9280 L 166.6667,221.9280" style="fill: none; stroke: #f57900; stroke-width: 1; stroke-opacity: 1.00; stroke-linecap: round; stroke-linejoin: round;" id="ezcGraphLine_101"/><path d=" M 166.6667,221.9280 L 220.0000,209.2272" style="fill: none; stroke: #f57900; stroke-width: 1; stroke-opacity: 1.00; stroke-linecap: round; stroke-linejoin: round;" id="ezcGraphLine_103"/><path d=" M 220.0000,209.2272 L 273.3333,158.4240" style="fill: none; stroke: #f57900; stroke-width: 1; stroke-opacity: 1.00; stroke-linecap: round; stroke-linejoin: round;" id="ezcGraphLine_105"/><path d=" M 273.3333,158.4240 L 326.6667,209.2272" style="fill: none; stroke: #f57900; stroke-width: 1; stroke-opacity: 1.00; stroke-linecap: round; stroke-linejoin: round;" id="ezcGraphLine_107"/><path d=" M 326.6667,209.2272 L 380.0000,273.9408" style="fill: none; stroke: #f57900; stroke-width: 1; stroke-opacity: 1.00; stroke-linecap: round; stroke-linejoin: round;" id="ezcGraphLine_109"/><path d=" M 380.0000,273.9408 L 433.3333,318.6960" style="fill: none; stroke: #f57900; stroke-width: 1; stroke-opacity: 1.00; stroke-linecap: round; stroke-linejoin: round;" id="ezcGraphLine_111"/><path d=" M 163.6667,260.6112 L 163.6667,254.6112 L 169.6667,254.6112 L 169.6667,260.6112 L 163.6667,260.6112 z " style="fill: #3465a4; fill-opacity: 1.00; stroke: none; cursor: pointer;" id="ezcGraphPolygon_113" onclick="top.location = 'https://bsd-hardware.info/?view=computers&amp;type=notebook&amp;f=mon_area&amp;v=90&amp;p=-1&amp;p=101'"/><path d=" M 217.0000,255.7728 L 217.0000,249.7728 L 223.0000,249.7728 L 223.0000,255.7728 L 217.0000,255.7728 z " style="fill: #3465a4; fill-opacity: 1.00; stroke: none; cursor: pointer;" id="ezcGraphPolygon_114" onclick="top.location = 'https://bsd-hardware.info/?view=computers&amp;type=notebook&amp;f=mon_area&amp;v=90&amp;p=-1&amp;p=103'"/><path d=" M 270.3333,273.3120 L 270.3333,267.3120 L 276.3333,267.3120 L 276.3333,273.3120 L 270.3333,273.3120 z " style="fill: #3465a4; fill-opacity: 1.00; stroke: none; cursor: pointer;" id="ezcGraphPolygon_115" onclick="top.location = 'https://bsd-hardware.info/?view=computers&amp;type=notebook&amp;f=mon_area&amp;v=90&amp;p=-1&amp;p=105'"/><path d=" M 323.6667,212.2272 L 323.6667,206.2272 L 329.6667,206.2272 L 329.6667,212.2272 L 323.6667,212.2272 z " style="fill: #3465a4; fill-opacity: 1.00; stroke: none; cursor: pointer;" id="ezcGraphPolygon_116" onclick="top.location = 'https://bsd-hardware.info/?view=computers&amp;type=notebook&amp;f=mon_area&amp;v=90&amp;p=-1&amp;p=107'"/><path d=" M 377.0000,125.7408 L 377.0000,119.7408 L 383.0000,119.7408 L 383.0000,125.7408 L 377.0000,125.7408 z " style="fill: #3465a4; fill-opacity: 1.00; stroke: none; cursor: pointer;" id="ezcGraphPolygon_117" onclick="top.location = 'https://bsd-hardware.info/?view=computers&amp;type=notebook&amp;f=mon_area&amp;v=90&amp;p=-1&amp;p=109'"/><path d=" M 430.3333,194.0832 L 430.3333,188.0832 L 436.3333,188.0832 L 436.3333,194.0832 L 430.3333,194.0832 z " style="fill: #3465a4; fill-opacity: 1.00; stroke: none; cursor: pointer;" id="ezcGraphPolygon_118" onclick="top.location = 'https://bsd-hardware.info/?view=computers&amp;type=notebook&amp;f=mon_area&amp;v=90&amp;p=-1&amp;p=113'"/><path d=" M 163.6667,207.3888 L 163.6667,201.3888 L 169.6667,201.3888 L 169.6667,207.3888 L 163.6667,207.3888 z " style="fill: #4e9a06; fill-opacity: 1.00; stroke: none; cursor: pointer;" id="ezcGraphPolygon_119" onclick="top.location = 'https://bsd-hardware.info/?view=computers&amp;type=notebook&amp;f=mon_area&amp;v=100&amp;p=-1&amp;p=101'"/><path d=" M 217.0000,212.2272 L 217.0000,206.2272 L 223.0000,206.2272 L 223.0000,212.2272 L 217.0000,212.2272 z " style="fill: #4e9a06; fill-opacity: 1.00; stroke: none; cursor: pointer;" id="ezcGraphPolygon_120" onclick="top.location = 'https://bsd-hardware.info/?view=computers&amp;type=notebook&amp;f=mon_area&amp;v=100&amp;p=-1&amp;p=103'"/><path d=" M 270.3333,273.3120 L 270.3333,267.3120 L 276.3333,267.3120 L 276.3333,273.3120 L 270.3333,273.3120 z " style="fill: #4e9a06; fill-opacity: 1.00; stroke: none; cursor: pointer;" id="ezcGraphPolygon_121" onclick="top.location = 'https://bsd-hardware.info/?view=computers&amp;type=notebook&amp;f=mon_area&amp;v=100&amp;p=-1&amp;p=105'"/><path d=" M 323.6667,241.2576 L 323.6667,235.2576 L 329.6667,235.2576 L 329.6667,241.2576 L 323.6667,241.2576 z " style="fill: #4e9a06; fill-opacity: 1.00; stroke: none; cursor: pointer;" id="ezcGraphPolygon_122" onclick="top.location = 'https://bsd-hardware.info/?view=computers&amp;type=notebook&amp;f=mon_area&amp;v=100&amp;p=-1&amp;p=107'"/><path d=" M 377.0000,234.0000 L 377.0000,228.0000 L 383.0000,228.0000 L 383.0000,234.0000 L 377.0000,234.0000 z " style="fill: #4e9a06; fill-opacity: 1.00; stroke: none; cursor: pointer;" id="ezcGraphPolygon_123" onclick="top.location = 'https://bsd-hardware.info/?view=computers&amp;type=notebook&amp;f=mon_area&amp;v=100&amp;p=-1&amp;p=109'"/><path d=" M 430.3333,226.1376 L 430.3333,220.1376 L 436.3333,220.1376 L 436.3333,226.1376 L 430.3333,226.1376 z " style="fill: #4e9a06; fill-opacity: 1.00; stroke: none; cursor: pointer;" id="ezcGraphPolygon_124" onclick="top.location = 'https://bsd-hardware.info/?view=computers&amp;type=notebook&amp;f=mon_area&amp;v=100&amp;p=-1&amp;p=113'"/><path d=" M 163.6667,331.9776 L 163.6667,325.9776 L 169.6667,325.9776 L 169.6667,331.9776 L 163.6667,331.9776 z " style="fill: #cc0000; fill-opacity: 1.00; stroke: none; cursor: pointer;" id="ezcGraphPolygon_125" onclick="top.location = 'https://bsd-hardware.info/?view=computers&amp;type=notebook&amp;f=mon_area&amp;v=350&amp;p=-1&amp;p=101'"/><path d=" M 270.3333,340.4448 L 270.3333,334.4448 L 276.3333,334.4448 L 276.3333,340.4448 L 270.3333,340.4448 z " style="fill: #cc0000; fill-opacity: 1.00; stroke: none; cursor: pointer;" id="ezcGraphPolygon_126" onclick="top.location = 'https://bsd-hardware.info/?view=computers&amp;type=notebook&amp;f=mon_area&amp;v=350&amp;p=-1&amp;p=105'"/><path d=" M 323.6667,356.1696 L 323.6667,350.1696 L 329.6667,350.1696 L 329.6667,356.1696 L 323.6667,356.1696 z " style="fill: #cc0000; fill-opacity: 1.00; stroke: none; cursor: pointer;" id="ezcGraphPolygon_127" onclick="top.location = 'https://bsd-hardware.info/?view=computers&amp;type=notebook&amp;f=mon_area&amp;v=350&amp;p=-1&amp;p=107'"/><path d=" M 377.0000,342.2592 L 377.0000,336.2592 L 383.0000,336.2592 L 383.0000,342.2592 L 377.0000,342.2592 z " style="fill: #cc0000; fill-opacity: 1.00; stroke: none; cursor: pointer;" id="ezcGraphPolygon_128" onclick="top.location = 'https://bsd-hardware.info/?view=computers&amp;type=notebook&amp;f=mon_area&amp;v=350&amp;p=-1&amp;p=109'"/><path d=" M 430.3333,289.6416 L 430.3333,283.6416 L 436.3333,283.6416 L 436.3333,289.6416 L 430.3333,289.6416 z " style="fill: #cc0000; fill-opacity: 1.00; stroke: none; cursor: pointer;" id="ezcGraphPolygon_129" onclick="top.location = 'https://bsd-hardware.info/?view=computers&amp;type=notebook&amp;f=mon_area&amp;v=350&amp;p=-1&amp;p=113'"/><path d=" M 163.6667,331.9776 L 163.6667,325.9776 L 169.6667,325.9776 L 169.6667,331.9776 L 163.6667,331.9776 z " style="fill: #edd400; fill-opacity: 1.00; stroke: none; cursor: pointer;" id="ezcGraphPolygon_130" onclick="top.location = 'https://bsd-hardware.info/?view=computers&amp;type=notebook&amp;f=mon_area&amp;v=110&amp;p=-1&amp;p=101'"/><path d=" M 217.0000,298.7136 L 217.0000,292.7136 L 223.0000,292.7136 L 223.0000,298.7136 L 217.0000,298.7136 z " style="fill: #edd400; fill-opacity: 1.00; stroke: none; cursor: pointer;" id="ezcGraphPolygon_131" onclick="top.location = 'https://bsd-hardware.info/?view=computers&amp;type=notebook&amp;f=mon_area&amp;v=110&amp;p=-1&amp;p=103'"/><path d=" M 270.3333,318.0672 L 270.3333,312.0672 L 276.3333,312.0672 L 276.3333,318.0672 L 270.3333,318.0672 z " style="fill: #edd400; fill-opacity: 1.00; stroke: none; cursor: pointer;" id="ezcGraphPolygon_132" onclick="top.location = 'https://bsd-hardware.info/?view=computers&amp;type=notebook&amp;f=mon_area&amp;v=110&amp;p=-1&amp;p=105'"/><path d=" M 323.6667,356.1696 L 323.6667,350.1696 L 329.6667,350.1696 L 329.6667,356.1696 L 323.6667,356.1696 z " style="fill: #edd400; fill-opacity: 1.00; stroke: none; cursor: pointer;" id="ezcGraphPolygon_133" onclick="top.location = 'https://bsd-hardware.info/?view=computers&amp;type=notebook&amp;f=mon_area&amp;v=110&amp;p=-1&amp;p=107'"/><path d=" M 377.0000,342.2592 L 377.0000,336.2592 L 383.0000,336.2592 L 383.0000,342.2592 L 377.0000,342.2592 z " style="fill: #edd400; fill-opacity: 1.00; stroke: none; cursor: pointer;" id="ezcGraphPolygon_134" onclick="top.location = 'https://bsd-hardware.info/?view=computers&amp;type=notebook&amp;f=mon_area&amp;v=110&amp;p=-1&amp;p=109'"/><path d=" M 430.3333,321.6960 L 430.3333,315.6960 L 436.3333,315.6960 L 436.3333,321.6960 L 430.3333,321.6960 z " style="fill: #edd400; fill-opacity: 1.00; stroke: none; cursor: pointer;" id="ezcGraphPolygon_135" onclick="top.location = 'https://bsd-hardware.info/?view=computers&amp;type=notebook&amp;f=mon_area&amp;v=110&amp;p=-1&amp;p=113'"/><path d=" M 163.6667,349.5168 L 163.6667,343.5168 L 169.6667,343.5168 L 169.6667,349.5168 L 163.6667,349.5168 z " style="fill: #75505b; fill-opacity: 1.00; stroke: none; cursor: pointer;" id="ezcGraphPolygon_136" onclick="top.location = 'https://bsd-hardware.info/?view=computers&amp;type=notebook&amp;f=mon_area&amp;v=80&amp;p=-1&amp;p=101'"/><path d=" M 217.0000,342.2592 L 217.0000,336.2592 L 223.0000,336.2592 L 223.0000,342.2592 L 217.0000,342.2592 z " style="fill: #75505b; fill-opacity: 1.00; stroke: none; cursor: pointer;" id="ezcGraphPolygon_137" onclick="top.location = 'https://bsd-hardware.info/?view=computers&amp;type=notebook&amp;f=mon_area&amp;v=80&amp;p=-1&amp;p=103'"/><path d=" M 270.3333,340.4448 L 270.3333,334.4448 L 276.3333,334.4448 L 276.3333,340.4448 L 270.3333,340.4448 z " style="fill: #75505b; fill-opacity: 1.00; stroke: none; cursor: pointer;" id="ezcGraphPolygon_138" onclick="top.location = 'https://bsd-hardware.info/?view=computers&amp;type=notebook&amp;f=mon_area&amp;v=80&amp;p=-1&amp;p=105'"/><path d=" M 323.6667,327.7440 L 323.6667,321.7440 L 329.6667,321.7440 L 329.6667,327.7440 L 323.6667,327.7440 z " style="fill: #75505b; fill-opacity: 1.00; stroke: none; cursor: pointer;" id="ezcGraphPolygon_139" onclick="top.location = 'https://bsd-hardware.info/?view=computers&amp;type=notebook&amp;f=mon_area&amp;v=80&amp;p=-1&amp;p=107'"/><path d=" M 430.3333,353.1456 L 430.3333,347.1456 L 436.3333,347.1456 L 436.3333,353.1456 L 430.3333,353.1456 z " style="fill: #75505b; fill-opacity: 1.00; stroke: none; cursor: pointer;" id="ezcGraphPolygon_140" onclick="top.location = 'https://bsd-hardware.info/?view=computers&amp;type=notebook&amp;f=mon_area&amp;v=80&amp;p=-1&amp;p=113'"/><path d=" M 163.6667,224.9280 L 163.6667,218.9280 L 169.6667,218.9280 L 169.6667,224.9280 L 163.6667,224.9280 z " style="fill: #f57900; fill-opacity: 1.00; stroke: none;" id="ezcGraphPolygon_141"/><path d=" M 217.0000,212.2272 L 217.0000,206.2272 L 223.0000,206.2272 L 223.0000,212.2272 L 217.0000,212.2272 z " style="fill: #f57900; fill-opacity: 1.00; stroke: none;" id="ezcGraphPolygon_142"/><path d=" M 270.3333,161.4240 L 270.3333,155.4240 L 276.3333,155.4240 L 276.3333,161.4240 L 270.3333,161.4240 z " style="fill: #f57900; fill-opacity: 1.00; stroke: none;" id="ezcGraphPolygon_143"/><path d=" M 323.6667,212.2272 L 323.6667,206.2272 L 329.6667,206.2272 L 329.6667,212.2272 L 323.6667,212.2272 z " style="fill: #f57900; fill-opacity: 1.00; stroke: none;" id="ezcGraphPolygon_144"/><path d=" M 377.0000,276.9408 L 377.0000,270.9408 L 383.0000,270.9408 L 383.0000,276.9408 L 377.0000,276.9408 z " style="fill: #f57900; fill-opacity: 1.00; stroke: none;" id="ezcGraphPolygon_145"/><path d=" M 430.3333,321.6960 L 430.3333,315.6960 L 436.3333,315.6960 L 436.3333,321.6960 L 430.3333,321.6960 z " style="fill: #f57900; fill-opacity: 1.00; stroke: none;" id="ezcGraphPolygon_146"/><g id="ezcGraphTextBox_3"><path d=" M 122.3000,42.0000 L 122.3000,0.5000 L 378.2000,0.5000 L 378.2000,42.0000 L 122.3000,42.0000 z " style="fill: #ffffff; fill-opacity: 0.00; stroke: none;" id="ezcGraphPolygon_147"/><text id="ezcGraphTextBox_3_text" x="122.8000" text-length="254.4000px" y="35.0000" style="font-size: 40px; font-family: 'Arial'; fill: #2e3436; fill-opacity: 1.00; stroke: none;">Monitor Area</text></g><g id="ezcGraphTextBox_6" style=" cursor: pointer;" onclick="top.location = 'https://bsd-hardware.info/?view=computers&amp;type=notebook&amp;f=mon_area&amp;v=90&amp;p=-1'"><path d=" M 16.5000,57.5000 L 16.5000,45.0000 L 82.1300,45.0000 L 82.1300,57.5000 L 16.5000,57.5000 z " style="fill: #ffffff; fill-opacity: 0.00; stroke: none;" id="ezcGraphPolygon_148"/><text id="ezcGraphTextBox_6_text" x="17.0000" text-length="64.1300px" y="54.8500" style="font-size: 11px; font-family: 'Arial'; fill: #2e3436; fill-opacity: 1.00; stroke: none;">81-90 inch&#xB2;</text></g><g id="ezcGraphTextBox_8" style=" cursor: pointer;" onclick="top.location = 'https://bsd-hardware.info/?view=computers&amp;type=notebook&amp;f=mon_area&amp;v=100&amp;p=-1'"><path d=" M 16.5000,75.5000 L 16.5000,63.0000 L 87.9600,63.0000 L 87.9600,75.5000 L 16.5000,75.5000 z " style="fill: #ffffff; fill-opacity: 0.00; stroke: none;" id="ezcGraphPolygon_149"/><text id="ezcGraphTextBox_8_text" x="17.0000" text-length="69.9600px" y="72.8500" style="font-size: 11px; font-family: 'Arial'; fill: #2e3436; fill-opacity: 1.00; stroke: none;">91-100 inch&#xB2;</text></g><g id="ezcGraphTextBox_10" style=" cursor: pointer;" onclick="top.location = 'https://bsd-hardware.info/?view=computers&amp;type=notebook&amp;f=mon_area&amp;v=350&amp;p=-1'"><path d=" M 16.5000,93.5000 L 16.5000,81.0000 L 93.7900,81.0000 L 93.7900,93.5000 L 16.5000,93.5000 z " style="fill: #ffffff; fill-opacity: 0.00; stroke: none;" id="ezcGraphPolygon_150"/><text id="ezcGraphTextBox_10_text" x="17.0000" text-length="75.7900px" y="90.8500" style="font-size: 11px; font-family: 'Arial'; fill: #2e3436; fill-opacity: 1.00; stroke: none;">301-350 inch&#xB2;</text></g><g id="ezcGraphTextBox_12" style=" cursor: pointer;" onclick="top.location = 'https://bsd-hardware.info/?view=computers&amp;type=notebook&amp;f=mon_area&amp;v=110&amp;p=-1'"><path d=" M 16.5000,111.5000 L 16.5000,99.0000 L 93.7900,99.0000 L 93.7900,111.5000 L 16.5000,111.5000 z " style="fill: #ffffff; fill-opacity: 0.00; stroke: none;" id="ezcGraphPolygon_151"/><text id="ezcGraphTextBox_12_text" x="17.0000" text-length="75.7900px" y="108.8500" style="font-size: 11px; font-family: 'Arial'; fill: #2e3436; fill-opacity: 1.00; stroke: none;">101-110 inch&#xB2;</text></g><g id="ezcGraphTextBox_14" style=" cursor: pointer;" onclick="top.location = 'https://bsd-hardware.info/?view=computers&amp;type=notebook&amp;f=mon_area&amp;v=80&amp;p=-1'"><path d=" M 16.5000,129.5000 L 16.5000,117.0000 L 82.1300,117.0000 L 82.1300,129.5000 L 16.5000,129.5000 z " style="fill: #ffffff; fill-opacity: 0.00; stroke: none;" id="ezcGraphPolygon_152"/><text id="ezcGraphTextBox_14_text" x="17.0000" text-length="64.1300px" y="126.8500" style="font-size: 11px; font-family: 'Arial'; fill: #2e3436; fill-opacity: 1.00; stroke: none;">71-80 inch&#xB2;</text></g><g id="ezcGraphTextBox_16"><path d=" M 16.5000,147.5000 L 16.5000,135.0000 L 52.9800,135.0000 L 52.9800,147.5000 L 16.5000,147.5000 z " style="fill: #ffffff; fill-opacity: 0.00; stroke: none;" id="ezcGraphPolygon_153"/><text id="ezcGraphTextBox_16_text" x="17.0000" text-length="34.9800px" y="144.8500" style="font-size: 11px; font-family: 'Arial'; fill: #2e3436; fill-opacity: 1.00; stroke: none;">Others</text></g><g id="ezcGraphTextBox_19" transform="rotate( 0.00 493.0000 375.2000 )"><path d=" M 460.4000,381.2000 L 460.4000,365.7000 L 499.0000,365.7000 L 499.0000,381.2000 L 460.4000,381.2000 z " style="fill: #ffffff; fill-opacity: 0.00; stroke: none;" id="ezcGraphPolygon_154"/><text id="ezcGraphTextBox_19_text" x="460.9000" text-length="37.1000px" y="378.1000" style="font-size: 14px; font-family: 'Arial'; fill: #2e3436; fill-opacity: 1.00; stroke: none;">Time </text></g><g id="ezcGraphTextBox_20"><path d=" M 148.8067,413.3000 L 148.8067,383.7000 L 185.0267,383.7000 L 185.0267,413.3000 L 148.8067,413.3000 z " style="fill: #ffffff; fill-opacity: 0.00; stroke: none;" id="ezcGraphPolygon_155"/><text id="ezcGraphTextBox_20_text" x="155.5367" text-length="22.2600px" y="396.1000" style="font-size: 14px; font-family: 'Arial'; fill: #2e3436; fill-opacity: 1.00; stroke: none;">May</text><text id="ezcGraphTextBox_20_text" x="149.3067" text-length="34.7200px" y="411.5000" style="font-size: 14px; font-family: 'Arial'; fill: #2e3436; fill-opacity: 1.00; stroke: none;">2022</text></g><g id="ezcGraphTextBox_23"><path d=" M 202.1400,413.3000 L 202.1400,383.7000 L 238.3600,383.7000 L 238.3600,413.3000 L 202.1400,413.3000 z " style="fill: #ffffff; fill-opacity: 0.00; stroke: none;" id="ezcGraphPolygon_156"/><text id="ezcGraphTextBox_23_text" x="208.8700" text-length="22.2600px" y="396.1000" style="font-size: 14px; font-family: 'Arial'; fill: #2e3436; fill-opacity: 1.00; stroke: none;">Jul</text><text id="ezcGraphTextBox_23_text" x="202.6400" text-length="34.7200px" y="411.5000" style="font-size: 14px; font-family: 'Arial'; fill: #2e3436; fill-opacity: 1.00; stroke: none;">2022</text></g><g id="ezcGraphTextBox_26"><path d=" M 255.4733,413.3000 L 255.4733,383.7000 L 291.6933,383.7000 L 291.6933,413.3000 L 255.4733,413.3000 z " style="fill: #ffffff; fill-opacity: 0.00; stroke: none;" id="ezcGraphPolygon_157"/><text id="ezcGraphTextBox_26_text" x="262.2033" text-length="22.2600px" y="396.1000" style="font-size: 14px; font-family: 'Arial'; fill: #2e3436; fill-opacity: 1.00; stroke: none;">Sep</text><text id="ezcGraphTextBox_26_text" x="255.9733" text-length="34.7200px" y="411.5000" style="font-size: 14px; font-family: 'Arial'; fill: #2e3436; fill-opacity: 1.00; stroke: none;">2022</text></g><g id="ezcGraphTextBox_29"><path d=" M 308.8067,413.3000 L 308.8067,383.7000 L 345.0267,383.7000 L 345.0267,413.3000 L 308.8067,413.3000 z " style="fill: #ffffff; fill-opacity: 0.00; stroke: none;" id="ezcGraphPolygon_158"/><text id="ezcGraphTextBox_29_text" x="315.5367" text-length="22.2600px" y="396.1000" style="font-size: 14px; font-family: 'Arial'; fill: #2e3436; fill-opacity: 1.00; stroke: none;">Nov</text><text id="ezcGraphTextBox_29_text" x="309.3067" text-length="34.7200px" y="411.5000" style="font-size: 14px; font-family: 'Arial'; fill: #2e3436; fill-opacity: 1.00; stroke: none;">2022</text></g><g id="ezcGraphTextBox_32"><path d=" M 362.1400,413.3000 L 362.1400,383.7000 L 398.3600,383.7000 L 398.3600,413.3000 L 362.1400,413.3000 z " style="fill: #ffffff; fill-opacity: 0.00; stroke: none;" id="ezcGraphPolygon_159"/><text id="ezcGraphTextBox_32_text" x="368.8700" text-length="22.2600px" y="396.1000" style="font-size: 14px; font-family: 'Arial'; fill: #2e3436; fill-opacity: 1.00; stroke: none;">Jan</text><text id="ezcGraphTextBox_32_text" x="362.6400" text-length="34.7200px" y="411.5000" style="font-size: 14px; font-family: 'Arial'; fill: #2e3436; fill-opacity: 1.00; stroke: none;">2023</text></g><g id="ezcGraphTextBox_35"><path d=" M 415.4733,413.3000 L 415.4733,383.7000 L 451.6933,383.7000 L 451.6933,413.3000 L 415.4733,413.3000 z " style="fill: #ffffff; fill-opacity: 0.00; stroke: none;" id="ezcGraphPolygon_160"/><text id="ezcGraphTextBox_35_text" x="422.2033" text-length="22.2600px" y="396.1000" style="font-size: 14px; font-family: 'Arial'; fill: #2e3436; fill-opacity: 1.00; stroke: none;">May</text><text id="ezcGraphTextBox_35_text" x="415.9733" text-length="34.7200px" y="411.5000" style="font-size: 14px; font-family: 'Arial'; fill: #2e3436; fill-opacity: 1.00; stroke: none;">2023</text></g><g id="ezcGraphTextBox_40" transform="rotate( 0.00 147.0000 49.0000 )"><path d=" M 141.5000,59.0000 L 141.5000,43.5000 L 380.4400,43.5000 L 380.4400,59.0000 L 141.5000,59.0000 z " style="fill: #ffffff; fill-opacity: 0.00; stroke: none;" id="ezcGraphPolygon_161"/><text id="ezcGraphTextBox_40_text" x="142.0000" text-length="237.4400px" y="55.9000" style="font-size: 14px; font-family: 'Arial'; fill: #2e3436; fill-opacity: 1.00; stroke: none;">Notebooks by "Monitor Area" in %</text></g><g id="ezcGraphTextBox_41"><path d=" M 128.8200,381.2000 L 128.8200,365.7000 L 139.0000,365.7000 L 139.0000,381.2000 L 128.8200,381.2000 z " style="fill: #ffffff; fill-opacity: 0.00; stroke: none;" id="ezcGraphPolygon_162"/><text id="ezcGraphTextBox_41_text" x="129.3200" text-length="8.6800px" y="378.1000" style="font-size: 14px; font-family: 'Arial'; fill: #2e3436; fill-opacity: 1.00; stroke: none;">0</text></g><g id="ezcGraphTextBox_44"><path d=" M 120.1400,96.8000 L 120.1400,81.3000 L 139.0000,81.3000 L 139.0000,96.8000 L 120.1400,96.8000 z " style="fill: #ffffff; fill-opacity: 0.00; stroke: none;" id="ezcGraphPolygon_163"/><text id="ezcGraphTextBox_44_text" x="120.6400" text-length="17.3600px" y="93.7000" style="font-size: 14px; font-family: 'Arial'; fill: #2e3436; fill-opacity: 1.00; stroke: none;">50</text></g><g id="ezcGraphTextBox_46"><path d=" M 153.7667,252.6112 L 153.7667,241.1112 L 180.0667,241.1112 L 180.0667,252.6112 L 153.7667,252.6112 z " style="fill: #ffffff; fill-opacity: 0.00; stroke: none;" id="ezcGraphPolygon_164"/><text id="ezcGraphTextBox_46_text" x="154.2667" text-length="24.8000px" y="250.1112" style="font-size: 10px; font-family: 'Arial'; fill: #2e3436; fill-opacity: 1.00; stroke: none;">20.6</text></g><g id="ezcGraphTextBox_48"><path d=" M 207.1000,247.7728 L 207.1000,236.2728 L 233.4000,236.2728 L 233.4000,247.7728 L 207.1000,247.7728 z " style="fill: #ffffff; fill-opacity: 0.00; stroke: none;" id="ezcGraphPolygon_165"/><text id="ezcGraphTextBox_48_text" x="207.6000" text-length="24.8000px" y="245.2728" style="font-size: 10px; font-family: 'Arial'; fill: #2e3436; fill-opacity: 1.00; stroke: none;">21.4</text></g><g id="ezcGraphTextBox_50"><path d=" M 260.4333,265.3120 L 260.4333,253.8120 L 286.7333,253.8120 L 286.7333,265.3120 L 260.4333,265.3120 z " style="fill: #ffffff; fill-opacity: 0.00; stroke: none;" id="ezcGraphPolygon_166"/><text id="ezcGraphTextBox_50_text" x="260.9333" text-length="24.8000px" y="262.8120" style="font-size: 10px; font-family: 'Arial'; fill: #2e3436; fill-opacity: 1.00; stroke: none;">18.5</text></g><g id="ezcGraphTextBox_52"><path d=" M 313.7667,204.2272 L 313.7667,192.7272 L 340.0667,192.7272 L 340.0667,204.2272 L 313.7667,204.2272 z " style="fill: #ffffff; fill-opacity: 0.00; stroke: none;" id="ezcGraphPolygon_167"/><text id="ezcGraphTextBox_52_text" x="314.2667" text-length="24.8000px" y="201.7272" style="font-size: 10px; font-family: 'Arial'; fill: #2e3436; fill-opacity: 1.00; stroke: none;">28.6</text></g><g id="ezcGraphTextBox_54"><path d=" M 367.1000,117.7408 L 367.1000,106.2408 L 393.4000,106.2408 L 393.4000,117.7408 L 367.1000,117.7408 z " style="fill: #ffffff; fill-opacity: 0.00; stroke: none;" id="ezcGraphPolygon_168"/><text id="ezcGraphTextBox_54_text" x="367.6000" text-length="24.8000px" y="115.2408" style="font-size: 10px; font-family: 'Arial'; fill: #2e3436; fill-opacity: 1.00; stroke: none;">42.9</text></g><g id="ezcGraphTextBox_56"><path d=" M 420.4333,186.0832 L 420.4333,174.5832 L 446.7333,174.5832 L 446.7333,186.0832 L 420.4333,186.0832 z " style="fill: #ffffff; fill-opacity: 0.00; stroke: none;" id="ezcGraphPolygon_169"/><text id="ezcGraphTextBox_56_text" x="420.9333" text-length="24.8000px" y="183.5832" style="font-size: 10px; font-family: 'Arial'; fill: #2e3436; fill-opacity: 1.00; stroke: none;">31.6</text></g><g id="ezcGraphTextBox_58"><path d=" M 153.7667,199.3888 L 153.7667,187.8888 L 180.0667,187.8888 L 180.0667,199.3888 L 153.7667,199.3888 z " style="fill: #ffffff; fill-opacity: 0.00; stroke: none;" id="ezcGraphPolygon_170"/><text id="ezcGraphTextBox_58_text" x="154.2667" text-length="24.8000px" y="196.8888" style="font-size: 10px; font-family: 'Arial'; fill: #2e3436; fill-opacity: 1.00; stroke: none;">29.4</text></g><g id="ezcGraphTextBox_60"><path d=" M 207.1000,204.2272 L 207.1000,192.7272 L 233.4000,192.7272 L 233.4000,204.2272 L 207.1000,204.2272 z " style="fill: #ffffff; fill-opacity: 0.00; stroke: none;" id="ezcGraphPolygon_171"/><text id="ezcGraphTextBox_60_text" x="207.6000" text-length="24.8000px" y="201.7272" style="font-size: 10px; font-family: 'Arial'; fill: #2e3436; fill-opacity: 1.00; stroke: none;">28.6</text></g><g id="ezcGraphTextBox_62"><path d=" M 260.4333,265.3120 L 260.4333,253.8120 L 286.7333,253.8120 L 286.7333,265.3120 L 260.4333,265.3120 z " style="fill: #ffffff; fill-opacity: 0.00; stroke: none;" id="ezcGraphPolygon_172"/><text id="ezcGraphTextBox_62_text" x="260.9333" text-length="24.8000px" y="262.8120" style="font-size: 10px; font-family: 'Arial'; fill: #2e3436; fill-opacity: 1.00; stroke: none;">18.5</text></g><g id="ezcGraphTextBox_64"><path d=" M 313.7667,233.2576 L 313.7667,221.7576 L 340.0667,221.7576 L 340.0667,233.2576 L 313.7667,233.2576 z " style="fill: #ffffff; fill-opacity: 0.00; stroke: none;" id="ezcGraphPolygon_173"/><text id="ezcGraphTextBox_64_text" x="314.2667" text-length="24.8000px" y="230.7576" style="font-size: 10px; font-family: 'Arial'; fill: #2e3436; fill-opacity: 1.00; stroke: none;">23.8</text></g><g id="ezcGraphTextBox_66"><path d=" M 373.3000,226.0000 L 373.3000,214.5000 L 387.2000,214.5000 L 387.2000,226.0000 L 373.3000,226.0000 z " style="fill: #ffffff; fill-opacity: 0.00; stroke: none;" id="ezcGraphPolygon_174"/><text id="ezcGraphTextBox_66_text" x="373.8000" text-length="12.4000px" y="223.5000" style="font-size: 10px; font-family: 'Arial'; fill: #2e3436; fill-opacity: 1.00; stroke: none;">25</text></g><g id="ezcGraphTextBox_68"><path d=" M 420.4333,218.1376 L 420.4333,206.6376 L 446.7333,206.6376 L 446.7333,218.1376 L 420.4333,218.1376 z " style="fill: #ffffff; fill-opacity: 0.00; stroke: none;" id="ezcGraphPolygon_175"/><text id="ezcGraphTextBox_68_text" x="420.9333" text-length="24.8000px" y="215.6376" style="font-size: 10px; font-family: 'Arial'; fill: #2e3436; fill-opacity: 1.00; stroke: none;">26.3</text></g><g id="ezcGraphTextBox_70"><path d=" M 156.8667,323.9776 L 156.8667,312.4776 L 176.9667,312.4776 L 176.9667,323.9776 L 156.8667,323.9776 z " style="fill: #ffffff; fill-opacity: 0.00; stroke: none;" id="ezcGraphPolygon_176"/><text id="ezcGraphTextBox_70_text" x="157.3667" text-length="18.6000px" y="321.4776" style="font-size: 10px; font-family: 'Arial'; fill: #2e3436; fill-opacity: 1.00; stroke: none;">8.8</text></g><g id="ezcGraphTextBox_72"><path d=" M 263.5333,332.4448 L 263.5333,320.9448 L 283.6333,320.9448 L 283.6333,332.4448 L 263.5333,332.4448 z " style="fill: #ffffff; fill-opacity: 0.00; stroke: none;" id="ezcGraphPolygon_177"/><text id="ezcGraphTextBox_72_text" x="264.0333" text-length="18.6000px" y="329.9448" style="font-size: 10px; font-family: 'Arial'; fill: #2e3436; fill-opacity: 1.00; stroke: none;">7.4</text></g><g id="ezcGraphTextBox_74"><path d=" M 316.8667,348.1696 L 316.8667,336.6696 L 336.9667,336.6696 L 336.9667,348.1696 L 316.8667,348.1696 z " style="fill: #ffffff; fill-opacity: 0.00; stroke: none;" id="ezcGraphPolygon_178"/><text id="ezcGraphTextBox_74_text" x="317.3667" text-length="18.6000px" y="345.6696" style="font-size: 10px; font-family: 'Arial'; fill: #2e3436; fill-opacity: 1.00; stroke: none;">4.8</text></g><g id="ezcGraphTextBox_76"><path d=" M 370.2000,334.2592 L 370.2000,322.7592 L 390.3000,322.7592 L 390.3000,334.2592 L 370.2000,334.2592 z " style="fill: #ffffff; fill-opacity: 0.00; stroke: none;" id="ezcGraphPolygon_179"/><text id="ezcGraphTextBox_76_text" x="370.7000" text-length="18.6000px" y="331.7592" style="font-size: 10px; font-family: 'Arial'; fill: #2e3436; fill-opacity: 1.00; stroke: none;">7.1</text></g><g id="ezcGraphTextBox_78"><path d=" M 420.4333,281.6416 L 420.4333,270.1416 L 446.7333,270.1416 L 446.7333,281.6416 L 420.4333,281.6416 z " style="fill: #ffffff; fill-opacity: 0.00; stroke: none;" id="ezcGraphPolygon_180"/><text id="ezcGraphTextBox_78_text" x="420.9333" text-length="24.8000px" y="279.1416" style="font-size: 10px; font-family: 'Arial'; fill: #2e3436; fill-opacity: 1.00; stroke: none;">15.8</text></g><g id="ezcGraphTextBox_80"><path d=" M 156.8667,323.9776 L 156.8667,312.4776 L 176.9667,312.4776 L 176.9667,323.9776 L 156.8667,323.9776 z " style="fill: #ffffff; fill-opacity: 0.00; stroke: none;" id="ezcGraphPolygon_181"/><text id="ezcGraphTextBox_80_text" x="157.3667" text-length="18.6000px" y="321.4776" style="font-size: 10px; font-family: 'Arial'; fill: #2e3436; fill-opacity: 1.00; stroke: none;">8.8</text></g><g id="ezcGraphTextBox_82"><path d=" M 207.1000,290.7136 L 207.1000,279.2136 L 233.4000,279.2136 L 233.4000,290.7136 L 207.1000,290.7136 z " style="fill: #ffffff; fill-opacity: 0.00; stroke: none;" id="ezcGraphPolygon_182"/><text id="ezcGraphTextBox_82_text" x="207.6000" text-length="24.8000px" y="288.2136" style="font-size: 10px; font-family: 'Arial'; fill: #2e3436; fill-opacity: 1.00; stroke: none;">14.3</text></g><g id="ezcGraphTextBox_84"><path d=" M 260.4333,310.0672 L 260.4333,298.5672 L 286.7333,298.5672 L 286.7333,310.0672 L 260.4333,310.0672 z " style="fill: #ffffff; fill-opacity: 0.00; stroke: none;" id="ezcGraphPolygon_183"/><text id="ezcGraphTextBox_84_text" x="260.9333" text-length="24.8000px" y="307.5672" style="font-size: 10px; font-family: 'Arial'; fill: #2e3436; fill-opacity: 1.00; stroke: none;">11.1</text></g><g id="ezcGraphTextBox_86"><path d=" M 316.8667,348.1696 L 316.8667,336.6696 L 336.9667,336.6696 L 336.9667,348.1696 L 316.8667,348.1696 z " style="fill: #ffffff; fill-opacity: 0.00; stroke: none;" id="ezcGraphPolygon_184"/><text id="ezcGraphTextBox_86_text" x="317.3667" text-length="18.6000px" y="345.6696" style="font-size: 10px; font-family: 'Arial'; fill: #2e3436; fill-opacity: 1.00; stroke: none;">4.8</text></g><g id="ezcGraphTextBox_88"><path d=" M 370.2000,334.2592 L 370.2000,322.7592 L 390.3000,322.7592 L 390.3000,334.2592 L 370.2000,334.2592 z " style="fill: #ffffff; fill-opacity: 0.00; stroke: none;" id="ezcGraphPolygon_185"/><text id="ezcGraphTextBox_88_text" x="370.7000" text-length="18.6000px" y="331.7592" style="font-size: 10px; font-family: 'Arial'; fill: #2e3436; fill-opacity: 1.00; stroke: none;">7.1</text></g><g id="ezcGraphTextBox_90"><path d=" M 420.4333,313.6960 L 420.4333,302.1960 L 446.7333,302.1960 L 446.7333,313.6960 L 420.4333,313.6960 z " style="fill: #ffffff; fill-opacity: 0.00; stroke: none;" id="ezcGraphPolygon_186"/><text id="ezcGraphTextBox_90_text" x="420.9333" text-length="24.8000px" y="311.1960" style="font-size: 10px; font-family: 'Arial'; fill: #2e3436; fill-opacity: 1.00; stroke: none;">10.5</text></g><g id="ezcGraphTextBox_92"><path d=" M 156.8667,341.5168 L 156.8667,330.0168 L 176.9667,330.0168 L 176.9667,341.5168 L 156.8667,341.5168 z " style="fill: #ffffff; fill-opacity: 0.00; stroke: none;" id="ezcGraphPolygon_187"/><text id="ezcGraphTextBox_92_text" x="157.3667" text-length="18.6000px" y="339.0168" style="font-size: 10px; font-family: 'Arial'; fill: #2e3436; fill-opacity: 1.00; stroke: none;">5.9</text></g><g id="ezcGraphTextBox_94"><path d=" M 210.2000,334.2592 L 210.2000,322.7592 L 230.3000,322.7592 L 230.3000,334.2592 L 210.2000,334.2592 z " style="fill: #ffffff; fill-opacity: 0.00; stroke: none;" id="ezcGraphPolygon_188"/><text id="ezcGraphTextBox_94_text" x="210.7000" text-length="18.6000px" y="331.7592" style="font-size: 10px; font-family: 'Arial'; fill: #2e3436; fill-opacity: 1.00; stroke: none;">7.1</text></g><g id="ezcGraphTextBox_96"><path d=" M 263.5333,332.4448 L 263.5333,320.9448 L 283.6333,320.9448 L 283.6333,332.4448 L 263.5333,332.4448 z " style="fill: #ffffff; fill-opacity: 0.00; stroke: none;" id="ezcGraphPolygon_189"/><text id="ezcGraphTextBox_96_text" x="264.0333" text-length="18.6000px" y="329.9448" style="font-size: 10px; font-family: 'Arial'; fill: #2e3436; fill-opacity: 1.00; stroke: none;">7.4</text></g><g id="ezcGraphTextBox_98"><path d=" M 316.8667,319.7440 L 316.8667,308.2440 L 336.9667,308.2440 L 336.9667,319.7440 L 316.8667,319.7440 z " style="fill: #ffffff; fill-opacity: 0.00; stroke: none;" id="ezcGraphPolygon_190"/><text id="ezcGraphTextBox_98_text" x="317.3667" text-length="18.6000px" y="317.2440" style="font-size: 10px; font-family: 'Arial'; fill: #2e3436; fill-opacity: 1.00; stroke: none;">9.5</text></g><g id="ezcGraphTextBox_100"><path d=" M 423.5333,345.1456 L 423.5333,333.6456 L 443.6333,333.6456 L 443.6333,345.1456 L 423.5333,345.1456 z " style="fill: #ffffff; fill-opacity: 0.00; stroke: none;" id="ezcGraphPolygon_191"/><text id="ezcGraphTextBox_100_text" x="424.0333" text-length="18.6000px" y="342.6456" style="font-size: 10px; font-family: 'Arial'; fill: #2e3436; fill-opacity: 1.00; stroke: none;">5.3</text></g><g id="ezcGraphTextBox_102"><path d=" M 153.7667,216.9280 L 153.7667,205.4280 L 180.0667,205.4280 L 180.0667,216.9280 L 153.7667,216.9280 z " style="fill: #ffffff; fill-opacity: 0.00; stroke: none;" id="ezcGraphPolygon_192"/><text id="ezcGraphTextBox_102_text" x="154.2667" text-length="24.8000px" y="214.4280" style="font-size: 10px; font-family: 'Arial'; fill: #2e3436; fill-opacity: 1.00; stroke: none;">26.5</text></g><g id="ezcGraphTextBox_104"><path d=" M 207.1000,204.2272 L 207.1000,192.7272 L 233.4000,192.7272 L 233.4000,204.2272 L 207.1000,204.2272 z " style="fill: #ffffff; fill-opacity: 0.00; stroke: none;" id="ezcGraphPolygon_193"/><text id="ezcGraphTextBox_104_text" x="207.6000" text-length="24.8000px" y="201.7272" style="font-size: 10px; font-family: 'Arial'; fill: #2e3436; fill-opacity: 1.00; stroke: none;">28.6</text></g><g id="ezcGraphTextBox_106"><path d=" M 266.6333,153.4240 L 266.6333,141.9240 L 280.5333,141.9240 L 280.5333,153.4240 L 266.6333,153.4240 z " style="fill: #ffffff; fill-opacity: 0.00; stroke: none;" id="ezcGraphPolygon_194"/><text id="ezcGraphTextBox_106_text" x="267.1333" text-length="12.4000px" y="150.9240" style="font-size: 10px; font-family: 'Arial'; fill: #2e3436; fill-opacity: 1.00; stroke: none;">37</text></g><g id="ezcGraphTextBox_108"><path d=" M 313.7667,204.2272 L 313.7667,192.7272 L 340.0667,192.7272 L 340.0667,204.2272 L 313.7667,204.2272 z " style="fill: #ffffff; fill-opacity: 0.00; stroke: none;" id="ezcGraphPolygon_195"/><text id="ezcGraphTextBox_108_text" x="314.2667" text-length="24.8000px" y="201.7272" style="font-size: 10px; font-family: 'Arial'; fill: #2e3436; fill-opacity: 1.00; stroke: none;">28.6</text></g><g id="ezcGraphTextBox_110"><path d=" M 367.1000,268.9408 L 367.1000,257.4408 L 393.4000,257.4408 L 393.4000,268.9408 L 367.1000,268.9408 z " style="fill: #ffffff; fill-opacity: 0.00; stroke: none;" id="ezcGraphPolygon_196"/><text id="ezcGraphTextBox_110_text" x="367.6000" text-length="24.8000px" y="266.4408" style="font-size: 10px; font-family: 'Arial'; fill: #2e3436; fill-opacity: 1.00; stroke: none;">17.9</text></g><g id="ezcGraphTextBox_112"><path d=" M 420.4333,313.6960 L 420.4333,302.1960 L 446.7333,302.1960 L 446.7333,313.6960 L 420.4333,313.6960 z " style="fill: #ffffff; fill-opacity: 0.00; stroke: none;" id="ezcGraphPolygon_197"/><text id="ezcGraphTextBox_112_text" x="420.9333" text-length="24.8000px" y="311.1960" style="font-size: 10px; font-family: 'Arial'; fill: #2e3436; fill-opacity: 1.00; stroke: none;">10.5</text></g></g></svg>
