<?xml version="1.0"?>
<svg xmlns="http://www.w3.org/2000/svg" width="500" height="420" version="1.0" id="ezcGraph"><defs/><g id="ezcGraphChart" color-rendering="optimizeQuality" shape-rendering="geometricPrecision" text-rendering="optimizeLegibility"><path d=" M 0.0000,420.0000 L 0.0000,0.0000 L 500.0000,0.0000 L 500.0000,420.0000 L 0.0000,420.0000 z " style="fill: #eeeeec; fill-opacity: 1.00; stroke: none;" id="ezcGraphPolygon_1"/><path d=" M 0.0000,42.0000 L 0.0000,0.0000 L 500.0000,0.0000 L 500.0000,42.0000 L 0.0000,42.0000 z " style="fill: #000000; fill-opacity: 0.00; stroke: none;" id="ezcGraphPolygon_2"/><path d="M 239.79,238.21 L 352.29,238.21 A 112.50,112.50 0 1,1 277.46,132.20 z" style="fill: #3465a4; fill-opacity: 1.00; stroke: none; cursor: pointer;" id="ezcGraphCircleSector_4" onclick="top.location = 'http://127.0.0.1/bsd-hardware.info/index.php?view=computers&amp;type=notebook&amp;f=snd_vendor&amp;v=Intel&amp;p=-1'"/><path d="M 239.08,238.71 L 351.79,238.71 A 112.00,112.00 0 1,1 276.82,132.51 z" style="fill: none; stroke: #1a3352; stroke-width: 1; stroke-opacity: 1.00; stroke-linecap: round; stroke-linejoin: round;" id="ezcGraphCircleSector_5"/><path d="M 250.00,231.00 L 287.67,125.00 A 112.50,112.50 0 0,1 337.27,160.00 z" style="fill: #4e9a06; fill-opacity: 1.00; stroke: none; cursor: pointer;" id="ezcGraphCircleSector_6" onclick="top.location = 'http://127.0.0.1/bsd-hardware.info/index.php?view=computers&amp;type=notebook&amp;f=snd_vendor&amp;v=Nvidia&amp;p=-1'"/><path d="M 251.07,229.49 L 287.98,125.63 A 112.00,112.00 0 0,1 336.56,159.93 z" style="fill: none; stroke: #274d03; stroke-width: 1; stroke-opacity: 1.00; stroke-linecap: round; stroke-linejoin: round;" id="ezcGraphCircleSector_7"/><path d="M 250.00,231.00 L 337.27,160.00 A 112.50,112.50 0 0,1 361.45,215.68 z" style="fill: #cc0000; fill-opacity: 1.00; stroke: none; cursor: pointer;" id="ezcGraphCircleSector_8" onclick="top.location = 'http://127.0.0.1/bsd-hardware.info/index.php?view=computers&amp;type=notebook&amp;f=snd_vendor&amp;v=AMD&amp;p=-1'"/><path d="M 251.70,230.26 L 337.20,160.71 A 112.00,112.00 0 0,1 360.89,215.25 z" style="fill: none; stroke: #660000; stroke-width: 1; stroke-opacity: 1.00; stroke-linecap: round; stroke-linejoin: round;" id="ezcGraphCircleSector_9"/><path d="M 250.00,231.00 L 361.45,215.68 A 112.50,112.50 0 0,1 362.50,231.00 z" style="fill: #edd400; fill-opacity: 1.00; stroke: none; cursor: pointer;" id="ezcGraphCircleSector_10" onclick="top.location = 'http://127.0.0.1/bsd-hardware.info/index.php?view=computers&amp;type=notebook&amp;f=snd_vendor&amp;v=Texas+Instruments&amp;p=-1'"/><path d="M 257.31,230.50 L 361.02,216.24 A 112.00,112.00 0 0,1 362.00,230.50 z" style="fill: none; stroke: #776a00; stroke-width: 1; stroke-opacity: 1.00; stroke-linecap: round; stroke-linejoin: round;" id="ezcGraphCircleSector_11"/><path d=" M 171.7071,286.2652 L 147.1290,310.0000" style="fill: none; stroke: #000000; stroke-width: 1; stroke-opacity: 1.00; stroke-linecap: round; stroke-linejoin: round;" id="ezcGraphLine_12"/><ellipse cx="171.7071" cy="286.2652" rx="3.0000" ry="3.0000" style="fill: #000000; fill-opacity: 1.00; stroke: none;" id="ezcGraphCircle_13"/><ellipse cx="147.1290" cy="310.0000" rx="3.0000" ry="3.0000" style="fill: #000000; fill-opacity: 1.00; stroke: none;" id="ezcGraphCircle_14"/><path d=" M 298.0567,162.9192 L 326.8237,128.0000" style="fill: none; stroke: #000000; stroke-width: 1; stroke-opacity: 1.00; stroke-linecap: round; stroke-linejoin: round;" id="ezcGraphLine_16"/><ellipse cx="298.0567" cy="162.9192" rx="3.0000" ry="3.0000" style="fill: #000000; fill-opacity: 1.00; stroke: none;" id="ezcGraphCircle_17"/><ellipse cx="326.8237" cy="128.0000" rx="3.0000" ry="3.0000" style="fill: #000000; fill-opacity: 1.00; stroke: none;" id="ezcGraphCircle_18"/><path d=" M 326.4343,197.7999 L 370.5644,181.0000" style="fill: none; stroke: #000000; stroke-width: 1; stroke-opacity: 1.00; stroke-linecap: round; stroke-linejoin: round;" id="ezcGraphLine_20"/><ellipse cx="326.4343" cy="197.7999" rx="3.0000" ry="3.0000" style="fill: #000000; fill-opacity: 1.00; stroke: none;" id="ezcGraphCircle_21"/><ellipse cx="370.5644" cy="181.0000" rx="3.0000" ry="3.0000" style="fill: #000000; fill-opacity: 1.00; stroke: none;" id="ezcGraphCircle_22"/><path d=" M 333.1391,225.3131 L 380.6756,222.0000" style="fill: none; stroke: #000000; stroke-width: 1; stroke-opacity: 1.00; stroke-linecap: round; stroke-linejoin: round;" id="ezcGraphLine_24"/><ellipse cx="333.1391" cy="225.3131" rx="3.0000" ry="3.0000" style="fill: #000000; fill-opacity: 1.00; stroke: none;" id="ezcGraphCircle_25"/><ellipse cx="380.6756" cy="222.0000" rx="3.0000" ry="3.0000" style="fill: #000000; fill-opacity: 1.00; stroke: none;" id="ezcGraphCircle_26"/><g id="ezcGraphTextBox_3"><path d=" M 122.3000,42.0000 L 122.3000,0.5000 L 378.2000,0.5000 L 378.2000,42.0000 L 122.3000,42.0000 z " style="fill: #ffffff; fill-opacity: 0.00; stroke: none;" id="ezcGraphPolygon_28"/><text id="ezcGraphTextBox_3_text" x="122.8000" text-length="254.4000px" y="35.0000" style="font-size: 40px; font-family: 'Arial'; fill: #2e3436; fill-opacity: 1.00; stroke: none;">Sound Vendor</text></g><g id="ezcGraphTextBox_15" style=" cursor: pointer;" onclick="top.location = 'http://127.0.0.1/bsd-hardware.info/index.php?view=computers&amp;type=notebook&amp;f=snd_vendor&amp;v=Intel&amp;p=-1'"><path d=" M 52.4370,317.4000 L 52.4370,303.1000 L 142.1290,303.1000 L 142.1290,317.4000 L 52.4370,317.4000 z " style="fill: #ffffff; fill-opacity: 0.00; stroke: none;" id="ezcGraphPolygon_29"/><text id="ezcGraphTextBox_15_text" x="52.9370" text-length="88.1920px" y="314.4800" style="font-size: 12px; font-family: 'Arial'; fill: #2e3436; fill-opacity: 1.00; stroke: none;">Intel (80.4%)</text></g><g id="ezcGraphTextBox_19" style=" cursor: pointer;" onclick="top.location = 'http://127.0.0.1/bsd-hardware.info/index.php?view=computers&amp;type=notebook&amp;f=snd_vendor&amp;v=Nvidia&amp;p=-1'"><path d=" M 332.3237,135.4000 L 332.3237,121.1000 L 422.0157,121.1000 L 422.0157,135.4000 L 332.3237,135.4000 z " style="fill: #ffffff; fill-opacity: 0.00; stroke: none;" id="ezcGraphPolygon_30"/><text id="ezcGraphTextBox_19_text" x="332.8237" text-length="88.1920px" y="132.4800" style="font-size: 12px; font-family: 'Arial'; fill: #2e3436; fill-opacity: 1.00; stroke: none;">Nvidia (8.7%)</text></g><g id="ezcGraphTextBox_23" style=" cursor: pointer;" onclick="top.location = 'http://127.0.0.1/bsd-hardware.info/index.php?view=computers&amp;type=notebook&amp;f=snd_vendor&amp;v=AMD&amp;p=-1'"><path d=" M 376.0644,188.4000 L 376.0644,174.1000 L 445.4044,174.1000 L 445.4044,188.4000 L 376.0644,188.4000 z " style="fill: #ffffff; fill-opacity: 0.00; stroke: none;" id="ezcGraphPolygon_31"/><text id="ezcGraphTextBox_23_text" x="376.5644" text-length="67.8400px" y="185.4800" style="font-size: 12px; font-family: 'Arial'; fill: #2e3436; fill-opacity: 1.00; stroke: none;">AMD (8.7%)</text></g><g id="ezcGraphTextBox_27" style=" cursor: pointer;" onclick="top.location = 'http://127.0.0.1/bsd-hardware.info/index.php?view=computers&amp;type=notebook&amp;f=snd_vendor&amp;v=Texas+Instruments&amp;p=-1'"><path d=" M 386.1756,235.8500 L 386.1756,208.6500 L 496.2196,208.6500 L 496.2196,235.8500 L 386.1756,235.8500 z " style="fill: #ffffff; fill-opacity: 0.00; stroke: none;" id="ezcGraphPolygon_32"/><text id="ezcGraphTextBox_27_text" x="386.6756" text-length="108.5440px" y="220.0300" style="font-size: 12px; font-family: 'Arial'; fill: #2e3436; fill-opacity: 1.00; stroke: none;">Texas Instrum...</text><text id="ezcGraphTextBox_27_text" x="386.6756" text-length="40.7040px" y="234.1100" style="font-size: 12px; font-family: 'Arial'; fill: #2e3436; fill-opacity: 1.00; stroke: none;">(2.2%)</text></g></g></svg>
