<?xml version="1.0"?>
<svg xmlns="http://www.w3.org/2000/svg" width="500" height="420" version="1.0" id="ezcGraph"><defs/><g id="ezcGraphChart" color-rendering="optimizeQuality" shape-rendering="geometricPrecision" text-rendering="optimizeLegibility"><path d=" M 0.0000,420.0000 L 0.0000,0.0000 L 500.0000,0.0000 L 500.0000,420.0000 L 0.0000,420.0000 z " style="fill: #eeeeec; fill-opacity: 1.00; stroke: none;" id="ezcGraphPolygon_1"/><path d=" M 0.0000,42.0000 L 0.0000,0.0000 L 500.0000,0.0000 L 500.0000,42.0000 L 0.0000,42.0000 z " style="fill: #000000; fill-opacity: 0.00; stroke: none;" id="ezcGraphPolygon_2"/><path d="M 262.19,233.75 L 374.69,233.75 A 112.50,112.50 0 0,1 363.84,281.96 z" style="fill: #3465a4; fill-opacity: 1.00; stroke: none; cursor: pointer;" id="ezcGraphCircleSector_4" onclick="top.location = 'http://127.0.0.1/bsd-hardware.info/index.php?view=computers&amp;f=gpu_model&amp;v=Intel+Xeon+E3-1200+v3%2F4th+Gen+Core+Processor+Integrated+Graphics+Controller&amp;p=-1'"/><path d="M 264.42,234.25 L 374.19,234.25 A 112.00,112.00 0 0,1 363.60,281.29 z" style="fill: none; stroke: #1a3352; stroke-width: 1; stroke-opacity: 1.00; stroke-linecap: round; stroke-linejoin: round;" id="ezcGraphCircleSector_5"/><path d="M 250.00,231.00 L 351.65,279.21 A 112.50,112.50 0 0,1 321.18,318.12 z" style="fill: #4e9a06; fill-opacity: 1.00; stroke: none; cursor: pointer;" id="ezcGraphCircleSector_6" onclick="top.location = 'http://127.0.0.1/bsd-hardware.info/index.php?view=computers&amp;f=gpu_model&amp;v=Intel+Atom%2FCeleron%2FPentium+Processor+x5-E8000%2FJ3xxx%2FN3xxx+Integrated+Graphics+Controller&amp;p=-1'"/><path d="M 251.79,232.40 L 350.98,279.45 A 112.00,112.00 0 0,1 321.25,317.41 z" style="fill: none; stroke: #274d03; stroke-width: 1; stroke-opacity: 1.00; stroke-linecap: round; stroke-linejoin: round;" id="ezcGraphCircleSector_7"/><path d="M 250.00,231.00 L 321.18,318.12 A 112.50,112.50 0 0,1 282.98,338.56 z" style="fill: #cc0000; fill-opacity: 1.00; stroke: none; cursor: pointer;" id="ezcGraphCircleSector_8" onclick="top.location = 'http://127.0.0.1/bsd-hardware.info/index.php?view=computers&amp;f=gpu_model&amp;v=Intel+Atom+Processor+Z36xxx%2FZ37xxx+Series+Graphics+%26+Display&amp;p=-1'"/><path d="M 251.23,233.29 L 320.48,318.05 A 112.00,112.00 0 0,1 283.31,337.93 z" style="fill: none; stroke: #660000; stroke-width: 1; stroke-opacity: 1.00; stroke-linecap: round; stroke-linejoin: round;" id="ezcGraphCircleSector_9"/><path d="M 250.00,231.00 L 282.98,338.56 A 112.50,112.50 0 0,1 243.00,343.28 z" style="fill: #edd400; fill-opacity: 1.00; stroke: none; cursor: pointer;" id="ezcGraphCircleSector_10" onclick="top.location = 'http://127.0.0.1/bsd-hardware.info/index.php?view=computers&amp;f=gpu_model&amp;v=ASPEED+Technology+ASPEED+Graphics+Family&amp;p=-1'"/><path d="M 250.33,233.77 L 282.36,338.22 A 112.00,112.00 0 0,1 243.53,342.81 z" style="fill: none; stroke: #776a00; stroke-width: 1; stroke-opacity: 1.00; stroke-linecap: round; stroke-linejoin: round;" id="ezcGraphCircleSector_11"/><path d="M 250.00,231.00 L 243.00,343.28 A 112.50,112.50 0 0,1 209.66,336.02 z" style="fill: #75505b; fill-opacity: 1.00; stroke: none; cursor: pointer;" id="ezcGraphCircleSector_12" onclick="top.location = 'http://127.0.0.1/bsd-hardware.info/index.php?view=computers&amp;f=gpu_model&amp;v=Matrox+Electronics+Systems+MGA+G200eW+WPCM450&amp;p=-1'"/><path d="M 249.30,234.22 L 242.53,342.75 A 112.00,112.00 0 0,1 210.31,335.73 z" style="fill: none; stroke: #3b282e; stroke-width: 1; stroke-opacity: 1.00; stroke-linecap: round; stroke-linejoin: round;" id="ezcGraphCircleSector_13"/><path d="M 250.00,231.00 L 209.66,336.02 A 112.50,112.50 0 1,1 362.50,231.00 z" style="fill: #f57900; fill-opacity: 1.00; stroke: none;" id="ezcGraphCircleSector_14"/><path d="M 249.66,230.50 L 209.37,335.37 A 112.00,112.00 0 1,1 362.00,230.50 z" style="fill: none; stroke: #7b3d00; stroke-width: 1; stroke-opacity: 1.00; stroke-linecap: round; stroke-linejoin: round;" id="ezcGraphCircleSector_15"/><path d=" M 202.8074,162.3174 L 174.6530,127.0000" style="fill: none; stroke: #000000; stroke-width: 1; stroke-opacity: 1.00; stroke-linecap: round; stroke-linejoin: round;" id="ezcGraphLine_16"/><ellipse cx="202.8074" cy="162.3174" rx="3.0000" ry="3.0000" style="fill: #000000; fill-opacity: 1.00; stroke: none;" id="ezcGraphCircle_17"/><ellipse cx="174.6530" cy="127.0000" rx="3.0000" ry="3.0000" style="fill: #000000; fill-opacity: 1.00; stroke: none;" id="ezcGraphCircle_18"/><path d=" M 232.2606,312.4233 L 216.7787,353.0000" style="fill: none; stroke: #000000; stroke-width: 1; stroke-opacity: 1.00; stroke-linecap: round; stroke-linejoin: round;" id="ezcGraphLine_20"/><ellipse cx="232.2606" cy="312.4233" rx="3.0000" ry="3.0000" style="fill: #000000; fill-opacity: 1.00; stroke: none;" id="ezcGraphCircle_21"/><ellipse cx="216.7787" cy="353.0000" rx="3.0000" ry="3.0000" style="fill: #000000; fill-opacity: 1.00; stroke: none;" id="ezcGraphCircle_22"/><path d=" M 343.4934,252.0477 L 377.3466,261.0000" style="fill: none; stroke: #000000; stroke-width: 1; stroke-opacity: 1.00; stroke-linecap: round; stroke-linejoin: round;" id="ezcGraphLine_24"/><ellipse cx="343.4934" cy="252.0477" rx="3.0000" ry="3.0000" style="fill: #000000; fill-opacity: 1.00; stroke: none;" id="ezcGraphCircle_25"/><ellipse cx="377.3466" cy="261.0000" rx="3.0000" ry="3.0000" style="fill: #000000; fill-opacity: 1.00; stroke: none;" id="ezcGraphCircle_26"/><path d=" M 315.6123,282.3758 L 354.4683,308.0000" style="fill: none; stroke: #000000; stroke-width: 1; stroke-opacity: 1.00; stroke-linecap: round; stroke-linejoin: round;" id="ezcGraphLine_28"/><ellipse cx="315.6123" cy="282.3758" rx="3.0000" ry="3.0000" style="fill: #000000; fill-opacity: 1.00; stroke: none;" id="ezcGraphCircle_29"/><ellipse cx="354.4683" cy="308.0000" rx="3.0000" ry="3.0000" style="fill: #000000; fill-opacity: 1.00; stroke: none;" id="ezcGraphCircle_30"/><path d=" M 289.3148,304.4764 L 306.1473,345.5000" style="fill: none; stroke: #000000; stroke-width: 1; stroke-opacity: 1.00; stroke-linecap: round; stroke-linejoin: round;" id="ezcGraphLine_32"/><ellipse cx="289.3148" cy="304.4764" rx="3.0000" ry="3.0000" style="fill: #000000; fill-opacity: 1.00; stroke: none;" id="ezcGraphCircle_33"/><ellipse cx="306.1473" cy="345.5000" rx="3.0000" ry="3.0000" style="fill: #000000; fill-opacity: 1.00; stroke: none;" id="ezcGraphCircle_34"/><path d=" M 259.7805,313.7574 L 259.7805,383.0000" style="fill: none; stroke: #000000; stroke-width: 1; stroke-opacity: 1.00; stroke-linecap: round; stroke-linejoin: round;" id="ezcGraphLine_36"/><ellipse cx="259.7805" cy="313.7574" rx="3.0000" ry="3.0000" style="fill: #000000; fill-opacity: 1.00; stroke: none;" id="ezcGraphCircle_37"/><ellipse cx="259.7805" cy="383.0000" rx="3.0000" ry="3.0000" style="fill: #000000; fill-opacity: 1.00; stroke: none;" id="ezcGraphCircle_38"/><g id="ezcGraphTextBox_3"><path d=" M 154.1000,42.0000 L 154.1000,0.5000 L 346.4000,0.5000 L 346.4000,42.0000 L 154.1000,42.0000 z " style="fill: #ffffff; fill-opacity: 0.00; stroke: none;" id="ezcGraphPolygon_40"/><text id="ezcGraphTextBox_3_text" x="154.6000" text-length="190.8000px" y="35.0000" style="font-size: 40px; font-family: 'Arial'; fill: #2e3436; fill-opacity: 1.00; stroke: none;">GPU Model</text></g><g id="ezcGraphTextBox_19"><path d=" M 49.4330,136.0000 L 49.4330,118.5000 L 169.6530,118.5000 L 169.6530,136.0000 L 49.4330,136.0000 z " style="fill: #ffffff; fill-opacity: 0.00; stroke: none;" id="ezcGraphPolygon_41"/><text id="ezcGraphTextBox_19_text" x="49.9330" text-length="118.7200px" y="132.6000" style="font-size: 16px; font-family: 'Arial'; fill: #2e3436; fill-opacity: 1.00; stroke: none;">Others (69.2%)</text></g><g id="ezcGraphTextBox_23" style=" cursor: pointer;" onclick="top.location = 'http://127.0.0.1/bsd-hardware.info/index.php?view=computers&amp;f=gpu_model&amp;v=Matrox+Electronics+Systems+MGA+G200eW+WPCM450&amp;p=-1'"><path d=" M 74.5987,370.0500 L 74.5987,336.4500 L 211.7787,336.4500 L 211.7787,370.0500 L 74.5987,370.0500 z " style="fill: #ffffff; fill-opacity: 0.00; stroke: none;" id="ezcGraphPolygon_42"/><text id="ezcGraphTextBox_23_text" x="75.0987" text-length="135.6800px" y="350.5500" style="font-size: 16px; font-family: 'Arial'; fill: #2e3436; fill-opacity: 1.00; stroke: none;">MGA G200eW WP...</text><text id="ezcGraphTextBox_23_text" x="159.8987" text-length="50.8800px" y="368.1500" style="font-size: 16px; font-family: 'Arial'; fill: #2e3436; fill-opacity: 1.00; stroke: none;">(4.8%)</text></g><g id="ezcGraphTextBox_27" style=" cursor: pointer;" onclick="top.location = 'http://127.0.0.1/bsd-hardware.info/index.php?view=computers&amp;f=gpu_model&amp;v=Intel+Xeon+E3-1200+v3%2F4th+Gen+Core+Processor+Integrated+Graphics+Controller&amp;p=-1'"><path d=" M 382.8466,278.0500 L 382.8466,244.4500 L 486.1066,244.4500 L 486.1066,278.0500 L 382.8466,278.0500 z " style="fill: #ffffff; fill-opacity: 0.00; stroke: none;" id="ezcGraphPolygon_43"/><text id="ezcGraphTextBox_27_text" x="383.3466" text-length="101.7600px" y="258.5500" style="font-size: 16px; font-family: 'Arial'; fill: #2e3436; fill-opacity: 1.00; stroke: none;">Xeon E3-1200</text><text id="ezcGraphTextBox_27_text" x="383.3466" text-length="84.8000px" y="276.1500" style="font-size: 16px; font-family: 'Arial'; fill: #2e3436; fill-opacity: 1.00; stroke: none;">... (7.0%)</text></g><g id="ezcGraphTextBox_31" style=" cursor: pointer;" onclick="top.location = 'http://127.0.0.1/bsd-hardware.info/index.php?view=computers&amp;f=gpu_model&amp;v=Intel+Atom%2FCeleron%2FPentium+Processor+x5-E8000%2FJ3xxx%2FN3xxx+Integrated+Graphics+Controller&amp;p=-1'"><path d=" M 359.9683,325.0500 L 359.9683,291.4500 L 497.1483,291.4500 L 497.1483,325.0500 L 359.9683,325.0500 z " style="fill: #ffffff; fill-opacity: 0.00; stroke: none;" id="ezcGraphPolygon_44"/><text id="ezcGraphTextBox_31_text" x="360.4683" text-length="135.6800px" y="305.5500" style="font-size: 16px; font-family: 'Arial'; fill: #2e3436; fill-opacity: 1.00; stroke: none;">Atom/Celeron/...</text><text id="ezcGraphTextBox_31_text" x="360.4683" text-length="50.8800px" y="323.1500" style="font-size: 16px; font-family: 'Arial'; fill: #2e3436; fill-opacity: 1.00; stroke: none;">(7.0%)</text></g><g id="ezcGraphTextBox_35" style=" cursor: pointer;" onclick="top.location = 'http://127.0.0.1/bsd-hardware.info/index.php?view=computers&amp;f=gpu_model&amp;v=Intel+Atom+Processor+Z36xxx%2FZ37xxx+Series+Graphics+%26+Display&amp;p=-1'"><path d=" M 311.6473,362.5500 L 311.6473,328.9500 L 448.8273,328.9500 L 448.8273,362.5500 L 311.6473,362.5500 z " style="fill: #ffffff; fill-opacity: 0.00; stroke: none;" id="ezcGraphPolygon_45"/><text id="ezcGraphTextBox_35_text" x="312.1473" text-length="135.6800px" y="343.0500" style="font-size: 16px; font-family: 'Arial'; fill: #2e3436; fill-opacity: 1.00; stroke: none;">Atom Processo...</text><text id="ezcGraphTextBox_35_text" x="312.1473" text-length="50.8800px" y="360.6500" style="font-size: 16px; font-family: 'Arial'; fill: #2e3436; fill-opacity: 1.00; stroke: none;">(6.2%)</text></g><g id="ezcGraphTextBox_39" style=" cursor: pointer;" onclick="top.location = 'http://127.0.0.1/bsd-hardware.info/index.php?view=computers&amp;f=gpu_model&amp;v=ASPEED+Technology+ASPEED+Graphics+Family&amp;p=-1'"><path d=" M 265.2805,392.0000 L 265.2805,374.5000 L 461.8205,374.5000 L 461.8205,392.0000 L 265.2805,392.0000 z " style="fill: #ffffff; fill-opacity: 0.00; stroke: none;" id="ezcGraphPolygon_46"/><text id="ezcGraphTextBox_39_text" x="265.7805" text-length="195.0400px" y="388.6000" style="font-size: 16px; font-family: 'Arial'; fill: #2e3436; fill-opacity: 1.00; stroke: none;">ASPEED Graphi... (5.7%)</text></g></g></svg>
