<?xml version="1.0"?>
<svg xmlns="http://www.w3.org/2000/svg" width="500" height="420" version="1.0" id="ezcGraph"><defs/><g id="ezcGraphChart" color-rendering="optimizeQuality" shape-rendering="geometricPrecision" text-rendering="optimizeLegibility"><path d=" M 0.0000,420.0000 L 0.0000,0.0000 L 500.0000,0.0000 L 500.0000,420.0000 L 0.0000,420.0000 z " style="fill: #eeeeec; fill-opacity: 1.00; stroke: none;" id="ezcGraphPolygon_1"/><path d=" M 0.0000,42.0000 L 0.0000,0.0000 L 500.0000,0.0000 L 500.0000,42.0000 L 0.0000,42.0000 z " style="fill: #000000; fill-opacity: 0.00; stroke: none;" id="ezcGraphPolygon_2"/><path d="M 245.57,242.69 L 358.07,242.69 A 112.50,112.50 0 1,1 161.36,168.09 z" style="fill: #3465a4; fill-opacity: 1.00; stroke: none; cursor: pointer;" id="ezcGraphCircleSector_4" onclick="top.location = 'https://bsd-hardware.info/?view=computers&amp;type=notebook&amp;f=bt_vendor&amp;v=Intel&amp;p=-1'"/><path d="M 245.38,243.19 L 357.57,243.19 A 112.00,112.00 0 1,1 161.40,168.79 z" style="fill: none; stroke: #1a3352; stroke-width: 1; stroke-opacity: 1.00; stroke-linecap: round; stroke-linejoin: round;" id="ezcGraphCircleSector_5"/><path d="M 250.00,231.00 L 165.79,156.40 A 112.50,112.50 0 0,1 227.50,120.77 z" style="fill: #4e9a06; fill-opacity: 1.00; stroke: none; cursor: pointer;" id="ezcGraphCircleSector_6" onclick="top.location = 'https://bsd-hardware.info/?view=computers&amp;type=notebook&amp;f=bt_vendor&amp;v=Broadcom&amp;p=-1'"/><path d="M 249.21,229.63 L 166.50,156.36 A 112.00,112.00 0 0,1 227.11,121.36 z" style="fill: none; stroke: #274d03; stroke-width: 1; stroke-opacity: 1.00; stroke-linecap: round; stroke-linejoin: round;" id="ezcGraphCircleSector_7"/><path d="M 250.00,231.00 L 227.50,120.77 A 112.50,112.50 0 0,1 281.30,122.94 z" style="fill: #cc0000; fill-opacity: 1.00; stroke: none; cursor: pointer;" id="ezcGraphCircleSector_8" onclick="top.location = 'https://bsd-hardware.info/?view=computers&amp;type=notebook&amp;f=bt_vendor&amp;v=Realtek+Semiconductor&amp;p=-1'"/><path d="M 250.08,228.91 L 228.09,121.16 A 112.00,112.00 0 0,1 280.68,123.28 z" style="fill: none; stroke: #660000; stroke-width: 1; stroke-opacity: 1.00; stroke-linecap: round; stroke-linejoin: round;" id="ezcGraphCircleSector_9"/><path d="M 250.00,231.00 L 281.30,122.94 A 112.50,112.50 0 0,1 321.15,143.86 z" style="fill: #edd400; fill-opacity: 1.00; stroke: none; cursor: pointer;" id="ezcGraphCircleSector_10" onclick="top.location = 'https://bsd-hardware.info/?view=computers&amp;type=notebook&amp;f=bt_vendor&amp;v=Foxconn+%2F+Hon+Hai&amp;p=-1'"/><path d="M 251.16,228.79 L 281.64,123.56 A 112.00,112.00 0 0,1 320.45,143.93 z" style="fill: none; stroke: #776a00; stroke-width: 1; stroke-opacity: 1.00; stroke-linecap: round; stroke-linejoin: round;" id="ezcGraphCircleSector_11"/><path d="M 250.00,231.00 L 321.15,143.86 A 112.50,112.50 0 0,1 345.08,170.87 z" style="fill: #75505b; fill-opacity: 1.00; stroke: none; cursor: pointer;" id="ezcGraphCircleSector_12" onclick="top.location = 'https://bsd-hardware.info/?view=computers&amp;type=notebook&amp;f=bt_vendor&amp;v=Qualcomm+Atheros+Communications&amp;p=-1'"/><path d="M 252.33,228.93 L 321.22,144.56 A 112.00,112.00 0 0,1 344.39,170.72 z" style="fill: none; stroke: #3b282e; stroke-width: 1; stroke-opacity: 1.00; stroke-linecap: round; stroke-linejoin: round;" id="ezcGraphCircleSector_13"/><path d="M 250.00,231.00 L 345.08,170.87 A 112.50,112.50 0 0,1 362.50,231.00 z" style="fill: #f57900; fill-opacity: 1.00; stroke: none;" id="ezcGraphCircleSector_14"/><path d="M 251.73,230.50 L 344.93,171.56 A 112.00,112.00 0 0,1 362.00,230.50 z" style="fill: none; stroke: #7b3d00; stroke-width: 1; stroke-opacity: 1.00; stroke-linecap: round; stroke-linejoin: round;" id="ezcGraphCircleSector_15"/><path d=" M 208.3333,158.8312 L 182.8118,122.0000" style="fill: none; stroke: #000000; stroke-width: 1; stroke-opacity: 1.00; stroke-linecap: round; stroke-linejoin: round;" id="ezcGraphLine_16"/><ellipse cx="208.3333" cy="158.8312" rx="3.0000" ry="3.0000" style="fill: #000000; fill-opacity: 1.00; stroke: none;" id="ezcGraphCircle_17"/><ellipse cx="182.8118" cy="122.0000" rx="3.0000" ry="3.0000" style="fill: #000000; fill-opacity: 1.00; stroke: none;" id="ezcGraphCircle_18"/><path d=" M 216.0170,320.6057 L 216.0170,359.0000" style="fill: none; stroke: #000000; stroke-width: 1; stroke-opacity: 1.00; stroke-linecap: round; stroke-linejoin: round;" id="ezcGraphLine_20"/><ellipse cx="216.0170" cy="320.6057" rx="3.0000" ry="3.0000" style="fill: #000000; fill-opacity: 1.00; stroke: none;" id="ezcGraphCircle_21"/><ellipse cx="216.0170" cy="359.0000" rx="3.0000" ry="3.0000" style="fill: #000000; fill-opacity: 1.00; stroke: none;" id="ezcGraphCircle_22"/><path d=" M 253.3555,147.7343 L 256.0000,106.0000" style="fill: none; stroke: #000000; stroke-width: 1; stroke-opacity: 1.00; stroke-linecap: round; stroke-linejoin: round;" id="ezcGraphLine_24"/><ellipse cx="253.3555" cy="147.7343" rx="3.0000" ry="3.0000" style="fill: #000000; fill-opacity: 1.00; stroke: none;" id="ezcGraphCircle_25"/><ellipse cx="256.0000" cy="106.0000" rx="3.0000" ry="3.0000" style="fill: #000000; fill-opacity: 1.00; stroke: none;" id="ezcGraphCircle_26"/><path d=" M 288.7269,157.2120 L 345.2679,143.5000" style="fill: none; stroke: #000000; stroke-width: 1; stroke-opacity: 1.00; stroke-linecap: round; stroke-linejoin: round;" id="ezcGraphLine_28"/><ellipse cx="288.7269" cy="157.2120" rx="3.0000" ry="3.0000" style="fill: #000000; fill-opacity: 1.00; stroke: none;" id="ezcGraphCircle_29"/><ellipse cx="345.2679" cy="143.5000" rx="3.0000" ry="3.0000" style="fill: #000000; fill-opacity: 1.00; stroke: none;" id="ezcGraphCircle_30"/><path d=" M 312.3759,175.7398 L 370.5644,181.0000" style="fill: none; stroke: #000000; stroke-width: 1; stroke-opacity: 1.00; stroke-linecap: round; stroke-linejoin: round;" id="ezcGraphLine_32"/><ellipse cx="312.3759" cy="175.7398" rx="3.0000" ry="3.0000" style="fill: #000000; fill-opacity: 1.00; stroke: none;" id="ezcGraphCircle_33"/><ellipse cx="370.5644" cy="181.0000" rx="3.0000" ry="3.0000" style="fill: #000000; fill-opacity: 1.00; stroke: none;" id="ezcGraphCircle_34"/><path d=" M 330.0432,207.8152 L 380.3734,218.5000" style="fill: none; stroke: #000000; stroke-width: 1; stroke-opacity: 1.00; stroke-linecap: round; stroke-linejoin: round;" id="ezcGraphLine_36"/><ellipse cx="330.0432" cy="207.8152" rx="3.0000" ry="3.0000" style="fill: #000000; fill-opacity: 1.00; stroke: none;" id="ezcGraphCircle_37"/><ellipse cx="380.3734" cy="218.5000" rx="3.0000" ry="3.0000" style="fill: #000000; fill-opacity: 1.00; stroke: none;" id="ezcGraphCircle_38"/><g id="ezcGraphTextBox_3"><path d=" M 79.9000,42.0000 L 79.9000,0.5000 L 420.6000,0.5000 L 420.6000,42.0000 L 79.9000,42.0000 z " style="fill: #ffffff; fill-opacity: 0.00; stroke: none;" id="ezcGraphPolygon_40"/><text id="ezcGraphTextBox_3_text" x="80.4000" text-length="339.2000px" y="35.0000" style="font-size: 40px; font-family: 'Arial'; fill: #2e3436; fill-opacity: 1.00; stroke: none;">Bluetooth Vendor</text></g><g id="ezcGraphTextBox_19" style=" cursor: pointer;" onclick="top.location = 'https://bsd-hardware.info/?view=computers&amp;type=notebook&amp;f=bt_vendor&amp;v=Broadcom&amp;p=-1'"><path d=" M 40.6318,131.0000 L 40.6318,113.5000 L 177.8118,113.5000 L 177.8118,131.0000 L 40.6318,131.0000 z " style="fill: #ffffff; fill-opacity: 0.00; stroke: none;" id="ezcGraphPolygon_41"/><text id="ezcGraphTextBox_19_text" x="41.1318" text-length="135.6800px" y="127.6000" style="font-size: 16px; font-family: 'Arial'; fill: #2e3436; fill-opacity: 1.00; stroke: none;">Broadcom (10.3%)</text></g><g id="ezcGraphTextBox_23" style=" cursor: pointer;" onclick="top.location = 'https://bsd-hardware.info/?view=computers&amp;type=notebook&amp;f=bt_vendor&amp;v=Intel&amp;p=-1'"><path d=" M 99.2770,368.0000 L 99.2770,350.5000 L 211.0170,350.5000 L 211.0170,368.0000 L 99.2770,368.0000 z " style="fill: #ffffff; fill-opacity: 0.00; stroke: none;" id="ezcGraphPolygon_42"/><text id="ezcGraphTextBox_23_text" x="99.7770" text-length="110.2400px" y="364.6000" style="font-size: 16px; font-family: 'Arial'; fill: #2e3436; fill-opacity: 1.00; stroke: none;">Intel (61.5%)</text></g><g id="ezcGraphTextBox_27" style=" cursor: pointer;" onclick="top.location = 'https://bsd-hardware.info/?view=computers&amp;type=notebook&amp;f=bt_vendor&amp;v=Realtek+Semiconductor&amp;p=-1'"><path d=" M 261.5000,115.0000 L 261.5000,97.5000 L 458.0400,97.5000 L 458.0400,115.0000 L 261.5000,115.0000 z " style="fill: #ffffff; fill-opacity: 0.00; stroke: none;" id="ezcGraphPolygon_43"/><text id="ezcGraphTextBox_27_text" x="262.0000" text-length="195.0400px" y="111.6000" style="font-size: 16px; font-family: 'Arial'; fill: #2e3436; fill-opacity: 1.00; stroke: none;">Realtek Semic... (7.7%)</text></g><g id="ezcGraphTextBox_31" style=" cursor: pointer;" onclick="top.location = 'https://bsd-hardware.info/?view=computers&amp;type=notebook&amp;f=bt_vendor&amp;v=Foxconn+%2F+Hon+Hai&amp;p=-1'"><path d=" M 350.7679,160.5500 L 350.7679,126.9500 L 487.9479,126.9500 L 487.9479,160.5500 L 350.7679,160.5500 z " style="fill: #ffffff; fill-opacity: 0.00; stroke: none;" id="ezcGraphPolygon_44"/><text id="ezcGraphTextBox_31_text" x="351.2679" text-length="135.6800px" y="141.0500" style="font-size: 16px; font-family: 'Arial'; fill: #2e3436; fill-opacity: 1.00; stroke: none;">Foxconn / Hon...</text><text id="ezcGraphTextBox_31_text" x="351.2679" text-length="50.8800px" y="158.6500" style="font-size: 16px; font-family: 'Arial'; fill: #2e3436; fill-opacity: 1.00; stroke: none;">(6.4%)</text></g><g id="ezcGraphTextBox_35" style=" cursor: pointer;" onclick="top.location = 'https://bsd-hardware.info/?view=computers&amp;type=notebook&amp;f=bt_vendor&amp;v=Qualcomm+Atheros+Communications&amp;p=-1'"><path d=" M 376.0644,198.0500 L 376.0644,164.4500 L 496.2844,164.4500 L 496.2844,198.0500 L 376.0644,198.0500 z " style="fill: #ffffff; fill-opacity: 0.00; stroke: none;" id="ezcGraphPolygon_45"/><text id="ezcGraphTextBox_35_text" x="376.5644" text-length="67.8400px" y="178.5500" style="font-size: 16px; font-family: 'Arial'; fill: #2e3436; fill-opacity: 1.00; stroke: none;">Qualcomm</text><text id="ezcGraphTextBox_35_text" x="376.5644" text-length="118.7200px" y="196.1500" style="font-size: 16px; font-family: 'Arial'; fill: #2e3436; fill-opacity: 1.00; stroke: none;">Athe... (5.1%)</text></g><g id="ezcGraphTextBox_39"><path d=" M 385.8734,235.5500 L 385.8734,201.9500 L 438.2534,201.9500 L 438.2534,235.5500 L 385.8734,235.5500 z " style="fill: #ffffff; fill-opacity: 0.00; stroke: none;" id="ezcGraphPolygon_46"/><text id="ezcGraphTextBox_39_text" x="386.3734" text-length="50.8800px" y="216.0500" style="font-size: 16px; font-family: 'Arial'; fill: #2e3436; fill-opacity: 1.00; stroke: none;">Others</text><text id="ezcGraphTextBox_39_text" x="386.3734" text-length="50.8800px" y="233.6500" style="font-size: 16px; font-family: 'Arial'; fill: #2e3436; fill-opacity: 1.00; stroke: none;">(9.0%)</text></g></g></svg>
