<?xml version="1.0"?>
<svg xmlns="http://www.w3.org/2000/svg" width="500" height="420" version="1.0" id="ezcGraph"><defs/><g id="ezcGraphChart" color-rendering="optimizeQuality" shape-rendering="geometricPrecision" text-rendering="optimizeLegibility"><path d=" M 0.0000,420.0000 L 0.0000,0.0000 L 500.0000,0.0000 L 500.0000,420.0000 L 0.0000,420.0000 z " style="fill: #eeeeec; fill-opacity: 1.00; stroke: none;" id="ezcGraphPolygon_1"/><path d=" M 0.0000,42.0000 L 0.0000,0.0000 L 500.0000,0.0000 L 500.0000,42.0000 L 0.0000,42.0000 z " style="fill: #000000; fill-opacity: 0.00; stroke: none;" id="ezcGraphPolygon_2"/><path d="M 242.65,241.11 L 355.15,241.11 A 112.50,112.50 0 1,1 207.89,134.12 z" style="fill: #3465a4; fill-opacity: 1.00; stroke: none; cursor: pointer;" id="ezcGraphCircleSector_4" onclick="top.location = 'http://127.0.0.1/bsd-hardware.info/index.php?view=computers&amp;type=notebook&amp;f=drive_size&amp;v=0.5&amp;p=-1'"/><path d="M 242.29,241.61 L 354.65,241.61 A 112.00,112.00 0 1,1 207.57,134.75 z" style="fill: none; stroke: #1a3352; stroke-width: 1; stroke-opacity: 1.00; stroke-linecap: round; stroke-linejoin: round;" id="ezcGraphCircleSector_5"/><path d="M 250.00,231.00 L 215.24,124.01 A 112.50,112.50 0 0,1 355.33,191.47 z" style="fill: #4e9a06; fill-opacity: 1.00; stroke: none; cursor: pointer;" id="ezcGraphCircleSector_6" onclick="top.location = 'http://127.0.0.1/bsd-hardware.info/index.php?view=computers&amp;type=notebook&amp;f=drive_size&amp;v=1.0&amp;p=-1'"/><path d="M 250.31,230.35 L 215.87,124.33 A 112.00,112.00 0 0,1 354.68,191.18 z" style="fill: none; stroke: #274d03; stroke-width: 1; stroke-opacity: 1.00; stroke-linecap: round; stroke-linejoin: round;" id="ezcGraphCircleSector_7"/><path d="M 250.00,231.00 L 355.33,191.47 A 112.50,112.50 0 0,1 362.05,220.92 z" style="fill: #cc0000; fill-opacity: 1.00; stroke: none; cursor: pointer;" id="ezcGraphCircleSector_8" onclick="top.location = 'http://127.0.0.1/bsd-hardware.info/index.php?view=computers&amp;type=notebook&amp;f=drive_size&amp;v=2.0&amp;p=-1'"/><path d="M 253.63,230.17 L 355.03,192.11 A 112.00,112.00 0 0,1 361.50,220.46 z" style="fill: none; stroke: #660000; stroke-width: 1; stroke-opacity: 1.00; stroke-linecap: round; stroke-linejoin: round;" id="ezcGraphCircleSector_9"/><path d="M 250.00,231.00 L 362.05,220.92 A 112.50,112.50 0 0,1 362.50,231.00 z" style="fill: #edd400; fill-opacity: 1.00; stroke: none; cursor: pointer;" id="ezcGraphCircleSector_10" onclick="top.location = 'http://127.0.0.1/bsd-hardware.info/index.php?view=computers&amp;type=notebook&amp;f=drive_size&amp;v=3.0&amp;p=-1'"/><path d="M 261.13,230.50 L 361.59,221.46 A 112.00,112.00 0 0,1 362.00,230.50 z" style="fill: none; stroke: #776a00; stroke-width: 1; stroke-opacity: 1.00; stroke-linecap: round; stroke-linejoin: round;" id="ezcGraphCircleSector_11"/><path d=" M 193.6706,308.5308 L 186.5196,342.0000" style="fill: none; stroke: #000000; stroke-width: 1; stroke-opacity: 1.00; stroke-linecap: round; stroke-linejoin: round;" id="ezcGraphLine_12"/><ellipse cx="193.6706" cy="308.5308" rx="3.0000" ry="3.0000" style="fill: #000000; fill-opacity: 1.00; stroke: none;" id="ezcGraphCircle_13"/><ellipse cx="186.5196" cy="342.0000" rx="3.0000" ry="3.0000" style="fill: #000000; fill-opacity: 1.00; stroke: none;" id="ezcGraphCircle_14"/><path d=" M 286.1570,155.9193 L 309.4416,118.0000" style="fill: none; stroke: #000000; stroke-width: 1; stroke-opacity: 1.00; stroke-linecap: round; stroke-linejoin: round;" id="ezcGraphLine_16"/><ellipse cx="286.1570" cy="155.9193" rx="3.0000" ry="3.0000" style="fill: #000000; fill-opacity: 1.00; stroke: none;" id="ezcGraphCircle_17"/><ellipse cx="309.4416" cy="118.0000" rx="3.0000" ry="3.0000" style="fill: #000000; fill-opacity: 1.00; stroke: none;" id="ezcGraphCircle_18"/><path d=" M 331.2440,212.4566 L 377.8236,203.0000" style="fill: none; stroke: #000000; stroke-width: 1; stroke-opacity: 1.00; stroke-linecap: round; stroke-linejoin: round;" id="ezcGraphLine_20"/><ellipse cx="331.2440" cy="212.4566" rx="3.0000" ry="3.0000" style="fill: #000000; fill-opacity: 1.00; stroke: none;" id="ezcGraphCircle_21"/><ellipse cx="377.8236" cy="203.0000" rx="3.0000" ry="3.0000" style="fill: #000000; fill-opacity: 1.00; stroke: none;" id="ezcGraphCircle_22"/><path d=" M 333.2494,227.2613 L 380.6152,240.8000" style="fill: none; stroke: #000000; stroke-width: 1; stroke-opacity: 1.00; stroke-linecap: round; stroke-linejoin: round;" id="ezcGraphLine_24"/><ellipse cx="333.2494" cy="227.2613" rx="3.0000" ry="3.0000" style="fill: #000000; fill-opacity: 1.00; stroke: none;" id="ezcGraphCircle_25"/><ellipse cx="380.6152" cy="240.8000" rx="3.0000" ry="3.0000" style="fill: #000000; fill-opacity: 1.00; stroke: none;" id="ezcGraphCircle_26"/><g id="ezcGraphTextBox_3"><path d=" M 143.5000,42.0000 L 143.5000,0.5000 L 357.0000,0.5000 L 357.0000,42.0000 L 143.5000,42.0000 z " style="fill: #ffffff; fill-opacity: 0.00; stroke: none;" id="ezcGraphPolygon_28"/><text id="ezcGraphTextBox_3_text" x="144.0000" text-length="212.0000px" y="35.0000" style="font-size: 40px; font-family: 'Arial'; fill: #2e3436; fill-opacity: 1.00; stroke: none;">Drive Size</text></g><g id="ezcGraphTextBox_15" style=" cursor: pointer;" onclick="top.location = 'http://127.0.0.1/bsd-hardware.info/index.php?view=computers&amp;type=notebook&amp;f=drive_size&amp;v=0.5&amp;p=-1'"><path d=" M 0.7736,351.9000 L 0.7736,332.6000 L 181.5196,332.6000 L 181.5196,351.9000 L 0.7736,351.9000 z " style="fill: #ffffff; fill-opacity: 0.00; stroke: none;" id="ezcGraphPolygon_29"/><text id="ezcGraphTextBox_15_text" x="1.2736" text-length="179.2460px" y="348.2300" style="font-size: 17px; font-family: 'Arial'; fill: #2e3436; fill-opacity: 1.00; stroke: none;">0.01-0.5 TB (70.0%)</text></g><g id="ezcGraphTextBox_19" style=" cursor: pointer;" onclick="top.location = 'http://127.0.0.1/bsd-hardware.info/index.php?view=computers&amp;type=notebook&amp;f=drive_size&amp;v=1.0&amp;p=-1'"><path d=" M 314.9416,127.9000 L 314.9416,108.6000 L 495.6876,108.6000 L 495.6876,127.9000 L 314.9416,127.9000 z " style="fill: #ffffff; fill-opacity: 0.00; stroke: none;" id="ezcGraphPolygon_30"/><text id="ezcGraphTextBox_19_text" x="315.4416" text-length="179.2460px" y="124.2300" style="font-size: 17px; font-family: 'Arial'; fill: #2e3436; fill-opacity: 1.00; stroke: none;">0.51-1.0 TB (24.3%)</text></g><g id="ezcGraphTextBox_23" style=" cursor: pointer;" onclick="top.location = 'http://127.0.0.1/bsd-hardware.info/index.php?view=computers&amp;type=notebook&amp;f=drive_size&amp;v=2.0&amp;p=-1'"><path d=" M 383.3236,221.8500 L 383.3236,184.6500 L 488.5976,184.6500 L 488.5976,221.8500 L 383.3236,221.8500 z " style="fill: #ffffff; fill-opacity: 0.00; stroke: none;" id="ezcGraphPolygon_31"/><text id="ezcGraphTextBox_23_text" x="383.8236" text-length="103.7740px" y="200.2800" style="font-size: 17px; font-family: 'Arial'; fill: #2e3436; fill-opacity: 1.00; stroke: none;">1.01-2.0 TB</text><text id="ezcGraphTextBox_23_text" x="383.8236" text-length="56.6040px" y="219.8600" style="font-size: 17px; font-family: 'Arial'; fill: #2e3436; fill-opacity: 1.00; stroke: none;">(4.3%)</text></g><g id="ezcGraphTextBox_27" style=" cursor: pointer;" onclick="top.location = 'http://127.0.0.1/bsd-hardware.info/index.php?view=computers&amp;type=notebook&amp;f=drive_size&amp;v=3.0&amp;p=-1'"><path d=" M 386.1152,259.6500 L 386.1152,222.4500 L 491.3892,222.4500 L 491.3892,259.6500 L 386.1152,259.6500 z " style="fill: #ffffff; fill-opacity: 0.00; stroke: none;" id="ezcGraphPolygon_32"/><text id="ezcGraphTextBox_27_text" x="386.6152" text-length="103.7740px" y="238.0800" style="font-size: 17px; font-family: 'Arial'; fill: #2e3436; fill-opacity: 1.00; stroke: none;">2.01-3.0 TB</text><text id="ezcGraphTextBox_27_text" x="386.6152" text-length="56.6040px" y="257.6600" style="font-size: 17px; font-family: 'Arial'; fill: #2e3436; fill-opacity: 1.00; stroke: none;">(1.4%)</text></g></g></svg>
