<?xml version="1.0"?>
<svg xmlns="http://www.w3.org/2000/svg" width="500" height="420" version="1.0" id="ezcGraph"><defs/><g id="ezcGraphChart" color-rendering="optimizeQuality" shape-rendering="geometricPrecision" text-rendering="optimizeLegibility"><path d=" M 0.0000,420.0000 L 0.0000,0.0000 L 500.0000,0.0000 L 500.0000,420.0000 L 0.0000,420.0000 z " style="fill: #eeeeec; fill-opacity: 1.00; stroke: none;" id="ezcGraphPolygon_1"/><path d=" M 0.0000,42.0000 L 0.0000,0.0000 L 500.0000,0.0000 L 500.0000,42.0000 L 0.0000,42.0000 z " style="fill: #000000; fill-opacity: 0.00; stroke: none;" id="ezcGraphPolygon_2"/><path d="M 250.28,243.50 L 362.78,243.50 A 112.50,112.50 0 0,1 137.90,248.62 z" style="fill: #3465a4; fill-opacity: 1.00; stroke: none; cursor: pointer;" id="ezcGraphCircleSector_4" onclick="top.location = 'http://127.0.0.1/bsd-hardware.info/index.php?view=computers&amp;type=notebook&amp;f=gpu_combo&amp;v=1+x+Intel&amp;p=-1'"/><path d="M 250.30,244.00 L 362.28,244.00 A 112.00,112.00 0 0,1 138.42,249.09 z" style="fill: none; stroke: #1a3352; stroke-width: 1; stroke-opacity: 1.00; stroke-linecap: round; stroke-linejoin: round;" id="ezcGraphCircleSector_5"/><path d="M 250.00,231.00 L 137.62,236.12 A 112.50,112.50 0 0,1 193.75,133.57 z" style="fill: #4e9a06; fill-opacity: 1.00; stroke: none; cursor: pointer;" id="ezcGraphCircleSector_6" onclick="top.location = 'http://127.0.0.1/bsd-hardware.info/index.php?view=computers&amp;type=notebook&amp;f=gpu_combo&amp;v=1+x+Intel+%2B+1+x+Nvidia&amp;p=-1'"/><path d="M 249.16,230.54 L 138.09,235.60 A 112.00,112.00 0 0,1 193.57,134.26 z" style="fill: none; stroke: #274d03; stroke-width: 1; stroke-opacity: 1.00; stroke-linecap: round; stroke-linejoin: round;" id="ezcGraphCircleSector_7"/><path d="M 250.00,231.00 L 193.75,133.57 A 112.50,112.50 0 0,1 282.81,123.39 z" style="fill: #cc0000; fill-opacity: 1.00; stroke: none; cursor: pointer;" id="ezcGraphCircleSector_8" onclick="top.location = 'http://127.0.0.1/bsd-hardware.info/index.php?view=computers&amp;type=notebook&amp;f=gpu_combo&amp;v=1+x+AMD&amp;p=-1'"/><path d="M 249.86,229.75 L 194.43,133.76 A 112.00,112.00 0 0,1 282.19,123.72 z" style="fill: none; stroke: #660000; stroke-width: 1; stroke-opacity: 1.00; stroke-linecap: round; stroke-linejoin: round;" id="ezcGraphCircleSector_9"/><path d="M 250.00,231.00 L 282.81,123.39 A 112.50,112.50 0 0,1 326.79,148.78 z" style="fill: #edd400; fill-opacity: 1.00; stroke: none; cursor: pointer;" id="ezcGraphCircleSector_10" onclick="top.location = 'http://127.0.0.1/bsd-hardware.info/index.php?view=computers&amp;type=notebook&amp;f=gpu_combo&amp;v=2+x+Intel&amp;p=-1'"/><path d="M 251.11,229.08 L 283.14,124.01 A 112.00,112.00 0 0,1 326.08,148.81 z" style="fill: none; stroke: #776a00; stroke-width: 1; stroke-opacity: 1.00; stroke-linecap: round; stroke-linejoin: round;" id="ezcGraphCircleSector_11"/><path d="M 250.00,231.00 L 326.79,148.78 A 112.50,112.50 0 0,1 351.04,181.53 z" style="fill: #75505b; fill-opacity: 1.00; stroke: none; cursor: pointer;" id="ezcGraphCircleSector_12" onclick="top.location = 'http://127.0.0.1/bsd-hardware.info/index.php?view=computers&amp;type=notebook&amp;f=gpu_combo&amp;v=1+x+Nvidia&amp;p=-1'"/><path d="M 252.22,229.36 L 326.81,149.49 A 112.00,112.00 0 0,1 350.37,181.30 z" style="fill: none; stroke: #3b282e; stroke-width: 1; stroke-opacity: 1.00; stroke-linecap: round; stroke-linejoin: round;" id="ezcGraphCircleSector_13"/><path d="M 250.00,231.00 L 351.04,181.53 A 112.50,112.50 0 0,1 362.50,231.00 z" style="fill: #f57900; fill-opacity: 1.00; stroke: none;" id="ezcGraphCircleSector_14"/><path d="M 252.16,230.50 L 350.81,182.20 A 112.00,112.00 0 0,1 362.00,230.50 z" style="fill: none; stroke: #7b3d00; stroke-width: 1; stroke-opacity: 1.00; stroke-linecap: round; stroke-linejoin: round;" id="ezcGraphCircleSector_15"/><path d=" M 240.5350,148.2059 L 244.0000,106.0000" style="fill: none; stroke: #000000; stroke-width: 1; stroke-opacity: 1.00; stroke-linecap: round; stroke-linejoin: round;" id="ezcGraphLine_16"/><ellipse cx="240.5350" cy="148.2059" rx="3.0000" ry="3.0000" style="fill: #000000; fill-opacity: 1.00; stroke: none;" id="ezcGraphCircle_17"/><ellipse cx="244.0000" cy="106.0000" rx="3.0000" ry="3.0000" style="fill: #000000; fill-opacity: 1.00; stroke: none;" id="ezcGraphCircle_18"/><path d=" M 176.9014,190.9869 L 134.8945,170.0000" style="fill: none; stroke: #000000; stroke-width: 1; stroke-opacity: 1.00; stroke-linecap: round; stroke-linejoin: round;" id="ezcGraphLine_20"/><ellipse cx="176.9014" cy="190.9869" rx="3.0000" ry="3.0000" style="fill: #000000; fill-opacity: 1.00; stroke: none;" id="ezcGraphCircle_21"/><ellipse cx="134.8945" cy="170.0000" rx="3.0000" ry="3.0000" style="fill: #000000; fill-opacity: 1.00; stroke: none;" id="ezcGraphCircle_22"/><path d=" M 291.6667,158.8312 L 317.1882,122.0000" style="fill: none; stroke: #000000; stroke-width: 1; stroke-opacity: 1.00; stroke-linecap: round; stroke-linejoin: round;" id="ezcGraphLine_24"/><ellipse cx="291.6667" cy="158.8312" rx="3.0000" ry="3.0000" style="fill: #000000; fill-opacity: 1.00; stroke: none;" id="ezcGraphCircle_25"/><ellipse cx="317.1882" cy="122.0000" rx="3.0000" ry="3.0000" style="fill: #000000; fill-opacity: 1.00; stroke: none;" id="ezcGraphCircle_26"/><path d=" M 316.9693,181.4060 L 358.5317,159.5000" style="fill: none; stroke: #000000; stroke-width: 1; stroke-opacity: 1.00; stroke-linecap: round; stroke-linejoin: round;" id="ezcGraphLine_28"/><ellipse cx="316.9693" cy="181.4060" rx="3.0000" ry="3.0000" style="fill: #000000; fill-opacity: 1.00; stroke: none;" id="ezcGraphCircle_29"/><ellipse cx="358.5317" cy="159.5000" rx="3.0000" ry="3.0000" style="fill: #000000; fill-opacity: 1.00; stroke: none;" id="ezcGraphCircle_30"/><path d=" M 331.1833,212.1925 L 377.5895,202.0000" style="fill: none; stroke: #000000; stroke-width: 1; stroke-opacity: 1.00; stroke-linecap: round; stroke-linejoin: round;" id="ezcGraphLine_32"/><ellipse cx="331.1833" cy="212.1925" rx="3.0000" ry="3.0000" style="fill: #000000; fill-opacity: 1.00; stroke: none;" id="ezcGraphCircle_33"/><ellipse cx="377.5895" cy="202.0000" rx="3.0000" ry="3.0000" style="fill: #000000; fill-opacity: 1.00; stroke: none;" id="ezcGraphCircle_34"/><path d=" M 252.1815,326.8085 L 255.0000,368.0000" style="fill: none; stroke: #000000; stroke-width: 1; stroke-opacity: 1.00; stroke-linecap: round; stroke-linejoin: round;" id="ezcGraphLine_36"/><ellipse cx="252.1815" cy="326.8085" rx="3.0000" ry="3.0000" style="fill: #000000; fill-opacity: 1.00; stroke: none;" id="ezcGraphCircle_37"/><ellipse cx="255.0000" cy="368.0000" rx="3.0000" ry="3.0000" style="fill: #000000; fill-opacity: 1.00; stroke: none;" id="ezcGraphCircle_38"/><g id="ezcGraphTextBox_3"><path d=" M 154.1000,42.0000 L 154.1000,0.5000 L 346.4000,0.5000 L 346.4000,42.0000 L 154.1000,42.0000 z " style="fill: #ffffff; fill-opacity: 0.00; stroke: none;" id="ezcGraphPolygon_40"/><text id="ezcGraphTextBox_3_text" x="154.6000" text-length="190.8000px" y="35.0000" style="font-size: 40px; font-family: 'Arial'; fill: #2e3436; fill-opacity: 1.00; stroke: none;">GPU Combo</text></g><g id="ezcGraphTextBox_19" style=" cursor: pointer;" onclick="top.location = 'http://127.0.0.1/bsd-hardware.info/index.php?view=computers&amp;type=notebook&amp;f=gpu_combo&amp;v=1+x+AMD&amp;p=-1'"><path d=" M 106.3250,115.2500 L 106.3250,97.2500 L 239.0000,97.2500 L 239.0000,115.2500 L 106.3250,115.2500 z " style="fill: #ffffff; fill-opacity: 0.00; stroke: none;" id="ezcGraphPolygon_41"/><text id="ezcGraphTextBox_19_text" x="106.8250" text-length="131.1750px" y="111.7750" style="font-size: 16px; font-family: 'Arial'; fill: #2e3436; fill-opacity: 1.00; stroke: none;">1 x AMD (13.0%)</text></g><g id="ezcGraphTextBox_23" style=" cursor: pointer;" onclick="top.location = 'http://127.0.0.1/bsd-hardware.info/index.php?view=computers&amp;type=notebook&amp;f=gpu_combo&amp;v=1+x+Intel+%2B+1+x+Nvidia&amp;p=-1'"><path d=" M 5.9645,187.5500 L 5.9645,152.9500 L 129.8945,152.9500 L 129.8945,187.5500 L 5.9645,187.5500 z " style="fill: #ffffff; fill-opacity: 0.00; stroke: none;" id="ezcGraphPolygon_42"/><text id="ezcGraphTextBox_23_text" x="6.4645" text-length="122.4300px" y="167.4750" style="font-size: 16px; font-family: 'Arial'; fill: #2e3436; fill-opacity: 1.00; stroke: none;">Intel + Nvidia</text><text id="ezcGraphTextBox_23_text" x="67.6795" text-length="61.2150px" y="185.6250" style="font-size: 16px; font-family: 'Arial'; fill: #2e3436; fill-opacity: 1.00; stroke: none;">(17.4%)</text></g><g id="ezcGraphTextBox_27" style=" cursor: pointer;" onclick="top.location = 'http://127.0.0.1/bsd-hardware.info/index.php?view=computers&amp;type=notebook&amp;f=gpu_combo&amp;v=2+x+Intel&amp;p=-1'"><path d=" M 322.6882,131.2500 L 322.6882,113.2500 L 464.1082,113.2500 L 464.1082,131.2500 L 322.6882,131.2500 z " style="fill: #ffffff; fill-opacity: 0.00; stroke: none;" id="ezcGraphPolygon_43"/><text id="ezcGraphTextBox_27_text" x="323.1882" text-length="139.9200px" y="127.7750" style="font-size: 16px; font-family: 'Arial'; fill: #2e3436; fill-opacity: 1.00; stroke: none;">2 x Intel (7.2%)</text></g><g id="ezcGraphTextBox_31" style=" cursor: pointer;" onclick="top.location = 'http://127.0.0.1/bsd-hardware.info/index.php?view=computers&amp;type=notebook&amp;f=gpu_combo&amp;v=1+x+Nvidia&amp;p=-1'"><path d=" M 364.0317,177.0500 L 364.0317,142.4500 L 452.9817,142.4500 L 452.9817,177.0500 L 364.0317,177.0500 z " style="fill: #ffffff; fill-opacity: 0.00; stroke: none;" id="ezcGraphPolygon_44"/><text id="ezcGraphTextBox_31_text" x="364.5317" text-length="87.4500px" y="156.9750" style="font-size: 16px; font-family: 'Arial'; fill: #2e3436; fill-opacity: 1.00; stroke: none;">1 x Nvidia</text><text id="ezcGraphTextBox_31_text" x="364.5317" text-length="52.4700px" y="175.1250" style="font-size: 16px; font-family: 'Arial'; fill: #2e3436; fill-opacity: 1.00; stroke: none;">(5.8%)</text></g><g id="ezcGraphTextBox_35"><path d=" M 383.0895,219.5500 L 383.0895,184.9500 L 437.0595,184.9500 L 437.0595,219.5500 L 383.0895,219.5500 z " style="fill: #ffffff; fill-opacity: 0.00; stroke: none;" id="ezcGraphPolygon_45"/><text id="ezcGraphTextBox_35_text" x="383.5895" text-length="52.4700px" y="199.4750" style="font-size: 16px; font-family: 'Arial'; fill: #2e3436; fill-opacity: 1.00; stroke: none;">Others</text><text id="ezcGraphTextBox_35_text" x="383.5895" text-length="52.4700px" y="217.6250" style="font-size: 16px; font-family: 'Arial'; fill: #2e3436; fill-opacity: 1.00; stroke: none;">(7.2%)</text></g><g id="ezcGraphTextBox_39" style=" cursor: pointer;" onclick="top.location = 'http://127.0.0.1/bsd-hardware.info/index.php?view=computers&amp;type=notebook&amp;f=gpu_combo&amp;v=1+x+Intel&amp;p=-1'"><path d=" M 260.5000,377.2500 L 260.5000,359.2500 L 410.6650,359.2500 L 410.6650,377.2500 L 260.5000,377.2500 z " style="fill: #ffffff; fill-opacity: 0.00; stroke: none;" id="ezcGraphPolygon_46"/><text id="ezcGraphTextBox_39_text" x="261.0000" text-length="148.6650px" y="373.7750" style="font-size: 16px; font-family: 'Arial'; fill: #2e3436; fill-opacity: 1.00; stroke: none;">1 x Intel (49.3%)</text></g></g></svg>
