<?xml version="1.0"?>
<svg xmlns="http://www.w3.org/2000/svg" width="500" height="420" version="1.0" id="ezcGraph"><defs/><g id="ezcGraphChart" color-rendering="optimizeQuality" shape-rendering="geometricPrecision" text-rendering="optimizeLegibility"><path d=" M 0.0000,420.0000 L 0.0000,0.0000 L 500.0000,0.0000 L 500.0000,420.0000 L 0.0000,420.0000 z " style="fill: #eeeeec; fill-opacity: 1.00; stroke: none;" id="ezcGraphPolygon_1"/><path d=" M 0.0000,42.0000 L 0.0000,0.0000 L 500.0000,0.0000 L 500.0000,42.0000 L 0.0000,42.0000 z " style="fill: #000000; fill-opacity: 0.00; stroke: none;" id="ezcGraphPolygon_2"/><path d="M 252.48,243.25 L 364.98,243.25 A 112.50,112.50 0 0,1 148.86,287.04 z" style="fill: #3465a4; fill-opacity: 1.00; stroke: none; cursor: pointer;" id="ezcGraphCircleSector_4" onclick="top.location = 'https://bsd-hardware.info/?view=computers&amp;type=notebook&amp;f=mon_diagonal&amp;v=15&amp;p=-1'"/><path d="M 252.58,243.75 L 364.48,243.75 A 112.00,112.00 0 0,1 149.51,287.31 z" style="fill: none; stroke: #1a3352; stroke-width: 1; stroke-opacity: 1.00; stroke-linecap: round; stroke-linejoin: round;" id="ezcGraphCircleSector_5"/><path d="M 250.00,231.00 L 146.37,274.79 A 112.50,112.50 0 0,1 221.40,122.20 z" style="fill: #4e9a06; fill-opacity: 1.00; stroke: none; cursor: pointer;" id="ezcGraphCircleSector_6" onclick="top.location = 'https://bsd-hardware.info/?view=computers&amp;type=notebook&amp;f=mon_diagonal&amp;v=13&amp;p=-1'"/><path d="M 249.41,230.71 L 146.64,274.14 A 112.00,112.00 0 0,1 221.04,122.81 z" style="fill: none; stroke: #274d03; stroke-width: 1; stroke-opacity: 1.00; stroke-linecap: round; stroke-linejoin: round;" id="ezcGraphCircleSector_7"/><path d="M 250.00,231.00 L 221.40,122.20 A 112.50,112.50 0 0,1 272.34,120.74 z" style="fill: #cc0000; fill-opacity: 1.00; stroke: none; cursor: pointer;" id="ezcGraphCircleSector_8" onclick="top.location = 'https://bsd-hardware.info/?view=computers&amp;type=notebook&amp;f=mon_diagonal&amp;v=17&amp;p=-1'"/><path d="M 249.94,228.79 L 222.01,122.55 A 112.00,112.00 0 0,1 271.75,121.13 z" style="fill: none; stroke: #660000; stroke-width: 1; stroke-opacity: 1.00; stroke-linecap: round; stroke-linejoin: round;" id="ezcGraphCircleSector_9"/><path d="M 250.00,231.00 L 272.34,120.74 A 112.50,112.50 0 0,1 308.09,134.66 z" style="fill: #edd400; fill-opacity: 1.00; stroke: none; cursor: pointer;" id="ezcGraphCircleSector_10" onclick="top.location = 'https://bsd-hardware.info/?view=computers&amp;type=notebook&amp;f=mon_diagonal&amp;v=23&amp;p=-1'"/><path d="M 251.06,228.27 L 272.73,121.33 A 112.00,112.00 0 0,1 307.41,134.83 z" style="fill: none; stroke: #776a00; stroke-width: 1; stroke-opacity: 1.00; stroke-linecap: round; stroke-linejoin: round;" id="ezcGraphCircleSector_11"/><path d="M 250.00,231.00 L 308.09,134.66 A 112.50,112.50 0 0,1 337.09,159.79 z" style="fill: #75505b; fill-opacity: 1.00; stroke: none; cursor: pointer;" id="ezcGraphCircleSector_12" onclick="top.location = 'https://bsd-hardware.info/?view=computers&amp;type=notebook&amp;f=mon_diagonal&amp;v=12&amp;p=-1'"/><path d="M 251.92,228.78 L 308.26,135.35 A 112.00,112.00 0 0,1 336.39,159.72 z" style="fill: none; stroke: #3b282e; stroke-width: 1; stroke-opacity: 1.00; stroke-linecap: round; stroke-linejoin: round;" id="ezcGraphCircleSector_13"/><path d="M 250.00,231.00 L 337.09,159.79 A 112.50,112.50 0 0,1 362.50,231.00 z" style="fill: #f57900; fill-opacity: 1.00; stroke: none;" id="ezcGraphCircleSector_14"/><path d="M 251.40,230.50 L 337.02,160.49 A 112.00,112.00 0 0,1 362.00,230.50 z" style="fill: none; stroke: #7b3d00; stroke-width: 1; stroke-opacity: 1.00; stroke-linecap: round; stroke-linejoin: round;" id="ezcGraphCircleSector_15"/><path d=" M 247.6203,147.7007 L 244.0000,106.0000" style="fill: none; stroke: #000000; stroke-width: 1; stroke-opacity: 1.00; stroke-linecap: round; stroke-linejoin: round;" id="ezcGraphLine_16"/><ellipse cx="247.6203" cy="147.7007" rx="3.0000" ry="3.0000" style="fill: #000000; fill-opacity: 1.00; stroke: none;" id="ezcGraphCircle_17"/><ellipse cx="244.0000" cy="106.0000" rx="3.0000" ry="3.0000" style="fill: #000000; fill-opacity: 1.00; stroke: none;" id="ezcGraphCircle_18"/><path d=" M 175.2168,194.2316 L 132.2458,175.0000" style="fill: none; stroke: #000000; stroke-width: 1; stroke-opacity: 1.00; stroke-linecap: round; stroke-linejoin: round;" id="ezcGraphLine_20"/><ellipse cx="175.2168" cy="194.2316" rx="3.0000" ry="3.0000" style="fill: #000000; fill-opacity: 1.00; stroke: none;" id="ezcGraphCircle_21"/><ellipse cx="132.2458" cy="175.0000" rx="3.0000" ry="3.0000" style="fill: #000000; fill-opacity: 1.00; stroke: none;" id="ezcGraphCircle_22"/><path d=" M 280.2340,153.3447 L 300.0000,114.0000" style="fill: none; stroke: #000000; stroke-width: 1; stroke-opacity: 1.00; stroke-linecap: round; stroke-linejoin: round;" id="ezcGraphLine_24"/><ellipse cx="280.2340" cy="153.3447" rx="3.0000" ry="3.0000" style="fill: #000000; fill-opacity: 1.00; stroke: none;" id="ezcGraphCircle_25"/><ellipse cx="300.0000" cy="114.0000" rx="3.0000" ry="3.0000" style="fill: #000000; fill-opacity: 1.00; stroke: none;" id="ezcGraphCircle_26"/><path d=" M 304.5717,168.0209 L 352.4611,151.5000" style="fill: none; stroke: #000000; stroke-width: 1; stroke-opacity: 1.00; stroke-linecap: round; stroke-linejoin: round;" id="ezcGraphLine_28"/><ellipse cx="304.5717" cy="168.0209" rx="3.0000" ry="3.0000" style="fill: #000000; fill-opacity: 1.00; stroke: none;" id="ezcGraphCircle_29"/><ellipse cx="352.4611" cy="151.5000" rx="3.0000" ry="3.0000" style="fill: #000000; fill-opacity: 1.00; stroke: none;" id="ezcGraphCircle_30"/><path d=" M 328.4870,202.9959 L 373.7327,189.0000" style="fill: none; stroke: #000000; stroke-width: 1; stroke-opacity: 1.00; stroke-linecap: round; stroke-linejoin: round;" id="ezcGraphLine_32"/><ellipse cx="328.4870" cy="202.9959" rx="3.0000" ry="3.0000" style="fill: #000000; fill-opacity: 1.00; stroke: none;" id="ezcGraphCircle_33"/><ellipse cx="373.7327" cy="189.0000" rx="3.0000" ry="3.0000" style="fill: #000000; fill-opacity: 1.00; stroke: none;" id="ezcGraphCircle_34"/><path d=" M 269.0316,324.9246 L 269.0316,365.0000" style="fill: none; stroke: #000000; stroke-width: 1; stroke-opacity: 1.00; stroke-linecap: round; stroke-linejoin: round;" id="ezcGraphLine_36"/><ellipse cx="269.0316" cy="324.9246" rx="3.0000" ry="3.0000" style="fill: #000000; fill-opacity: 1.00; stroke: none;" id="ezcGraphCircle_37"/><ellipse cx="269.0316" cy="365.0000" rx="3.0000" ry="3.0000" style="fill: #000000; fill-opacity: 1.00; stroke: none;" id="ezcGraphCircle_38"/><g id="ezcGraphTextBox_3"><path d=" M 79.9000,42.0000 L 79.9000,0.5000 L 420.6000,0.5000 L 420.6000,42.0000 L 79.9000,42.0000 z " style="fill: #ffffff; fill-opacity: 0.00; stroke: none;" id="ezcGraphPolygon_40"/><text id="ezcGraphTextBox_3_text" x="80.4000" text-length="339.2000px" y="35.0000" style="font-size: 40px; font-family: 'Arial'; fill: #2e3436; fill-opacity: 1.00; stroke: none;">Monitor Diagonal</text></g><g id="ezcGraphTextBox_19" style=" cursor: pointer;" onclick="top.location = 'https://bsd-hardware.info/?view=computers&amp;type=notebook&amp;f=mon_diagonal&amp;v=17&amp;p=-1'"><path d=" M 111.3600,115.5000 L 111.3600,97.0000 L 239.0000,97.0000 L 239.0000,115.5000 L 111.3600,115.5000 z " style="fill: #ffffff; fill-opacity: 0.00; stroke: none;" id="ezcGraphPolygon_41"/><text id="ezcGraphTextBox_19_text" x="111.8600" text-length="126.1400px" y="111.9500" style="font-size: 17px; font-family: 'Arial'; fill: #2e3436; fill-opacity: 1.00; stroke: none;">17-inch (7.3%)</text></g><g id="ezcGraphTextBox_23" style=" cursor: pointer;" onclick="top.location = 'https://bsd-hardware.info/?view=computers&amp;type=notebook&amp;f=mon_diagonal&amp;v=13&amp;p=-1'"><path d=" M 62.6758,193.0500 L 62.6758,157.4500 L 127.2458,157.4500 L 127.2458,193.0500 L 62.6758,193.0500 z " style="fill: #ffffff; fill-opacity: 0.00; stroke: none;" id="ezcGraphPolygon_42"/><text id="ezcGraphTextBox_23_text" x="63.1758" text-length="63.0700px" y="172.4000" style="font-size: 17px; font-family: 'Arial'; fill: #2e3436; fill-opacity: 1.00; stroke: none;">13-inch</text><text id="ezcGraphTextBox_23_text" x="63.1758" text-length="63.0700px" y="191.1000" style="font-size: 17px; font-family: 'Arial'; fill: #2e3436; fill-opacity: 1.00; stroke: none;">(27.3%)</text></g><g id="ezcGraphTextBox_27" style=" cursor: pointer;" onclick="top.location = 'https://bsd-hardware.info/?view=computers&amp;type=notebook&amp;f=mon_diagonal&amp;v=23&amp;p=-1'"><path d=" M 305.5000,123.5000 L 305.5000,105.0000 L 433.1400,105.0000 L 433.1400,123.5000 L 305.5000,123.5000 z " style="fill: #ffffff; fill-opacity: 0.00; stroke: none;" id="ezcGraphPolygon_43"/><text id="ezcGraphTextBox_27_text" x="306.0000" text-length="126.1400px" y="119.9500" style="font-size: 17px; font-family: 'Arial'; fill: #2e3436; fill-opacity: 1.00; stroke: none;">23-inch (5.5%)</text></g><g id="ezcGraphTextBox_31" style=" cursor: pointer;" onclick="top.location = 'https://bsd-hardware.info/?view=computers&amp;type=notebook&amp;f=mon_diagonal&amp;v=12&amp;p=-1'"><path d=" M 357.9611,161.0000 L 357.9611,142.5000 L 485.6011,142.5000 L 485.6011,161.0000 L 357.9611,161.0000 z " style="fill: #ffffff; fill-opacity: 0.00; stroke: none;" id="ezcGraphPolygon_44"/><text id="ezcGraphTextBox_31_text" x="358.4611" text-length="126.1400px" y="157.4500" style="font-size: 17px; font-family: 'Arial'; fill: #2e3436; fill-opacity: 1.00; stroke: none;">12-inch (5.5%)</text></g><g id="ezcGraphTextBox_35"><path d=" M 379.2327,207.0500 L 379.2327,171.4500 L 443.8027,171.4500 L 443.8027,207.0500 L 379.2327,207.0500 z " style="fill: #ffffff; fill-opacity: 0.00; stroke: none;" id="ezcGraphPolygon_45"/><text id="ezcGraphTextBox_35_text" x="379.7327" text-length="54.0600px" y="186.4000" style="font-size: 17px; font-family: 'Arial'; fill: #2e3436; fill-opacity: 1.00; stroke: none;">Others</text><text id="ezcGraphTextBox_35_text" x="379.7327" text-length="63.0700px" y="205.1000" style="font-size: 17px; font-family: 'Arial'; fill: #2e3436; fill-opacity: 1.00; stroke: none;">(10.9%)</text></g><g id="ezcGraphTextBox_39" style=" cursor: pointer;" onclick="top.location = 'https://bsd-hardware.info/?view=computers&amp;type=notebook&amp;f=mon_diagonal&amp;v=15&amp;p=-1'"><path d=" M 274.5316,374.5000 L 274.5316,356.0000 L 411.1816,356.0000 L 411.1816,374.5000 L 274.5316,374.5000 z " style="fill: #ffffff; fill-opacity: 0.00; stroke: none;" id="ezcGraphPolygon_46"/><text id="ezcGraphTextBox_39_text" x="275.0316" text-length="135.1500px" y="370.9500" style="font-size: 17px; font-family: 'Arial'; fill: #2e3436; fill-opacity: 1.00; stroke: none;">15-inch (43.6%)</text></g></g></svg>
