<?xml version="1.0"?>
<svg xmlns="http://www.w3.org/2000/svg" width="500" height="420" version="1.0" id="ezcGraph"><defs/><g id="ezcGraphChart" color-rendering="optimizeQuality" shape-rendering="geometricPrecision" text-rendering="optimizeLegibility"><path d=" M 0.0000,420.0000 L 0.0000,0.0000 L 500.0000,0.0000 L 500.0000,420.0000 L 0.0000,420.0000 z " style="fill: #eeeeec; fill-opacity: 1.00; stroke: none;" id="ezcGraphPolygon_1"/><path d=" M 0.0000,42.0000 L 0.0000,0.0000 L 500.0000,0.0000 L 500.0000,42.0000 L 0.0000,42.0000 z " style="fill: #000000; fill-opacity: 0.00; stroke: none;" id="ezcGraphPolygon_2"/><path d="M 257.79,240.77 L 370.29,240.77 A 112.50,112.50 0 0,1 232.76,350.45 z" style="fill: #3465a4; fill-opacity: 1.00; stroke: none; cursor: pointer;" id="ezcGraphCircleSector_4" onclick="top.location = 'http://127.0.0.1/bsd-hardware.info/index.php?view=computers&amp;type=notebook&amp;f=net_ethernet_model&amp;v=Realtek+Semiconductor+RTL8111%2F8168%2F8411+PCI+Express+Gigabit+Ethernet+Controller&amp;p=-1'"/><path d="M 258.19,241.27 L 369.79,241.27 A 112.00,112.00 0 0,1 233.36,350.08 z" style="fill: none; stroke: #1a3352; stroke-width: 1; stroke-opacity: 1.00; stroke-linecap: round; stroke-linejoin: round;" id="ezcGraphCircleSector_5"/><path d="M 250.00,231.00 L 224.97,340.68 A 112.50,112.50 0 0,1 144.28,269.48 z" style="fill: #4e9a06; fill-opacity: 1.00; stroke: none; cursor: pointer;" id="ezcGraphCircleSector_6" onclick="top.location = 'http://127.0.0.1/bsd-hardware.info/index.php?view=computers&amp;type=notebook&amp;f=net_ethernet_model&amp;v=Realtek+Semiconductor+RTL810xE+PCI+Express+Fast+Ethernet+controller&amp;p=-1'"/><path d="M 249.31,231.78 L 224.59,340.08 A 112.00,112.00 0 0,1 144.93,269.78 z" style="fill: none; stroke: #274d03; stroke-width: 1; stroke-opacity: 1.00; stroke-linecap: round; stroke-linejoin: round;" id="ezcGraphCircleSector_7"/><path d="M 250.00,231.00 L 144.28,269.48 A 112.50,112.50 0 0,1 148.64,182.19 z" style="fill: #cc0000; fill-opacity: 1.00; stroke: none; cursor: pointer;" id="ezcGraphCircleSector_8" onclick="top.location = 'http://127.0.0.1/bsd-hardware.info/index.php?view=computers&amp;type=notebook&amp;f=net_ethernet_model&amp;v=Intel+82579LM+Gigabit+Network+Connection+%28Lewisville%29&amp;p=-1'"/><path d="M 248.71,230.94 L 144.58,268.84 A 112.00,112.00 0 0,1 148.87,182.86 z" style="fill: none; stroke: #660000; stroke-width: 1; stroke-opacity: 1.00; stroke-linecap: round; stroke-linejoin: round;" id="ezcGraphCircleSector_9"/><path d="M 250.00,231.00 L 148.64,182.19 A 112.50,112.50 0 0,1 167.53,154.48 z" style="fill: #edd400; fill-opacity: 1.00; stroke: none; cursor: pointer;" id="ezcGraphCircleSector_10" onclick="top.location = 'http://127.0.0.1/bsd-hardware.info/index.php?view=computers&amp;type=notebook&amp;f=net_ethernet_model&amp;v=Intel+82577LM+Gigabit+Network+Connection&amp;p=-1'"/><path d="M 247.23,229.11 L 149.31,181.95 A 112.00,112.00 0 0,1 167.56,155.19 z" style="fill: none; stroke: #776a00; stroke-width: 1; stroke-opacity: 1.00; stroke-linecap: round; stroke-linejoin: round;" id="ezcGraphCircleSector_11"/><path d="M 250.00,231.00 L 167.53,154.48 A 112.50,112.50 0 0,1 184.33,139.66 z" style="fill: #75505b; fill-opacity: 1.00; stroke: none; cursor: pointer;" id="ezcGraphCircleSector_12" onclick="top.location = 'http://127.0.0.1/bsd-hardware.info/index.php?view=computers&amp;type=notebook&amp;f=net_ethernet_model&amp;v=Qualcomm+ALCATEL+Composite+RNDIS+Interface&amp;p=-1'"/><path d="M 246.68,227.23 L 168.24,154.45 A 112.00,112.00 0 0,1 184.21,140.35 z" style="fill: none; stroke: #3b282e; stroke-width: 1; stroke-opacity: 1.00; stroke-linecap: round; stroke-linejoin: round;" id="ezcGraphCircleSector_13"/><path d="M 250.00,231.00 L 184.33,139.66 A 112.50,112.50 0 0,1 362.50,231.00 z" style="fill: #f57900; fill-opacity: 1.00; stroke: none;" id="ezcGraphCircleSector_14"/><path d="M 250.26,230.50 L 185.03,139.77 A 112.00,112.00 0 0,1 362.00,230.50 z" style="fill: none; stroke: #7b3d00; stroke-width: 1; stroke-opacity: 1.00; stroke-linecap: round; stroke-linejoin: round;" id="ezcGraphCircleSector_15"/><path d=" M 194.8595,168.5182 L 161.6046,137.0000" style="fill: none; stroke: #000000; stroke-width: 1; stroke-opacity: 1.00; stroke-linecap: round; stroke-linejoin: round;" id="ezcGraphLine_16"/><ellipse cx="194.8595" cy="168.5182" rx="3.0000" ry="3.0000" style="fill: #000000; fill-opacity: 1.00; stroke: none;" id="ezcGraphCircle_17"/><ellipse cx="161.6046" cy="137.0000" rx="3.0000" ry="3.0000" style="fill: #000000; fill-opacity: 1.00; stroke: none;" id="ezcGraphCircle_18"/><path d=" M 181.1468,184.0567 L 132.4978,174.5000" style="fill: none; stroke: #000000; stroke-width: 1; stroke-opacity: 1.00; stroke-linecap: round; stroke-linejoin: round;" id="ezcGraphLine_20"/><ellipse cx="181.1468" cy="184.0567" rx="3.0000" ry="3.0000" style="fill: #000000; fill-opacity: 1.00; stroke: none;" id="ezcGraphCircle_21"/><ellipse cx="132.4978" cy="174.5000" rx="3.0000" ry="3.0000" style="fill: #000000; fill-opacity: 1.00; stroke: none;" id="ezcGraphCircle_22"/><path d=" M 166.7703,226.8462 L 119.1962,224.0000" style="fill: none; stroke: #000000; stroke-width: 1; stroke-opacity: 1.00; stroke-linecap: round; stroke-linejoin: round;" id="ezcGraphLine_24"/><ellipse cx="166.7703" cy="226.8462" rx="3.0000" ry="3.0000" style="fill: #000000; fill-opacity: 1.00; stroke: none;" id="ezcGraphCircle_25"/><ellipse cx="119.1962" cy="224.0000" rx="3.0000" ry="3.0000" style="fill: #000000; fill-opacity: 1.00; stroke: none;" id="ezcGraphCircle_26"/><path d=" M 194.8595,293.4818 L 160.4775,324.0000" style="fill: none; stroke: #000000; stroke-width: 1; stroke-opacity: 1.00; stroke-linecap: round; stroke-linejoin: round;" id="ezcGraphLine_28"/><ellipse cx="194.8595" cy="293.4818" rx="3.0000" ry="3.0000" style="fill: #000000; fill-opacity: 1.00; stroke: none;" id="ezcGraphCircle_29"/><ellipse cx="160.4775" cy="324.0000" rx="3.0000" ry="3.0000" style="fill: #000000; fill-opacity: 1.00; stroke: none;" id="ezcGraphCircle_30"/><path d=" M 288.0176,156.8440 L 311.5068,119.0000" style="fill: none; stroke: #000000; stroke-width: 1; stroke-opacity: 1.00; stroke-linecap: round; stroke-linejoin: round;" id="ezcGraphLine_32"/><ellipse cx="288.0176" cy="156.8440" rx="3.0000" ry="3.0000" style="fill: #000000; fill-opacity: 1.00; stroke: none;" id="ezcGraphCircle_33"/><ellipse cx="311.5068" cy="119.0000" rx="3.0000" ry="3.0000" style="fill: #000000; fill-opacity: 1.00; stroke: none;" id="ezcGraphCircle_34"/><path d=" M 309.7511,305.9255 L 320.6220,338.0000" style="fill: none; stroke: #000000; stroke-width: 1; stroke-opacity: 1.00; stroke-linecap: round; stroke-linejoin: round;" id="ezcGraphLine_36"/><ellipse cx="309.7511" cy="305.9255" rx="3.0000" ry="3.0000" style="fill: #000000; fill-opacity: 1.00; stroke: none;" id="ezcGraphCircle_37"/><ellipse cx="320.6220" cy="338.0000" rx="3.0000" ry="3.0000" style="fill: #000000; fill-opacity: 1.00; stroke: none;" id="ezcGraphCircle_38"/><g id="ezcGraphTextBox_3"><path d=" M 101.1000,42.0000 L 101.1000,0.5000 L 399.4000,0.5000 L 399.4000,42.0000 L 101.1000,42.0000 z " style="fill: #ffffff; fill-opacity: 0.00; stroke: none;" id="ezcGraphPolygon_40"/><text id="ezcGraphTextBox_3_text" x="101.6000" text-length="296.8000px" y="35.0000" style="font-size: 40px; font-family: 'Arial'; fill: #2e3436; fill-opacity: 1.00; stroke: none;">Ethernet Model</text></g><g id="ezcGraphTextBox_19" style=" cursor: pointer;" onclick="top.location = 'http://127.0.0.1/bsd-hardware.info/index.php?view=computers&amp;type=notebook&amp;f=net_ethernet_model&amp;v=Qualcomm+ALCATEL+Composite+RNDIS+Interface&amp;p=-1'"><path d=" M 44.8646,151.0500 L 44.8646,123.4500 L 156.6046,123.4500 L 156.6046,151.0500 L 44.8646,151.0500 z " style="fill: #ffffff; fill-opacity: 0.00; stroke: none;" id="ezcGraphPolygon_41"/><text id="ezcGraphTextBox_19_text" x="45.3646" text-length="110.2400px" y="135.0000" style="font-size: 13px; font-family: 'Arial'; fill: #2e3436; fill-opacity: 1.00; stroke: none;">ALCATEL Compo...</text><text id="ezcGraphTextBox_19_text" x="114.2646" text-length="41.3400px" y="149.3000" style="font-size: 13px; font-family: 'Arial'; fill: #2e3436; fill-opacity: 1.00; stroke: none;">(3.2%)</text></g><g id="ezcGraphTextBox_23" style=" cursor: pointer;" onclick="top.location = 'http://127.0.0.1/bsd-hardware.info/index.php?view=computers&amp;type=notebook&amp;f=net_ethernet_model&amp;v=Intel+82577LM+Gigabit+Network+Connection&amp;p=-1'"><path d=" M 22.6478,188.5500 L 22.6478,160.9500 L 127.4978,160.9500 L 127.4978,188.5500 L 22.6478,188.5500 z " style="fill: #ffffff; fill-opacity: 0.00; stroke: none;" id="ezcGraphPolygon_42"/><text id="ezcGraphTextBox_23_text" x="78.2678" text-length="48.2300px" y="172.5000" style="font-size: 13px; font-family: 'Arial'; fill: #2e3436; fill-opacity: 1.00; stroke: none;">82577LM</text><text id="ezcGraphTextBox_23_text" x="23.1478" text-length="103.3500px" y="186.8000" style="font-size: 13px; font-family: 'Arial'; fill: #2e3436; fill-opacity: 1.00; stroke: none;">Gigab... (4.8%)</text></g><g id="ezcGraphTextBox_27" style=" cursor: pointer;" onclick="top.location = 'http://127.0.0.1/bsd-hardware.info/index.php?view=computers&amp;type=notebook&amp;f=net_ethernet_model&amp;v=Intel+82579LM+Gigabit+Network+Connection+%28Lewisville%29&amp;p=-1'"><path d=" M 2.4562,238.0500 L 2.4562,210.4500 L 114.1962,210.4500 L 114.1962,238.0500 L 2.4562,238.0500 z " style="fill: #ffffff; fill-opacity: 0.00; stroke: none;" id="ezcGraphPolygon_43"/><text id="ezcGraphTextBox_27_text" x="2.9562" text-length="110.2400px" y="222.0000" style="font-size: 13px; font-family: 'Arial'; fill: #2e3436; fill-opacity: 1.00; stroke: none;">82579LM Gigab...</text><text id="ezcGraphTextBox_27_text" x="64.9662" text-length="48.2300px" y="236.3000" style="font-size: 13px; font-family: 'Arial'; fill: #2e3436; fill-opacity: 1.00; stroke: none;">(12.7%)</text></g><g id="ezcGraphTextBox_31" style=" cursor: pointer;" onclick="top.location = 'http://127.0.0.1/bsd-hardware.info/index.php?view=computers&amp;type=notebook&amp;f=net_ethernet_model&amp;v=Realtek+Semiconductor+RTL810xE+PCI+Express+Fast+Ethernet+controller&amp;p=-1'"><path d=" M 43.7375,338.0500 L 43.7375,310.4500 L 155.4775,310.4500 L 155.4775,338.0500 L 43.7375,338.0500 z " style="fill: #ffffff; fill-opacity: 0.00; stroke: none;" id="ezcGraphPolygon_44"/><text id="ezcGraphTextBox_31_text" x="44.2375" text-length="110.2400px" y="322.0000" style="font-size: 13px; font-family: 'Arial'; fill: #2e3436; fill-opacity: 1.00; stroke: none;">RTL810xE PCI ...</text><text id="ezcGraphTextBox_31_text" x="106.2475" text-length="48.2300px" y="336.3000" style="font-size: 13px; font-family: 'Arial'; fill: #2e3436; fill-opacity: 1.00; stroke: none;">(15.9%)</text></g><g id="ezcGraphTextBox_35"><path d=" M 317.0068,126.5000 L 317.0068,112.0000 L 414.9668,112.0000 L 414.9668,126.5000 L 317.0068,126.5000 z " style="fill: #ffffff; fill-opacity: 0.00; stroke: none;" id="ezcGraphPolygon_45"/><text id="ezcGraphTextBox_35_text" x="317.5068" text-length="96.4600px" y="123.5500" style="font-size: 13px; font-family: 'Arial'; fill: #2e3436; fill-opacity: 1.00; stroke: none;">Others (34.9%)</text></g><g id="ezcGraphTextBox_39" style=" cursor: pointer;" onclick="top.location = 'http://127.0.0.1/bsd-hardware.info/index.php?view=computers&amp;type=notebook&amp;f=net_ethernet_model&amp;v=Realtek+Semiconductor+RTL8111%2F8168%2F8411+PCI+Express+Gigabit+Ethernet+Controller&amp;p=-1'"><path d=" M 326.1220,352.0500 L 326.1220,324.4500 L 437.8620,324.4500 L 437.8620,352.0500 L 326.1220,352.0500 z " style="fill: #ffffff; fill-opacity: 0.00; stroke: none;" id="ezcGraphPolygon_46"/><text id="ezcGraphTextBox_39_text" x="326.6220" text-length="110.2400px" y="336.0000" style="font-size: 13px; font-family: 'Arial'; fill: #2e3436; fill-opacity: 1.00; stroke: none;">RTL8111/8168/...</text><text id="ezcGraphTextBox_39_text" x="326.6220" text-length="48.2300px" y="350.3000" style="font-size: 13px; font-family: 'Arial'; fill: #2e3436; fill-opacity: 1.00; stroke: none;">(28.6%)</text></g></g></svg>
