<?xml version="1.0"?>
<svg xmlns="http://www.w3.org/2000/svg" width="500" height="420" version="1.0" id="ezcGraph"><defs/><g id="ezcGraphChart" color-rendering="optimizeQuality" shape-rendering="geometricPrecision" text-rendering="optimizeLegibility"><path d=" M 0.0000,420.0000 L 0.0000,0.0000 L 500.0000,0.0000 L 500.0000,420.0000 L 0.0000,420.0000 z " style="fill: #eeeeec; fill-opacity: 1.00; stroke: none;" id="ezcGraphPolygon_1"/><path d=" M 0.0000,42.0000 L 0.0000,0.0000 L 500.0000,0.0000 L 500.0000,42.0000 L 0.0000,42.0000 z " style="fill: #000000; fill-opacity: 0.00; stroke: none;" id="ezcGraphPolygon_2"/><path d="M 245.05,242.48 L 357.55,242.48 A 112.50,112.50 0 1,1 167.85,160.65 z" style="fill: #3465a4; fill-opacity: 1.00; stroke: none; cursor: pointer;" id="ezcGraphCircleSector_4" onclick="top.location = 'https://bsd-hardware.info/?view=computers&amp;type=notebook&amp;f=net_wireless_vendor&amp;v=Intel&amp;p=-1'"/><path d="M 244.83,242.98 L 357.05,242.98 A 112.00,112.00 0 1,1 167.83,161.35 z" style="fill: none; stroke: #1a3352; stroke-width: 1; stroke-opacity: 1.00; stroke-linecap: round; stroke-linejoin: round;" id="ezcGraphCircleSector_5"/><path d="M 250.00,231.00 L 172.80,149.17 A 112.50,112.50 0 0,1 243.46,118.69 z" style="fill: #4e9a06; fill-opacity: 1.00; stroke: none; cursor: pointer;" id="ezcGraphCircleSector_6" onclick="top.location = 'https://bsd-hardware.info/?view=computers&amp;type=notebook&amp;f=net_wireless_vendor&amp;v=Realtek+Semiconductor&amp;p=-1'"/><path d="M 249.42,229.66 L 173.50,149.19 A 112.00,112.00 0 0,1 242.99,119.22 z" style="fill: none; stroke: #274d03; stroke-width: 1; stroke-opacity: 1.00; stroke-linecap: round; stroke-linejoin: round;" id="ezcGraphCircleSector_7"/><path d="M 250.00,231.00 L 243.46,118.69 A 112.50,112.50 0 0,1 317.18,140.76 z" style="fill: #cc0000; fill-opacity: 1.00; stroke: none; cursor: pointer;" id="ezcGraphCircleSector_8" onclick="top.location = 'https://bsd-hardware.info/?view=computers&amp;type=notebook&amp;f=net_wireless_vendor&amp;v=Qualcomm+Atheros&amp;p=-1'"/><path d="M 250.42,229.60 L 243.99,119.16 A 112.00,112.00 0 0,1 316.48,140.86 z" style="fill: none; stroke: #660000; stroke-width: 1; stroke-opacity: 1.00; stroke-linecap: round; stroke-linejoin: round;" id="ezcGraphCircleSector_9"/><path d="M 250.00,231.00 L 317.18,140.76 A 112.50,112.50 0 0,1 359.47,205.06 z" style="fill: #edd400; fill-opacity: 1.00; stroke: none; cursor: pointer;" id="ezcGraphCircleSector_10" onclick="top.location = 'https://bsd-hardware.info/?view=computers&amp;type=notebook&amp;f=net_wireless_vendor&amp;v=Broadcom&amp;p=-1'"/><path d="M 251.22,230.20 L 317.28,141.46 A 112.00,112.00 0 0,1 358.87,204.68 z" style="fill: none; stroke: #776a00; stroke-width: 1; stroke-opacity: 1.00; stroke-linecap: round; stroke-linejoin: round;" id="ezcGraphCircleSector_11"/><path d="M 250.00,231.00 L 359.47,205.06 A 112.50,112.50 0 0,1 361.74,217.94 z" style="fill: #75505b; fill-opacity: 1.00; stroke: none; cursor: pointer;" id="ezcGraphCircleSector_12" onclick="top.location = 'https://bsd-hardware.info/?view=computers&amp;type=notebook&amp;f=net_wireless_vendor&amp;v=Qualcomm+Atheros+Communications&amp;p=-1'"/><path d="M 258.47,229.51 L 359.10,205.66 A 112.00,112.00 0 0,1 361.18,217.50 z" style="fill: none; stroke: #3b282e; stroke-width: 1; stroke-opacity: 1.00; stroke-linecap: round; stroke-linejoin: round;" id="ezcGraphCircleSector_13"/><path d="M 250.00,231.00 L 361.74,217.94 A 112.50,112.50 0 0,1 362.50,231.00 z" style="fill: #f57900; fill-opacity: 1.00; stroke: none;" id="ezcGraphCircleSector_14"/><path d="M 258.58,230.50 L 361.30,218.49 A 112.00,112.00 0 0,1 362.00,230.50 z" style="fill: none; stroke: #7b3d00; stroke-width: 1; stroke-opacity: 1.00; stroke-linecap: round; stroke-linejoin: round;" id="ezcGraphCircleSector_15"/><path d=" M 216.9934,154.4820 L 195.0102,116.0000" style="fill: none; stroke: #000000; stroke-width: 1; stroke-opacity: 1.00; stroke-linecap: round; stroke-linejoin: round;" id="ezcGraphLine_16"/><ellipse cx="216.9934" cy="154.4820" rx="3.0000" ry="3.0000" style="fill: #000000; fill-opacity: 1.00; stroke: none;" id="ezcGraphCircle_17"/><ellipse cx="195.0102" cy="116.0000" rx="3.0000" ry="3.0000" style="fill: #000000; fill-opacity: 1.00; stroke: none;" id="ezcGraphCircle_18"/><path d=" M 212.0424,318.9957 L 212.0424,357.0000" style="fill: none; stroke: #000000; stroke-width: 1; stroke-opacity: 1.00; stroke-linecap: round; stroke-linejoin: round;" id="ezcGraphLine_20"/><ellipse cx="212.0424" cy="318.9957" rx="3.0000" ry="3.0000" style="fill: #000000; fill-opacity: 1.00; stroke: none;" id="ezcGraphCircle_21"/><ellipse cx="212.0424" cy="357.0000" rx="3.0000" ry="3.0000" style="fill: #000000; fill-opacity: 1.00; stroke: none;" id="ezcGraphCircle_22"/><path d=" M 273.9003,151.1675 L 291.0000,111.0000" style="fill: none; stroke: #000000; stroke-width: 1; stroke-opacity: 1.00; stroke-linecap: round; stroke-linejoin: round;" id="ezcGraphLine_24"/><ellipse cx="273.9003" cy="151.1675" rx="3.0000" ry="3.0000" style="fill: #000000; fill-opacity: 1.00; stroke: none;" id="ezcGraphCircle_25"/><ellipse cx="291.0000" cy="111.0000" rx="3.0000" ry="3.0000" style="fill: #000000; fill-opacity: 1.00; stroke: none;" id="ezcGraphCircle_26"/><path d=" M 319.6240,185.2076 L 360.2305,162.0000" style="fill: none; stroke: #000000; stroke-width: 1; stroke-opacity: 1.00; stroke-linecap: round; stroke-linejoin: round;" id="ezcGraphLine_28"/><ellipse cx="319.6240" cy="185.2076" rx="3.0000" ry="3.0000" style="fill: #000000; fill-opacity: 1.00; stroke: none;" id="ezcGraphCircle_29"/><ellipse cx="360.2305" cy="162.0000" rx="3.0000" ry="3.0000" style="fill: #000000; fill-opacity: 1.00; stroke: none;" id="ezcGraphCircle_30"/><path d=" M 332.0673,216.5293 L 379.0488,209.0000" style="fill: none; stroke: #000000; stroke-width: 1; stroke-opacity: 1.00; stroke-linecap: round; stroke-linejoin: round;" id="ezcGraphLine_32"/><ellipse cx="332.0673" cy="216.5293" rx="3.0000" ry="3.0000" style="fill: #000000; fill-opacity: 1.00; stroke: none;" id="ezcGraphCircle_33"/><ellipse cx="379.0488" cy="209.0000" rx="3.0000" ry="3.0000" style="fill: #000000; fill-opacity: 1.00; stroke: none;" id="ezcGraphCircle_34"/><path d=" M 333.1923,226.1546 L 380.0353,246.5000" style="fill: none; stroke: #000000; stroke-width: 1; stroke-opacity: 1.00; stroke-linecap: round; stroke-linejoin: round;" id="ezcGraphLine_36"/><ellipse cx="333.1923" cy="226.1546" rx="3.0000" ry="3.0000" style="fill: #000000; fill-opacity: 1.00; stroke: none;" id="ezcGraphCircle_37"/><ellipse cx="380.0353" cy="246.5000" rx="3.0000" ry="3.0000" style="fill: #000000; fill-opacity: 1.00; stroke: none;" id="ezcGraphCircle_38"/><g id="ezcGraphTextBox_3"><path d=" M 90.5000,42.0000 L 90.5000,0.5000 L 410.0000,0.5000 L 410.0000,42.0000 L 90.5000,42.0000 z " style="fill: #ffffff; fill-opacity: 0.00; stroke: none;" id="ezcGraphPolygon_40"/><text id="ezcGraphTextBox_3_text" x="91.0000" text-length="318.0000px" y="35.0000" style="font-size: 40px; font-family: 'Arial'; fill: #2e3436; fill-opacity: 1.00; stroke: none;">Wireless Vendor</text></g><g id="ezcGraphTextBox_19" style=" cursor: pointer;" onclick="top.location = 'https://bsd-hardware.info/?view=computers&amp;type=notebook&amp;f=net_wireless_vendor&amp;v=Realtek+Semiconductor&amp;p=-1'"><path d=" M 61.3102,132.0500 L 61.3102,100.4500 L 190.0102,100.4500 L 190.0102,132.0500 L 61.3102,132.0500 z " style="fill: #ffffff; fill-opacity: 0.00; stroke: none;" id="ezcGraphPolygon_41"/><text id="ezcGraphTextBox_19_text" x="61.8102" text-length="127.2000px" y="113.7000" style="font-size: 15px; font-family: 'Arial'; fill: #2e3436; fill-opacity: 1.00; stroke: none;">Realtek Semic...</text><text id="ezcGraphTextBox_19_text" x="133.3602" text-length="55.6500px" y="130.2000" style="font-size: 15px; font-family: 'Arial'; fill: #2e3436; fill-opacity: 1.00; stroke: none;">(11.1%)</text></g><g id="ezcGraphTextBox_23" style=" cursor: pointer;" onclick="top.location = 'https://bsd-hardware.info/?view=computers&amp;type=notebook&amp;f=net_wireless_vendor&amp;v=Intel&amp;p=-1'"><path d=" M 102.1924,365.5000 L 102.1924,349.0000 L 207.0424,349.0000 L 207.0424,365.5000 L 102.1924,365.5000 z " style="fill: #ffffff; fill-opacity: 0.00; stroke: none;" id="ezcGraphPolygon_42"/><text id="ezcGraphTextBox_23_text" x="102.6924" text-length="103.3500px" y="362.2500" style="font-size: 15px; font-family: 'Arial'; fill: #2e3436; fill-opacity: 1.00; stroke: none;">Intel (63.0%)</text></g><g id="ezcGraphTextBox_27" style=" cursor: pointer;" onclick="top.location = 'https://bsd-hardware.info/?view=computers&amp;type=notebook&amp;f=net_wireless_vendor&amp;v=Qualcomm+Atheros&amp;p=-1'"><path d=" M 296.5000,127.0500 L 296.5000,95.4500 L 425.2000,95.4500 L 425.2000,127.0500 L 296.5000,127.0500 z " style="fill: #ffffff; fill-opacity: 0.00; stroke: none;" id="ezcGraphPolygon_43"/><text id="ezcGraphTextBox_27_text" x="297.0000" text-length="127.2000px" y="108.7000" style="font-size: 15px; font-family: 'Arial'; fill: #2e3436; fill-opacity: 1.00; stroke: none;">Qualcomm Atheros</text><text id="ezcGraphTextBox_27_text" x="297.0000" text-length="55.6500px" y="125.2000" style="font-size: 15px; font-family: 'Arial'; fill: #2e3436; fill-opacity: 1.00; stroke: none;">(11.1%)</text></g><g id="ezcGraphTextBox_31" style=" cursor: pointer;" onclick="top.location = 'https://bsd-hardware.info/?view=computers&amp;type=notebook&amp;f=net_wireless_vendor&amp;v=Broadcom&amp;p=-1'"><path d=" M 365.7305,178.0500 L 365.7305,146.4500 L 430.8305,146.4500 L 430.8305,178.0500 L 365.7305,178.0500 z " style="fill: #ffffff; fill-opacity: 0.00; stroke: none;" id="ezcGraphPolygon_44"/><text id="ezcGraphTextBox_31_text" x="366.2305" text-length="63.6000px" y="159.7000" style="font-size: 15px; font-family: 'Arial'; fill: #2e3436; fill-opacity: 1.00; stroke: none;">Broadcom</text><text id="ezcGraphTextBox_31_text" x="366.2305" text-length="55.6500px" y="176.2000" style="font-size: 15px; font-family: 'Arial'; fill: #2e3436; fill-opacity: 1.00; stroke: none;">(11.1%)</text></g><g id="ezcGraphTextBox_35" style=" cursor: pointer;" onclick="top.location = 'https://bsd-hardware.info/?view=computers&amp;type=notebook&amp;f=net_wireless_vendor&amp;v=Qualcomm+Atheros+Communications&amp;p=-1'"><path d=" M 384.5488,225.0500 L 384.5488,193.4500 L 497.3488,193.4500 L 497.3488,225.0500 L 384.5488,225.0500 z " style="fill: #ffffff; fill-opacity: 0.00; stroke: none;" id="ezcGraphPolygon_45"/><text id="ezcGraphTextBox_35_text" x="385.0488" text-length="63.6000px" y="206.7000" style="font-size: 15px; font-family: 'Arial'; fill: #2e3436; fill-opacity: 1.00; stroke: none;">Qualcomm</text><text id="ezcGraphTextBox_35_text" x="385.0488" text-length="111.3000px" y="223.2000" style="font-size: 15px; font-family: 'Arial'; fill: #2e3436; fill-opacity: 1.00; stroke: none;">Athe... (1.9%)</text></g><g id="ezcGraphTextBox_39"><path d=" M 385.5353,262.5500 L 385.5353,230.9500 L 434.7353,230.9500 L 434.7353,262.5500 L 385.5353,262.5500 z " style="fill: #ffffff; fill-opacity: 0.00; stroke: none;" id="ezcGraphPolygon_46"/><text id="ezcGraphTextBox_39_text" x="386.0353" text-length="47.7000px" y="244.2000" style="font-size: 15px; font-family: 'Arial'; fill: #2e3436; fill-opacity: 1.00; stroke: none;">Others</text><text id="ezcGraphTextBox_39_text" x="386.0353" text-length="47.7000px" y="260.7000" style="font-size: 15px; font-family: 'Arial'; fill: #2e3436; fill-opacity: 1.00; stroke: none;">(1.9%)</text></g></g></svg>
