<?xml version="1.0"?>
<svg xmlns="http://www.w3.org/2000/svg" width="500" height="420" version="1.0" id="ezcGraph"><defs/><g id="ezcGraphChart" color-rendering="optimizeQuality" shape-rendering="geometricPrecision" text-rendering="optimizeLegibility"><path d=" M 0.0000,420.0000 L 0.0000,0.0000 L 500.0000,0.0000 L 500.0000,420.0000 L 0.0000,420.0000 z " style="fill: #eeeeec; fill-opacity: 1.00; stroke: none;" id="ezcGraphPolygon_1"/><path d=" M 0.0000,42.0000 L 0.0000,0.0000 L 500.0000,0.0000 L 500.0000,42.0000 L 0.0000,42.0000 z " style="fill: #000000; fill-opacity: 0.00; stroke: none;" id="ezcGraphPolygon_2"/><path d="M 255.08,242.42 L 367.58,242.42 A 112.50,112.50 0 0,1 179.81,326.02 z" style="fill: #3465a4; fill-opacity: 1.00; stroke: none; cursor: pointer;" id="ezcGraphCircleSector_4" onclick="top.location = 'https://bsd-hardware.info/?view=computers&amp;type=notebook&amp;f=os_de&amp;v=helloDesktop&amp;p=-1'"/><path d="M 255.31,242.92 L 367.08,242.92 A 112.00,112.00 0 0,1 180.51,325.99 z" style="fill: none; stroke: #1a3352; stroke-width: 1; stroke-opacity: 1.00; stroke-linecap: round; stroke-linejoin: round;" id="ezcGraphCircleSector_5"/><path d="M 250.00,231.00 L 174.72,314.60 A 112.50,112.50 0 0,1 174.72,147.40 z" style="fill: #4e9a06; fill-opacity: 1.00; stroke: none; cursor: pointer;" id="ezcGraphCircleSector_6" onclick="top.location = 'https://bsd-hardware.info/?view=computers&amp;type=notebook&amp;f=os_de&amp;v=&amp;p=-1'"/><path d="M 249.33,231.00 L 174.69,313.90 A 112.00,112.00 0 0,1 174.69,148.10 z" style="fill: none; stroke: #274d03; stroke-width: 1; stroke-opacity: 1.00; stroke-linecap: round; stroke-linejoin: round;" id="ezcGraphCircleSector_7"/><path d="M 250.00,231.00 L 174.72,147.40 A 112.50,112.50 0 0,1 238.24,119.12 z" style="fill: #cc0000; fill-opacity: 1.00; stroke: none; cursor: pointer;" id="ezcGraphCircleSector_8" onclick="top.location = 'https://bsd-hardware.info/?view=computers&amp;type=notebook&amp;f=os_de&amp;v=MATE&amp;p=-1'"/><path d="M 249.34,229.52 L 175.43,147.43 A 112.00,112.00 0 0,1 237.80,119.67 z" style="fill: none; stroke: #660000; stroke-width: 1; stroke-opacity: 1.00; stroke-linecap: round; stroke-linejoin: round;" id="ezcGraphCircleSector_9"/><path d="M 250.00,231.00 L 238.24,119.12 A 112.50,112.50 0 0,1 306.25,133.57 z" style="fill: #edd400; fill-opacity: 1.00; stroke: none; cursor: pointer;" id="ezcGraphCircleSector_10" onclick="top.location = 'https://bsd-hardware.info/?view=computers&amp;type=notebook&amp;f=os_de&amp;v=KDE5&amp;p=-1'"/><path d="M 250.34,229.42 L 238.79,119.56 A 112.00,112.00 0 0,1 305.57,133.76 z" style="fill: none; stroke: #776a00; stroke-width: 1; stroke-opacity: 1.00; stroke-linecap: round; stroke-linejoin: round;" id="ezcGraphCircleSector_11"/><path d="M 250.00,231.00 L 306.25,133.57 A 112.50,112.50 0 0,1 336.18,158.69 z" style="fill: #75505b; fill-opacity: 1.00; stroke: none; cursor: pointer;" id="ezcGraphCircleSector_12" onclick="top.location = 'https://bsd-hardware.info/?view=computers&amp;type=notebook&amp;f=os_de&amp;v=GNOME&amp;p=-1'"/><path d="M 251.85,228.79 L 306.43,134.26 A 112.00,112.00 0 0,1 335.48,158.62 z" style="fill: none; stroke: #3b282e; stroke-width: 1; stroke-opacity: 1.00; stroke-linecap: round; stroke-linejoin: round;" id="ezcGraphCircleSector_13"/><path d="M 250.00,231.00 L 336.18,158.69 A 112.50,112.50 0 0,1 362.50,231.00 z" style="fill: #f57900; fill-opacity: 1.00; stroke: none;" id="ezcGraphCircleSector_14"/><path d="M 251.37,230.50 L 336.12,159.39 A 112.00,112.00 0 0,1 362.00,230.50 z" style="fill: none; stroke: #7b3d00; stroke-width: 1; stroke-opacity: 1.00; stroke-linecap: round; stroke-linejoin: round;" id="ezcGraphCircleSector_15"/><path d=" M 216.1053,154.8712 L 195.0102,116.0000" style="fill: none; stroke: #000000; stroke-width: 1; stroke-opacity: 1.00; stroke-linecap: round; stroke-linejoin: round;" id="ezcGraphLine_16"/><ellipse cx="216.1053" cy="154.8712" rx="3.0000" ry="3.0000" style="fill: #000000; fill-opacity: 1.00; stroke: none;" id="ezcGraphCircle_17"/><ellipse cx="195.0102" cy="116.0000" rx="3.0000" ry="3.0000" style="fill: #000000; fill-opacity: 1.00; stroke: none;" id="ezcGraphCircle_18"/><path d=" M 166.6667,231.0000 L 119.0000,231.0000" style="fill: none; stroke: #000000; stroke-width: 1; stroke-opacity: 1.00; stroke-linecap: round; stroke-linejoin: round;" id="ezcGraphLine_20"/><ellipse cx="166.6667" cy="231.0000" rx="3.0000" ry="3.0000" style="fill: #000000; fill-opacity: 1.00; stroke: none;" id="ezcGraphCircle_21"/><ellipse cx="119.0000" cy="231.0000" rx="3.0000" ry="3.0000" style="fill: #000000; fill-opacity: 1.00; stroke: none;" id="ezcGraphCircle_22"/><path d=" M 267.3260,149.4877 L 278.2711,108.0000" style="fill: none; stroke: #000000; stroke-width: 1; stroke-opacity: 1.00; stroke-linecap: round; stroke-linejoin: round;" id="ezcGraphLine_24"/><ellipse cx="267.3260" cy="149.4877" rx="3.0000" ry="3.0000" style="fill: #000000; fill-opacity: 1.00; stroke: none;" id="ezcGraphCircle_25"/><ellipse cx="278.2711" cy="108.0000" rx="3.0000" ry="3.0000" style="fill: #000000; fill-opacity: 1.00; stroke: none;" id="ezcGraphCircle_26"/><path d=" M 303.5656,167.1630 L 347.1853,145.5000" style="fill: none; stroke: #000000; stroke-width: 1; stroke-opacity: 1.00; stroke-linecap: round; stroke-linejoin: round;" id="ezcGraphLine_28"/><ellipse cx="303.5656" cy="167.1630" rx="3.0000" ry="3.0000" style="fill: #000000; fill-opacity: 1.00; stroke: none;" id="ezcGraphCircle_29"/><ellipse cx="347.1853" cy="145.5000" rx="3.0000" ry="3.0000" style="fill: #000000; fill-opacity: 1.00; stroke: none;" id="ezcGraphCircle_30"/><path d=" M 328.3077,202.4983 L 373.3712,188.0000" style="fill: none; stroke: #000000; stroke-width: 1; stroke-opacity: 1.00; stroke-linecap: round; stroke-linejoin: round;" id="ezcGraphLine_32"/><ellipse cx="328.3077" cy="202.4983" rx="3.0000" ry="3.0000" style="fill: #000000; fill-opacity: 1.00; stroke: none;" id="ezcGraphCircle_33"/><ellipse cx="373.3712" cy="188.0000" rx="3.0000" ry="3.0000" style="fill: #000000; fill-opacity: 1.00; stroke: none;" id="ezcGraphCircle_34"/><path d=" M 288.9789,318.5481 L 256.0000,356.0000" style="fill: none; stroke: #000000; stroke-width: 1; stroke-opacity: 1.00; stroke-linecap: round; stroke-linejoin: round;" id="ezcGraphLine_36"/><ellipse cx="288.9789" cy="318.5481" rx="3.0000" ry="3.0000" style="fill: #000000; fill-opacity: 1.00; stroke: none;" id="ezcGraphCircle_37"/><ellipse cx="256.0000" cy="356.0000" rx="3.0000" ry="3.0000" style="fill: #000000; fill-opacity: 1.00; stroke: none;" id="ezcGraphCircle_38"/><g id="ezcGraphTextBox_3"><path d=" M 228.3000,42.0000 L 228.3000,0.5000 L 272.2000,0.5000 L 272.2000,42.0000 L 228.3000,42.0000 z " style="fill: #ffffff; fill-opacity: 0.00; stroke: none;" id="ezcGraphPolygon_40"/><text id="ezcGraphTextBox_3_text" x="228.8000" text-length="42.4000px" y="35.0000" style="font-size: 40px; font-family: 'Arial'; fill: #2e3436; fill-opacity: 1.00; stroke: none;">DE</text></g><g id="ezcGraphTextBox_19" style=" cursor: pointer;" onclick="top.location = 'https://bsd-hardware.info/?view=computers&amp;type=notebook&amp;f=os_de&amp;v=MATE&amp;p=-1'"><path d=" M 80.3902,125.5000 L 80.3902,107.0000 L 190.0102,107.0000 L 190.0102,125.5000 L 80.3902,125.5000 z " style="fill: #ffffff; fill-opacity: 0.00; stroke: none;" id="ezcGraphPolygon_41"/><text id="ezcGraphTextBox_19_text" x="80.8902" text-length="108.1200px" y="121.9500" style="font-size: 17px; font-family: 'Arial'; fill: #2e3436; fill-opacity: 1.00; stroke: none;">MATE (10.0%)</text></g><g id="ezcGraphTextBox_23" style=" cursor: pointer;" onclick="top.location = 'https://bsd-hardware.info/?view=computers&amp;type=notebook&amp;f=os_de&amp;v=&amp;p=-1'"><path d=" M 49.4300,249.0500 L 49.4300,213.4500 L 114.0000,213.4500 L 114.0000,249.0500 L 49.4300,249.0500 z " style="fill: #ffffff; fill-opacity: 0.00; stroke: none;" id="ezcGraphPolygon_42"/><text id="ezcGraphTextBox_23_text" x="49.9300" text-length="63.0700px" y="228.4000" style="font-size: 17px; font-family: 'Arial'; fill: #2e3436; fill-opacity: 1.00; stroke: none;">Console</text><text id="ezcGraphTextBox_23_text" x="49.9300" text-length="63.0700px" y="247.1000" style="font-size: 17px; font-family: 'Arial'; fill: #2e3436; fill-opacity: 1.00; stroke: none;">(26.7%)</text></g><g id="ezcGraphTextBox_27" style=" cursor: pointer;" onclick="top.location = 'https://bsd-hardware.info/?view=computers&amp;type=notebook&amp;f=os_de&amp;v=KDE5&amp;p=-1'"><path d=" M 283.7711,117.5000 L 283.7711,99.0000 L 393.3911,99.0000 L 393.3911,117.5000 L 283.7711,117.5000 z " style="fill: #ffffff; fill-opacity: 0.00; stroke: none;" id="ezcGraphPolygon_43"/><text id="ezcGraphTextBox_27_text" x="284.2711" text-length="108.1200px" y="113.9500" style="font-size: 17px; font-family: 'Arial'; fill: #2e3436; fill-opacity: 1.00; stroke: none;">KDE5 (10.0%)</text></g><g id="ezcGraphTextBox_31" style=" cursor: pointer;" onclick="top.location = 'https://bsd-hardware.info/?view=computers&amp;type=notebook&amp;f=os_de&amp;v=GNOME&amp;p=-1'"><path d=" M 352.6853,155.0000 L 352.6853,136.5000 L 462.3053,136.5000 L 462.3053,155.0000 L 352.6853,155.0000 z " style="fill: #ffffff; fill-opacity: 0.00; stroke: none;" id="ezcGraphPolygon_44"/><text id="ezcGraphTextBox_31_text" x="353.1853" text-length="108.1200px" y="151.4500" style="font-size: 17px; font-family: 'Arial'; fill: #2e3436; fill-opacity: 1.00; stroke: none;">GNOME (5.6%)</text></g><g id="ezcGraphTextBox_35"><path d=" M 378.8712,206.0500 L 378.8712,170.4500 L 443.4412,170.4500 L 443.4412,206.0500 L 378.8712,206.0500 z " style="fill: #ffffff; fill-opacity: 0.00; stroke: none;" id="ezcGraphPolygon_45"/><text id="ezcGraphTextBox_35_text" x="379.3712" text-length="54.0600px" y="185.4000" style="font-size: 17px; font-family: 'Arial'; fill: #2e3436; fill-opacity: 1.00; stroke: none;">Others</text><text id="ezcGraphTextBox_35_text" x="379.3712" text-length="63.0700px" y="204.1000" style="font-size: 17px; font-family: 'Arial'; fill: #2e3436; fill-opacity: 1.00; stroke: none;">(11.1%)</text></g><g id="ezcGraphTextBox_39" style=" cursor: pointer;" onclick="top.location = 'https://bsd-hardware.info/?view=computers&amp;type=notebook&amp;f=os_de&amp;v=helloDesktop&amp;p=-1'"><path d=" M 261.5000,365.5000 L 261.5000,347.0000 L 443.2000,347.0000 L 443.2000,365.5000 L 261.5000,365.5000 z " style="fill: #ffffff; fill-opacity: 0.00; stroke: none;" id="ezcGraphPolygon_46"/><text id="ezcGraphTextBox_39_text" x="262.0000" text-length="180.2000px" y="361.9500" style="font-size: 17px; font-family: 'Arial'; fill: #2e3436; fill-opacity: 1.00; stroke: none;">helloDesktop (36.7%)</text></g></g></svg>
