<?xml version="1.0"?>
<svg xmlns="http://www.w3.org/2000/svg" width="500" height="420" version="1.0" id="ezcGraph"><defs/><g id="ezcGraphChart" color-rendering="optimizeQuality" shape-rendering="geometricPrecision" text-rendering="optimizeLegibility"><path d=" M 0.0000,420.0000 L 0.0000,0.0000 L 500.0000,0.0000 L 500.0000,420.0000 L 0.0000,420.0000 z " style="fill: #eeeeec; fill-opacity: 1.00; stroke: none;" id="ezcGraphPolygon_1"/><path d=" M 0.0000,42.0000 L 0.0000,0.0000 L 500.0000,0.0000 L 500.0000,42.0000 L 0.0000,42.0000 z " style="fill: #000000; fill-opacity: 0.00; stroke: none;" id="ezcGraphPolygon_2"/><path d=" M 0.0000,420.0000 L 0.0000,42.0000 L 100.0000,42.0000 L 100.0000,420.0000 L 0.0000,420.0000 z " style="fill: #000000; fill-opacity: 0.00; stroke: none;" id="ezcGraphPolygon_4"/><path d=" M 2.0000,58.0000 L 2.0000,44.0000 L 16.0000,44.0000 L 16.0000,58.0000 L 2.0000,58.0000 z " style="fill: #3465a4; fill-opacity: 1.00; stroke: none; cursor: pointer;" id="ezcGraphPolygon_5" onclick="top.location = 'http://127.0.0.1/bsd-hardware.info/index.php?view=computers&amp;type=desktop&amp;f=node_ram_used&amp;v=0.5&amp;p=-1'"/><path d=" M 2.0000,76.0000 L 2.0000,62.0000 L 16.0000,62.0000 L 16.0000,76.0000 L 2.0000,76.0000 z " style="fill: #4e9a06; fill-opacity: 1.00; stroke: none; cursor: pointer;" id="ezcGraphPolygon_7" onclick="top.location = 'http://127.0.0.1/bsd-hardware.info/index.php?view=computers&amp;type=desktop&amp;f=node_ram_used&amp;v=1.0&amp;p=-1'"/><path d=" M 2.0000,94.0000 L 2.0000,80.0000 L 16.0000,80.0000 L 16.0000,94.0000 L 2.0000,94.0000 z " style="fill: #cc0000; fill-opacity: 1.00; stroke: none; cursor: pointer;" id="ezcGraphPolygon_9" onclick="top.location = 'http://127.0.0.1/bsd-hardware.info/index.php?view=computers&amp;type=desktop&amp;f=node_ram_used&amp;v=2.0&amp;p=-1'"/><path d=" M 2.0000,112.0000 L 2.0000,98.0000 L 16.0000,98.0000 L 16.0000,112.0000 L 2.0000,112.0000 z " style="fill: #edd400; fill-opacity: 1.00; stroke: none; cursor: pointer;" id="ezcGraphPolygon_11" onclick="top.location = 'http://127.0.0.1/bsd-hardware.info/index.php?view=computers&amp;type=desktop&amp;f=node_ram_used&amp;v=8.0&amp;p=-1'"/><path d=" M 2.0000,130.0000 L 2.0000,116.0000 L 16.0000,116.0000 L 16.0000,130.0000 L 2.0000,130.0000 z " style="fill: #75505b; fill-opacity: 1.00; stroke: none; cursor: pointer;" id="ezcGraphPolygon_13" onclick="top.location = 'http://127.0.0.1/bsd-hardware.info/index.php?view=computers&amp;type=desktop&amp;f=node_ram_used&amp;v=4.0&amp;p=-1'"/><path d=" M 100.0000,382.2000 L 500.0000,382.2000" style="fill: none; stroke: #2e3436; stroke-width: 1; stroke-opacity: 1.00; stroke-linecap: round; stroke-linejoin: round;" id="ezcGraphLine_15"/><path d=" M 492.0000,378.2000 L 500.0000,382.2000 L 492.0000,386.2000 L 492.0000,378.2000 z " style="fill: #2e3436; fill-opacity: 1.00; stroke: none;" id="ezcGraphPolygon_16"/><path d=" M 185.7143,79.8000 L 185.7143,382.2000" style="fill: none; stroke: #000000; stroke-width: 1; stroke-opacity: 0.00; stroke-linecap: round; stroke-linejoin: round;" id="ezcGraphLine_19"/><path d=" M 185.7143,379.2000 L 185.7143,385.2000" style="fill: none; stroke: #2e3436; stroke-width: 1; stroke-opacity: 1.00; stroke-linecap: round; stroke-linejoin: round;" id="ezcGraphLine_20"/><path d=" M 231.4286,79.8000 L 231.4286,382.2000" style="fill: none; stroke: #000000; stroke-width: 1; stroke-opacity: 0.00; stroke-linecap: round; stroke-linejoin: round;" id="ezcGraphLine_22"/><path d=" M 231.4286,379.2000 L 231.4286,385.2000" style="fill: none; stroke: #2e3436; stroke-width: 1; stroke-opacity: 1.00; stroke-linecap: round; stroke-linejoin: round;" id="ezcGraphLine_23"/><path d=" M 277.1429,79.8000 L 277.1429,382.2000" style="fill: none; stroke: #000000; stroke-width: 1; stroke-opacity: 0.00; stroke-linecap: round; stroke-linejoin: round;" id="ezcGraphLine_25"/><path d=" M 277.1429,379.2000 L 277.1429,385.2000" style="fill: none; stroke: #2e3436; stroke-width: 1; stroke-opacity: 1.00; stroke-linecap: round; stroke-linejoin: round;" id="ezcGraphLine_26"/><path d=" M 322.8571,79.8000 L 322.8571,382.2000" style="fill: none; stroke: #000000; stroke-width: 1; stroke-opacity: 0.00; stroke-linecap: round; stroke-linejoin: round;" id="ezcGraphLine_28"/><path d=" M 322.8571,379.2000 L 322.8571,385.2000" style="fill: none; stroke: #2e3436; stroke-width: 1; stroke-opacity: 1.00; stroke-linecap: round; stroke-linejoin: round;" id="ezcGraphLine_29"/><path d=" M 368.5714,79.8000 L 368.5714,382.2000" style="fill: none; stroke: #000000; stroke-width: 1; stroke-opacity: 0.00; stroke-linecap: round; stroke-linejoin: round;" id="ezcGraphLine_31"/><path d=" M 368.5714,379.2000 L 368.5714,385.2000" style="fill: none; stroke: #2e3436; stroke-width: 1; stroke-opacity: 1.00; stroke-linecap: round; stroke-linejoin: round;" id="ezcGraphLine_32"/><path d=" M 414.2857,79.8000 L 414.2857,382.2000" style="fill: none; stroke: #000000; stroke-width: 1; stroke-opacity: 0.00; stroke-linecap: round; stroke-linejoin: round;" id="ezcGraphLine_34"/><path d=" M 414.2857,379.2000 L 414.2857,385.2000" style="fill: none; stroke: #2e3436; stroke-width: 1; stroke-opacity: 1.00; stroke-linecap: round; stroke-linejoin: round;" id="ezcGraphLine_35"/><path d=" M 460.0000,79.8000 L 460.0000,382.2000" style="fill: none; stroke: #000000; stroke-width: 1; stroke-opacity: 0.00; stroke-linecap: round; stroke-linejoin: round;" id="ezcGraphLine_37"/><path d=" M 460.0000,379.2000 L 460.0000,385.2000" style="fill: none; stroke: #2e3436; stroke-width: 1; stroke-opacity: 1.00; stroke-linecap: round; stroke-linejoin: round;" id="ezcGraphLine_38"/><path d=" M 140.0000,420.0000 L 140.0000,42.0000" style="fill: none; stroke: #2e3436; stroke-width: 1; stroke-opacity: 1.00; stroke-linecap: round; stroke-linejoin: round;" id="ezcGraphLine_39"/><path d=" M 136.0000,50.0000 L 140.0000,42.0000 L 144.0000,50.0000 L 136.0000,50.0000 z " style="fill: #2e3436; fill-opacity: 1.00; stroke: none;" id="ezcGraphPolygon_40"/><path d=" M 140.0000,231.0000 L 460.0000,231.0000" style="fill: none; stroke: #000000; stroke-width: 1; stroke-opacity: 0.00; stroke-linecap: round; stroke-linejoin: round;" id="ezcGraphLine_43"/><path d=" M 140.0000,231.0000 L 143.0000,231.0000" style="fill: none; stroke: #2e3436; stroke-width: 1; stroke-opacity: 1.00; stroke-linecap: round; stroke-linejoin: round;" id="ezcGraphLine_44"/><path d=" M 140.0000,79.8000 L 460.0000,79.8000" style="fill: none; stroke: #000000; stroke-width: 1; stroke-opacity: 0.00; stroke-linecap: round; stroke-linejoin: round;" id="ezcGraphLine_46"/><path d=" M 140.0000,79.8000 L 143.0000,79.8000" style="fill: none; stroke: #2e3436; stroke-width: 1; stroke-opacity: 1.00; stroke-linecap: round; stroke-linejoin: round;" id="ezcGraphLine_47"/><path d=" M 162.8571,358.1150 L 162.8571,358.1150" style="fill: none; stroke: #3465a4; stroke-width: 1; stroke-opacity: 1.00; stroke-linecap: round; stroke-linejoin: round;" id="ezcGraphLine_49"/><path d=" M 162.8571,358.1150 L 208.5714,280.5080" style="fill: none; stroke: #3465a4; stroke-width: 1; stroke-opacity: 1.00; stroke-linecap: round; stroke-linejoin: round;" id="ezcGraphLine_51"/><path d=" M 208.5714,280.5080 L 254.2857,354.1009" style="fill: none; stroke: #3465a4; stroke-width: 1; stroke-opacity: 1.00; stroke-linecap: round; stroke-linejoin: round;" id="ezcGraphLine_53"/><path d=" M 254.2857,354.1009 L 300.0000,344.7345" style="fill: none; stroke: #3465a4; stroke-width: 1; stroke-opacity: 1.00; stroke-linecap: round; stroke-linejoin: round;" id="ezcGraphLine_55"/><path d=" M 300.0000,344.7345 L 345.7143,153.3929" style="fill: none; stroke: #3465a4; stroke-width: 1; stroke-opacity: 1.00; stroke-linecap: round; stroke-linejoin: round;" id="ezcGraphLine_57"/><path d=" M 345.7143,153.3929 L 391.4286,79.8000" style="fill: none; stroke: #3465a4; stroke-width: 1; stroke-opacity: 1.00; stroke-linecap: round; stroke-linejoin: round;" id="ezcGraphLine_59"/><path d=" M 391.4286,79.8000 L 437.1429,130.6460" style="fill: none; stroke: #3465a4; stroke-width: 1; stroke-opacity: 1.00; stroke-linecap: round; stroke-linejoin: round;" id="ezcGraphLine_61"/><path d=" M 162.8571,372.8336 L 162.8571,372.8336" style="fill: none; stroke: #4e9a06; stroke-width: 1; stroke-opacity: 1.00; stroke-linecap: round; stroke-linejoin: round;" id="ezcGraphLine_63"/><path d=" M 162.8571,372.8336 L 208.5714,338.0442" style="fill: none; stroke: #4e9a06; stroke-width: 1; stroke-opacity: 1.00; stroke-linecap: round; stroke-linejoin: round;" id="ezcGraphLine_65"/><path d=" M 208.5714,338.0442 L 254.2857,352.7628" style="fill: none; stroke: #4e9a06; stroke-width: 1; stroke-opacity: 1.00; stroke-linecap: round; stroke-linejoin: round;" id="ezcGraphLine_67"/><path d=" M 254.2857,352.7628 L 300.0000,346.0726" style="fill: none; stroke: #4e9a06; stroke-width: 1; stroke-opacity: 1.00; stroke-linecap: round; stroke-linejoin: round;" id="ezcGraphLine_69"/><path d=" M 300.0000,346.0726 L 345.7143,296.5646" style="fill: none; stroke: #4e9a06; stroke-width: 1; stroke-opacity: 1.00; stroke-linecap: round; stroke-linejoin: round;" id="ezcGraphLine_71"/><path d=" M 345.7143,296.5646 L 391.4286,213.6053" style="fill: none; stroke: #4e9a06; stroke-width: 1; stroke-opacity: 1.00; stroke-linecap: round; stroke-linejoin: round;" id="ezcGraphLine_73"/><path d=" M 391.4286,213.6053 L 437.1429,257.7611" style="fill: none; stroke: #4e9a06; stroke-width: 1; stroke-opacity: 1.00; stroke-linecap: round; stroke-linejoin: round;" id="ezcGraphLine_75"/><path d=" M 162.8571,375.5097 L 162.8571,375.5097" style="fill: none; stroke: #cc0000; stroke-width: 1; stroke-opacity: 1.00; stroke-linecap: round; stroke-linejoin: round;" id="ezcGraphLine_77"/><path d=" M 162.8571,375.5097 L 208.5714,367.4814" style="fill: none; stroke: #cc0000; stroke-width: 1; stroke-opacity: 1.00; stroke-linecap: round; stroke-linejoin: round;" id="ezcGraphLine_79"/><path d=" M 208.5714,367.4814 L 254.2857,370.1575" style="fill: none; stroke: #cc0000; stroke-width: 1; stroke-opacity: 1.00; stroke-linecap: round; stroke-linejoin: round;" id="ezcGraphLine_81"/><path d=" M 254.2857,370.1575 L 300.0000,360.7912" style="fill: none; stroke: #cc0000; stroke-width: 1; stroke-opacity: 1.00; stroke-linecap: round; stroke-linejoin: round;" id="ezcGraphLine_83"/><path d=" M 300.0000,360.7912 L 345.7143,344.7345" style="fill: none; stroke: #cc0000; stroke-width: 1; stroke-opacity: 1.00; stroke-linecap: round; stroke-linejoin: round;" id="ezcGraphLine_85"/><path d=" M 345.7143,344.7345 L 391.4286,332.6920" style="fill: none; stroke: #cc0000; stroke-width: 1; stroke-opacity: 1.00; stroke-linecap: round; stroke-linejoin: round;" id="ezcGraphLine_87"/><path d=" M 391.4286,332.6920 L 437.1429,351.4248" style="fill: none; stroke: #cc0000; stroke-width: 1; stroke-opacity: 1.00; stroke-linecap: round; stroke-linejoin: round;" id="ezcGraphLine_89"/><path d=" M 162.8571,379.5239 L 162.8571,379.5239" style="fill: none; stroke: #edd400; stroke-width: 1; stroke-opacity: 1.00; stroke-linecap: round; stroke-linejoin: round;" id="ezcGraphLine_91"/><path d=" M 162.8571,379.5239 L 208.5714,368.8195" style="fill: none; stroke: #edd400; stroke-width: 1; stroke-opacity: 1.00; stroke-linecap: round; stroke-linejoin: round;" id="ezcGraphLine_93"/><path d=" M 208.5714,368.8195 L 254.2857,378.1858" style="fill: none; stroke: #edd400; stroke-width: 1; stroke-opacity: 1.00; stroke-linecap: round; stroke-linejoin: round;" id="ezcGraphLine_95"/><path d=" M 254.2857,378.1858 L 300.0000,380.8619" style="fill: none; stroke: #edd400; stroke-width: 1; stroke-opacity: 1.00; stroke-linecap: round; stroke-linejoin: round;" id="ezcGraphLine_97"/><path d=" M 300.0000,380.8619 L 345.7143,379.5239" style="fill: none; stroke: #edd400; stroke-width: 1; stroke-opacity: 1.00; stroke-linecap: round; stroke-linejoin: round;" id="ezcGraphLine_99"/><path d=" M 345.7143,379.5239 L 391.4286,368.8195" style="fill: none; stroke: #edd400; stroke-width: 1; stroke-opacity: 1.00; stroke-linecap: round; stroke-linejoin: round;" id="ezcGraphLine_101"/><path d=" M 391.4286,368.8195 L 437.1429,372.8336" style="fill: none; stroke: #edd400; stroke-width: 1; stroke-opacity: 1.00; stroke-linecap: round; stroke-linejoin: round;" id="ezcGraphLine_103"/><path d=" M 208.5714,378.1858 L 208.5714,378.1858" style="fill: none; stroke: #75505b; stroke-width: 1; stroke-opacity: 1.00; stroke-linecap: round; stroke-linejoin: round;" id="ezcGraphLine_105"/><path d=" M 208.5714,378.1858 L 254.2857,379.5239" style="fill: none; stroke: #75505b; stroke-width: 1; stroke-opacity: 1.00; stroke-linecap: round; stroke-linejoin: round;" id="ezcGraphLine_107"/><path d=" M 254.2857,379.5239 L 300.0000,379.5239" style="fill: none; stroke: #75505b; stroke-width: 1; stroke-opacity: 1.00; stroke-linecap: round; stroke-linejoin: round;" id="ezcGraphLine_109"/><path d=" M 300.0000,379.5239 L 345.7143,376.8478" style="fill: none; stroke: #75505b; stroke-width: 1; stroke-opacity: 1.00; stroke-linecap: round; stroke-linejoin: round;" id="ezcGraphLine_111"/><path d=" M 345.7143,376.8478 L 391.4286,374.1717" style="fill: none; stroke: #75505b; stroke-width: 1; stroke-opacity: 1.00; stroke-linecap: round; stroke-linejoin: round;" id="ezcGraphLine_113"/><path d=" M 391.4286,374.1717 L 437.1429,372.8336" style="fill: none; stroke: #75505b; stroke-width: 1; stroke-opacity: 1.00; stroke-linecap: round; stroke-linejoin: round;" id="ezcGraphLine_115"/><path d=" M 159.8571,361.1150 L 159.8571,355.1150 L 165.8571,355.1150 L 165.8571,361.1150 L 159.8571,361.1150 z " style="fill: #3465a4; fill-opacity: 1.00; stroke: none; cursor: pointer;" id="ezcGraphPolygon_117" onclick="top.location = 'http://127.0.0.1/bsd-hardware.info/index.php?view=computers&amp;type=desktop&amp;f=node_ram_used&amp;v=0.5&amp;p=-1&amp;p=81'"/><path d=" M 205.5714,283.5080 L 205.5714,277.5080 L 211.5714,277.5080 L 211.5714,283.5080 L 205.5714,283.5080 z " style="fill: #3465a4; fill-opacity: 1.00; stroke: none; cursor: pointer;" id="ezcGraphPolygon_118" onclick="top.location = 'http://127.0.0.1/bsd-hardware.info/index.php?view=computers&amp;type=desktop&amp;f=node_ram_used&amp;v=0.5&amp;p=-1&amp;p=82'"/><path d=" M 251.2857,357.1009 L 251.2857,351.1009 L 257.2857,351.1009 L 257.2857,357.1009 L 251.2857,357.1009 z " style="fill: #3465a4; fill-opacity: 1.00; stroke: none; cursor: pointer;" id="ezcGraphPolygon_119" onclick="top.location = 'http://127.0.0.1/bsd-hardware.info/index.php?view=computers&amp;type=desktop&amp;f=node_ram_used&amp;v=0.5&amp;p=-1&amp;p=83'"/><path d=" M 297.0000,347.7345 L 297.0000,341.7345 L 303.0000,341.7345 L 303.0000,347.7345 L 297.0000,347.7345 z " style="fill: #3465a4; fill-opacity: 1.00; stroke: none; cursor: pointer;" id="ezcGraphPolygon_120" onclick="top.location = 'http://127.0.0.1/bsd-hardware.info/index.php?view=computers&amp;type=desktop&amp;f=node_ram_used&amp;v=0.5&amp;p=-1&amp;p=84'"/><path d=" M 342.7143,156.3929 L 342.7143,150.3929 L 348.7143,150.3929 L 348.7143,156.3929 L 342.7143,156.3929 z " style="fill: #3465a4; fill-opacity: 1.00; stroke: none; cursor: pointer;" id="ezcGraphPolygon_121" onclick="top.location = 'http://127.0.0.1/bsd-hardware.info/index.php?view=computers&amp;type=desktop&amp;f=node_ram_used&amp;v=0.5&amp;p=-1&amp;p=85'"/><path d=" M 388.4286,82.8000 L 388.4286,76.8000 L 394.4286,76.8000 L 394.4286,82.8000 L 388.4286,82.8000 z " style="fill: #3465a4; fill-opacity: 1.00; stroke: none; cursor: pointer;" id="ezcGraphPolygon_122" onclick="top.location = 'http://127.0.0.1/bsd-hardware.info/index.php?view=computers&amp;type=desktop&amp;f=node_ram_used&amp;v=0.5&amp;p=-1&amp;p=86'"/><path d=" M 434.1429,133.6460 L 434.1429,127.6460 L 440.1429,127.6460 L 440.1429,133.6460 L 434.1429,133.6460 z " style="fill: #3465a4; fill-opacity: 1.00; stroke: none; cursor: pointer;" id="ezcGraphPolygon_123" onclick="top.location = 'http://127.0.0.1/bsd-hardware.info/index.php?view=computers&amp;type=desktop&amp;f=node_ram_used&amp;v=0.5&amp;p=-1&amp;p=87'"/><path d=" M 159.8571,375.8336 L 159.8571,369.8336 L 165.8571,369.8336 L 165.8571,375.8336 L 159.8571,375.8336 z " style="fill: #4e9a06; fill-opacity: 1.00; stroke: none; cursor: pointer;" id="ezcGraphPolygon_124" onclick="top.location = 'http://127.0.0.1/bsd-hardware.info/index.php?view=computers&amp;type=desktop&amp;f=node_ram_used&amp;v=1.0&amp;p=-1&amp;p=81'"/><path d=" M 205.5714,341.0442 L 205.5714,335.0442 L 211.5714,335.0442 L 211.5714,341.0442 L 205.5714,341.0442 z " style="fill: #4e9a06; fill-opacity: 1.00; stroke: none; cursor: pointer;" id="ezcGraphPolygon_125" onclick="top.location = 'http://127.0.0.1/bsd-hardware.info/index.php?view=computers&amp;type=desktop&amp;f=node_ram_used&amp;v=1.0&amp;p=-1&amp;p=82'"/><path d=" M 251.2857,355.7628 L 251.2857,349.7628 L 257.2857,349.7628 L 257.2857,355.7628 L 251.2857,355.7628 z " style="fill: #4e9a06; fill-opacity: 1.00; stroke: none; cursor: pointer;" id="ezcGraphPolygon_126" onclick="top.location = 'http://127.0.0.1/bsd-hardware.info/index.php?view=computers&amp;type=desktop&amp;f=node_ram_used&amp;v=1.0&amp;p=-1&amp;p=83'"/><path d=" M 297.0000,349.0726 L 297.0000,343.0726 L 303.0000,343.0726 L 303.0000,349.0726 L 297.0000,349.0726 z " style="fill: #4e9a06; fill-opacity: 1.00; stroke: none; cursor: pointer;" id="ezcGraphPolygon_127" onclick="top.location = 'http://127.0.0.1/bsd-hardware.info/index.php?view=computers&amp;type=desktop&amp;f=node_ram_used&amp;v=1.0&amp;p=-1&amp;p=84'"/><path d=" M 342.7143,299.5646 L 342.7143,293.5646 L 348.7143,293.5646 L 348.7143,299.5646 L 342.7143,299.5646 z " style="fill: #4e9a06; fill-opacity: 1.00; stroke: none; cursor: pointer;" id="ezcGraphPolygon_128" onclick="top.location = 'http://127.0.0.1/bsd-hardware.info/index.php?view=computers&amp;type=desktop&amp;f=node_ram_used&amp;v=1.0&amp;p=-1&amp;p=85'"/><path d=" M 388.4286,216.6053 L 388.4286,210.6053 L 394.4286,210.6053 L 394.4286,216.6053 L 388.4286,216.6053 z " style="fill: #4e9a06; fill-opacity: 1.00; stroke: none; cursor: pointer;" id="ezcGraphPolygon_129" onclick="top.location = 'http://127.0.0.1/bsd-hardware.info/index.php?view=computers&amp;type=desktop&amp;f=node_ram_used&amp;v=1.0&amp;p=-1&amp;p=86'"/><path d=" M 434.1429,260.7611 L 434.1429,254.7611 L 440.1429,254.7611 L 440.1429,260.7611 L 434.1429,260.7611 z " style="fill: #4e9a06; fill-opacity: 1.00; stroke: none; cursor: pointer;" id="ezcGraphPolygon_130" onclick="top.location = 'http://127.0.0.1/bsd-hardware.info/index.php?view=computers&amp;type=desktop&amp;f=node_ram_used&amp;v=1.0&amp;p=-1&amp;p=87'"/><path d=" M 159.8571,378.5097 L 159.8571,372.5097 L 165.8571,372.5097 L 165.8571,378.5097 L 159.8571,378.5097 z " style="fill: #cc0000; fill-opacity: 1.00; stroke: none; cursor: pointer;" id="ezcGraphPolygon_131" onclick="top.location = 'http://127.0.0.1/bsd-hardware.info/index.php?view=computers&amp;type=desktop&amp;f=node_ram_used&amp;v=2.0&amp;p=-1&amp;p=81'"/><path d=" M 205.5714,370.4814 L 205.5714,364.4814 L 211.5714,364.4814 L 211.5714,370.4814 L 205.5714,370.4814 z " style="fill: #cc0000; fill-opacity: 1.00; stroke: none; cursor: pointer;" id="ezcGraphPolygon_132" onclick="top.location = 'http://127.0.0.1/bsd-hardware.info/index.php?view=computers&amp;type=desktop&amp;f=node_ram_used&amp;v=2.0&amp;p=-1&amp;p=82'"/><path d=" M 251.2857,373.1575 L 251.2857,367.1575 L 257.2857,367.1575 L 257.2857,373.1575 L 251.2857,373.1575 z " style="fill: #cc0000; fill-opacity: 1.00; stroke: none; cursor: pointer;" id="ezcGraphPolygon_133" onclick="top.location = 'http://127.0.0.1/bsd-hardware.info/index.php?view=computers&amp;type=desktop&amp;f=node_ram_used&amp;v=2.0&amp;p=-1&amp;p=83'"/><path d=" M 297.0000,363.7912 L 297.0000,357.7912 L 303.0000,357.7912 L 303.0000,363.7912 L 297.0000,363.7912 z " style="fill: #cc0000; fill-opacity: 1.00; stroke: none; cursor: pointer;" id="ezcGraphPolygon_134" onclick="top.location = 'http://127.0.0.1/bsd-hardware.info/index.php?view=computers&amp;type=desktop&amp;f=node_ram_used&amp;v=2.0&amp;p=-1&amp;p=84'"/><path d=" M 342.7143,347.7345 L 342.7143,341.7345 L 348.7143,341.7345 L 348.7143,347.7345 L 342.7143,347.7345 z " style="fill: #cc0000; fill-opacity: 1.00; stroke: none; cursor: pointer;" id="ezcGraphPolygon_135" onclick="top.location = 'http://127.0.0.1/bsd-hardware.info/index.php?view=computers&amp;type=desktop&amp;f=node_ram_used&amp;v=2.0&amp;p=-1&amp;p=85'"/><path d=" M 388.4286,335.6920 L 388.4286,329.6920 L 394.4286,329.6920 L 394.4286,335.6920 L 388.4286,335.6920 z " style="fill: #cc0000; fill-opacity: 1.00; stroke: none; cursor: pointer;" id="ezcGraphPolygon_136" onclick="top.location = 'http://127.0.0.1/bsd-hardware.info/index.php?view=computers&amp;type=desktop&amp;f=node_ram_used&amp;v=2.0&amp;p=-1&amp;p=86'"/><path d=" M 434.1429,354.4248 L 434.1429,348.4248 L 440.1429,348.4248 L 440.1429,354.4248 L 434.1429,354.4248 z " style="fill: #cc0000; fill-opacity: 1.00; stroke: none; cursor: pointer;" id="ezcGraphPolygon_137" onclick="top.location = 'http://127.0.0.1/bsd-hardware.info/index.php?view=computers&amp;type=desktop&amp;f=node_ram_used&amp;v=2.0&amp;p=-1&amp;p=87'"/><path d=" M 159.8571,382.5239 L 159.8571,376.5239 L 165.8571,376.5239 L 165.8571,382.5239 L 159.8571,382.5239 z " style="fill: #edd400; fill-opacity: 1.00; stroke: none; cursor: pointer;" id="ezcGraphPolygon_138" onclick="top.location = 'http://127.0.0.1/bsd-hardware.info/index.php?view=computers&amp;type=desktop&amp;f=node_ram_used&amp;v=8.0&amp;p=-1&amp;p=81'"/><path d=" M 205.5714,371.8195 L 205.5714,365.8195 L 211.5714,365.8195 L 211.5714,371.8195 L 205.5714,371.8195 z " style="fill: #edd400; fill-opacity: 1.00; stroke: none; cursor: pointer;" id="ezcGraphPolygon_139" onclick="top.location = 'http://127.0.0.1/bsd-hardware.info/index.php?view=computers&amp;type=desktop&amp;f=node_ram_used&amp;v=8.0&amp;p=-1&amp;p=82'"/><path d=" M 251.2857,381.1858 L 251.2857,375.1858 L 257.2857,375.1858 L 257.2857,381.1858 L 251.2857,381.1858 z " style="fill: #edd400; fill-opacity: 1.00; stroke: none; cursor: pointer;" id="ezcGraphPolygon_140" onclick="top.location = 'http://127.0.0.1/bsd-hardware.info/index.php?view=computers&amp;type=desktop&amp;f=node_ram_used&amp;v=8.0&amp;p=-1&amp;p=83'"/><path d=" M 297.0000,383.8619 L 297.0000,377.8619 L 303.0000,377.8619 L 303.0000,383.8619 L 297.0000,383.8619 z " style="fill: #edd400; fill-opacity: 1.00; stroke: none; cursor: pointer;" id="ezcGraphPolygon_141" onclick="top.location = 'http://127.0.0.1/bsd-hardware.info/index.php?view=computers&amp;type=desktop&amp;f=node_ram_used&amp;v=8.0&amp;p=-1&amp;p=84'"/><path d=" M 342.7143,382.5239 L 342.7143,376.5239 L 348.7143,376.5239 L 348.7143,382.5239 L 342.7143,382.5239 z " style="fill: #edd400; fill-opacity: 1.00; stroke: none; cursor: pointer;" id="ezcGraphPolygon_142" onclick="top.location = 'http://127.0.0.1/bsd-hardware.info/index.php?view=computers&amp;type=desktop&amp;f=node_ram_used&amp;v=8.0&amp;p=-1&amp;p=85'"/><path d=" M 388.4286,371.8195 L 388.4286,365.8195 L 394.4286,365.8195 L 394.4286,371.8195 L 388.4286,371.8195 z " style="fill: #edd400; fill-opacity: 1.00; stroke: none; cursor: pointer;" id="ezcGraphPolygon_143" onclick="top.location = 'http://127.0.0.1/bsd-hardware.info/index.php?view=computers&amp;type=desktop&amp;f=node_ram_used&amp;v=8.0&amp;p=-1&amp;p=86'"/><path d=" M 434.1429,375.8336 L 434.1429,369.8336 L 440.1429,369.8336 L 440.1429,375.8336 L 434.1429,375.8336 z " style="fill: #edd400; fill-opacity: 1.00; stroke: none; cursor: pointer;" id="ezcGraphPolygon_144" onclick="top.location = 'http://127.0.0.1/bsd-hardware.info/index.php?view=computers&amp;type=desktop&amp;f=node_ram_used&amp;v=8.0&amp;p=-1&amp;p=87'"/><path d=" M 205.5714,381.1858 L 205.5714,375.1858 L 211.5714,375.1858 L 211.5714,381.1858 L 205.5714,381.1858 z " style="fill: #75505b; fill-opacity: 1.00; stroke: none; cursor: pointer;" id="ezcGraphPolygon_145" onclick="top.location = 'http://127.0.0.1/bsd-hardware.info/index.php?view=computers&amp;type=desktop&amp;f=node_ram_used&amp;v=4.0&amp;p=-1&amp;p=82'"/><path d=" M 251.2857,382.5239 L 251.2857,376.5239 L 257.2857,376.5239 L 257.2857,382.5239 L 251.2857,382.5239 z " style="fill: #75505b; fill-opacity: 1.00; stroke: none; cursor: pointer;" id="ezcGraphPolygon_146" onclick="top.location = 'http://127.0.0.1/bsd-hardware.info/index.php?view=computers&amp;type=desktop&amp;f=node_ram_used&amp;v=4.0&amp;p=-1&amp;p=83'"/><path d=" M 297.0000,382.5239 L 297.0000,376.5239 L 303.0000,376.5239 L 303.0000,382.5239 L 297.0000,382.5239 z " style="fill: #75505b; fill-opacity: 1.00; stroke: none; cursor: pointer;" id="ezcGraphPolygon_147" onclick="top.location = 'http://127.0.0.1/bsd-hardware.info/index.php?view=computers&amp;type=desktop&amp;f=node_ram_used&amp;v=4.0&amp;p=-1&amp;p=84'"/><path d=" M 342.7143,379.8478 L 342.7143,373.8478 L 348.7143,373.8478 L 348.7143,379.8478 L 342.7143,379.8478 z " style="fill: #75505b; fill-opacity: 1.00; stroke: none; cursor: pointer;" id="ezcGraphPolygon_148" onclick="top.location = 'http://127.0.0.1/bsd-hardware.info/index.php?view=computers&amp;type=desktop&amp;f=node_ram_used&amp;v=4.0&amp;p=-1&amp;p=85'"/><path d=" M 388.4286,377.1717 L 388.4286,371.1717 L 394.4286,371.1717 L 394.4286,377.1717 L 388.4286,377.1717 z " style="fill: #75505b; fill-opacity: 1.00; stroke: none; cursor: pointer;" id="ezcGraphPolygon_149" onclick="top.location = 'http://127.0.0.1/bsd-hardware.info/index.php?view=computers&amp;type=desktop&amp;f=node_ram_used&amp;v=4.0&amp;p=-1&amp;p=86'"/><path d=" M 434.1429,375.8336 L 434.1429,369.8336 L 440.1429,369.8336 L 440.1429,375.8336 L 434.1429,375.8336 z " style="fill: #75505b; fill-opacity: 1.00; stroke: none; cursor: pointer;" id="ezcGraphPolygon_150" onclick="top.location = 'http://127.0.0.1/bsd-hardware.info/index.php?view=computers&amp;type=desktop&amp;f=node_ram_used&amp;v=4.0&amp;p=-1&amp;p=87'"/><g id="ezcGraphTextBox_3"><path d=" M 164.7000,42.0000 L 164.7000,0.5000 L 335.8000,0.5000 L 335.8000,42.0000 L 164.7000,42.0000 z " style="fill: #ffffff; fill-opacity: 0.00; stroke: none;" id="ezcGraphPolygon_151"/><text id="ezcGraphTextBox_3_text" x="165.2000" text-length="169.6000px" y="35.0000" style="font-size: 40px; font-family: 'Arial'; fill: #2e3436; fill-opacity: 1.00; stroke: none;">RAM Used</text></g><g id="ezcGraphTextBox_6" style=" cursor: pointer;" onclick="top.location = 'http://127.0.0.1/bsd-hardware.info/index.php?view=computers&amp;type=desktop&amp;f=node_ram_used&amp;v=0.5&amp;p=-1'"><path d=" M 16.5000,58.5000 L 16.5000,44.0000 L 93.7900,44.0000 L 93.7900,58.5000 L 16.5000,58.5000 z " style="fill: #ffffff; fill-opacity: 0.00; stroke: none;" id="ezcGraphPolygon_152"/><text id="ezcGraphTextBox_6_text" x="17.0000" text-length="75.7900px" y="55.5500" style="font-size: 13px; font-family: 'Arial'; fill: #2e3436; fill-opacity: 1.00; stroke: none;">0.01-0.5 GB</text></g><g id="ezcGraphTextBox_8" style=" cursor: pointer;" onclick="top.location = 'http://127.0.0.1/bsd-hardware.info/index.php?view=computers&amp;type=desktop&amp;f=node_ram_used&amp;v=1.0&amp;p=-1'"><path d=" M 16.5000,76.5000 L 16.5000,62.0000 L 93.7900,62.0000 L 93.7900,76.5000 L 16.5000,76.5000 z " style="fill: #ffffff; fill-opacity: 0.00; stroke: none;" id="ezcGraphPolygon_153"/><text id="ezcGraphTextBox_8_text" x="17.0000" text-length="75.7900px" y="73.5500" style="font-size: 13px; font-family: 'Arial'; fill: #2e3436; fill-opacity: 1.00; stroke: none;">0.51-1.0 GB</text></g><g id="ezcGraphTextBox_10" style=" cursor: pointer;" onclick="top.location = 'http://127.0.0.1/bsd-hardware.info/index.php?view=computers&amp;type=desktop&amp;f=node_ram_used&amp;v=2.0&amp;p=-1'"><path d=" M 16.5000,94.5000 L 16.5000,80.0000 L 93.7900,80.0000 L 93.7900,94.5000 L 16.5000,94.5000 z " style="fill: #ffffff; fill-opacity: 0.00; stroke: none;" id="ezcGraphPolygon_154"/><text id="ezcGraphTextBox_10_text" x="17.0000" text-length="75.7900px" y="91.5500" style="font-size: 13px; font-family: 'Arial'; fill: #2e3436; fill-opacity: 1.00; stroke: none;">1.01-2.0 GB</text></g><g id="ezcGraphTextBox_12" style=" cursor: pointer;" onclick="top.location = 'http://127.0.0.1/bsd-hardware.info/index.php?view=computers&amp;type=desktop&amp;f=node_ram_used&amp;v=8.0&amp;p=-1'"><path d=" M 16.5000,112.5000 L 16.5000,98.0000 L 93.7900,98.0000 L 93.7900,112.5000 L 16.5000,112.5000 z " style="fill: #ffffff; fill-opacity: 0.00; stroke: none;" id="ezcGraphPolygon_155"/><text id="ezcGraphTextBox_12_text" x="17.0000" text-length="75.7900px" y="109.5500" style="font-size: 13px; font-family: 'Arial'; fill: #2e3436; fill-opacity: 1.00; stroke: none;">4.01-8.0 GB</text></g><g id="ezcGraphTextBox_14" style=" cursor: pointer;" onclick="top.location = 'http://127.0.0.1/bsd-hardware.info/index.php?view=computers&amp;type=desktop&amp;f=node_ram_used&amp;v=4.0&amp;p=-1'"><path d=" M 16.5000,130.5000 L 16.5000,116.0000 L 93.7900,116.0000 L 93.7900,130.5000 L 16.5000,130.5000 z " style="fill: #ffffff; fill-opacity: 0.00; stroke: none;" id="ezcGraphPolygon_156"/><text id="ezcGraphTextBox_14_text" x="17.0000" text-length="75.7900px" y="127.5500" style="font-size: 13px; font-family: 'Arial'; fill: #2e3436; fill-opacity: 1.00; stroke: none;">3.01-4.0 GB</text></g><g id="ezcGraphTextBox_17" transform="rotate( 0.00 493.0000 375.2000 )"><path d=" M 460.4000,381.2000 L 460.4000,365.7000 L 499.0000,365.7000 L 499.0000,381.2000 L 460.4000,381.2000 z " style="fill: #ffffff; fill-opacity: 0.00; stroke: none;" id="ezcGraphPolygon_157"/><text id="ezcGraphTextBox_17_text" x="460.9000" text-length="37.1000px" y="378.1000" style="font-size: 14px; font-family: 'Arial'; fill: #2e3436; fill-opacity: 1.00; stroke: none;">Time </text></g><g id="ezcGraphTextBox_18"><path d=" M 144.9971,413.3000 L 144.9971,383.7000 L 181.2171,383.7000 L 181.2171,413.3000 L 144.9971,413.3000 z " style="fill: #ffffff; fill-opacity: 0.00; stroke: none;" id="ezcGraphPolygon_158"/><text id="ezcGraphTextBox_18_text" x="151.7271" text-length="22.2600px" y="396.1000" style="font-size: 14px; font-family: 'Arial'; fill: #2e3436; fill-opacity: 1.00; stroke: none;">Sep</text><text id="ezcGraphTextBox_18_text" x="145.4971" text-length="34.7200px" y="411.5000" style="font-size: 14px; font-family: 'Arial'; fill: #2e3436; fill-opacity: 1.00; stroke: none;">2020</text></g><g id="ezcGraphTextBox_21"><path d=" M 190.7114,413.3000 L 190.7114,383.7000 L 226.9314,383.7000 L 226.9314,413.3000 L 190.7114,413.3000 z " style="fill: #ffffff; fill-opacity: 0.00; stroke: none;" id="ezcGraphPolygon_159"/><text id="ezcGraphTextBox_21_text" x="197.4414" text-length="22.2600px" y="396.1000" style="font-size: 14px; font-family: 'Arial'; fill: #2e3436; fill-opacity: 1.00; stroke: none;">Oct</text><text id="ezcGraphTextBox_21_text" x="191.2114" text-length="34.7200px" y="411.5000" style="font-size: 14px; font-family: 'Arial'; fill: #2e3436; fill-opacity: 1.00; stroke: none;">2020</text></g><g id="ezcGraphTextBox_24"><path d=" M 236.4257,413.3000 L 236.4257,383.7000 L 272.6457,383.7000 L 272.6457,413.3000 L 236.4257,413.3000 z " style="fill: #ffffff; fill-opacity: 0.00; stroke: none;" id="ezcGraphPolygon_160"/><text id="ezcGraphTextBox_24_text" x="243.1557" text-length="22.2600px" y="396.1000" style="font-size: 14px; font-family: 'Arial'; fill: #2e3436; fill-opacity: 1.00; stroke: none;">Nov</text><text id="ezcGraphTextBox_24_text" x="236.9257" text-length="34.7200px" y="411.5000" style="font-size: 14px; font-family: 'Arial'; fill: #2e3436; fill-opacity: 1.00; stroke: none;">2020</text></g><g id="ezcGraphTextBox_27"><path d=" M 282.1400,413.3000 L 282.1400,383.7000 L 318.3600,383.7000 L 318.3600,413.3000 L 282.1400,413.3000 z " style="fill: #ffffff; fill-opacity: 0.00; stroke: none;" id="ezcGraphPolygon_161"/><text id="ezcGraphTextBox_27_text" x="288.8700" text-length="22.2600px" y="396.1000" style="font-size: 14px; font-family: 'Arial'; fill: #2e3436; fill-opacity: 1.00; stroke: none;">Dec</text><text id="ezcGraphTextBox_27_text" x="282.6400" text-length="34.7200px" y="411.5000" style="font-size: 14px; font-family: 'Arial'; fill: #2e3436; fill-opacity: 1.00; stroke: none;">2020</text></g><g id="ezcGraphTextBox_30"><path d=" M 327.8543,413.3000 L 327.8543,383.7000 L 364.0743,383.7000 L 364.0743,413.3000 L 327.8543,413.3000 z " style="fill: #ffffff; fill-opacity: 0.00; stroke: none;" id="ezcGraphPolygon_162"/><text id="ezcGraphTextBox_30_text" x="334.5843" text-length="22.2600px" y="396.1000" style="font-size: 14px; font-family: 'Arial'; fill: #2e3436; fill-opacity: 1.00; stroke: none;">Jan</text><text id="ezcGraphTextBox_30_text" x="328.3543" text-length="34.7200px" y="411.5000" style="font-size: 14px; font-family: 'Arial'; fill: #2e3436; fill-opacity: 1.00; stroke: none;">2021</text></g><g id="ezcGraphTextBox_33"><path d=" M 373.5686,413.3000 L 373.5686,383.7000 L 409.7886,383.7000 L 409.7886,413.3000 L 373.5686,413.3000 z " style="fill: #ffffff; fill-opacity: 0.00; stroke: none;" id="ezcGraphPolygon_163"/><text id="ezcGraphTextBox_33_text" x="380.2986" text-length="22.2600px" y="396.1000" style="font-size: 14px; font-family: 'Arial'; fill: #2e3436; fill-opacity: 1.00; stroke: none;">Feb</text><text id="ezcGraphTextBox_33_text" x="374.0686" text-length="34.7200px" y="411.5000" style="font-size: 14px; font-family: 'Arial'; fill: #2e3436; fill-opacity: 1.00; stroke: none;">2021</text></g><g id="ezcGraphTextBox_36"><path d=" M 419.2829,413.3000 L 419.2829,383.7000 L 455.5029,383.7000 L 455.5029,413.3000 L 419.2829,413.3000 z " style="fill: #ffffff; fill-opacity: 0.00; stroke: none;" id="ezcGraphPolygon_164"/><text id="ezcGraphTextBox_36_text" x="426.0129" text-length="22.2600px" y="396.1000" style="font-size: 14px; font-family: 'Arial'; fill: #2e3436; fill-opacity: 1.00; stroke: none;">Mar</text><text id="ezcGraphTextBox_36_text" x="419.7829" text-length="34.7200px" y="411.5000" style="font-size: 14px; font-family: 'Arial'; fill: #2e3436; fill-opacity: 1.00; stroke: none;">2021</text></g><g id="ezcGraphTextBox_41" transform="rotate( 0.00 147.0000 49.0000 )"><path d=" M 141.5000,59.0000 L 141.5000,43.5000 L 306.2400,43.5000 L 306.2400,59.0000 L 141.5000,59.0000 z " style="fill: #ffffff; fill-opacity: 0.00; stroke: none;" id="ezcGraphPolygon_165"/><text id="ezcGraphTextBox_41_text" x="142.0000" text-length="163.2400px" y="55.9000" style="font-size: 14px; font-family: 'Arial'; fill: #2e3436; fill-opacity: 1.00; stroke: none;">Desktops by "RAM Used"</text></g><g id="ezcGraphTextBox_42"><path d=" M 128.8200,381.2000 L 128.8200,365.7000 L 139.0000,365.7000 L 139.0000,381.2000 L 128.8200,381.2000 z " style="fill: #ffffff; fill-opacity: 0.00; stroke: none;" id="ezcGraphPolygon_166"/><text id="ezcGraphTextBox_42_text" x="129.3200" text-length="8.6800px" y="378.1000" style="font-size: 14px; font-family: 'Arial'; fill: #2e3436; fill-opacity: 1.00; stroke: none;">0</text></g><g id="ezcGraphTextBox_45"><path d=" M 111.4600,230.0000 L 111.4600,214.5000 L 139.0000,214.5000 L 139.0000,230.0000 L 111.4600,230.0000 z " style="fill: #ffffff; fill-opacity: 0.00; stroke: none;" id="ezcGraphPolygon_167"/><text id="ezcGraphTextBox_45_text" x="111.9600" text-length="26.0400px" y="226.9000" style="font-size: 14px; font-family: 'Arial'; fill: #2e3436; fill-opacity: 1.00; stroke: none;">113</text></g><g id="ezcGraphTextBox_48"><path d=" M 111.4600,96.8000 L 111.4600,81.3000 L 139.0000,81.3000 L 139.0000,96.8000 L 111.4600,96.8000 z " style="fill: #ffffff; fill-opacity: 0.00; stroke: none;" id="ezcGraphPolygon_168"/><text id="ezcGraphTextBox_48_text" x="111.9600" text-length="26.0400px" y="93.7000" style="font-size: 14px; font-family: 'Arial'; fill: #2e3436; fill-opacity: 1.00; stroke: none;">226</text></g><g id="ezcGraphTextBox_50"><path d=" M 156.1571,353.1150 L 156.1571,341.6150 L 170.0571,341.6150 L 170.0571,353.1150 L 156.1571,353.1150 z " style="fill: #ffffff; fill-opacity: 0.00; stroke: none;" id="ezcGraphPolygon_169"/><text id="ezcGraphTextBox_50_text" x="156.6571" text-length="12.4000px" y="350.6150" style="font-size: 10px; font-family: 'Arial'; fill: #2e3436; fill-opacity: 1.00; stroke: none;">18</text></g><g id="ezcGraphTextBox_52"><path d=" M 201.8714,275.5080 L 201.8714,264.0080 L 215.7714,264.0080 L 215.7714,275.5080 L 201.8714,275.5080 z " style="fill: #ffffff; fill-opacity: 0.00; stroke: none;" id="ezcGraphPolygon_170"/><text id="ezcGraphTextBox_52_text" x="202.3714" text-length="12.4000px" y="273.0080" style="font-size: 10px; font-family: 'Arial'; fill: #2e3436; fill-opacity: 1.00; stroke: none;">76</text></g><g id="ezcGraphTextBox_54"><path d=" M 247.5857,349.1009 L 247.5857,337.6009 L 261.4857,337.6009 L 261.4857,349.1009 L 247.5857,349.1009 z " style="fill: #ffffff; fill-opacity: 0.00; stroke: none;" id="ezcGraphPolygon_171"/><text id="ezcGraphTextBox_54_text" x="248.0857" text-length="12.4000px" y="346.6009" style="font-size: 10px; font-family: 'Arial'; fill: #2e3436; fill-opacity: 1.00; stroke: none;">21</text></g><g id="ezcGraphTextBox_56"><path d=" M 293.3000,339.7345 L 293.3000,328.2345 L 307.2000,328.2345 L 307.2000,339.7345 L 293.3000,339.7345 z " style="fill: #ffffff; fill-opacity: 0.00; stroke: none;" id="ezcGraphPolygon_172"/><text id="ezcGraphTextBox_56_text" x="293.8000" text-length="12.4000px" y="337.2345" style="font-size: 10px; font-family: 'Arial'; fill: #2e3436; fill-opacity: 1.00; stroke: none;">28</text></g><g id="ezcGraphTextBox_58"><path d=" M 335.9143,148.3929 L 335.9143,136.8929 L 356.0143,136.8929 L 356.0143,148.3929 L 335.9143,148.3929 z " style="fill: #ffffff; fill-opacity: 0.00; stroke: none;" id="ezcGraphPolygon_173"/><text id="ezcGraphTextBox_58_text" x="336.4143" text-length="18.6000px" y="145.8929" style="font-size: 10px; font-family: 'Arial'; fill: #2e3436; fill-opacity: 1.00; stroke: none;">171</text></g><g id="ezcGraphTextBox_60"><path d=" M 381.6286,74.8000 L 381.6286,63.3000 L 401.7286,63.3000 L 401.7286,74.8000 L 381.6286,74.8000 z " style="fill: #ffffff; fill-opacity: 0.00; stroke: none;" id="ezcGraphPolygon_174"/><text id="ezcGraphTextBox_60_text" x="382.1286" text-length="18.6000px" y="72.3000" style="font-size: 10px; font-family: 'Arial'; fill: #2e3436; fill-opacity: 1.00; stroke: none;">226</text></g><g id="ezcGraphTextBox_62"><path d=" M 427.3429,125.6460 L 427.3429,114.1460 L 447.4429,114.1460 L 447.4429,125.6460 L 427.3429,125.6460 z " style="fill: #ffffff; fill-opacity: 0.00; stroke: none;" id="ezcGraphPolygon_175"/><text id="ezcGraphTextBox_62_text" x="427.8429" text-length="18.6000px" y="123.1460" style="font-size: 10px; font-family: 'Arial'; fill: #2e3436; fill-opacity: 1.00; stroke: none;">188</text></g><g id="ezcGraphTextBox_64"><path d=" M 159.2571,367.8336 L 159.2571,356.3336 L 166.9571,356.3336 L 166.9571,367.8336 L 159.2571,367.8336 z " style="fill: #ffffff; fill-opacity: 0.00; stroke: none;" id="ezcGraphPolygon_176"/><text id="ezcGraphTextBox_64_text" x="159.7571" text-length="6.2000px" y="365.3336" style="font-size: 10px; font-family: 'Arial'; fill: #2e3436; fill-opacity: 1.00; stroke: none;">7</text></g><g id="ezcGraphTextBox_66"><path d=" M 201.8714,333.0442 L 201.8714,321.5442 L 215.7714,321.5442 L 215.7714,333.0442 L 201.8714,333.0442 z " style="fill: #ffffff; fill-opacity: 0.00; stroke: none;" id="ezcGraphPolygon_177"/><text id="ezcGraphTextBox_66_text" x="202.3714" text-length="12.4000px" y="330.5442" style="font-size: 10px; font-family: 'Arial'; fill: #2e3436; fill-opacity: 1.00; stroke: none;">33</text></g><g id="ezcGraphTextBox_68"><path d=" M 247.5857,347.7628 L 247.5857,336.2628 L 261.4857,336.2628 L 261.4857,347.7628 L 247.5857,347.7628 z " style="fill: #ffffff; fill-opacity: 0.00; stroke: none;" id="ezcGraphPolygon_178"/><text id="ezcGraphTextBox_68_text" x="248.0857" text-length="12.4000px" y="345.2628" style="font-size: 10px; font-family: 'Arial'; fill: #2e3436; fill-opacity: 1.00; stroke: none;">22</text></g><g id="ezcGraphTextBox_70"><path d=" M 293.3000,341.0726 L 293.3000,329.5726 L 307.2000,329.5726 L 307.2000,341.0726 L 293.3000,341.0726 z " style="fill: #ffffff; fill-opacity: 0.00; stroke: none;" id="ezcGraphPolygon_179"/><text id="ezcGraphTextBox_70_text" x="293.8000" text-length="12.4000px" y="338.5726" style="font-size: 10px; font-family: 'Arial'; fill: #2e3436; fill-opacity: 1.00; stroke: none;">27</text></g><g id="ezcGraphTextBox_72"><path d=" M 339.0143,291.5646 L 339.0143,280.0646 L 352.9143,280.0646 L 352.9143,291.5646 L 339.0143,291.5646 z " style="fill: #ffffff; fill-opacity: 0.00; stroke: none;" id="ezcGraphPolygon_180"/><text id="ezcGraphTextBox_72_text" x="339.5143" text-length="12.4000px" y="289.0646" style="font-size: 10px; font-family: 'Arial'; fill: #2e3436; fill-opacity: 1.00; stroke: none;">64</text></g><g id="ezcGraphTextBox_74"><path d=" M 381.6286,208.6053 L 381.6286,197.1053 L 401.7286,197.1053 L 401.7286,208.6053 L 381.6286,208.6053 z " style="fill: #ffffff; fill-opacity: 0.00; stroke: none;" id="ezcGraphPolygon_181"/><text id="ezcGraphTextBox_74_text" x="382.1286" text-length="18.6000px" y="206.1053" style="font-size: 10px; font-family: 'Arial'; fill: #2e3436; fill-opacity: 1.00; stroke: none;">126</text></g><g id="ezcGraphTextBox_76"><path d=" M 430.4429,252.7611 L 430.4429,241.2611 L 444.3429,241.2611 L 444.3429,252.7611 L 430.4429,252.7611 z " style="fill: #ffffff; fill-opacity: 0.00; stroke: none;" id="ezcGraphPolygon_182"/><text id="ezcGraphTextBox_76_text" x="430.9429" text-length="12.4000px" y="250.2611" style="font-size: 10px; font-family: 'Arial'; fill: #2e3436; fill-opacity: 1.00; stroke: none;">93</text></g><g id="ezcGraphTextBox_78"><path d=" M 159.2571,370.5097 L 159.2571,359.0097 L 166.9571,359.0097 L 166.9571,370.5097 L 159.2571,370.5097 z " style="fill: #ffffff; fill-opacity: 0.00; stroke: none;" id="ezcGraphPolygon_183"/><text id="ezcGraphTextBox_78_text" x="159.7571" text-length="6.2000px" y="368.0097" style="font-size: 10px; font-family: 'Arial'; fill: #2e3436; fill-opacity: 1.00; stroke: none;">5</text></g><g id="ezcGraphTextBox_80"><path d=" M 201.8714,362.4814 L 201.8714,350.9814 L 215.7714,350.9814 L 215.7714,362.4814 L 201.8714,362.4814 z " style="fill: #ffffff; fill-opacity: 0.00; stroke: none;" id="ezcGraphPolygon_184"/><text id="ezcGraphTextBox_80_text" x="202.3714" text-length="12.4000px" y="359.9814" style="font-size: 10px; font-family: 'Arial'; fill: #2e3436; fill-opacity: 1.00; stroke: none;">11</text></g><g id="ezcGraphTextBox_82"><path d=" M 250.6857,365.1575 L 250.6857,353.6575 L 258.3857,353.6575 L 258.3857,365.1575 L 250.6857,365.1575 z " style="fill: #ffffff; fill-opacity: 0.00; stroke: none;" id="ezcGraphPolygon_185"/><text id="ezcGraphTextBox_82_text" x="251.1857" text-length="6.2000px" y="362.6575" style="font-size: 10px; font-family: 'Arial'; fill: #2e3436; fill-opacity: 1.00; stroke: none;">9</text></g><g id="ezcGraphTextBox_84"><path d=" M 293.3000,355.7912 L 293.3000,344.2912 L 307.2000,344.2912 L 307.2000,355.7912 L 293.3000,355.7912 z " style="fill: #ffffff; fill-opacity: 0.00; stroke: none;" id="ezcGraphPolygon_186"/><text id="ezcGraphTextBox_84_text" x="293.8000" text-length="12.4000px" y="353.2912" style="font-size: 10px; font-family: 'Arial'; fill: #2e3436; fill-opacity: 1.00; stroke: none;">16</text></g><g id="ezcGraphTextBox_86"><path d=" M 339.0143,339.7345 L 339.0143,328.2345 L 352.9143,328.2345 L 352.9143,339.7345 L 339.0143,339.7345 z " style="fill: #ffffff; fill-opacity: 0.00; stroke: none;" id="ezcGraphPolygon_187"/><text id="ezcGraphTextBox_86_text" x="339.5143" text-length="12.4000px" y="337.2345" style="font-size: 10px; font-family: 'Arial'; fill: #2e3436; fill-opacity: 1.00; stroke: none;">28</text></g><g id="ezcGraphTextBox_88"><path d=" M 384.7286,327.6920 L 384.7286,316.1920 L 398.6286,316.1920 L 398.6286,327.6920 L 384.7286,327.6920 z " style="fill: #ffffff; fill-opacity: 0.00; stroke: none;" id="ezcGraphPolygon_188"/><text id="ezcGraphTextBox_88_text" x="385.2286" text-length="12.4000px" y="325.1920" style="font-size: 10px; font-family: 'Arial'; fill: #2e3436; fill-opacity: 1.00; stroke: none;">37</text></g><g id="ezcGraphTextBox_90"><path d=" M 430.4429,346.4248 L 430.4429,334.9248 L 444.3429,334.9248 L 444.3429,346.4248 L 430.4429,346.4248 z " style="fill: #ffffff; fill-opacity: 0.00; stroke: none;" id="ezcGraphPolygon_189"/><text id="ezcGraphTextBox_90_text" x="430.9429" text-length="12.4000px" y="343.9248" style="font-size: 10px; font-family: 'Arial'; fill: #2e3436; fill-opacity: 1.00; stroke: none;">23</text></g><g id="ezcGraphTextBox_92"><path d=" M 159.2571,374.5239 L 159.2571,363.0239 L 166.9571,363.0239 L 166.9571,374.5239 L 159.2571,374.5239 z " style="fill: #ffffff; fill-opacity: 0.00; stroke: none;" id="ezcGraphPolygon_190"/><text id="ezcGraphTextBox_92_text" x="159.7571" text-length="6.2000px" y="372.0239" style="font-size: 10px; font-family: 'Arial'; fill: #2e3436; fill-opacity: 1.00; stroke: none;">2</text></g><g id="ezcGraphTextBox_94"><path d=" M 201.8714,363.8195 L 201.8714,352.3195 L 215.7714,352.3195 L 215.7714,363.8195 L 201.8714,363.8195 z " style="fill: #ffffff; fill-opacity: 0.00; stroke: none;" id="ezcGraphPolygon_191"/><text id="ezcGraphTextBox_94_text" x="202.3714" text-length="12.4000px" y="361.3195" style="font-size: 10px; font-family: 'Arial'; fill: #2e3436; fill-opacity: 1.00; stroke: none;">10</text></g><g id="ezcGraphTextBox_96"><path d=" M 250.6857,373.1858 L 250.6857,361.6858 L 258.3857,361.6858 L 258.3857,373.1858 L 250.6857,373.1858 z " style="fill: #ffffff; fill-opacity: 0.00; stroke: none;" id="ezcGraphPolygon_192"/><text id="ezcGraphTextBox_96_text" x="251.1857" text-length="6.2000px" y="370.6858" style="font-size: 10px; font-family: 'Arial'; fill: #2e3436; fill-opacity: 1.00; stroke: none;">3</text></g><g id="ezcGraphTextBox_98"><path d=" M 296.4000,375.8619 L 296.4000,364.3619 L 304.1000,364.3619 L 304.1000,375.8619 L 296.4000,375.8619 z " style="fill: #ffffff; fill-opacity: 0.00; stroke: none;" id="ezcGraphPolygon_193"/><text id="ezcGraphTextBox_98_text" x="296.9000" text-length="6.2000px" y="373.3619" style="font-size: 10px; font-family: 'Arial'; fill: #2e3436; fill-opacity: 1.00; stroke: none;">1</text></g><g id="ezcGraphTextBox_100"><path d=" M 342.1143,374.5239 L 342.1143,363.0239 L 349.8143,363.0239 L 349.8143,374.5239 L 342.1143,374.5239 z " style="fill: #ffffff; fill-opacity: 0.00; stroke: none;" id="ezcGraphPolygon_194"/><text id="ezcGraphTextBox_100_text" x="342.6143" text-length="6.2000px" y="372.0239" style="font-size: 10px; font-family: 'Arial'; fill: #2e3436; fill-opacity: 1.00; stroke: none;">2</text></g><g id="ezcGraphTextBox_102"><path d=" M 384.7286,363.8195 L 384.7286,352.3195 L 398.6286,352.3195 L 398.6286,363.8195 L 384.7286,363.8195 z " style="fill: #ffffff; fill-opacity: 0.00; stroke: none;" id="ezcGraphPolygon_195"/><text id="ezcGraphTextBox_102_text" x="385.2286" text-length="12.4000px" y="361.3195" style="font-size: 10px; font-family: 'Arial'; fill: #2e3436; fill-opacity: 1.00; stroke: none;">10</text></g><g id="ezcGraphTextBox_104"><path d=" M 433.5429,367.8336 L 433.5429,356.3336 L 441.2429,356.3336 L 441.2429,367.8336 L 433.5429,367.8336 z " style="fill: #ffffff; fill-opacity: 0.00; stroke: none;" id="ezcGraphPolygon_196"/><text id="ezcGraphTextBox_104_text" x="434.0429" text-length="6.2000px" y="365.3336" style="font-size: 10px; font-family: 'Arial'; fill: #2e3436; fill-opacity: 1.00; stroke: none;">7</text></g><g id="ezcGraphTextBox_106"><path d=" M 204.9714,373.1858 L 204.9714,361.6858 L 212.6714,361.6858 L 212.6714,373.1858 L 204.9714,373.1858 z " style="fill: #ffffff; fill-opacity: 0.00; stroke: none;" id="ezcGraphPolygon_197"/><text id="ezcGraphTextBox_106_text" x="205.4714" text-length="6.2000px" y="370.6858" style="font-size: 10px; font-family: 'Arial'; fill: #2e3436; fill-opacity: 1.00; stroke: none;">3</text></g><g id="ezcGraphTextBox_108"><path d=" M 250.6857,374.5239 L 250.6857,363.0239 L 258.3857,363.0239 L 258.3857,374.5239 L 250.6857,374.5239 z " style="fill: #ffffff; fill-opacity: 0.00; stroke: none;" id="ezcGraphPolygon_198"/><text id="ezcGraphTextBox_108_text" x="251.1857" text-length="6.2000px" y="372.0239" style="font-size: 10px; font-family: 'Arial'; fill: #2e3436; fill-opacity: 1.00; stroke: none;">2</text></g><g id="ezcGraphTextBox_110"><path d=" M 296.4000,374.5239 L 296.4000,363.0239 L 304.1000,363.0239 L 304.1000,374.5239 L 296.4000,374.5239 z " style="fill: #ffffff; fill-opacity: 0.00; stroke: none;" id="ezcGraphPolygon_199"/><text id="ezcGraphTextBox_110_text" x="296.9000" text-length="6.2000px" y="372.0239" style="font-size: 10px; font-family: 'Arial'; fill: #2e3436; fill-opacity: 1.00; stroke: none;">2</text></g><g id="ezcGraphTextBox_112"><path d=" M 342.1143,371.8478 L 342.1143,360.3478 L 349.8143,360.3478 L 349.8143,371.8478 L 342.1143,371.8478 z " style="fill: #ffffff; fill-opacity: 0.00; stroke: none;" id="ezcGraphPolygon_200"/><text id="ezcGraphTextBox_112_text" x="342.6143" text-length="6.2000px" y="369.3478" style="font-size: 10px; font-family: 'Arial'; fill: #2e3436; fill-opacity: 1.00; stroke: none;">4</text></g><g id="ezcGraphTextBox_114"><path d=" M 387.8286,369.1717 L 387.8286,357.6717 L 395.5286,357.6717 L 395.5286,369.1717 L 387.8286,369.1717 z " style="fill: #ffffff; fill-opacity: 0.00; stroke: none;" id="ezcGraphPolygon_201"/><text id="ezcGraphTextBox_114_text" x="388.3286" text-length="6.2000px" y="366.6717" style="font-size: 10px; font-family: 'Arial'; fill: #2e3436; fill-opacity: 1.00; stroke: none;">6</text></g><g id="ezcGraphTextBox_116"><path d=" M 433.5429,367.8336 L 433.5429,356.3336 L 441.2429,356.3336 L 441.2429,367.8336 L 433.5429,367.8336 z " style="fill: #ffffff; fill-opacity: 0.00; stroke: none;" id="ezcGraphPolygon_202"/><text id="ezcGraphTextBox_116_text" x="434.0429" text-length="6.2000px" y="365.3336" style="font-size: 10px; font-family: 'Arial'; fill: #2e3436; fill-opacity: 1.00; stroke: none;">7</text></g></g></svg>
