<?xml version="1.0"?>
<svg xmlns="http://www.w3.org/2000/svg" width="500" height="420" version="1.0" id="ezcGraph"><defs/><g id="ezcGraphChart" color-rendering="optimizeQuality" shape-rendering="geometricPrecision" text-rendering="optimizeLegibility"><path d=" M 0.0000,420.0000 L 0.0000,0.0000 L 500.0000,0.0000 L 500.0000,420.0000 L 0.0000,420.0000 z " style="fill: #eeeeec; fill-opacity: 1.00; stroke: none;" id="ezcGraphPolygon_1"/><path d=" M 0.0000,42.0000 L 0.0000,0.0000 L 500.0000,0.0000 L 500.0000,42.0000 L 0.0000,42.0000 z " style="fill: #000000; fill-opacity: 0.00; stroke: none;" id="ezcGraphPolygon_2"/><path d=" M 0.0000,420.0000 L 0.0000,42.0000 L 100.0000,42.0000 L 100.0000,420.0000 L 0.0000,420.0000 z " style="fill: #000000; fill-opacity: 0.00; stroke: none;" id="ezcGraphPolygon_4"/><path d=" M 2.0000,58.0000 L 2.0000,44.0000 L 16.0000,44.0000 L 16.0000,58.0000 L 2.0000,58.0000 z " style="fill: #3465a4; fill-opacity: 1.00; stroke: none; cursor: pointer;" id="ezcGraphPolygon_5" onclick="top.location = 'http://127.0.0.1/bsd-hardware.info/index.php?view=computers&amp;type=desktop&amp;f=os_display_manager&amp;v=&amp;p=-1'"/><path d=" M 2.0000,76.0000 L 2.0000,62.0000 L 16.0000,62.0000 L 16.0000,76.0000 L 2.0000,76.0000 z " style="fill: #4e9a06; fill-opacity: 1.00; stroke: none; cursor: pointer;" id="ezcGraphPolygon_7" onclick="top.location = 'http://127.0.0.1/bsd-hardware.info/index.php?view=computers&amp;type=desktop&amp;f=os_display_manager&amp;v=SLiM&amp;p=-1'"/><path d=" M 2.0000,94.0000 L 2.0000,80.0000 L 16.0000,80.0000 L 16.0000,94.0000 L 2.0000,94.0000 z " style="fill: #cc0000; fill-opacity: 1.00; stroke: none; cursor: pointer;" id="ezcGraphPolygon_9" onclick="top.location = 'http://127.0.0.1/bsd-hardware.info/index.php?view=computers&amp;type=desktop&amp;f=os_display_manager&amp;v=SDDM&amp;p=-1'"/><path d=" M 2.0000,112.0000 L 2.0000,98.0000 L 16.0000,98.0000 L 16.0000,112.0000 L 2.0000,112.0000 z " style="fill: #edd400; fill-opacity: 1.00; stroke: none; cursor: pointer;" id="ezcGraphPolygon_11" onclick="top.location = 'http://127.0.0.1/bsd-hardware.info/index.php?view=computers&amp;type=desktop&amp;f=os_display_manager&amp;v=GDM&amp;p=-1'"/><path d=" M 2.0000,130.0000 L 2.0000,116.0000 L 16.0000,116.0000 L 16.0000,130.0000 L 2.0000,130.0000 z " style="fill: #75505b; fill-opacity: 1.00; stroke: none; cursor: pointer;" id="ezcGraphPolygon_13" onclick="top.location = 'http://127.0.0.1/bsd-hardware.info/index.php?view=computers&amp;type=desktop&amp;f=os_display_manager&amp;v=LightDM&amp;p=-1'"/><path d=" M 100.0000,382.2000 L 500.0000,382.2000" style="fill: none; stroke: #2e3436; stroke-width: 1; stroke-opacity: 1.00; stroke-linecap: round; stroke-linejoin: round;" id="ezcGraphLine_15"/><path d=" M 492.0000,378.2000 L 500.0000,382.2000 L 492.0000,386.2000 L 492.0000,378.2000 z " style="fill: #2e3436; fill-opacity: 1.00; stroke: none;" id="ezcGraphPolygon_16"/><path d=" M 193.3333,79.8000 L 193.3333,382.2000" style="fill: none; stroke: #000000; stroke-width: 1; stroke-opacity: 0.00; stroke-linecap: round; stroke-linejoin: round;" id="ezcGraphLine_19"/><path d=" M 193.3333,379.2000 L 193.3333,385.2000" style="fill: none; stroke: #2e3436; stroke-width: 1; stroke-opacity: 1.00; stroke-linecap: round; stroke-linejoin: round;" id="ezcGraphLine_20"/><path d=" M 246.6667,79.8000 L 246.6667,382.2000" style="fill: none; stroke: #000000; stroke-width: 1; stroke-opacity: 0.00; stroke-linecap: round; stroke-linejoin: round;" id="ezcGraphLine_22"/><path d=" M 246.6667,379.2000 L 246.6667,385.2000" style="fill: none; stroke: #2e3436; stroke-width: 1; stroke-opacity: 1.00; stroke-linecap: round; stroke-linejoin: round;" id="ezcGraphLine_23"/><path d=" M 300.0000,79.8000 L 300.0000,382.2000" style="fill: none; stroke: #000000; stroke-width: 1; stroke-opacity: 0.00; stroke-linecap: round; stroke-linejoin: round;" id="ezcGraphLine_25"/><path d=" M 300.0000,379.2000 L 300.0000,385.2000" style="fill: none; stroke: #2e3436; stroke-width: 1; stroke-opacity: 1.00; stroke-linecap: round; stroke-linejoin: round;" id="ezcGraphLine_26"/><path d=" M 353.3333,79.8000 L 353.3333,382.2000" style="fill: none; stroke: #000000; stroke-width: 1; stroke-opacity: 0.00; stroke-linecap: round; stroke-linejoin: round;" id="ezcGraphLine_28"/><path d=" M 353.3333,379.2000 L 353.3333,385.2000" style="fill: none; stroke: #2e3436; stroke-width: 1; stroke-opacity: 1.00; stroke-linecap: round; stroke-linejoin: round;" id="ezcGraphLine_29"/><path d=" M 406.6667,79.8000 L 406.6667,382.2000" style="fill: none; stroke: #000000; stroke-width: 1; stroke-opacity: 0.00; stroke-linecap: round; stroke-linejoin: round;" id="ezcGraphLine_31"/><path d=" M 406.6667,379.2000 L 406.6667,385.2000" style="fill: none; stroke: #2e3436; stroke-width: 1; stroke-opacity: 1.00; stroke-linecap: round; stroke-linejoin: round;" id="ezcGraphLine_32"/><path d=" M 460.0000,79.8000 L 460.0000,382.2000" style="fill: none; stroke: #000000; stroke-width: 1; stroke-opacity: 0.00; stroke-linecap: round; stroke-linejoin: round;" id="ezcGraphLine_34"/><path d=" M 460.0000,379.2000 L 460.0000,385.2000" style="fill: none; stroke: #2e3436; stroke-width: 1; stroke-opacity: 1.00; stroke-linecap: round; stroke-linejoin: round;" id="ezcGraphLine_35"/><path d=" M 140.0000,420.0000 L 140.0000,42.0000" style="fill: none; stroke: #2e3436; stroke-width: 1; stroke-opacity: 1.00; stroke-linecap: round; stroke-linejoin: round;" id="ezcGraphLine_36"/><path d=" M 136.0000,50.0000 L 140.0000,42.0000 L 144.0000,50.0000 L 136.0000,50.0000 z " style="fill: #2e3436; fill-opacity: 1.00; stroke: none;" id="ezcGraphPolygon_37"/><path d=" M 140.0000,231.0000 L 460.0000,231.0000" style="fill: none; stroke: #000000; stroke-width: 1; stroke-opacity: 0.00; stroke-linecap: round; stroke-linejoin: round;" id="ezcGraphLine_40"/><path d=" M 140.0000,231.0000 L 143.0000,231.0000" style="fill: none; stroke: #2e3436; stroke-width: 1; stroke-opacity: 1.00; stroke-linecap: round; stroke-linejoin: round;" id="ezcGraphLine_41"/><path d=" M 140.0000,79.8000 L 460.0000,79.8000" style="fill: none; stroke: #000000; stroke-width: 1; stroke-opacity: 0.00; stroke-linecap: round; stroke-linejoin: round;" id="ezcGraphLine_43"/><path d=" M 140.0000,79.8000 L 143.0000,79.8000" style="fill: none; stroke: #2e3436; stroke-width: 1; stroke-opacity: 1.00; stroke-linecap: round; stroke-linejoin: round;" id="ezcGraphLine_44"/><path d=" M 166.6667,266.1628 L 166.6667,266.1628" style="fill: none; stroke: #3465a4; stroke-width: 1; stroke-opacity: 1.00; stroke-linecap: round; stroke-linejoin: round;" id="ezcGraphLine_46"/><path d=" M 166.6667,266.1628 L 220.0000,340.0047" style="fill: none; stroke: #3465a4; stroke-width: 1; stroke-opacity: 1.00; stroke-linecap: round; stroke-linejoin: round;" id="ezcGraphLine_48"/><path d=" M 220.0000,340.0047 L 273.3333,338.2465" style="fill: none; stroke: #3465a4; stroke-width: 1; stroke-opacity: 1.00; stroke-linecap: round; stroke-linejoin: round;" id="ezcGraphLine_50"/><path d=" M 273.3333,338.2465 L 326.6667,271.4372" style="fill: none; stroke: #3465a4; stroke-width: 1; stroke-opacity: 1.00; stroke-linecap: round; stroke-linejoin: round;" id="ezcGraphLine_52"/><path d=" M 326.6667,271.4372 L 380.0000,336.4884" style="fill: none; stroke: #3465a4; stroke-width: 1; stroke-opacity: 1.00; stroke-linecap: round; stroke-linejoin: round;" id="ezcGraphLine_54"/><path d=" M 380.0000,336.4884 L 433.3333,81.5581" style="fill: none; stroke: #3465a4; stroke-width: 1; stroke-opacity: 1.00; stroke-linecap: round; stroke-linejoin: round;" id="ezcGraphLine_56"/><path d=" M 166.6667,376.9256 L 166.6667,376.9256" style="fill: none; stroke: #4e9a06; stroke-width: 1; stroke-opacity: 1.00; stroke-linecap: round; stroke-linejoin: round;" id="ezcGraphLine_58"/><path d=" M 166.6667,376.9256 L 220.0000,373.4093" style="fill: none; stroke: #4e9a06; stroke-width: 1; stroke-opacity: 1.00; stroke-linecap: round; stroke-linejoin: round;" id="ezcGraphLine_60"/><path d=" M 220.0000,373.4093 L 273.3333,368.1349" style="fill: none; stroke: #4e9a06; stroke-width: 1; stroke-opacity: 1.00; stroke-linecap: round; stroke-linejoin: round;" id="ezcGraphLine_62"/><path d=" M 273.3333,368.1349 L 326.6667,364.6186" style="fill: none; stroke: #4e9a06; stroke-width: 1; stroke-opacity: 1.00; stroke-linecap: round; stroke-linejoin: round;" id="ezcGraphLine_64"/><path d=" M 326.6667,364.6186 L 380.0000,375.1674" style="fill: none; stroke: #4e9a06; stroke-width: 1; stroke-opacity: 1.00; stroke-linecap: round; stroke-linejoin: round;" id="ezcGraphLine_66"/><path d=" M 380.0000,375.1674 L 433.3333,362.8605" style="fill: none; stroke: #4e9a06; stroke-width: 1; stroke-opacity: 1.00; stroke-linecap: round; stroke-linejoin: round;" id="ezcGraphLine_68"/><path d=" M 166.6667,368.1349 L 166.6667,368.1349" style="fill: none; stroke: #cc0000; stroke-width: 1; stroke-opacity: 1.00; stroke-linecap: round; stroke-linejoin: round;" id="ezcGraphLine_70"/><path d=" M 166.6667,368.1349 L 220.0000,376.9256" style="fill: none; stroke: #cc0000; stroke-width: 1; stroke-opacity: 1.00; stroke-linecap: round; stroke-linejoin: round;" id="ezcGraphLine_72"/><path d=" M 220.0000,376.9256 L 273.3333,371.6512" style="fill: none; stroke: #cc0000; stroke-width: 1; stroke-opacity: 1.00; stroke-linecap: round; stroke-linejoin: round;" id="ezcGraphLine_74"/><path d=" M 273.3333,371.6512 L 326.6667,375.1674" style="fill: none; stroke: #cc0000; stroke-width: 1; stroke-opacity: 1.00; stroke-linecap: round; stroke-linejoin: round;" id="ezcGraphLine_76"/><path d=" M 326.6667,375.1674 L 380.0000,375.1674" style="fill: none; stroke: #cc0000; stroke-width: 1; stroke-opacity: 1.00; stroke-linecap: round; stroke-linejoin: round;" id="ezcGraphLine_78"/><path d=" M 380.0000,375.1674 L 433.3333,369.8930" style="fill: none; stroke: #cc0000; stroke-width: 1; stroke-opacity: 1.00; stroke-linecap: round; stroke-linejoin: round;" id="ezcGraphLine_80"/><path d=" M 166.6667,376.9256 L 166.6667,376.9256" style="fill: none; stroke: #edd400; stroke-width: 1; stroke-opacity: 1.00; stroke-linecap: round; stroke-linejoin: round;" id="ezcGraphLine_82"/><path d=" M 166.6667,376.9256 L 273.3333,375.1674" style="fill: none; stroke: #edd400; stroke-width: 1; stroke-opacity: 1.00; stroke-linecap: round; stroke-linejoin: round;" id="ezcGraphLine_84"/><path d=" M 273.3333,375.1674 L 326.6667,371.6512" style="fill: none; stroke: #edd400; stroke-width: 1; stroke-opacity: 1.00; stroke-linecap: round; stroke-linejoin: round;" id="ezcGraphLine_86"/><path d=" M 326.6667,371.6512 L 380.0000,378.6837" style="fill: none; stroke: #edd400; stroke-width: 1; stroke-opacity: 1.00; stroke-linecap: round; stroke-linejoin: round;" id="ezcGraphLine_88"/><path d=" M 380.0000,378.6837 L 433.3333,371.6512" style="fill: none; stroke: #edd400; stroke-width: 1; stroke-opacity: 1.00; stroke-linecap: round; stroke-linejoin: round;" id="ezcGraphLine_90"/><path d=" M 166.6667,376.9256 L 166.6667,376.9256" style="fill: none; stroke: #75505b; stroke-width: 1; stroke-opacity: 1.00; stroke-linecap: round; stroke-linejoin: round;" id="ezcGraphLine_92"/><path d=" M 166.6667,376.9256 L 220.0000,380.4419" style="fill: none; stroke: #75505b; stroke-width: 1; stroke-opacity: 1.00; stroke-linecap: round; stroke-linejoin: round;" id="ezcGraphLine_94"/><path d=" M 220.0000,380.4419 L 273.3333,376.9256" style="fill: none; stroke: #75505b; stroke-width: 1; stroke-opacity: 1.00; stroke-linecap: round; stroke-linejoin: round;" id="ezcGraphLine_96"/><path d=" M 273.3333,376.9256 L 326.6667,375.1674" style="fill: none; stroke: #75505b; stroke-width: 1; stroke-opacity: 1.00; stroke-linecap: round; stroke-linejoin: round;" id="ezcGraphLine_98"/><path d=" M 326.6667,375.1674 L 380.0000,380.4419" style="fill: none; stroke: #75505b; stroke-width: 1; stroke-opacity: 1.00; stroke-linecap: round; stroke-linejoin: round;" id="ezcGraphLine_100"/><path d=" M 380.0000,380.4419 L 433.3333,375.1674" style="fill: none; stroke: #75505b; stroke-width: 1; stroke-opacity: 1.00; stroke-linecap: round; stroke-linejoin: round;" id="ezcGraphLine_102"/><path d=" M 163.6667,269.1628 L 163.6667,263.1628 L 169.6667,263.1628 L 169.6667,269.1628 L 163.6667,269.1628 z " style="fill: #3465a4; fill-opacity: 1.00; stroke: none; cursor: pointer;" id="ezcGraphPolygon_104" onclick="top.location = 'http://127.0.0.1/bsd-hardware.info/index.php?view=computers&amp;type=desktop&amp;f=os_display_manager&amp;v=&amp;p=-1&amp;p=77'"/><path d=" M 217.0000,343.0047 L 217.0000,337.0047 L 223.0000,337.0047 L 223.0000,343.0047 L 217.0000,343.0047 z " style="fill: #3465a4; fill-opacity: 1.00; stroke: none; cursor: pointer;" id="ezcGraphPolygon_105" onclick="top.location = 'http://127.0.0.1/bsd-hardware.info/index.php?view=computers&amp;type=desktop&amp;f=os_display_manager&amp;v=&amp;p=-1&amp;p=78'"/><path d=" M 270.3333,341.2465 L 270.3333,335.2465 L 276.3333,335.2465 L 276.3333,341.2465 L 270.3333,341.2465 z " style="fill: #3465a4; fill-opacity: 1.00; stroke: none; cursor: pointer;" id="ezcGraphPolygon_106" onclick="top.location = 'http://127.0.0.1/bsd-hardware.info/index.php?view=computers&amp;type=desktop&amp;f=os_display_manager&amp;v=&amp;p=-1&amp;p=79'"/><path d=" M 323.6667,274.4372 L 323.6667,268.4372 L 329.6667,268.4372 L 329.6667,274.4372 L 323.6667,274.4372 z " style="fill: #3465a4; fill-opacity: 1.00; stroke: none; cursor: pointer;" id="ezcGraphPolygon_107" onclick="top.location = 'http://127.0.0.1/bsd-hardware.info/index.php?view=computers&amp;type=desktop&amp;f=os_display_manager&amp;v=&amp;p=-1&amp;p=80'"/><path d=" M 377.0000,339.4884 L 377.0000,333.4884 L 383.0000,333.4884 L 383.0000,339.4884 L 377.0000,339.4884 z " style="fill: #3465a4; fill-opacity: 1.00; stroke: none; cursor: pointer;" id="ezcGraphPolygon_108" onclick="top.location = 'http://127.0.0.1/bsd-hardware.info/index.php?view=computers&amp;type=desktop&amp;f=os_display_manager&amp;v=&amp;p=-1&amp;p=81'"/><path d=" M 430.3333,84.5581 L 430.3333,78.5581 L 436.3333,78.5581 L 436.3333,84.5581 L 430.3333,84.5581 z " style="fill: #3465a4; fill-opacity: 1.00; stroke: none; cursor: pointer;" id="ezcGraphPolygon_109" onclick="top.location = 'http://127.0.0.1/bsd-hardware.info/index.php?view=computers&amp;type=desktop&amp;f=os_display_manager&amp;v=&amp;p=-1&amp;p=82'"/><path d=" M 163.6667,379.9256 L 163.6667,373.9256 L 169.6667,373.9256 L 169.6667,379.9256 L 163.6667,379.9256 z " style="fill: #4e9a06; fill-opacity: 1.00; stroke: none; cursor: pointer;" id="ezcGraphPolygon_110" onclick="top.location = 'http://127.0.0.1/bsd-hardware.info/index.php?view=computers&amp;type=desktop&amp;f=os_display_manager&amp;v=SLiM&amp;p=-1&amp;p=77'"/><path d=" M 217.0000,376.4093 L 217.0000,370.4093 L 223.0000,370.4093 L 223.0000,376.4093 L 217.0000,376.4093 z " style="fill: #4e9a06; fill-opacity: 1.00; stroke: none; cursor: pointer;" id="ezcGraphPolygon_111" onclick="top.location = 'http://127.0.0.1/bsd-hardware.info/index.php?view=computers&amp;type=desktop&amp;f=os_display_manager&amp;v=SLiM&amp;p=-1&amp;p=78'"/><path d=" M 270.3333,371.1349 L 270.3333,365.1349 L 276.3333,365.1349 L 276.3333,371.1349 L 270.3333,371.1349 z " style="fill: #4e9a06; fill-opacity: 1.00; stroke: none; cursor: pointer;" id="ezcGraphPolygon_112" onclick="top.location = 'http://127.0.0.1/bsd-hardware.info/index.php?view=computers&amp;type=desktop&amp;f=os_display_manager&amp;v=SLiM&amp;p=-1&amp;p=79'"/><path d=" M 323.6667,367.6186 L 323.6667,361.6186 L 329.6667,361.6186 L 329.6667,367.6186 L 323.6667,367.6186 z " style="fill: #4e9a06; fill-opacity: 1.00; stroke: none; cursor: pointer;" id="ezcGraphPolygon_113" onclick="top.location = 'http://127.0.0.1/bsd-hardware.info/index.php?view=computers&amp;type=desktop&amp;f=os_display_manager&amp;v=SLiM&amp;p=-1&amp;p=80'"/><path d=" M 377.0000,378.1674 L 377.0000,372.1674 L 383.0000,372.1674 L 383.0000,378.1674 L 377.0000,378.1674 z " style="fill: #4e9a06; fill-opacity: 1.00; stroke: none; cursor: pointer;" id="ezcGraphPolygon_114" onclick="top.location = 'http://127.0.0.1/bsd-hardware.info/index.php?view=computers&amp;type=desktop&amp;f=os_display_manager&amp;v=SLiM&amp;p=-1&amp;p=81'"/><path d=" M 430.3333,365.8605 L 430.3333,359.8605 L 436.3333,359.8605 L 436.3333,365.8605 L 430.3333,365.8605 z " style="fill: #4e9a06; fill-opacity: 1.00; stroke: none; cursor: pointer;" id="ezcGraphPolygon_115" onclick="top.location = 'http://127.0.0.1/bsd-hardware.info/index.php?view=computers&amp;type=desktop&amp;f=os_display_manager&amp;v=SLiM&amp;p=-1&amp;p=82'"/><path d=" M 163.6667,371.1349 L 163.6667,365.1349 L 169.6667,365.1349 L 169.6667,371.1349 L 163.6667,371.1349 z " style="fill: #cc0000; fill-opacity: 1.00; stroke: none; cursor: pointer;" id="ezcGraphPolygon_116" onclick="top.location = 'http://127.0.0.1/bsd-hardware.info/index.php?view=computers&amp;type=desktop&amp;f=os_display_manager&amp;v=SDDM&amp;p=-1&amp;p=77'"/><path d=" M 217.0000,379.9256 L 217.0000,373.9256 L 223.0000,373.9256 L 223.0000,379.9256 L 217.0000,379.9256 z " style="fill: #cc0000; fill-opacity: 1.00; stroke: none; cursor: pointer;" id="ezcGraphPolygon_117" onclick="top.location = 'http://127.0.0.1/bsd-hardware.info/index.php?view=computers&amp;type=desktop&amp;f=os_display_manager&amp;v=SDDM&amp;p=-1&amp;p=78'"/><path d=" M 270.3333,374.6512 L 270.3333,368.6512 L 276.3333,368.6512 L 276.3333,374.6512 L 270.3333,374.6512 z " style="fill: #cc0000; fill-opacity: 1.00; stroke: none; cursor: pointer;" id="ezcGraphPolygon_118" onclick="top.location = 'http://127.0.0.1/bsd-hardware.info/index.php?view=computers&amp;type=desktop&amp;f=os_display_manager&amp;v=SDDM&amp;p=-1&amp;p=79'"/><path d=" M 323.6667,378.1674 L 323.6667,372.1674 L 329.6667,372.1674 L 329.6667,378.1674 L 323.6667,378.1674 z " style="fill: #cc0000; fill-opacity: 1.00; stroke: none; cursor: pointer;" id="ezcGraphPolygon_119" onclick="top.location = 'http://127.0.0.1/bsd-hardware.info/index.php?view=computers&amp;type=desktop&amp;f=os_display_manager&amp;v=SDDM&amp;p=-1&amp;p=80'"/><path d=" M 377.0000,378.1674 L 377.0000,372.1674 L 383.0000,372.1674 L 383.0000,378.1674 L 377.0000,378.1674 z " style="fill: #cc0000; fill-opacity: 1.00; stroke: none; cursor: pointer;" id="ezcGraphPolygon_120" onclick="top.location = 'http://127.0.0.1/bsd-hardware.info/index.php?view=computers&amp;type=desktop&amp;f=os_display_manager&amp;v=SDDM&amp;p=-1&amp;p=81'"/><path d=" M 430.3333,372.8930 L 430.3333,366.8930 L 436.3333,366.8930 L 436.3333,372.8930 L 430.3333,372.8930 z " style="fill: #cc0000; fill-opacity: 1.00; stroke: none; cursor: pointer;" id="ezcGraphPolygon_121" onclick="top.location = 'http://127.0.0.1/bsd-hardware.info/index.php?view=computers&amp;type=desktop&amp;f=os_display_manager&amp;v=SDDM&amp;p=-1&amp;p=82'"/><path d=" M 163.6667,379.9256 L 163.6667,373.9256 L 169.6667,373.9256 L 169.6667,379.9256 L 163.6667,379.9256 z " style="fill: #edd400; fill-opacity: 1.00; stroke: none; cursor: pointer;" id="ezcGraphPolygon_122" onclick="top.location = 'http://127.0.0.1/bsd-hardware.info/index.php?view=computers&amp;type=desktop&amp;f=os_display_manager&amp;v=GDM&amp;p=-1&amp;p=77'"/><path d=" M 270.3333,378.1674 L 270.3333,372.1674 L 276.3333,372.1674 L 276.3333,378.1674 L 270.3333,378.1674 z " style="fill: #edd400; fill-opacity: 1.00; stroke: none; cursor: pointer;" id="ezcGraphPolygon_123" onclick="top.location = 'http://127.0.0.1/bsd-hardware.info/index.php?view=computers&amp;type=desktop&amp;f=os_display_manager&amp;v=GDM&amp;p=-1&amp;p=79'"/><path d=" M 323.6667,374.6512 L 323.6667,368.6512 L 329.6667,368.6512 L 329.6667,374.6512 L 323.6667,374.6512 z " style="fill: #edd400; fill-opacity: 1.00; stroke: none; cursor: pointer;" id="ezcGraphPolygon_124" onclick="top.location = 'http://127.0.0.1/bsd-hardware.info/index.php?view=computers&amp;type=desktop&amp;f=os_display_manager&amp;v=GDM&amp;p=-1&amp;p=80'"/><path d=" M 377.0000,381.6837 L 377.0000,375.6837 L 383.0000,375.6837 L 383.0000,381.6837 L 377.0000,381.6837 z " style="fill: #edd400; fill-opacity: 1.00; stroke: none; cursor: pointer;" id="ezcGraphPolygon_125" onclick="top.location = 'http://127.0.0.1/bsd-hardware.info/index.php?view=computers&amp;type=desktop&amp;f=os_display_manager&amp;v=GDM&amp;p=-1&amp;p=81'"/><path d=" M 430.3333,374.6512 L 430.3333,368.6512 L 436.3333,368.6512 L 436.3333,374.6512 L 430.3333,374.6512 z " style="fill: #edd400; fill-opacity: 1.00; stroke: none; cursor: pointer;" id="ezcGraphPolygon_126" onclick="top.location = 'http://127.0.0.1/bsd-hardware.info/index.php?view=computers&amp;type=desktop&amp;f=os_display_manager&amp;v=GDM&amp;p=-1&amp;p=82'"/><path d=" M 163.6667,379.9256 L 163.6667,373.9256 L 169.6667,373.9256 L 169.6667,379.9256 L 163.6667,379.9256 z " style="fill: #75505b; fill-opacity: 1.00; stroke: none; cursor: pointer;" id="ezcGraphPolygon_127" onclick="top.location = 'http://127.0.0.1/bsd-hardware.info/index.php?view=computers&amp;type=desktop&amp;f=os_display_manager&amp;v=LightDM&amp;p=-1&amp;p=77'"/><path d=" M 217.0000,383.4419 L 217.0000,377.4419 L 223.0000,377.4419 L 223.0000,383.4419 L 217.0000,383.4419 z " style="fill: #75505b; fill-opacity: 1.00; stroke: none; cursor: pointer;" id="ezcGraphPolygon_128" onclick="top.location = 'http://127.0.0.1/bsd-hardware.info/index.php?view=computers&amp;type=desktop&amp;f=os_display_manager&amp;v=LightDM&amp;p=-1&amp;p=78'"/><path d=" M 270.3333,379.9256 L 270.3333,373.9256 L 276.3333,373.9256 L 276.3333,379.9256 L 270.3333,379.9256 z " style="fill: #75505b; fill-opacity: 1.00; stroke: none; cursor: pointer;" id="ezcGraphPolygon_129" onclick="top.location = 'http://127.0.0.1/bsd-hardware.info/index.php?view=computers&amp;type=desktop&amp;f=os_display_manager&amp;v=LightDM&amp;p=-1&amp;p=79'"/><path d=" M 323.6667,378.1674 L 323.6667,372.1674 L 329.6667,372.1674 L 329.6667,378.1674 L 323.6667,378.1674 z " style="fill: #75505b; fill-opacity: 1.00; stroke: none; cursor: pointer;" id="ezcGraphPolygon_130" onclick="top.location = 'http://127.0.0.1/bsd-hardware.info/index.php?view=computers&amp;type=desktop&amp;f=os_display_manager&amp;v=LightDM&amp;p=-1&amp;p=80'"/><path d=" M 377.0000,383.4419 L 377.0000,377.4419 L 383.0000,377.4419 L 383.0000,383.4419 L 377.0000,383.4419 z " style="fill: #75505b; fill-opacity: 1.00; stroke: none; cursor: pointer;" id="ezcGraphPolygon_131" onclick="top.location = 'http://127.0.0.1/bsd-hardware.info/index.php?view=computers&amp;type=desktop&amp;f=os_display_manager&amp;v=LightDM&amp;p=-1&amp;p=81'"/><path d=" M 430.3333,378.1674 L 430.3333,372.1674 L 436.3333,372.1674 L 436.3333,378.1674 L 430.3333,378.1674 z " style="fill: #75505b; fill-opacity: 1.00; stroke: none; cursor: pointer;" id="ezcGraphPolygon_132" onclick="top.location = 'http://127.0.0.1/bsd-hardware.info/index.php?view=computers&amp;type=desktop&amp;f=os_display_manager&amp;v=LightDM&amp;p=-1&amp;p=82'"/><g id="ezcGraphTextBox_3"><path d=" M 90.5000,42.0000 L 90.5000,0.5000 L 410.0000,0.5000 L 410.0000,42.0000 L 90.5000,42.0000 z " style="fill: #ffffff; fill-opacity: 0.00; stroke: none;" id="ezcGraphPolygon_133"/><text id="ezcGraphTextBox_3_text" x="91.0000" text-length="318.0000px" y="35.0000" style="font-size: 40px; font-family: 'Arial'; fill: #2e3436; fill-opacity: 1.00; stroke: none;">Display Manager</text></g><g id="ezcGraphTextBox_6" style=" cursor: pointer;" onclick="top.location = 'http://127.0.0.1/bsd-hardware.info/index.php?view=computers&amp;type=desktop&amp;f=os_display_manager&amp;v=&amp;p=-1'"><path d=" M 16.5000,59.0000 L 16.5000,43.5000 L 69.9400,43.5000 L 69.9400,59.0000 L 16.5000,59.0000 z " style="fill: #ffffff; fill-opacity: 0.00; stroke: none;" id="ezcGraphPolygon_134"/><text id="ezcGraphTextBox_6_text" x="17.0000" text-length="51.9400px" y="55.9000" style="font-size: 14px; font-family: 'Arial'; fill: #2e3436; fill-opacity: 1.00; stroke: none;">Console</text></g><g id="ezcGraphTextBox_8" style=" cursor: pointer;" onclick="top.location = 'http://127.0.0.1/bsd-hardware.info/index.php?view=computers&amp;type=desktop&amp;f=os_display_manager&amp;v=SLiM&amp;p=-1'"><path d=" M 16.5000,77.0000 L 16.5000,61.5000 L 47.6800,61.5000 L 47.6800,77.0000 L 16.5000,77.0000 z " style="fill: #ffffff; fill-opacity: 0.00; stroke: none;" id="ezcGraphPolygon_135"/><text id="ezcGraphTextBox_8_text" x="17.0000" text-length="29.6800px" y="73.9000" style="font-size: 14px; font-family: 'Arial'; fill: #2e3436; fill-opacity: 1.00; stroke: none;">SLiM</text></g><g id="ezcGraphTextBox_10" style=" cursor: pointer;" onclick="top.location = 'http://127.0.0.1/bsd-hardware.info/index.php?view=computers&amp;type=desktop&amp;f=os_display_manager&amp;v=SDDM&amp;p=-1'"><path d=" M 16.5000,95.0000 L 16.5000,79.5000 L 47.6800,79.5000 L 47.6800,95.0000 L 16.5000,95.0000 z " style="fill: #ffffff; fill-opacity: 0.00; stroke: none;" id="ezcGraphPolygon_136"/><text id="ezcGraphTextBox_10_text" x="17.0000" text-length="29.6800px" y="91.9000" style="font-size: 14px; font-family: 'Arial'; fill: #2e3436; fill-opacity: 1.00; stroke: none;">SDDM</text></g><g id="ezcGraphTextBox_12" style=" cursor: pointer;" onclick="top.location = 'http://127.0.0.1/bsd-hardware.info/index.php?view=computers&amp;type=desktop&amp;f=os_display_manager&amp;v=GDM&amp;p=-1'"><path d=" M 16.5000,113.0000 L 16.5000,97.5000 L 40.2600,97.5000 L 40.2600,113.0000 L 16.5000,113.0000 z " style="fill: #ffffff; fill-opacity: 0.00; stroke: none;" id="ezcGraphPolygon_137"/><text id="ezcGraphTextBox_12_text" x="17.0000" text-length="22.2600px" y="109.9000" style="font-size: 14px; font-family: 'Arial'; fill: #2e3436; fill-opacity: 1.00; stroke: none;">GDM</text></g><g id="ezcGraphTextBox_14" style=" cursor: pointer;" onclick="top.location = 'http://127.0.0.1/bsd-hardware.info/index.php?view=computers&amp;type=desktop&amp;f=os_display_manager&amp;v=LightDM&amp;p=-1'"><path d=" M 16.5000,131.0000 L 16.5000,115.5000 L 69.9400,115.5000 L 69.9400,131.0000 L 16.5000,131.0000 z " style="fill: #ffffff; fill-opacity: 0.00; stroke: none;" id="ezcGraphPolygon_138"/><text id="ezcGraphTextBox_14_text" x="17.0000" text-length="51.9400px" y="127.9000" style="font-size: 14px; font-family: 'Arial'; fill: #2e3436; fill-opacity: 1.00; stroke: none;">LightDM</text></g><g id="ezcGraphTextBox_17" transform="rotate( 0.00 493.0000 375.2000 )"><path d=" M 460.4000,381.2000 L 460.4000,365.7000 L 499.0000,365.7000 L 499.0000,381.2000 L 460.4000,381.2000 z " style="fill: #ffffff; fill-opacity: 0.00; stroke: none;" id="ezcGraphPolygon_139"/><text id="ezcGraphTextBox_17_text" x="460.9000" text-length="37.1000px" y="378.1000" style="font-size: 14px; font-family: 'Arial'; fill: #2e3436; fill-opacity: 1.00; stroke: none;">Time </text></g><g id="ezcGraphTextBox_18"><path d=" M 148.8067,413.3000 L 148.8067,383.7000 L 185.0267,383.7000 L 185.0267,413.3000 L 148.8067,413.3000 z " style="fill: #ffffff; fill-opacity: 0.00; stroke: none;" id="ezcGraphPolygon_140"/><text id="ezcGraphTextBox_18_text" x="155.5367" text-length="22.2600px" y="396.1000" style="font-size: 14px; font-family: 'Arial'; fill: #2e3436; fill-opacity: 1.00; stroke: none;">May</text><text id="ezcGraphTextBox_18_text" x="149.3067" text-length="34.7200px" y="411.5000" style="font-size: 14px; font-family: 'Arial'; fill: #2e3436; fill-opacity: 1.00; stroke: none;">2020</text></g><g id="ezcGraphTextBox_21"><path d=" M 202.1400,413.3000 L 202.1400,383.7000 L 238.3600,383.7000 L 238.3600,413.3000 L 202.1400,413.3000 z " style="fill: #ffffff; fill-opacity: 0.00; stroke: none;" id="ezcGraphPolygon_141"/><text id="ezcGraphTextBox_21_text" x="208.8700" text-length="22.2600px" y="396.1000" style="font-size: 14px; font-family: 'Arial'; fill: #2e3436; fill-opacity: 1.00; stroke: none;">Jun</text><text id="ezcGraphTextBox_21_text" x="202.6400" text-length="34.7200px" y="411.5000" style="font-size: 14px; font-family: 'Arial'; fill: #2e3436; fill-opacity: 1.00; stroke: none;">2020</text></g><g id="ezcGraphTextBox_24"><path d=" M 255.4733,413.3000 L 255.4733,383.7000 L 291.6933,383.7000 L 291.6933,413.3000 L 255.4733,413.3000 z " style="fill: #ffffff; fill-opacity: 0.00; stroke: none;" id="ezcGraphPolygon_142"/><text id="ezcGraphTextBox_24_text" x="262.2033" text-length="22.2600px" y="396.1000" style="font-size: 14px; font-family: 'Arial'; fill: #2e3436; fill-opacity: 1.00; stroke: none;">Jul</text><text id="ezcGraphTextBox_24_text" x="255.9733" text-length="34.7200px" y="411.5000" style="font-size: 14px; font-family: 'Arial'; fill: #2e3436; fill-opacity: 1.00; stroke: none;">2020</text></g><g id="ezcGraphTextBox_27"><path d=" M 308.8067,413.3000 L 308.8067,383.7000 L 345.0267,383.7000 L 345.0267,413.3000 L 308.8067,413.3000 z " style="fill: #ffffff; fill-opacity: 0.00; stroke: none;" id="ezcGraphPolygon_143"/><text id="ezcGraphTextBox_27_text" x="315.5367" text-length="22.2600px" y="396.1000" style="font-size: 14px; font-family: 'Arial'; fill: #2e3436; fill-opacity: 1.00; stroke: none;">Aug</text><text id="ezcGraphTextBox_27_text" x="309.3067" text-length="34.7200px" y="411.5000" style="font-size: 14px; font-family: 'Arial'; fill: #2e3436; fill-opacity: 1.00; stroke: none;">2020</text></g><g id="ezcGraphTextBox_30"><path d=" M 362.1400,413.3000 L 362.1400,383.7000 L 398.3600,383.7000 L 398.3600,413.3000 L 362.1400,413.3000 z " style="fill: #ffffff; fill-opacity: 0.00; stroke: none;" id="ezcGraphPolygon_144"/><text id="ezcGraphTextBox_30_text" x="368.8700" text-length="22.2600px" y="396.1000" style="font-size: 14px; font-family: 'Arial'; fill: #2e3436; fill-opacity: 1.00; stroke: none;">Sep</text><text id="ezcGraphTextBox_30_text" x="362.6400" text-length="34.7200px" y="411.5000" style="font-size: 14px; font-family: 'Arial'; fill: #2e3436; fill-opacity: 1.00; stroke: none;">2020</text></g><g id="ezcGraphTextBox_33"><path d=" M 415.4733,413.3000 L 415.4733,383.7000 L 451.6933,383.7000 L 451.6933,413.3000 L 415.4733,413.3000 z " style="fill: #ffffff; fill-opacity: 0.00; stroke: none;" id="ezcGraphPolygon_145"/><text id="ezcGraphTextBox_33_text" x="422.2033" text-length="22.2600px" y="396.1000" style="font-size: 14px; font-family: 'Arial'; fill: #2e3436; fill-opacity: 1.00; stroke: none;">Oct</text><text id="ezcGraphTextBox_33_text" x="415.9733" text-length="34.7200px" y="411.5000" style="font-size: 14px; font-family: 'Arial'; fill: #2e3436; fill-opacity: 1.00; stroke: none;">2020</text></g><g id="ezcGraphTextBox_38" transform="rotate( 0.00 147.0000 49.0000 )"><path d=" M 141.5000,59.0000 L 141.5000,43.5000 L 358.1800,43.5000 L 358.1800,59.0000 L 141.5000,59.0000 z " style="fill: #ffffff; fill-opacity: 0.00; stroke: none;" id="ezcGraphPolygon_146"/><text id="ezcGraphTextBox_38_text" x="142.0000" text-length="215.1800px" y="55.9000" style="font-size: 14px; font-family: 'Arial'; fill: #2e3436; fill-opacity: 1.00; stroke: none;">Desktops by "Display Manager"</text></g><g id="ezcGraphTextBox_39"><path d=" M 128.8200,381.2000 L 128.8200,365.7000 L 139.0000,365.7000 L 139.0000,381.2000 L 128.8200,381.2000 z " style="fill: #ffffff; fill-opacity: 0.00; stroke: none;" id="ezcGraphPolygon_147"/><text id="ezcGraphTextBox_39_text" x="129.3200" text-length="8.6800px" y="378.1000" style="font-size: 14px; font-family: 'Arial'; fill: #2e3436; fill-opacity: 1.00; stroke: none;">0</text></g><g id="ezcGraphTextBox_42"><path d=" M 120.1400,230.0000 L 120.1400,214.5000 L 139.0000,214.5000 L 139.0000,230.0000 L 120.1400,230.0000 z " style="fill: #ffffff; fill-opacity: 0.00; stroke: none;" id="ezcGraphPolygon_148"/><text id="ezcGraphTextBox_42_text" x="120.6400" text-length="17.3600px" y="226.9000" style="font-size: 14px; font-family: 'Arial'; fill: #2e3436; fill-opacity: 1.00; stroke: none;">86</text></g><g id="ezcGraphTextBox_45"><path d=" M 111.4600,96.8000 L 111.4600,81.3000 L 139.0000,81.3000 L 139.0000,96.8000 L 111.4600,96.8000 z " style="fill: #ffffff; fill-opacity: 0.00; stroke: none;" id="ezcGraphPolygon_149"/><text id="ezcGraphTextBox_45_text" x="111.9600" text-length="26.0400px" y="93.7000" style="font-size: 14px; font-family: 'Arial'; fill: #2e3436; fill-opacity: 1.00; stroke: none;">172</text></g><g id="ezcGraphTextBox_47"><path d=" M 159.9667,261.1628 L 159.9667,249.6628 L 173.8667,249.6628 L 173.8667,261.1628 L 159.9667,261.1628 z " style="fill: #ffffff; fill-opacity: 0.00; stroke: none;" id="ezcGraphPolygon_150"/><text id="ezcGraphTextBox_47_text" x="160.4667" text-length="12.4000px" y="258.6628" style="font-size: 10px; font-family: 'Arial'; fill: #2e3436; fill-opacity: 1.00; stroke: none;">66</text></g><g id="ezcGraphTextBox_49"><path d=" M 213.3000,335.0047 L 213.3000,323.5047 L 227.2000,323.5047 L 227.2000,335.0047 L 213.3000,335.0047 z " style="fill: #ffffff; fill-opacity: 0.00; stroke: none;" id="ezcGraphPolygon_151"/><text id="ezcGraphTextBox_49_text" x="213.8000" text-length="12.4000px" y="332.5047" style="font-size: 10px; font-family: 'Arial'; fill: #2e3436; fill-opacity: 1.00; stroke: none;">24</text></g><g id="ezcGraphTextBox_51"><path d=" M 266.6333,333.2465 L 266.6333,321.7465 L 280.5333,321.7465 L 280.5333,333.2465 L 266.6333,333.2465 z " style="fill: #ffffff; fill-opacity: 0.00; stroke: none;" id="ezcGraphPolygon_152"/><text id="ezcGraphTextBox_51_text" x="267.1333" text-length="12.4000px" y="330.7465" style="font-size: 10px; font-family: 'Arial'; fill: #2e3436; fill-opacity: 1.00; stroke: none;">25</text></g><g id="ezcGraphTextBox_53"><path d=" M 319.9667,266.4372 L 319.9667,254.9372 L 333.8667,254.9372 L 333.8667,266.4372 L 319.9667,266.4372 z " style="fill: #ffffff; fill-opacity: 0.00; stroke: none;" id="ezcGraphPolygon_153"/><text id="ezcGraphTextBox_53_text" x="320.4667" text-length="12.4000px" y="263.9372" style="font-size: 10px; font-family: 'Arial'; fill: #2e3436; fill-opacity: 1.00; stroke: none;">63</text></g><g id="ezcGraphTextBox_55"><path d=" M 373.3000,331.4884 L 373.3000,319.9884 L 387.2000,319.9884 L 387.2000,331.4884 L 373.3000,331.4884 z " style="fill: #ffffff; fill-opacity: 0.00; stroke: none;" id="ezcGraphPolygon_154"/><text id="ezcGraphTextBox_55_text" x="373.8000" text-length="12.4000px" y="328.9884" style="font-size: 10px; font-family: 'Arial'; fill: #2e3436; fill-opacity: 1.00; stroke: none;">26</text></g><g id="ezcGraphTextBox_57"><path d=" M 423.5333,76.5581 L 423.5333,65.0581 L 443.6333,65.0581 L 443.6333,76.5581 L 423.5333,76.5581 z " style="fill: #ffffff; fill-opacity: 0.00; stroke: none;" id="ezcGraphPolygon_155"/><text id="ezcGraphTextBox_57_text" x="424.0333" text-length="18.6000px" y="74.0581" style="font-size: 10px; font-family: 'Arial'; fill: #2e3436; fill-opacity: 1.00; stroke: none;">171</text></g><g id="ezcGraphTextBox_59"><path d=" M 163.0667,371.9256 L 163.0667,360.4256 L 170.7667,360.4256 L 170.7667,371.9256 L 163.0667,371.9256 z " style="fill: #ffffff; fill-opacity: 0.00; stroke: none;" id="ezcGraphPolygon_156"/><text id="ezcGraphTextBox_59_text" x="163.5667" text-length="6.2000px" y="369.4256" style="font-size: 10px; font-family: 'Arial'; fill: #2e3436; fill-opacity: 1.00; stroke: none;">3</text></g><g id="ezcGraphTextBox_61"><path d=" M 216.4000,368.4093 L 216.4000,356.9093 L 224.1000,356.9093 L 224.1000,368.4093 L 216.4000,368.4093 z " style="fill: #ffffff; fill-opacity: 0.00; stroke: none;" id="ezcGraphPolygon_157"/><text id="ezcGraphTextBox_61_text" x="216.9000" text-length="6.2000px" y="365.9093" style="font-size: 10px; font-family: 'Arial'; fill: #2e3436; fill-opacity: 1.00; stroke: none;">5</text></g><g id="ezcGraphTextBox_63"><path d=" M 269.7333,363.1349 L 269.7333,351.6349 L 277.4333,351.6349 L 277.4333,363.1349 L 269.7333,363.1349 z " style="fill: #ffffff; fill-opacity: 0.00; stroke: none;" id="ezcGraphPolygon_158"/><text id="ezcGraphTextBox_63_text" x="270.2333" text-length="6.2000px" y="360.6349" style="font-size: 10px; font-family: 'Arial'; fill: #2e3436; fill-opacity: 1.00; stroke: none;">8</text></g><g id="ezcGraphTextBox_65"><path d=" M 319.9667,359.6186 L 319.9667,348.1186 L 333.8667,348.1186 L 333.8667,359.6186 L 319.9667,359.6186 z " style="fill: #ffffff; fill-opacity: 0.00; stroke: none;" id="ezcGraphPolygon_159"/><text id="ezcGraphTextBox_65_text" x="320.4667" text-length="12.4000px" y="357.1186" style="font-size: 10px; font-family: 'Arial'; fill: #2e3436; fill-opacity: 1.00; stroke: none;">10</text></g><g id="ezcGraphTextBox_67"><path d=" M 376.4000,370.1674 L 376.4000,358.6674 L 384.1000,358.6674 L 384.1000,370.1674 L 376.4000,370.1674 z " style="fill: #ffffff; fill-opacity: 0.00; stroke: none;" id="ezcGraphPolygon_160"/><text id="ezcGraphTextBox_67_text" x="376.9000" text-length="6.2000px" y="367.6674" style="font-size: 10px; font-family: 'Arial'; fill: #2e3436; fill-opacity: 1.00; stroke: none;">4</text></g><g id="ezcGraphTextBox_69"><path d=" M 426.6333,357.8605 L 426.6333,346.3605 L 440.5333,346.3605 L 440.5333,357.8605 L 426.6333,357.8605 z " style="fill: #ffffff; fill-opacity: 0.00; stroke: none;" id="ezcGraphPolygon_161"/><text id="ezcGraphTextBox_69_text" x="427.1333" text-length="12.4000px" y="355.3605" style="font-size: 10px; font-family: 'Arial'; fill: #2e3436; fill-opacity: 1.00; stroke: none;">11</text></g><g id="ezcGraphTextBox_71"><path d=" M 163.0667,363.1349 L 163.0667,351.6349 L 170.7667,351.6349 L 170.7667,363.1349 L 163.0667,363.1349 z " style="fill: #ffffff; fill-opacity: 0.00; stroke: none;" id="ezcGraphPolygon_162"/><text id="ezcGraphTextBox_71_text" x="163.5667" text-length="6.2000px" y="360.6349" style="font-size: 10px; font-family: 'Arial'; fill: #2e3436; fill-opacity: 1.00; stroke: none;">8</text></g><g id="ezcGraphTextBox_73"><path d=" M 216.4000,371.9256 L 216.4000,360.4256 L 224.1000,360.4256 L 224.1000,371.9256 L 216.4000,371.9256 z " style="fill: #ffffff; fill-opacity: 0.00; stroke: none;" id="ezcGraphPolygon_163"/><text id="ezcGraphTextBox_73_text" x="216.9000" text-length="6.2000px" y="369.4256" style="font-size: 10px; font-family: 'Arial'; fill: #2e3436; fill-opacity: 1.00; stroke: none;">3</text></g><g id="ezcGraphTextBox_75"><path d=" M 269.7333,366.6512 L 269.7333,355.1512 L 277.4333,355.1512 L 277.4333,366.6512 L 269.7333,366.6512 z " style="fill: #ffffff; fill-opacity: 0.00; stroke: none;" id="ezcGraphPolygon_164"/><text id="ezcGraphTextBox_75_text" x="270.2333" text-length="6.2000px" y="364.1512" style="font-size: 10px; font-family: 'Arial'; fill: #2e3436; fill-opacity: 1.00; stroke: none;">6</text></g><g id="ezcGraphTextBox_77"><path d=" M 323.0667,370.1674 L 323.0667,358.6674 L 330.7667,358.6674 L 330.7667,370.1674 L 323.0667,370.1674 z " style="fill: #ffffff; fill-opacity: 0.00; stroke: none;" id="ezcGraphPolygon_165"/><text id="ezcGraphTextBox_77_text" x="323.5667" text-length="6.2000px" y="367.6674" style="font-size: 10px; font-family: 'Arial'; fill: #2e3436; fill-opacity: 1.00; stroke: none;">4</text></g><g id="ezcGraphTextBox_79"><path d=" M 376.4000,370.1674 L 376.4000,358.6674 L 384.1000,358.6674 L 384.1000,370.1674 L 376.4000,370.1674 z " style="fill: #ffffff; fill-opacity: 0.00; stroke: none;" id="ezcGraphPolygon_166"/><text id="ezcGraphTextBox_79_text" x="376.9000" text-length="6.2000px" y="367.6674" style="font-size: 10px; font-family: 'Arial'; fill: #2e3436; fill-opacity: 1.00; stroke: none;">4</text></g><g id="ezcGraphTextBox_81"><path d=" M 429.7333,364.8930 L 429.7333,353.3930 L 437.4333,353.3930 L 437.4333,364.8930 L 429.7333,364.8930 z " style="fill: #ffffff; fill-opacity: 0.00; stroke: none;" id="ezcGraphPolygon_167"/><text id="ezcGraphTextBox_81_text" x="430.2333" text-length="6.2000px" y="362.3930" style="font-size: 10px; font-family: 'Arial'; fill: #2e3436; fill-opacity: 1.00; stroke: none;">7</text></g><g id="ezcGraphTextBox_83"><path d=" M 163.0667,371.9256 L 163.0667,360.4256 L 170.7667,360.4256 L 170.7667,371.9256 L 163.0667,371.9256 z " style="fill: #ffffff; fill-opacity: 0.00; stroke: none;" id="ezcGraphPolygon_168"/><text id="ezcGraphTextBox_83_text" x="163.5667" text-length="6.2000px" y="369.4256" style="font-size: 10px; font-family: 'Arial'; fill: #2e3436; fill-opacity: 1.00; stroke: none;">3</text></g><g id="ezcGraphTextBox_85"><path d=" M 269.7333,370.1674 L 269.7333,358.6674 L 277.4333,358.6674 L 277.4333,370.1674 L 269.7333,370.1674 z " style="fill: #ffffff; fill-opacity: 0.00; stroke: none;" id="ezcGraphPolygon_169"/><text id="ezcGraphTextBox_85_text" x="270.2333" text-length="6.2000px" y="367.6674" style="font-size: 10px; font-family: 'Arial'; fill: #2e3436; fill-opacity: 1.00; stroke: none;">4</text></g><g id="ezcGraphTextBox_87"><path d=" M 323.0667,366.6512 L 323.0667,355.1512 L 330.7667,355.1512 L 330.7667,366.6512 L 323.0667,366.6512 z " style="fill: #ffffff; fill-opacity: 0.00; stroke: none;" id="ezcGraphPolygon_170"/><text id="ezcGraphTextBox_87_text" x="323.5667" text-length="6.2000px" y="364.1512" style="font-size: 10px; font-family: 'Arial'; fill: #2e3436; fill-opacity: 1.00; stroke: none;">6</text></g><g id="ezcGraphTextBox_89"><path d=" M 376.4000,373.6837 L 376.4000,362.1837 L 384.1000,362.1837 L 384.1000,373.6837 L 376.4000,373.6837 z " style="fill: #ffffff; fill-opacity: 0.00; stroke: none;" id="ezcGraphPolygon_171"/><text id="ezcGraphTextBox_89_text" x="376.9000" text-length="6.2000px" y="371.1837" style="font-size: 10px; font-family: 'Arial'; fill: #2e3436; fill-opacity: 1.00; stroke: none;">2</text></g><g id="ezcGraphTextBox_91"><path d=" M 429.7333,366.6512 L 429.7333,355.1512 L 437.4333,355.1512 L 437.4333,366.6512 L 429.7333,366.6512 z " style="fill: #ffffff; fill-opacity: 0.00; stroke: none;" id="ezcGraphPolygon_172"/><text id="ezcGraphTextBox_91_text" x="430.2333" text-length="6.2000px" y="364.1512" style="font-size: 10px; font-family: 'Arial'; fill: #2e3436; fill-opacity: 1.00; stroke: none;">6</text></g><g id="ezcGraphTextBox_93"><path d=" M 163.0667,371.9256 L 163.0667,360.4256 L 170.7667,360.4256 L 170.7667,371.9256 L 163.0667,371.9256 z " style="fill: #ffffff; fill-opacity: 0.00; stroke: none;" id="ezcGraphPolygon_173"/><text id="ezcGraphTextBox_93_text" x="163.5667" text-length="6.2000px" y="369.4256" style="font-size: 10px; font-family: 'Arial'; fill: #2e3436; fill-opacity: 1.00; stroke: none;">3</text></g><g id="ezcGraphTextBox_95"><path d=" M 216.4000,375.4419 L 216.4000,363.9419 L 224.1000,363.9419 L 224.1000,375.4419 L 216.4000,375.4419 z " style="fill: #ffffff; fill-opacity: 0.00; stroke: none;" id="ezcGraphPolygon_174"/><text id="ezcGraphTextBox_95_text" x="216.9000" text-length="6.2000px" y="372.9419" style="font-size: 10px; font-family: 'Arial'; fill: #2e3436; fill-opacity: 1.00; stroke: none;">1</text></g><g id="ezcGraphTextBox_97"><path d=" M 269.7333,371.9256 L 269.7333,360.4256 L 277.4333,360.4256 L 277.4333,371.9256 L 269.7333,371.9256 z " style="fill: #ffffff; fill-opacity: 0.00; stroke: none;" id="ezcGraphPolygon_175"/><text id="ezcGraphTextBox_97_text" x="270.2333" text-length="6.2000px" y="369.4256" style="font-size: 10px; font-family: 'Arial'; fill: #2e3436; fill-opacity: 1.00; stroke: none;">3</text></g><g id="ezcGraphTextBox_99"><path d=" M 323.0667,370.1674 L 323.0667,358.6674 L 330.7667,358.6674 L 330.7667,370.1674 L 323.0667,370.1674 z " style="fill: #ffffff; fill-opacity: 0.00; stroke: none;" id="ezcGraphPolygon_176"/><text id="ezcGraphTextBox_99_text" x="323.5667" text-length="6.2000px" y="367.6674" style="font-size: 10px; font-family: 'Arial'; fill: #2e3436; fill-opacity: 1.00; stroke: none;">4</text></g><g id="ezcGraphTextBox_101"><path d=" M 376.4000,375.4419 L 376.4000,363.9419 L 384.1000,363.9419 L 384.1000,375.4419 L 376.4000,375.4419 z " style="fill: #ffffff; fill-opacity: 0.00; stroke: none;" id="ezcGraphPolygon_177"/><text id="ezcGraphTextBox_101_text" x="376.9000" text-length="6.2000px" y="372.9419" style="font-size: 10px; font-family: 'Arial'; fill: #2e3436; fill-opacity: 1.00; stroke: none;">1</text></g><g id="ezcGraphTextBox_103"><path d=" M 429.7333,370.1674 L 429.7333,358.6674 L 437.4333,358.6674 L 437.4333,370.1674 L 429.7333,370.1674 z " style="fill: #ffffff; fill-opacity: 0.00; stroke: none;" id="ezcGraphPolygon_178"/><text id="ezcGraphTextBox_103_text" x="430.2333" text-length="6.2000px" y="367.6674" style="font-size: 10px; font-family: 'Arial'; fill: #2e3436; fill-opacity: 1.00; stroke: none;">4</text></g></g></svg>
