<?xml version="1.0"?>
<svg xmlns="http://www.w3.org/2000/svg" width="500" height="420" version="1.0" id="ezcGraph"><defs/><g id="ezcGraphChart" color-rendering="optimizeQuality" shape-rendering="geometricPrecision" text-rendering="optimizeLegibility"><path d=" M 0.0000,420.0000 L 0.0000,0.0000 L 500.0000,0.0000 L 500.0000,420.0000 L 0.0000,420.0000 z " style="fill: #eeeeec; fill-opacity: 1.00; stroke: none;" id="ezcGraphPolygon_1"/><path d=" M 0.0000,42.0000 L 0.0000,0.0000 L 500.0000,0.0000 L 500.0000,42.0000 L 0.0000,42.0000 z " style="fill: #000000; fill-opacity: 0.00; stroke: none;" id="ezcGraphPolygon_2"/><path d=" M 0.0000,420.0000 L 0.0000,42.0000 L 100.0000,42.0000 L 100.0000,420.0000 L 0.0000,420.0000 z " style="fill: #000000; fill-opacity: 0.00; stroke: none;" id="ezcGraphPolygon_4"/><path d=" M 2.0000,58.0000 L 2.0000,44.0000 L 16.0000,44.0000 L 16.0000,58.0000 L 2.0000,58.0000 z " style="fill: #3465a4; fill-opacity: 1.00; stroke: none; cursor: pointer;" id="ezcGraphPolygon_5" onclick="top.location = 'https://bsd-hardware.info/?view=computers&amp;f=mon_resolution&amp;v=1920x1080&amp;p=-1'"/><path d=" M 2.0000,76.0000 L 2.0000,62.0000 L 16.0000,62.0000 L 16.0000,76.0000 L 2.0000,76.0000 z " style="fill: #4e9a06; fill-opacity: 1.00; stroke: none; cursor: pointer;" id="ezcGraphPolygon_7" onclick="top.location = 'https://bsd-hardware.info/?view=computers&amp;f=mon_resolution&amp;v=2560x1440&amp;p=-1'"/><path d=" M 2.0000,94.0000 L 2.0000,80.0000 L 16.0000,80.0000 L 16.0000,94.0000 L 2.0000,94.0000 z " style="fill: #cc0000; fill-opacity: 1.00; stroke: none; cursor: pointer;" id="ezcGraphPolygon_9" onclick="top.location = 'https://bsd-hardware.info/?view=computers&amp;f=mon_resolution&amp;v=2560x1080&amp;p=-1'"/><path d=" M 2.0000,112.0000 L 2.0000,98.0000 L 16.0000,98.0000 L 16.0000,112.0000 L 2.0000,112.0000 z " style="fill: #edd400; fill-opacity: 1.00; stroke: none; cursor: pointer;" id="ezcGraphPolygon_11" onclick="top.location = 'https://bsd-hardware.info/?view=computers&amp;f=mon_resolution&amp;v=2240x1400&amp;p=-1'"/><path d=" M 2.0000,130.0000 L 2.0000,116.0000 L 16.0000,116.0000 L 16.0000,130.0000 L 2.0000,130.0000 z " style="fill: #75505b; fill-opacity: 1.00; stroke: none; cursor: pointer;" id="ezcGraphPolygon_13" onclick="top.location = 'https://bsd-hardware.info/?view=computers&amp;f=mon_resolution&amp;v=1920x1200&amp;p=-1'"/><path d=" M 2.0000,148.0000 L 2.0000,134.0000 L 16.0000,134.0000 L 16.0000,148.0000 L 2.0000,148.0000 z " style="fill: #f57900; fill-opacity: 1.00; stroke: none;" id="ezcGraphPolygon_15"/><path d=" M 100.0000,382.2000 L 500.0000,382.2000" style="fill: none; stroke: #2e3436; stroke-width: 1; stroke-opacity: 1.00; stroke-linecap: round; stroke-linejoin: round;" id="ezcGraphLine_17"/><path d=" M 492.0000,378.2000 L 500.0000,382.2000 L 492.0000,386.2000 L 492.0000,378.2000 z " style="fill: #2e3436; fill-opacity: 1.00; stroke: none;" id="ezcGraphPolygon_18"/><path d=" M 185.7143,79.8000 L 185.7143,382.2000" style="fill: none; stroke: #000000; stroke-width: 1; stroke-opacity: 0.00; stroke-linecap: round; stroke-linejoin: round;" id="ezcGraphLine_21"/><path d=" M 185.7143,379.2000 L 185.7143,385.2000" style="fill: none; stroke: #2e3436; stroke-width: 1; stroke-opacity: 1.00; stroke-linecap: round; stroke-linejoin: round;" id="ezcGraphLine_22"/><path d=" M 231.4286,79.8000 L 231.4286,382.2000" style="fill: none; stroke: #000000; stroke-width: 1; stroke-opacity: 0.00; stroke-linecap: round; stroke-linejoin: round;" id="ezcGraphLine_24"/><path d=" M 231.4286,379.2000 L 231.4286,385.2000" style="fill: none; stroke: #2e3436; stroke-width: 1; stroke-opacity: 1.00; stroke-linecap: round; stroke-linejoin: round;" id="ezcGraphLine_25"/><path d=" M 277.1429,79.8000 L 277.1429,382.2000" style="fill: none; stroke: #000000; stroke-width: 1; stroke-opacity: 0.00; stroke-linecap: round; stroke-linejoin: round;" id="ezcGraphLine_27"/><path d=" M 277.1429,379.2000 L 277.1429,385.2000" style="fill: none; stroke: #2e3436; stroke-width: 1; stroke-opacity: 1.00; stroke-linecap: round; stroke-linejoin: round;" id="ezcGraphLine_28"/><path d=" M 322.8571,79.8000 L 322.8571,382.2000" style="fill: none; stroke: #000000; stroke-width: 1; stroke-opacity: 0.00; stroke-linecap: round; stroke-linejoin: round;" id="ezcGraphLine_30"/><path d=" M 322.8571,379.2000 L 322.8571,385.2000" style="fill: none; stroke: #2e3436; stroke-width: 1; stroke-opacity: 1.00; stroke-linecap: round; stroke-linejoin: round;" id="ezcGraphLine_31"/><path d=" M 368.5714,79.8000 L 368.5714,382.2000" style="fill: none; stroke: #000000; stroke-width: 1; stroke-opacity: 0.00; stroke-linecap: round; stroke-linejoin: round;" id="ezcGraphLine_33"/><path d=" M 368.5714,379.2000 L 368.5714,385.2000" style="fill: none; stroke: #2e3436; stroke-width: 1; stroke-opacity: 1.00; stroke-linecap: round; stroke-linejoin: round;" id="ezcGraphLine_34"/><path d=" M 414.2857,79.8000 L 414.2857,382.2000" style="fill: none; stroke: #000000; stroke-width: 1; stroke-opacity: 0.00; stroke-linecap: round; stroke-linejoin: round;" id="ezcGraphLine_36"/><path d=" M 414.2857,379.2000 L 414.2857,385.2000" style="fill: none; stroke: #2e3436; stroke-width: 1; stroke-opacity: 1.00; stroke-linecap: round; stroke-linejoin: round;" id="ezcGraphLine_37"/><path d=" M 460.0000,79.8000 L 460.0000,382.2000" style="fill: none; stroke: #000000; stroke-width: 1; stroke-opacity: 0.00; stroke-linecap: round; stroke-linejoin: round;" id="ezcGraphLine_39"/><path d=" M 460.0000,379.2000 L 460.0000,385.2000" style="fill: none; stroke: #2e3436; stroke-width: 1; stroke-opacity: 1.00; stroke-linecap: round; stroke-linejoin: round;" id="ezcGraphLine_40"/><path d=" M 140.0000,420.0000 L 140.0000,42.0000" style="fill: none; stroke: #2e3436; stroke-width: 1; stroke-opacity: 1.00; stroke-linecap: round; stroke-linejoin: round;" id="ezcGraphLine_41"/><path d=" M 136.0000,50.0000 L 140.0000,42.0000 L 144.0000,50.0000 L 136.0000,50.0000 z " style="fill: #2e3436; fill-opacity: 1.00; stroke: none;" id="ezcGraphPolygon_42"/><path d=" M 140.0000,231.0000 L 460.0000,231.0000" style="fill: none; stroke: #000000; stroke-width: 1; stroke-opacity: 0.00; stroke-linecap: round; stroke-linejoin: round;" id="ezcGraphLine_45"/><path d=" M 140.0000,231.0000 L 143.0000,231.0000" style="fill: none; stroke: #2e3436; stroke-width: 1; stroke-opacity: 1.00; stroke-linecap: round; stroke-linejoin: round;" id="ezcGraphLine_46"/><path d=" M 140.0000,79.8000 L 460.0000,79.8000" style="fill: none; stroke: #000000; stroke-width: 1; stroke-opacity: 0.00; stroke-linecap: round; stroke-linejoin: round;" id="ezcGraphLine_48"/><path d=" M 140.0000,79.8000 L 143.0000,79.8000" style="fill: none; stroke: #2e3436; stroke-width: 1; stroke-opacity: 1.00; stroke-linecap: round; stroke-linejoin: round;" id="ezcGraphLine_49"/><path d=" M 162.8571,289.6656 L 162.8571,289.6656" style="fill: none; stroke: #3465a4; stroke-width: 1; stroke-opacity: 1.00; stroke-linecap: round; stroke-linejoin: round;" id="ezcGraphLine_51"/><path d=" M 162.8571,289.6656 L 208.5714,255.4944" style="fill: none; stroke: #3465a4; stroke-width: 1; stroke-opacity: 1.00; stroke-linecap: round; stroke-linejoin: round;" id="ezcGraphLine_53"/><path d=" M 208.5714,255.4944 L 254.2857,246.4224" style="fill: none; stroke: #3465a4; stroke-width: 1; stroke-opacity: 1.00; stroke-linecap: round; stroke-linejoin: round;" id="ezcGraphLine_55"/><path d=" M 254.2857,246.4224 L 300.0000,193.2000" style="fill: none; stroke: #3465a4; stroke-width: 1; stroke-opacity: 1.00; stroke-linecap: round; stroke-linejoin: round;" id="ezcGraphLine_57"/><path d=" M 300.0000,193.2000 L 345.7143,256.7040" style="fill: none; stroke: #3465a4; stroke-width: 1; stroke-opacity: 1.00; stroke-linecap: round; stroke-linejoin: round;" id="ezcGraphLine_59"/><path d=" M 345.7143,256.7040 L 391.4286,250.3536" style="fill: none; stroke: #3465a4; stroke-width: 1; stroke-opacity: 1.00; stroke-linecap: round; stroke-linejoin: round;" id="ezcGraphLine_61"/><path d=" M 391.4286,250.3536 L 437.1429,172.9392" style="fill: none; stroke: #3465a4; stroke-width: 1; stroke-opacity: 1.00; stroke-linecap: round; stroke-linejoin: round;" id="ezcGraphLine_63"/><path d=" M 162.8571,373.7328 L 162.8571,373.7328" style="fill: none; stroke: #4e9a06; stroke-width: 1; stroke-opacity: 1.00; stroke-linecap: round; stroke-linejoin: round;" id="ezcGraphLine_65"/><path d=" M 162.8571,373.7328 L 208.5714,367.9872" style="fill: none; stroke: #4e9a06; stroke-width: 1; stroke-opacity: 1.00; stroke-linecap: round; stroke-linejoin: round;" id="ezcGraphLine_67"/><path d=" M 208.5714,367.9872 L 254.2857,357.4032" style="fill: none; stroke: #4e9a06; stroke-width: 1; stroke-opacity: 1.00; stroke-linecap: round; stroke-linejoin: round;" id="ezcGraphLine_69"/><path d=" M 254.2857,357.4032 L 300.0000,353.7744" style="fill: none; stroke: #4e9a06; stroke-width: 1; stroke-opacity: 1.00; stroke-linecap: round; stroke-linejoin: round;" id="ezcGraphLine_71"/><path d=" M 300.0000,353.7744 L 345.7143,353.7744" style="fill: none; stroke: #4e9a06; stroke-width: 1; stroke-opacity: 1.00; stroke-linecap: round; stroke-linejoin: round;" id="ezcGraphLine_73"/><path d=" M 345.7143,353.7744 L 391.4286,366.7776" style="fill: none; stroke: #4e9a06; stroke-width: 1; stroke-opacity: 1.00; stroke-linecap: round; stroke-linejoin: round;" id="ezcGraphLine_75"/><path d=" M 391.4286,366.7776 L 437.1429,358.9152" style="fill: none; stroke: #4e9a06; stroke-width: 1; stroke-opacity: 1.00; stroke-linecap: round; stroke-linejoin: round;" id="ezcGraphLine_77"/><path d=" M 254.2857,376.1520 L 254.2857,376.1520" style="fill: none; stroke: #cc0000; stroke-width: 1; stroke-opacity: 1.00; stroke-linecap: round; stroke-linejoin: round;" id="ezcGraphLine_79"/><path d=" M 254.2857,376.1520 L 437.1429,358.9152" style="fill: none; stroke: #cc0000; stroke-width: 1; stroke-opacity: 1.00; stroke-linecap: round; stroke-linejoin: round;" id="ezcGraphLine_81"/><path d=" M 437.1429,370.7088 L 437.1429,370.7088" style="fill: none; stroke: #edd400; stroke-width: 1; stroke-opacity: 1.00; stroke-linecap: round; stroke-linejoin: round;" id="ezcGraphLine_83"/><path d=" M 162.8571,365.2656 L 162.8571,365.2656" style="fill: none; stroke: #75505b; stroke-width: 1; stroke-opacity: 1.00; stroke-linecap: round; stroke-linejoin: round;" id="ezcGraphLine_85"/><path d=" M 162.8571,365.2656 L 208.5714,361.0320" style="fill: none; stroke: #75505b; stroke-width: 1; stroke-opacity: 1.00; stroke-linecap: round; stroke-linejoin: round;" id="ezcGraphLine_87"/><path d=" M 208.5714,361.0320 L 254.2857,369.8016" style="fill: none; stroke: #75505b; stroke-width: 1; stroke-opacity: 1.00; stroke-linecap: round; stroke-linejoin: round;" id="ezcGraphLine_89"/><path d=" M 254.2857,369.8016 L 345.7143,364.9632" style="fill: none; stroke: #75505b; stroke-width: 1; stroke-opacity: 1.00; stroke-linecap: round; stroke-linejoin: round;" id="ezcGraphLine_91"/><path d=" M 345.7143,364.9632 L 437.1429,370.7088" style="fill: none; stroke: #75505b; stroke-width: 1; stroke-opacity: 1.00; stroke-linecap: round; stroke-linejoin: round;" id="ezcGraphLine_93"/><path d=" M 162.8571,197.4336 L 162.8571,197.4336" style="fill: none; stroke: #f57900; stroke-width: 1; stroke-opacity: 1.00; stroke-linecap: round; stroke-linejoin: round;" id="ezcGraphLine_95"/><path d=" M 162.8571,197.4336 L 208.5714,241.5840" style="fill: none; stroke: #f57900; stroke-width: 1; stroke-opacity: 1.00; stroke-linecap: round; stroke-linejoin: round;" id="ezcGraphLine_97"/><path d=" M 208.5714,241.5840 L 254.2857,258.8208" style="fill: none; stroke: #f57900; stroke-width: 1; stroke-opacity: 1.00; stroke-linecap: round; stroke-linejoin: round;" id="ezcGraphLine_99"/><path d=" M 254.2857,258.8208 L 300.0000,297.2256" style="fill: none; stroke: #f57900; stroke-width: 1; stroke-opacity: 1.00; stroke-linecap: round; stroke-linejoin: round;" id="ezcGraphLine_101"/><path d=" M 300.0000,297.2256 L 345.7143,250.9584" style="fill: none; stroke: #f57900; stroke-width: 1; stroke-opacity: 1.00; stroke-linecap: round; stroke-linejoin: round;" id="ezcGraphLine_103"/><path d=" M 345.7143,250.9584 L 391.4286,227.0688" style="fill: none; stroke: #f57900; stroke-width: 1; stroke-opacity: 1.00; stroke-linecap: round; stroke-linejoin: round;" id="ezcGraphLine_105"/><path d=" M 391.4286,227.0688 L 437.1429,358.9152" style="fill: none; stroke: #f57900; stroke-width: 1; stroke-opacity: 1.00; stroke-linecap: round; stroke-linejoin: round;" id="ezcGraphLine_107"/><path d=" M 159.8571,292.6656 L 159.8571,286.6656 L 165.8571,286.6656 L 165.8571,292.6656 L 159.8571,292.6656 z " style="fill: #3465a4; fill-opacity: 1.00; stroke: none; cursor: pointer;" id="ezcGraphPolygon_109" onclick="top.location = 'https://bsd-hardware.info/?view=computers&amp;f=mon_resolution&amp;v=1920x1080&amp;p=-1&amp;p=92'"/><path d=" M 205.5714,258.4944 L 205.5714,252.4944 L 211.5714,252.4944 L 211.5714,258.4944 L 205.5714,258.4944 z " style="fill: #3465a4; fill-opacity: 1.00; stroke: none; cursor: pointer;" id="ezcGraphPolygon_110" onclick="top.location = 'https://bsd-hardware.info/?view=computers&amp;f=mon_resolution&amp;v=1920x1080&amp;p=-1&amp;p=94'"/><path d=" M 251.2857,249.4224 L 251.2857,243.4224 L 257.2857,243.4224 L 257.2857,249.4224 L 251.2857,249.4224 z " style="fill: #3465a4; fill-opacity: 1.00; stroke: none; cursor: pointer;" id="ezcGraphPolygon_111" onclick="top.location = 'https://bsd-hardware.info/?view=computers&amp;f=mon_resolution&amp;v=1920x1080&amp;p=-1&amp;p=96'"/><path d=" M 297.0000,196.2000 L 297.0000,190.2000 L 303.0000,190.2000 L 303.0000,196.2000 L 297.0000,196.2000 z " style="fill: #3465a4; fill-opacity: 1.00; stroke: none; cursor: pointer;" id="ezcGraphPolygon_112" onclick="top.location = 'https://bsd-hardware.info/?view=computers&amp;f=mon_resolution&amp;v=1920x1080&amp;p=-1&amp;p=98'"/><path d=" M 342.7143,259.7040 L 342.7143,253.7040 L 348.7143,253.7040 L 348.7143,259.7040 L 342.7143,259.7040 z " style="fill: #3465a4; fill-opacity: 1.00; stroke: none; cursor: pointer;" id="ezcGraphPolygon_113" onclick="top.location = 'https://bsd-hardware.info/?view=computers&amp;f=mon_resolution&amp;v=1920x1080&amp;p=-1&amp;p=100'"/><path d=" M 388.4286,253.3536 L 388.4286,247.3536 L 394.4286,247.3536 L 394.4286,253.3536 L 388.4286,253.3536 z " style="fill: #3465a4; fill-opacity: 1.00; stroke: none; cursor: pointer;" id="ezcGraphPolygon_114" onclick="top.location = 'https://bsd-hardware.info/?view=computers&amp;f=mon_resolution&amp;v=1920x1080&amp;p=-1&amp;p=102'"/><path d=" M 434.1429,175.9392 L 434.1429,169.9392 L 440.1429,169.9392 L 440.1429,175.9392 L 434.1429,175.9392 z " style="fill: #3465a4; fill-opacity: 1.00; stroke: none; cursor: pointer;" id="ezcGraphPolygon_115" onclick="top.location = 'https://bsd-hardware.info/?view=computers&amp;f=mon_resolution&amp;v=1920x1080&amp;p=-1&amp;p=104'"/><path d=" M 159.8571,376.7328 L 159.8571,370.7328 L 165.8571,370.7328 L 165.8571,376.7328 L 159.8571,376.7328 z " style="fill: #4e9a06; fill-opacity: 1.00; stroke: none; cursor: pointer;" id="ezcGraphPolygon_116" onclick="top.location = 'https://bsd-hardware.info/?view=computers&amp;f=mon_resolution&amp;v=2560x1440&amp;p=-1&amp;p=92'"/><path d=" M 205.5714,370.9872 L 205.5714,364.9872 L 211.5714,364.9872 L 211.5714,370.9872 L 205.5714,370.9872 z " style="fill: #4e9a06; fill-opacity: 1.00; stroke: none; cursor: pointer;" id="ezcGraphPolygon_117" onclick="top.location = 'https://bsd-hardware.info/?view=computers&amp;f=mon_resolution&amp;v=2560x1440&amp;p=-1&amp;p=94'"/><path d=" M 251.2857,360.4032 L 251.2857,354.4032 L 257.2857,354.4032 L 257.2857,360.4032 L 251.2857,360.4032 z " style="fill: #4e9a06; fill-opacity: 1.00; stroke: none; cursor: pointer;" id="ezcGraphPolygon_118" onclick="top.location = 'https://bsd-hardware.info/?view=computers&amp;f=mon_resolution&amp;v=2560x1440&amp;p=-1&amp;p=96'"/><path d=" M 297.0000,356.7744 L 297.0000,350.7744 L 303.0000,350.7744 L 303.0000,356.7744 L 297.0000,356.7744 z " style="fill: #4e9a06; fill-opacity: 1.00; stroke: none; cursor: pointer;" id="ezcGraphPolygon_119" onclick="top.location = 'https://bsd-hardware.info/?view=computers&amp;f=mon_resolution&amp;v=2560x1440&amp;p=-1&amp;p=98'"/><path d=" M 342.7143,356.7744 L 342.7143,350.7744 L 348.7143,350.7744 L 348.7143,356.7744 L 342.7143,356.7744 z " style="fill: #4e9a06; fill-opacity: 1.00; stroke: none; cursor: pointer;" id="ezcGraphPolygon_120" onclick="top.location = 'https://bsd-hardware.info/?view=computers&amp;f=mon_resolution&amp;v=2560x1440&amp;p=-1&amp;p=100'"/><path d=" M 388.4286,369.7776 L 388.4286,363.7776 L 394.4286,363.7776 L 394.4286,369.7776 L 388.4286,369.7776 z " style="fill: #4e9a06; fill-opacity: 1.00; stroke: none; cursor: pointer;" id="ezcGraphPolygon_121" onclick="top.location = 'https://bsd-hardware.info/?view=computers&amp;f=mon_resolution&amp;v=2560x1440&amp;p=-1&amp;p=102'"/><path d=" M 434.1429,361.9152 L 434.1429,355.9152 L 440.1429,355.9152 L 440.1429,361.9152 L 434.1429,361.9152 z " style="fill: #4e9a06; fill-opacity: 1.00; stroke: none; cursor: pointer;" id="ezcGraphPolygon_122" onclick="top.location = 'https://bsd-hardware.info/?view=computers&amp;f=mon_resolution&amp;v=2560x1440&amp;p=-1&amp;p=104'"/><path d=" M 251.2857,379.1520 L 251.2857,373.1520 L 257.2857,373.1520 L 257.2857,379.1520 L 251.2857,379.1520 z " style="fill: #cc0000; fill-opacity: 1.00; stroke: none; cursor: pointer;" id="ezcGraphPolygon_123" onclick="top.location = 'https://bsd-hardware.info/?view=computers&amp;f=mon_resolution&amp;v=2560x1080&amp;p=-1&amp;p=96'"/><path d=" M 434.1429,361.9152 L 434.1429,355.9152 L 440.1429,355.9152 L 440.1429,361.9152 L 434.1429,361.9152 z " style="fill: #cc0000; fill-opacity: 1.00; stroke: none; cursor: pointer;" id="ezcGraphPolygon_124" onclick="top.location = 'https://bsd-hardware.info/?view=computers&amp;f=mon_resolution&amp;v=2560x1080&amp;p=-1&amp;p=104'"/><path d=" M 434.1429,373.7088 L 434.1429,367.7088 L 440.1429,367.7088 L 440.1429,373.7088 L 434.1429,373.7088 z " style="fill: #edd400; fill-opacity: 1.00; stroke: none; cursor: pointer;" id="ezcGraphPolygon_125" onclick="top.location = 'https://bsd-hardware.info/?view=computers&amp;f=mon_resolution&amp;v=2240x1400&amp;p=-1&amp;p=104'"/><path d=" M 159.8571,368.2656 L 159.8571,362.2656 L 165.8571,362.2656 L 165.8571,368.2656 L 159.8571,368.2656 z " style="fill: #75505b; fill-opacity: 1.00; stroke: none; cursor: pointer;" id="ezcGraphPolygon_126" onclick="top.location = 'https://bsd-hardware.info/?view=computers&amp;f=mon_resolution&amp;v=1920x1200&amp;p=-1&amp;p=92'"/><path d=" M 205.5714,364.0320 L 205.5714,358.0320 L 211.5714,358.0320 L 211.5714,364.0320 L 205.5714,364.0320 z " style="fill: #75505b; fill-opacity: 1.00; stroke: none; cursor: pointer;" id="ezcGraphPolygon_127" onclick="top.location = 'https://bsd-hardware.info/?view=computers&amp;f=mon_resolution&amp;v=1920x1200&amp;p=-1&amp;p=94'"/><path d=" M 251.2857,372.8016 L 251.2857,366.8016 L 257.2857,366.8016 L 257.2857,372.8016 L 251.2857,372.8016 z " style="fill: #75505b; fill-opacity: 1.00; stroke: none; cursor: pointer;" id="ezcGraphPolygon_128" onclick="top.location = 'https://bsd-hardware.info/?view=computers&amp;f=mon_resolution&amp;v=1920x1200&amp;p=-1&amp;p=96'"/><path d=" M 342.7143,367.9632 L 342.7143,361.9632 L 348.7143,361.9632 L 348.7143,367.9632 L 342.7143,367.9632 z " style="fill: #75505b; fill-opacity: 1.00; stroke: none; cursor: pointer;" id="ezcGraphPolygon_129" onclick="top.location = 'https://bsd-hardware.info/?view=computers&amp;f=mon_resolution&amp;v=1920x1200&amp;p=-1&amp;p=100'"/><path d=" M 434.1429,373.7088 L 434.1429,367.7088 L 440.1429,367.7088 L 440.1429,373.7088 L 434.1429,373.7088 z " style="fill: #75505b; fill-opacity: 1.00; stroke: none; cursor: pointer;" id="ezcGraphPolygon_130" onclick="top.location = 'https://bsd-hardware.info/?view=computers&amp;f=mon_resolution&amp;v=1920x1200&amp;p=-1&amp;p=104'"/><path d=" M 159.8571,200.4336 L 159.8571,194.4336 L 165.8571,194.4336 L 165.8571,200.4336 L 159.8571,200.4336 z " style="fill: #f57900; fill-opacity: 1.00; stroke: none;" id="ezcGraphPolygon_131"/><path d=" M 205.5714,244.5840 L 205.5714,238.5840 L 211.5714,238.5840 L 211.5714,244.5840 L 205.5714,244.5840 z " style="fill: #f57900; fill-opacity: 1.00; stroke: none;" id="ezcGraphPolygon_132"/><path d=" M 251.2857,261.8208 L 251.2857,255.8208 L 257.2857,255.8208 L 257.2857,261.8208 L 251.2857,261.8208 z " style="fill: #f57900; fill-opacity: 1.00; stroke: none;" id="ezcGraphPolygon_133"/><path d=" M 297.0000,300.2256 L 297.0000,294.2256 L 303.0000,294.2256 L 303.0000,300.2256 L 297.0000,300.2256 z " style="fill: #f57900; fill-opacity: 1.00; stroke: none;" id="ezcGraphPolygon_134"/><path d=" M 342.7143,253.9584 L 342.7143,247.9584 L 348.7143,247.9584 L 348.7143,253.9584 L 342.7143,253.9584 z " style="fill: #f57900; fill-opacity: 1.00; stroke: none;" id="ezcGraphPolygon_135"/><path d=" M 388.4286,230.0688 L 388.4286,224.0688 L 394.4286,224.0688 L 394.4286,230.0688 L 388.4286,230.0688 z " style="fill: #f57900; fill-opacity: 1.00; stroke: none;" id="ezcGraphPolygon_136"/><path d=" M 434.1429,361.9152 L 434.1429,355.9152 L 440.1429,355.9152 L 440.1429,361.9152 L 434.1429,361.9152 z " style="fill: #f57900; fill-opacity: 1.00; stroke: none;" id="ezcGraphPolygon_137"/><g id="ezcGraphTextBox_3"><path d=" M 58.7000,42.0000 L 58.7000,0.5000 L 441.8000,0.5000 L 441.8000,42.0000 L 58.7000,42.0000 z " style="fill: #ffffff; fill-opacity: 0.00; stroke: none;" id="ezcGraphPolygon_138"/><text id="ezcGraphTextBox_3_text" x="59.2000" text-length="381.6000px" y="35.0000" style="font-size: 40px; font-family: 'Arial'; fill: #2e3436; fill-opacity: 1.00; stroke: none;">Monitor Resolution</text></g><g id="ezcGraphTextBox_6" style=" cursor: pointer;" onclick="top.location = 'https://bsd-hardware.info/?view=computers&amp;f=mon_resolution&amp;v=1920x1080&amp;p=-1'"><path d=" M 16.5000,56.5000 L 16.5000,46.0000 L 89.5500,46.0000 L 89.5500,56.5000 L 16.5000,56.5000 z " style="fill: #ffffff; fill-opacity: 0.00; stroke: none;" id="ezcGraphPolygon_139"/><text id="ezcGraphTextBox_6_text" x="17.0000" text-length="71.5500px" y="54.1500" style="font-size: 9px; font-family: 'Arial'; fill: #2e3436; fill-opacity: 1.00; stroke: none;">1920x1080 (FHD)</text></g><g id="ezcGraphTextBox_8" style=" cursor: pointer;" onclick="top.location = 'https://bsd-hardware.info/?view=computers&amp;f=mon_resolution&amp;v=2560x1440&amp;p=-1'"><path d=" M 16.5000,74.5000 L 16.5000,64.0000 L 89.5500,64.0000 L 89.5500,74.5000 L 16.5000,74.5000 z " style="fill: #ffffff; fill-opacity: 0.00; stroke: none;" id="ezcGraphPolygon_140"/><text id="ezcGraphTextBox_8_text" x="17.0000" text-length="71.5500px" y="72.1500" style="font-size: 9px; font-family: 'Arial'; fill: #2e3436; fill-opacity: 1.00; stroke: none;">2560x1440 (QHD)</text></g><g id="ezcGraphTextBox_10" style=" cursor: pointer;" onclick="top.location = 'https://bsd-hardware.info/?view=computers&amp;f=mon_resolution&amp;v=2560x1080&amp;p=-1'"><path d=" M 16.5000,92.5000 L 16.5000,82.0000 L 60.9300,82.0000 L 60.9300,92.5000 L 16.5000,92.5000 z " style="fill: #ffffff; fill-opacity: 0.00; stroke: none;" id="ezcGraphPolygon_141"/><text id="ezcGraphTextBox_10_text" x="17.0000" text-length="42.9300px" y="90.1500" style="font-size: 9px; font-family: 'Arial'; fill: #2e3436; fill-opacity: 1.00; stroke: none;">2560x1080</text></g><g id="ezcGraphTextBox_12" style=" cursor: pointer;" onclick="top.location = 'https://bsd-hardware.info/?view=computers&amp;f=mon_resolution&amp;v=2240x1400&amp;p=-1'"><path d=" M 16.5000,110.5000 L 16.5000,100.0000 L 60.9300,100.0000 L 60.9300,110.5000 L 16.5000,110.5000 z " style="fill: #ffffff; fill-opacity: 0.00; stroke: none;" id="ezcGraphPolygon_142"/><text id="ezcGraphTextBox_12_text" x="17.0000" text-length="42.9300px" y="108.1500" style="font-size: 9px; font-family: 'Arial'; fill: #2e3436; fill-opacity: 1.00; stroke: none;">2240x1400</text></g><g id="ezcGraphTextBox_14" style=" cursor: pointer;" onclick="top.location = 'https://bsd-hardware.info/?view=computers&amp;f=mon_resolution&amp;v=1920x1200&amp;p=-1'"><path d=" M 16.5000,128.5000 L 16.5000,118.0000 L 94.3200,118.0000 L 94.3200,128.5000 L 16.5000,128.5000 z " style="fill: #ffffff; fill-opacity: 0.00; stroke: none;" id="ezcGraphPolygon_143"/><text id="ezcGraphTextBox_14_text" x="17.0000" text-length="76.3200px" y="126.1500" style="font-size: 9px; font-family: 'Arial'; fill: #2e3436; fill-opacity: 1.00; stroke: none;">1920x1200 (WU...</text></g><g id="ezcGraphTextBox_16"><path d=" M 16.5000,146.5000 L 16.5000,136.0000 L 46.6200,136.0000 L 46.6200,146.5000 L 16.5000,146.5000 z " style="fill: #ffffff; fill-opacity: 0.00; stroke: none;" id="ezcGraphPolygon_144"/><text id="ezcGraphTextBox_16_text" x="17.0000" text-length="28.6200px" y="144.1500" style="font-size: 9px; font-family: 'Arial'; fill: #2e3436; fill-opacity: 1.00; stroke: none;">Others</text></g><g id="ezcGraphTextBox_19" transform="rotate( 0.00 493.0000 375.2000 )"><path d=" M 465.7000,381.2000 L 465.7000,367.7000 L 499.0000,367.7000 L 499.0000,381.2000 L 465.7000,381.2000 z " style="fill: #ffffff; fill-opacity: 0.00; stroke: none;" id="ezcGraphPolygon_145"/><text id="ezcGraphTextBox_19_text" x="466.2000" text-length="31.8000px" y="378.4000" style="font-size: 12px; font-family: 'Arial'; fill: #2e3436; fill-opacity: 1.00; stroke: none;">Time </text></g><g id="ezcGraphTextBox_20"><path d=" M 147.4771,409.3000 L 147.4771,383.7000 L 178.7371,383.7000 L 178.7371,409.3000 L 147.4771,409.3000 z " style="fill: #ffffff; fill-opacity: 0.00; stroke: none;" id="ezcGraphPolygon_146"/><text id="ezcGraphTextBox_20_text" x="153.3171" text-length="19.0800px" y="394.4000" style="font-size: 12px; font-family: 'Arial'; fill: #2e3436; fill-opacity: 1.00; stroke: none;">Aug</text><text id="ezcGraphTextBox_20_text" x="147.9771" text-length="29.7600px" y="407.6000" style="font-size: 12px; font-family: 'Arial'; fill: #2e3436; fill-opacity: 1.00; stroke: none;">2021</text></g><g id="ezcGraphTextBox_23"><path d=" M 193.1914,409.3000 L 193.1914,383.7000 L 224.4514,383.7000 L 224.4514,409.3000 L 193.1914,409.3000 z " style="fill: #ffffff; fill-opacity: 0.00; stroke: none;" id="ezcGraphPolygon_147"/><text id="ezcGraphTextBox_23_text" x="199.0314" text-length="19.0800px" y="394.4000" style="font-size: 12px; font-family: 'Arial'; fill: #2e3436; fill-opacity: 1.00; stroke: none;">Oct</text><text id="ezcGraphTextBox_23_text" x="193.6914" text-length="29.7600px" y="407.6000" style="font-size: 12px; font-family: 'Arial'; fill: #2e3436; fill-opacity: 1.00; stroke: none;">2021</text></g><g id="ezcGraphTextBox_26"><path d=" M 238.9057,409.3000 L 238.9057,383.7000 L 270.1657,383.7000 L 270.1657,409.3000 L 238.9057,409.3000 z " style="fill: #ffffff; fill-opacity: 0.00; stroke: none;" id="ezcGraphPolygon_148"/><text id="ezcGraphTextBox_26_text" x="244.7457" text-length="19.0800px" y="394.4000" style="font-size: 12px; font-family: 'Arial'; fill: #2e3436; fill-opacity: 1.00; stroke: none;">Dec</text><text id="ezcGraphTextBox_26_text" x="239.4057" text-length="29.7600px" y="407.6000" style="font-size: 12px; font-family: 'Arial'; fill: #2e3436; fill-opacity: 1.00; stroke: none;">2021</text></g><g id="ezcGraphTextBox_29"><path d=" M 284.6200,409.3000 L 284.6200,383.7000 L 315.8800,383.7000 L 315.8800,409.3000 L 284.6200,409.3000 z " style="fill: #ffffff; fill-opacity: 0.00; stroke: none;" id="ezcGraphPolygon_149"/><text id="ezcGraphTextBox_29_text" x="290.4600" text-length="19.0800px" y="394.4000" style="font-size: 12px; font-family: 'Arial'; fill: #2e3436; fill-opacity: 1.00; stroke: none;">Feb</text><text id="ezcGraphTextBox_29_text" x="285.1200" text-length="29.7600px" y="407.6000" style="font-size: 12px; font-family: 'Arial'; fill: #2e3436; fill-opacity: 1.00; stroke: none;">2022</text></g><g id="ezcGraphTextBox_32"><path d=" M 330.3343,409.3000 L 330.3343,383.7000 L 361.5943,383.7000 L 361.5943,409.3000 L 330.3343,409.3000 z " style="fill: #ffffff; fill-opacity: 0.00; stroke: none;" id="ezcGraphPolygon_150"/><text id="ezcGraphTextBox_32_text" x="336.1743" text-length="19.0800px" y="394.4000" style="font-size: 12px; font-family: 'Arial'; fill: #2e3436; fill-opacity: 1.00; stroke: none;">Apr</text><text id="ezcGraphTextBox_32_text" x="330.8343" text-length="29.7600px" y="407.6000" style="font-size: 12px; font-family: 'Arial'; fill: #2e3436; fill-opacity: 1.00; stroke: none;">2022</text></g><g id="ezcGraphTextBox_35"><path d=" M 376.0486,409.3000 L 376.0486,383.7000 L 407.3086,383.7000 L 407.3086,409.3000 L 376.0486,409.3000 z " style="fill: #ffffff; fill-opacity: 0.00; stroke: none;" id="ezcGraphPolygon_151"/><text id="ezcGraphTextBox_35_text" x="381.8886" text-length="19.0800px" y="394.4000" style="font-size: 12px; font-family: 'Arial'; fill: #2e3436; fill-opacity: 1.00; stroke: none;">Jun</text><text id="ezcGraphTextBox_35_text" x="376.5486" text-length="29.7600px" y="407.6000" style="font-size: 12px; font-family: 'Arial'; fill: #2e3436; fill-opacity: 1.00; stroke: none;">2022</text></g><g id="ezcGraphTextBox_38"><path d=" M 421.7629,409.3000 L 421.7629,383.7000 L 453.0229,383.7000 L 453.0229,409.3000 L 421.7629,409.3000 z " style="fill: #ffffff; fill-opacity: 0.00; stroke: none;" id="ezcGraphPolygon_152"/><text id="ezcGraphTextBox_38_text" x="427.6029" text-length="19.0800px" y="394.4000" style="font-size: 12px; font-family: 'Arial'; fill: #2e3436; fill-opacity: 1.00; stroke: none;">Aug</text><text id="ezcGraphTextBox_38_text" x="422.2629" text-length="29.7600px" y="407.6000" style="font-size: 12px; font-family: 'Arial'; fill: #2e3436; fill-opacity: 1.00; stroke: none;">2022</text></g><g id="ezcGraphTextBox_43" transform="rotate( 0.00 147.0000 49.0000 )"><path d=" M 141.5000,57.0000 L 141.5000,43.5000 L 384.6800,43.5000 L 384.6800,57.0000 L 141.5000,57.0000 z " style="fill: #ffffff; fill-opacity: 0.00; stroke: none;" id="ezcGraphPolygon_153"/><text id="ezcGraphTextBox_43_text" x="142.0000" text-length="241.6800px" y="54.2000" style="font-size: 12px; font-family: 'Arial'; fill: #2e3436; fill-opacity: 1.00; stroke: none;">Computers by "Monitor Resolution" in %</text></g><g id="ezcGraphTextBox_44"><path d=" M 130.0600,381.2000 L 130.0600,367.7000 L 139.0000,367.7000 L 139.0000,381.2000 L 130.0600,381.2000 z " style="fill: #ffffff; fill-opacity: 0.00; stroke: none;" id="ezcGraphPolygon_154"/><text id="ezcGraphTextBox_44_text" x="130.5600" text-length="7.4400px" y="378.4000" style="font-size: 12px; font-family: 'Arial'; fill: #2e3436; fill-opacity: 1.00; stroke: none;">0</text></g><g id="ezcGraphTextBox_47"><path d=" M 122.6200,230.0000 L 122.6200,216.5000 L 139.0000,216.5000 L 139.0000,230.0000 L 122.6200,230.0000 z " style="fill: #ffffff; fill-opacity: 0.00; stroke: none;" id="ezcGraphPolygon_155"/><text id="ezcGraphTextBox_47_text" x="123.1200" text-length="14.8800px" y="227.2000" style="font-size: 12px; font-family: 'Arial'; fill: #2e3436; fill-opacity: 1.00; stroke: none;">50</text></g><g id="ezcGraphTextBox_50"><path d=" M 115.1800,94.8000 L 115.1800,81.3000 L 139.0000,81.3000 L 139.0000,94.8000 L 115.1800,94.8000 z " style="fill: #ffffff; fill-opacity: 0.00; stroke: none;" id="ezcGraphPolygon_156"/><text id="ezcGraphTextBox_50_text" x="115.6800" text-length="22.3200px" y="92.0000" style="font-size: 12px; font-family: 'Arial'; fill: #2e3436; fill-opacity: 1.00; stroke: none;">100</text></g><g id="ezcGraphTextBox_52"><path d=" M 149.9571,284.6656 L 149.9571,273.1656 L 176.2571,273.1656 L 176.2571,284.6656 L 149.9571,284.6656 z " style="fill: #ffffff; fill-opacity: 0.00; stroke: none;" id="ezcGraphPolygon_157"/><text id="ezcGraphTextBox_52_text" x="150.4571" text-length="24.8000px" y="282.1656" style="font-size: 10px; font-family: 'Arial'; fill: #2e3436; fill-opacity: 1.00; stroke: none;">30.6</text></g><g id="ezcGraphTextBox_54"><path d=" M 195.6714,250.4944 L 195.6714,238.9944 L 221.9714,238.9944 L 221.9714,250.4944 L 195.6714,250.4944 z " style="fill: #ffffff; fill-opacity: 0.00; stroke: none;" id="ezcGraphPolygon_158"/><text id="ezcGraphTextBox_54_text" x="196.1714" text-length="24.8000px" y="247.9944" style="font-size: 10px; font-family: 'Arial'; fill: #2e3436; fill-opacity: 1.00; stroke: none;">41.9</text></g><g id="ezcGraphTextBox_56"><path d=" M 241.3857,241.4224 L 241.3857,229.9224 L 267.6857,229.9224 L 267.6857,241.4224 L 241.3857,241.4224 z " style="fill: #ffffff; fill-opacity: 0.00; stroke: none;" id="ezcGraphPolygon_159"/><text id="ezcGraphTextBox_56_text" x="241.8857" text-length="24.8000px" y="238.9224" style="font-size: 10px; font-family: 'Arial'; fill: #2e3436; fill-opacity: 1.00; stroke: none;">44.9</text></g><g id="ezcGraphTextBox_58"><path d=" M 287.1000,188.2000 L 287.1000,176.7000 L 313.4000,176.7000 L 313.4000,188.2000 L 287.1000,188.2000 z " style="fill: #ffffff; fill-opacity: 0.00; stroke: none;" id="ezcGraphPolygon_160"/><text id="ezcGraphTextBox_58_text" x="287.6000" text-length="24.8000px" y="185.7000" style="font-size: 10px; font-family: 'Arial'; fill: #2e3436; fill-opacity: 1.00; stroke: none;">62.5</text></g><g id="ezcGraphTextBox_60"><path d=" M 332.8143,251.7040 L 332.8143,240.2040 L 359.1143,240.2040 L 359.1143,251.7040 L 332.8143,251.7040 z " style="fill: #ffffff; fill-opacity: 0.00; stroke: none;" id="ezcGraphPolygon_161"/><text id="ezcGraphTextBox_60_text" x="333.3143" text-length="24.8000px" y="249.2040" style="font-size: 10px; font-family: 'Arial'; fill: #2e3436; fill-opacity: 1.00; stroke: none;">41.5</text></g><g id="ezcGraphTextBox_62"><path d=" M 378.5286,245.3536 L 378.5286,233.8536 L 404.8286,233.8536 L 404.8286,245.3536 L 378.5286,245.3536 z " style="fill: #ffffff; fill-opacity: 0.00; stroke: none;" id="ezcGraphPolygon_162"/><text id="ezcGraphTextBox_62_text" x="379.0286" text-length="24.8000px" y="242.8536" style="font-size: 10px; font-family: 'Arial'; fill: #2e3436; fill-opacity: 1.00; stroke: none;">43.6</text></g><g id="ezcGraphTextBox_64"><path d=" M 424.2429,167.9392 L 424.2429,156.4392 L 450.5429,156.4392 L 450.5429,167.9392 L 424.2429,167.9392 z " style="fill: #ffffff; fill-opacity: 0.00; stroke: none;" id="ezcGraphPolygon_163"/><text id="ezcGraphTextBox_64_text" x="424.7429" text-length="24.8000px" y="165.4392" style="font-size: 10px; font-family: 'Arial'; fill: #2e3436; fill-opacity: 1.00; stroke: none;">69.2</text></g><g id="ezcGraphTextBox_66"><path d=" M 153.0571,368.7328 L 153.0571,357.2328 L 173.1571,357.2328 L 173.1571,368.7328 L 153.0571,368.7328 z " style="fill: #ffffff; fill-opacity: 0.00; stroke: none;" id="ezcGraphPolygon_164"/><text id="ezcGraphTextBox_66_text" x="153.5571" text-length="18.6000px" y="366.2328" style="font-size: 10px; font-family: 'Arial'; fill: #2e3436; fill-opacity: 1.00; stroke: none;">2.8</text></g><g id="ezcGraphTextBox_68"><path d=" M 198.7714,362.9872 L 198.7714,351.4872 L 218.8714,351.4872 L 218.8714,362.9872 L 198.7714,362.9872 z " style="fill: #ffffff; fill-opacity: 0.00; stroke: none;" id="ezcGraphPolygon_165"/><text id="ezcGraphTextBox_68_text" x="199.2714" text-length="18.6000px" y="360.4872" style="font-size: 10px; font-family: 'Arial'; fill: #2e3436; fill-opacity: 1.00; stroke: none;">4.7</text></g><g id="ezcGraphTextBox_70"><path d=" M 244.4857,352.4032 L 244.4857,340.9032 L 264.5857,340.9032 L 264.5857,352.4032 L 244.4857,352.4032 z " style="fill: #ffffff; fill-opacity: 0.00; stroke: none;" id="ezcGraphPolygon_166"/><text id="ezcGraphTextBox_70_text" x="244.9857" text-length="18.6000px" y="349.9032" style="font-size: 10px; font-family: 'Arial'; fill: #2e3436; fill-opacity: 1.00; stroke: none;">8.2</text></g><g id="ezcGraphTextBox_72"><path d=" M 290.2000,348.7744 L 290.2000,337.2744 L 310.3000,337.2744 L 310.3000,348.7744 L 290.2000,348.7744 z " style="fill: #ffffff; fill-opacity: 0.00; stroke: none;" id="ezcGraphPolygon_167"/><text id="ezcGraphTextBox_72_text" x="290.7000" text-length="18.6000px" y="346.2744" style="font-size: 10px; font-family: 'Arial'; fill: #2e3436; fill-opacity: 1.00; stroke: none;">9.4</text></g><g id="ezcGraphTextBox_74"><path d=" M 335.9143,348.7744 L 335.9143,337.2744 L 356.0143,337.2744 L 356.0143,348.7744 L 335.9143,348.7744 z " style="fill: #ffffff; fill-opacity: 0.00; stroke: none;" id="ezcGraphPolygon_168"/><text id="ezcGraphTextBox_74_text" x="336.4143" text-length="18.6000px" y="346.2744" style="font-size: 10px; font-family: 'Arial'; fill: #2e3436; fill-opacity: 1.00; stroke: none;">9.4</text></g><g id="ezcGraphTextBox_76"><path d=" M 381.6286,361.7776 L 381.6286,350.2776 L 401.7286,350.2776 L 401.7286,361.7776 L 381.6286,361.7776 z " style="fill: #ffffff; fill-opacity: 0.00; stroke: none;" id="ezcGraphPolygon_169"/><text id="ezcGraphTextBox_76_text" x="382.1286" text-length="18.6000px" y="359.2776" style="font-size: 10px; font-family: 'Arial'; fill: #2e3436; fill-opacity: 1.00; stroke: none;">5.1</text></g><g id="ezcGraphTextBox_78"><path d=" M 427.3429,353.9152 L 427.3429,342.4152 L 447.4429,342.4152 L 447.4429,353.9152 L 427.3429,353.9152 z " style="fill: #ffffff; fill-opacity: 0.00; stroke: none;" id="ezcGraphPolygon_170"/><text id="ezcGraphTextBox_78_text" x="427.8429" text-length="18.6000px" y="351.4152" style="font-size: 10px; font-family: 'Arial'; fill: #2e3436; fill-opacity: 1.00; stroke: none;">7.7</text></g><g id="ezcGraphTextBox_80"><path d=" M 250.6857,371.1520 L 250.6857,359.6520 L 258.3857,359.6520 L 258.3857,371.1520 L 250.6857,371.1520 z " style="fill: #ffffff; fill-opacity: 0.00; stroke: none;" id="ezcGraphPolygon_171"/><text id="ezcGraphTextBox_80_text" x="251.1857" text-length="6.2000px" y="368.6520" style="font-size: 10px; font-family: 'Arial'; fill: #2e3436; fill-opacity: 1.00; stroke: none;">2</text></g><g id="ezcGraphTextBox_82"><path d=" M 427.3429,353.9152 L 427.3429,342.4152 L 447.4429,342.4152 L 447.4429,353.9152 L 427.3429,353.9152 z " style="fill: #ffffff; fill-opacity: 0.00; stroke: none;" id="ezcGraphPolygon_172"/><text id="ezcGraphTextBox_82_text" x="427.8429" text-length="18.6000px" y="351.4152" style="font-size: 10px; font-family: 'Arial'; fill: #2e3436; fill-opacity: 1.00; stroke: none;">7.7</text></g><g id="ezcGraphTextBox_84"><path d=" M 427.3429,365.7088 L 427.3429,354.2088 L 447.4429,354.2088 L 447.4429,365.7088 L 427.3429,365.7088 z " style="fill: #ffffff; fill-opacity: 0.00; stroke: none;" id="ezcGraphPolygon_173"/><text id="ezcGraphTextBox_84_text" x="427.8429" text-length="18.6000px" y="363.2088" style="font-size: 10px; font-family: 'Arial'; fill: #2e3436; fill-opacity: 1.00; stroke: none;">3.8</text></g><g id="ezcGraphTextBox_86"><path d=" M 153.0571,360.2656 L 153.0571,348.7656 L 173.1571,348.7656 L 173.1571,360.2656 L 153.0571,360.2656 z " style="fill: #ffffff; fill-opacity: 0.00; stroke: none;" id="ezcGraphPolygon_174"/><text id="ezcGraphTextBox_86_text" x="153.5571" text-length="18.6000px" y="357.7656" style="font-size: 10px; font-family: 'Arial'; fill: #2e3436; fill-opacity: 1.00; stroke: none;">5.6</text></g><g id="ezcGraphTextBox_88"><path d=" M 204.9714,356.0320 L 204.9714,344.5320 L 212.6714,344.5320 L 212.6714,356.0320 L 204.9714,356.0320 z " style="fill: #ffffff; fill-opacity: 0.00; stroke: none;" id="ezcGraphPolygon_175"/><text id="ezcGraphTextBox_88_text" x="205.4714" text-length="6.2000px" y="353.5320" style="font-size: 10px; font-family: 'Arial'; fill: #2e3436; fill-opacity: 1.00; stroke: none;">7</text></g><g id="ezcGraphTextBox_90"><path d=" M 244.4857,364.8016 L 244.4857,353.3016 L 264.5857,353.3016 L 264.5857,364.8016 L 244.4857,364.8016 z " style="fill: #ffffff; fill-opacity: 0.00; stroke: none;" id="ezcGraphPolygon_176"/><text id="ezcGraphTextBox_90_text" x="244.9857" text-length="18.6000px" y="362.3016" style="font-size: 10px; font-family: 'Arial'; fill: #2e3436; fill-opacity: 1.00; stroke: none;">4.1</text></g><g id="ezcGraphTextBox_92"><path d=" M 335.9143,359.9632 L 335.9143,348.4632 L 356.0143,348.4632 L 356.0143,359.9632 L 335.9143,359.9632 z " style="fill: #ffffff; fill-opacity: 0.00; stroke: none;" id="ezcGraphPolygon_177"/><text id="ezcGraphTextBox_92_text" x="336.4143" text-length="18.6000px" y="357.4632" style="font-size: 10px; font-family: 'Arial'; fill: #2e3436; fill-opacity: 1.00; stroke: none;">5.7</text></g><g id="ezcGraphTextBox_94"><path d=" M 427.3429,365.7088 L 427.3429,354.2088 L 447.4429,354.2088 L 447.4429,365.7088 L 427.3429,365.7088 z " style="fill: #ffffff; fill-opacity: 0.00; stroke: none;" id="ezcGraphPolygon_178"/><text id="ezcGraphTextBox_94_text" x="427.8429" text-length="18.6000px" y="363.2088" style="font-size: 10px; font-family: 'Arial'; fill: #2e3436; fill-opacity: 1.00; stroke: none;">3.8</text></g><g id="ezcGraphTextBox_96"><path d=" M 149.9571,192.4336 L 149.9571,180.9336 L 176.2571,180.9336 L 176.2571,192.4336 L 149.9571,192.4336 z " style="fill: #ffffff; fill-opacity: 0.00; stroke: none;" id="ezcGraphPolygon_179"/><text id="ezcGraphTextBox_96_text" x="150.4571" text-length="24.8000px" y="189.9336" style="font-size: 10px; font-family: 'Arial'; fill: #2e3436; fill-opacity: 1.00; stroke: none;">61.1</text></g><g id="ezcGraphTextBox_98"><path d=" M 195.6714,236.5840 L 195.6714,225.0840 L 221.9714,225.0840 L 221.9714,236.5840 L 195.6714,236.5840 z " style="fill: #ffffff; fill-opacity: 0.00; stroke: none;" id="ezcGraphPolygon_180"/><text id="ezcGraphTextBox_98_text" x="196.1714" text-length="24.8000px" y="234.0840" style="font-size: 10px; font-family: 'Arial'; fill: #2e3436; fill-opacity: 1.00; stroke: none;">46.5</text></g><g id="ezcGraphTextBox_100"><path d=" M 241.3857,253.8208 L 241.3857,242.3208 L 267.6857,242.3208 L 267.6857,253.8208 L 241.3857,253.8208 z " style="fill: #ffffff; fill-opacity: 0.00; stroke: none;" id="ezcGraphPolygon_181"/><text id="ezcGraphTextBox_100_text" x="241.8857" text-length="24.8000px" y="251.3208" style="font-size: 10px; font-family: 'Arial'; fill: #2e3436; fill-opacity: 1.00; stroke: none;">40.8</text></g><g id="ezcGraphTextBox_102"><path d=" M 287.1000,292.2256 L 287.1000,280.7256 L 313.4000,280.7256 L 313.4000,292.2256 L 287.1000,292.2256 z " style="fill: #ffffff; fill-opacity: 0.00; stroke: none;" id="ezcGraphPolygon_182"/><text id="ezcGraphTextBox_102_text" x="287.6000" text-length="24.8000px" y="289.7256" style="font-size: 10px; font-family: 'Arial'; fill: #2e3436; fill-opacity: 1.00; stroke: none;">28.1</text></g><g id="ezcGraphTextBox_104"><path d=" M 332.8143,245.9584 L 332.8143,234.4584 L 359.1143,234.4584 L 359.1143,245.9584 L 332.8143,245.9584 z " style="fill: #ffffff; fill-opacity: 0.00; stroke: none;" id="ezcGraphPolygon_183"/><text id="ezcGraphTextBox_104_text" x="333.3143" text-length="24.8000px" y="243.4584" style="font-size: 10px; font-family: 'Arial'; fill: #2e3436; fill-opacity: 1.00; stroke: none;">43.4</text></g><g id="ezcGraphTextBox_106"><path d=" M 378.5286,222.0688 L 378.5286,210.5688 L 404.8286,210.5688 L 404.8286,222.0688 L 378.5286,222.0688 z " style="fill: #ffffff; fill-opacity: 0.00; stroke: none;" id="ezcGraphPolygon_184"/><text id="ezcGraphTextBox_106_text" x="379.0286" text-length="24.8000px" y="219.5688" style="font-size: 10px; font-family: 'Arial'; fill: #2e3436; fill-opacity: 1.00; stroke: none;">51.3</text></g><g id="ezcGraphTextBox_108"><path d=" M 427.3429,353.9152 L 427.3429,342.4152 L 447.4429,342.4152 L 447.4429,353.9152 L 427.3429,353.9152 z " style="fill: #ffffff; fill-opacity: 0.00; stroke: none;" id="ezcGraphPolygon_185"/><text id="ezcGraphTextBox_108_text" x="427.8429" text-length="18.6000px" y="351.4152" style="font-size: 10px; font-family: 'Arial'; fill: #2e3436; fill-opacity: 1.00; stroke: none;">7.7</text></g></g></svg>
