<?xml version="1.0"?>
<svg xmlns="http://www.w3.org/2000/svg" width="500" height="420" version="1.0" id="ezcGraph"><defs/><g id="ezcGraphChart" color-rendering="optimizeQuality" shape-rendering="geometricPrecision" text-rendering="optimizeLegibility"><path d=" M 0.0000,420.0000 L 0.0000,0.0000 L 500.0000,0.0000 L 500.0000,420.0000 L 0.0000,420.0000 z " style="fill: #eeeeec; fill-opacity: 1.00; stroke: none;" id="ezcGraphPolygon_1"/><path d=" M 0.0000,42.0000 L 0.0000,0.0000 L 500.0000,0.0000 L 500.0000,42.0000 L 0.0000,42.0000 z " style="fill: #000000; fill-opacity: 0.00; stroke: none;" id="ezcGraphPolygon_2"/><path d="M 260.66,237.53 L 373.16,237.53 A 112.50,112.50 0 0,1 311.73,337.77 z" style="fill: #3465a4; fill-opacity: 1.00; stroke: none; cursor: pointer;" id="ezcGraphCircleSector_4" onclick="top.location = 'https://bsd-hardware.info/?view=computers&amp;type=desktop&amp;f=storage_model&amp;v=AMD+FCH+SATA+Controller+%5BAHCI+mode%5D&amp;p=-1'"/><path d="M 261.47,238.03 L 372.66,238.03 A 112.00,112.00 0 0,1 311.95,337.10 z" style="fill: none; stroke: #1a3352; stroke-width: 1; stroke-opacity: 1.00; stroke-linecap: round; stroke-linejoin: round;" id="ezcGraphCircleSector_5"/><path d="M 250.00,231.00 L 301.07,331.24 A 112.50,112.50 0 0,1 267.60,342.11 z" style="fill: #4e9a06; fill-opacity: 1.00; stroke: none; cursor: pointer;" id="ezcGraphCircleSector_6" onclick="top.location = 'https://bsd-hardware.info/?view=computers&amp;type=desktop&amp;f=storage_model&amp;v=Sandisk+WD+Black+SN770+NVMe+SSD&amp;p=-1'"/><path d="M 250.99,234.04 L 300.40,331.02 A 112.00,112.00 0 0,1 268.01,341.54 z" style="fill: none; stroke: #274d03; stroke-width: 1; stroke-opacity: 1.00; stroke-linecap: round; stroke-linejoin: round;" id="ezcGraphCircleSector_7"/><path d="M 250.00,231.00 L 267.60,342.11 A 112.50,112.50 0 0,1 232.40,342.11 z" style="fill: #cc0000; fill-opacity: 1.00; stroke: none; cursor: pointer;" id="ezcGraphCircleSector_8" onclick="top.location = 'https://bsd-hardware.info/?view=computers&amp;type=desktop&amp;f=storage_model&amp;v=Samsung+Electronics+NVMe+SSD+Controller+SM981%2FPM981%2FPM983&amp;p=-1'"/><path d="M 250.00,234.20 L 267.03,341.70 A 112.00,112.00 0 0,1 232.97,341.70 z" style="fill: none; stroke: #660000; stroke-width: 1; stroke-opacity: 1.00; stroke-linecap: round; stroke-linejoin: round;" id="ezcGraphCircleSector_9"/><path d="M 250.00,231.00 L 232.40,342.11 A 112.50,112.50 0 0,1 198.93,331.24 z" style="fill: #edd400; fill-opacity: 1.00; stroke: none; cursor: pointer;" id="ezcGraphCircleSector_10" onclick="top.location = 'https://bsd-hardware.info/?view=computers&amp;type=desktop&amp;f=storage_model&amp;v=Samsung+Electronics+NVMe+SSD+Controller+SM961%2FPM961%2FSM963&amp;p=-1'"/><path d="M 249.01,234.04 L 231.99,341.54 A 112.00,112.00 0 0,1 199.60,331.02 z" style="fill: none; stroke: #776a00; stroke-width: 1; stroke-opacity: 1.00; stroke-linecap: round; stroke-linejoin: round;" id="ezcGraphCircleSector_11"/><path d="M 250.00,231.00 L 198.93,331.24 A 112.50,112.50 0 0,1 170.45,310.55 z" style="fill: #75505b; fill-opacity: 1.00; stroke: none; cursor: pointer;" id="ezcGraphCircleSector_12" onclick="top.location = 'https://bsd-hardware.info/?view=computers&amp;type=desktop&amp;f=storage_model&amp;v=Realtek+Semiconductor+NVMe+Controller&amp;p=-1'"/><path d="M 248.12,233.59 L 198.71,330.57 A 112.00,112.00 0 0,1 171.16,310.55 z" style="fill: none; stroke: #3b282e; stroke-width: 1; stroke-opacity: 1.00; stroke-linecap: round; stroke-linejoin: round;" id="ezcGraphCircleSector_13"/><path d="M 250.00,231.00 L 170.45,310.55 A 112.50,112.50 0 1,1 362.50,231.00 z" style="fill: #f57900; fill-opacity: 1.00; stroke: none;" id="ezcGraphCircleSector_14"/><path d="M 249.79,230.50 L 170.45,309.84 A 112.00,112.00 0 1,1 362.00,230.50 z" style="fill: none; stroke: #7b3d00; stroke-width: 1; stroke-opacity: 1.00; stroke-linecap: round; stroke-linejoin: round;" id="ezcGraphCircleSector_15"/><path d=" M 218.1097,154.0100 L 197.4275,115.0000" style="fill: none; stroke: #000000; stroke-width: 1; stroke-opacity: 1.00; stroke-linecap: round; stroke-linejoin: round;" id="ezcGraphLine_16"/><ellipse cx="218.1097" cy="154.0100" rx="3.0000" ry="3.0000" style="fill: #000000; fill-opacity: 1.00; stroke: none;" id="ezcGraphCircle_17"/><ellipse cx="197.4275" cy="115.0000" rx="3.0000" ry="3.0000" style="fill: #000000; fill-opacity: 1.00; stroke: none;" id="ezcGraphCircle_18"/><path d=" M 201.0179,298.4181 L 161.3203,324.7500" style="fill: none; stroke: #000000; stroke-width: 1; stroke-opacity: 1.00; stroke-linecap: round; stroke-linejoin: round;" id="ezcGraphLine_20"/><ellipse cx="201.0179" cy="298.4181" rx="3.0000" ry="3.0000" style="fill: #000000; fill-opacity: 1.00; stroke: none;" id="ezcGraphCircle_21"/><ellipse cx="161.3203" cy="324.7500" rx="3.0000" ry="3.0000" style="fill: #000000; fill-opacity: 1.00; stroke: none;" id="ezcGraphCircle_22"/><path d=" M 224.2486,310.2547 L 224.2486,362.2500" style="fill: none; stroke: #000000; stroke-width: 1; stroke-opacity: 1.00; stroke-linecap: round; stroke-linejoin: round;" id="ezcGraphLine_24"/><ellipse cx="224.2486" cy="310.2547" rx="3.0000" ry="3.0000" style="fill: #000000; fill-opacity: 1.00; stroke: none;" id="ezcGraphCircle_25"/><ellipse cx="224.2486" cy="362.2500" rx="3.0000" ry="3.0000" style="fill: #000000; fill-opacity: 1.00; stroke: none;" id="ezcGraphCircle_26"/><path d=" M 250.0000,314.3333 L 245.0000,399.7500" style="fill: none; stroke: #000000; stroke-width: 1; stroke-opacity: 1.00; stroke-linecap: round; stroke-linejoin: round;" id="ezcGraphLine_28"/><ellipse cx="250.0000" cy="314.3333" rx="3.0000" ry="3.0000" style="fill: #000000; fill-opacity: 1.00; stroke: none;" id="ezcGraphCircle_29"/><ellipse cx="245.0000" cy="399.7500" rx="3.0000" ry="3.0000" style="fill: #000000; fill-opacity: 1.00; stroke: none;" id="ezcGraphCircle_30"/><path d=" M 331.7113,281.0728 L 358.8786,302.0000" style="fill: none; stroke: #000000; stroke-width: 1; stroke-opacity: 1.00; stroke-linecap: round; stroke-linejoin: round;" id="ezcGraphLine_32"/><ellipse cx="331.7113" cy="281.0728" rx="3.0000" ry="3.0000" style="fill: #000000; fill-opacity: 1.00; stroke: none;" id="ezcGraphCircle_33"/><ellipse cx="358.8786" cy="302.0000" rx="3.0000" ry="3.0000" style="fill: #000000; fill-opacity: 1.00; stroke: none;" id="ezcGraphCircle_34"/><path d=" M 275.7514,310.2547 L 297.2432,349.0000" style="fill: none; stroke: #000000; stroke-width: 1; stroke-opacity: 1.00; stroke-linecap: round; stroke-linejoin: round;" id="ezcGraphLine_36"/><ellipse cx="275.7514" cy="310.2547" rx="3.0000" ry="3.0000" style="fill: #000000; fill-opacity: 1.00; stroke: none;" id="ezcGraphCircle_37"/><ellipse cx="297.2432" cy="349.0000" rx="3.0000" ry="3.0000" style="fill: #000000; fill-opacity: 1.00; stroke: none;" id="ezcGraphCircle_38"/><g id="ezcGraphTextBox_3"><path d=" M 111.7000,42.0000 L 111.7000,0.5000 L 388.8000,0.5000 L 388.8000,42.0000 L 111.7000,42.0000 z " style="fill: #ffffff; fill-opacity: 0.00; stroke: none;" id="ezcGraphPolygon_40"/><text id="ezcGraphTextBox_3_text" x="112.2000" text-length="275.6000px" y="35.0000" style="font-size: 40px; font-family: 'Arial'; fill: #2e3436; fill-opacity: 1.00; stroke: none;">Storage Model</text></g><g id="ezcGraphTextBox_19"><path d=" M 68.4975,124.2500 L 68.4975,106.2500 L 192.4275,106.2500 L 192.4275,124.2500 L 68.4975,124.2500 z " style="fill: #ffffff; fill-opacity: 0.00; stroke: none;" id="ezcGraphPolygon_41"/><text id="ezcGraphTextBox_19_text" x="68.9975" text-length="122.4300px" y="120.7750" style="font-size: 16px; font-family: 'Arial'; fill: #2e3436; fill-opacity: 1.00; stroke: none;">Others (62.5%)</text></g><g id="ezcGraphTextBox_23" style=" cursor: pointer;" onclick="top.location = 'https://bsd-hardware.info/?view=computers&amp;type=desktop&amp;f=storage_model&amp;v=Realtek+Semiconductor+NVMe+Controller&amp;p=-1'"><path d=" M 23.6453,342.3000 L 23.6453,307.7000 L 156.3203,307.7000 L 156.3203,342.3000 L 23.6453,342.3000 z " style="fill: #ffffff; fill-opacity: 0.00; stroke: none;" id="ezcGraphPolygon_42"/><text id="ezcGraphTextBox_23_text" x="24.1453" text-length="131.1750px" y="322.2250" style="font-size: 16px; font-family: 'Arial'; fill: #2e3436; fill-opacity: 1.00; stroke: none;">NVMe Controller</text><text id="ezcGraphTextBox_23_text" x="102.8503" text-length="52.4700px" y="340.3750" style="font-size: 16px; font-family: 'Arial'; fill: #2e3436; fill-opacity: 1.00; stroke: none;">(5.0%)</text></g><g id="ezcGraphTextBox_27" style=" cursor: pointer;" onclick="top.location = 'https://bsd-hardware.info/?view=computers&amp;type=desktop&amp;f=storage_model&amp;v=Samsung+Electronics+NVMe+SSD+Controller+SM961%2FPM961%2FSM963&amp;p=-1'"><path d=" M 16.6136,371.5000 L 16.6136,353.5000 L 219.2486,353.5000 L 219.2486,371.5000 L 16.6136,371.5000 z " style="fill: #ffffff; fill-opacity: 0.00; stroke: none;" id="ezcGraphPolygon_43"/><text id="ezcGraphTextBox_27_text" x="17.1136" text-length="201.1350px" y="368.0250" style="font-size: 16px; font-family: 'Arial'; fill: #2e3436; fill-opacity: 1.00; stroke: none;">NVMe SSD Cont... (5.0%)</text></g><g id="ezcGraphTextBox_31" style=" cursor: pointer;" onclick="top.location = 'https://bsd-hardware.info/?view=computers&amp;type=desktop&amp;f=storage_model&amp;v=Samsung+Electronics+NVMe+SSD+Controller+SM981%2FPM981%2FPM983&amp;p=-1'"><path d=" M 37.3650,409.0000 L 37.3650,391.0000 L 240.0000,391.0000 L 240.0000,409.0000 L 37.3650,409.0000 z " style="fill: #ffffff; fill-opacity: 0.00; stroke: none;" id="ezcGraphPolygon_44"/><text id="ezcGraphTextBox_31_text" x="37.8650" text-length="201.1350px" y="405.5250" style="font-size: 16px; font-family: 'Arial'; fill: #2e3436; fill-opacity: 1.00; stroke: none;">NVMe SSD Cont... (5.0%)</text></g><g id="ezcGraphTextBox_35" style=" cursor: pointer;" onclick="top.location = 'https://bsd-hardware.info/?view=computers&amp;type=desktop&amp;f=storage_model&amp;v=AMD+FCH+SATA+Controller+%5BAHCI+mode%5D&amp;p=-1'"><path d=" M 364.3786,319.5500 L 364.3786,284.9500 L 497.0536,284.9500 L 497.0536,319.5500 L 364.3786,319.5500 z " style="fill: #ffffff; fill-opacity: 0.00; stroke: none;" id="ezcGraphPolygon_45"/><text id="ezcGraphTextBox_35_text" x="364.8786" text-length="69.9600px" y="299.4750" style="font-size: 16px; font-family: 'Arial'; fill: #2e3436; fill-opacity: 1.00; stroke: none;">FCH SATA</text><text id="ezcGraphTextBox_35_text" x="364.8786" text-length="131.1750px" y="317.6250" style="font-size: 16px; font-family: 'Arial'; fill: #2e3436; fill-opacity: 1.00; stroke: none;">Cont... (17.5%)</text></g><g id="ezcGraphTextBox_39" style=" cursor: pointer;" onclick="top.location = 'https://bsd-hardware.info/?view=computers&amp;type=desktop&amp;f=storage_model&amp;v=Sandisk+WD+Black+SN770+NVMe+SSD&amp;p=-1'"><path d=" M 302.7432,366.5500 L 302.7432,331.9500 L 444.1632,331.9500 L 444.1632,366.5500 L 302.7432,366.5500 z " style="fill: #ffffff; fill-opacity: 0.00; stroke: none;" id="ezcGraphPolygon_46"/><text id="ezcGraphTextBox_39_text" x="303.2432" text-length="139.9200px" y="346.4750" style="font-size: 16px; font-family: 'Arial'; fill: #2e3436; fill-opacity: 1.00; stroke: none;">WD Black SN77...</text><text id="ezcGraphTextBox_39_text" x="303.2432" text-length="52.4700px" y="364.6250" style="font-size: 16px; font-family: 'Arial'; fill: #2e3436; fill-opacity: 1.00; stroke: none;">(5.0%)</text></g></g></svg>
