<?xml version="1.0"?>
<svg xmlns="http://www.w3.org/2000/svg" width="500" height="420" version="1.0" id="ezcGraph"><defs/><g id="ezcGraphChart" color-rendering="optimizeQuality" shape-rendering="geometricPrecision" text-rendering="optimizeLegibility"><path d=" M 0.0000,420.0000 L 0.0000,0.0000 L 500.0000,0.0000 L 500.0000,420.0000 L 0.0000,420.0000 z " style="fill: #eeeeec; fill-opacity: 1.00; stroke: none;" id="ezcGraphPolygon_1"/><path d=" M 0.0000,42.0000 L 0.0000,0.0000 L 500.0000,0.0000 L 500.0000,42.0000 L 0.0000,42.0000 z " style="fill: #000000; fill-opacity: 0.00; stroke: none;" id="ezcGraphPolygon_2"/><path d="M 262.12,234.07 L 374.62,234.07 A 112.50,112.50 0 0,1 361.08,287.58 z" style="fill: #3465a4; fill-opacity: 1.00; stroke: none; cursor: pointer;" id="ezcGraphCircleSector_4" onclick="top.location = 'https://bsd-hardware.info/?view=computers&amp;f=gpu_model&amp;v=Intel+JasperLake+%5BUHD+Graphics%5D&amp;p=-1'"/><path d="M 264.09,234.57 L 374.12,234.57 A 112.00,112.00 0 0,1 360.87,286.90 z" style="fill: none; stroke: #1a3352; stroke-width: 1; stroke-opacity: 1.00; stroke-linecap: round; stroke-linejoin: round;" id="ezcGraphCircleSector_5"/><path d="M 250.00,231.00 L 348.96,284.51 A 112.50,112.50 0 0,1 313.91,323.59 z" style="fill: #4e9a06; fill-opacity: 1.00; stroke: none; cursor: pointer;" id="ezcGraphCircleSector_6" onclick="top.location = 'https://bsd-hardware.info/?view=computers&amp;f=gpu_model&amp;v=ASPEED+Technology+ASPEED+Graphics+Family&amp;p=-1'"/><path d="M 251.60,232.43 L 348.28,284.71 A 112.00,112.00 0 0,1 314.03,322.89 z" style="fill: none; stroke: #274d03; stroke-width: 1; stroke-opacity: 1.00; stroke-linecap: round; stroke-linejoin: round;" id="ezcGraphCircleSector_7"/><path d="M 250.00,231.00 L 313.91,323.59 A 112.50,112.50 0 0,1 279.96,339.44 z" style="fill: #cc0000; fill-opacity: 1.00; stroke: none; cursor: pointer;" id="ezcGraphCircleSector_8" onclick="top.location = 'https://bsd-hardware.info/?view=computers&amp;f=gpu_model&amp;v=Intel+Xeon+E3-1200+v3%2F4th+Gen+Core+Processor+Integrated+Graphics+Controller&amp;p=-1'"/><path d="M 251.27,233.72 L 313.21,323.46 A 112.00,112.00 0 0,1 280.31,338.82 z" style="fill: none; stroke: #660000; stroke-width: 1; stroke-opacity: 1.00; stroke-linecap: round; stroke-linejoin: round;" id="ezcGraphCircleSector_9"/><path d="M 250.00,231.00 L 279.96,339.44 A 112.50,112.50 0 0,1 242.69,343.26 z" style="fill: #edd400; fill-opacity: 1.00; stroke: none; cursor: pointer;" id="ezcGraphCircleSector_10" onclick="top.location = 'https://bsd-hardware.info/?view=computers&amp;f=gpu_model&amp;v=Intel+GeminiLake+%5BUHD+Graphics+600%5D&amp;p=-1'"/><path d="M 250.31,233.99 L 279.34,339.09 A 112.00,112.00 0 0,1 243.22,342.80 z" style="fill: none; stroke: #776a00; stroke-width: 1; stroke-opacity: 1.00; stroke-linecap: round; stroke-linejoin: round;" id="ezcGraphCircleSector_11"/><path d="M 250.00,231.00 L 242.69,343.26 A 112.50,112.50 0 0,1 218.03,338.86 z" style="fill: #75505b; fill-opacity: 1.00; stroke: none; cursor: pointer;" id="ezcGraphCircleSector_12" onclick="top.location = 'https://bsd-hardware.info/?view=computers&amp;f=gpu_model&amp;v=Intel+Atom%2FCeleron%2FPentium+Processor+x5-E8000%2FJ3xxx%2FN3xxx+Integrated+Graphics+Controller&amp;p=-1'"/><path d="M 249.21,235.42 L 242.22,342.73 A 112.00,112.00 0 0,1 218.65,338.52 z" style="fill: none; stroke: #3b282e; stroke-width: 1; stroke-opacity: 1.00; stroke-linecap: round; stroke-linejoin: round;" id="ezcGraphCircleSector_13"/><path d="M 250.00,231.00 L 218.03,338.86 A 112.50,112.50 0 1,1 362.50,231.00 z" style="fill: #f57900; fill-opacity: 1.00; stroke: none;" id="ezcGraphCircleSector_14"/><path d="M 249.63,230.50 L 217.69,338.24 A 112.00,112.00 0 1,1 362.00,230.50 z" style="fill: none; stroke: #7b3d00; stroke-width: 1; stroke-opacity: 1.00; stroke-linecap: round; stroke-linejoin: round;" id="ezcGraphCircleSector_15"/><path d=" M 200.1448,164.2250 L 170.3522,130.0000" style="fill: none; stroke: #000000; stroke-width: 1; stroke-opacity: 1.00; stroke-linecap: round; stroke-linejoin: round;" id="ezcGraphLine_16"/><ellipse cx="200.1448" cy="164.2250" rx="3.0000" ry="3.0000" style="fill: #000000; fill-opacity: 1.00; stroke: none;" id="ezcGraphCircle_17"/><ellipse cx="170.3522" cy="130.0000" rx="3.0000" ry="3.0000" style="fill: #000000; fill-opacity: 1.00; stroke: none;" id="ezcGraphCircle_18"/><path d=" M 235.3598,313.0372 L 221.7289,354.0000" style="fill: none; stroke: #000000; stroke-width: 1; stroke-opacity: 1.00; stroke-linecap: round; stroke-linejoin: round;" id="ezcGraphLine_20"/><ellipse cx="235.3598" cy="313.0372" rx="3.0000" ry="3.0000" style="fill: #000000; fill-opacity: 1.00; stroke: none;" id="ezcGraphCircle_21"/><ellipse cx="221.7289" cy="354.0000" rx="3.0000" ry="3.0000" style="fill: #000000; fill-opacity: 1.00; stroke: none;" id="ezcGraphCircle_22"/><path d=" M 342.9047,254.5105 L 376.5653,264.0000" style="fill: none; stroke: #000000; stroke-width: 1; stroke-opacity: 1.00; stroke-linecap: round; stroke-linejoin: round;" id="ezcGraphLine_24"/><ellipse cx="342.9047" cy="254.5105" rx="3.0000" ry="3.0000" style="fill: #000000; fill-opacity: 1.00; stroke: none;" id="ezcGraphCircle_25"/><ellipse cx="376.5653" cy="264.0000" rx="3.0000" ry="3.0000" style="fill: #000000; fill-opacity: 1.00; stroke: none;" id="ezcGraphCircle_26"/><path d=" M 312.0323,286.6457 L 349.4666,314.0000" style="fill: none; stroke: #000000; stroke-width: 1; stroke-opacity: 1.00; stroke-linecap: round; stroke-linejoin: round;" id="ezcGraphLine_28"/><ellipse cx="312.0323" cy="286.6457" rx="3.0000" ry="3.0000" style="fill: #000000; fill-opacity: 1.00; stroke: none;" id="ezcGraphCircle_29"/><ellipse cx="349.4666" cy="314.0000" rx="3.0000" ry="3.0000" style="fill: #000000; fill-opacity: 1.00; stroke: none;" id="ezcGraphCircle_30"/><path d=" M 285.2572,306.5075 L 289.2378,351.5000" style="fill: none; stroke: #000000; stroke-width: 1; stroke-opacity: 1.00; stroke-linecap: round; stroke-linejoin: round;" id="ezcGraphLine_32"/><ellipse cx="285.2572" cy="306.5075" rx="3.0000" ry="3.0000" style="fill: #000000; fill-opacity: 1.00; stroke: none;" id="ezcGraphCircle_33"/><ellipse cx="289.2378" cy="351.5000" rx="3.0000" ry="3.0000" style="fill: #000000; fill-opacity: 1.00; stroke: none;" id="ezcGraphCircle_34"/><path d=" M 258.5053,313.8982 L 258.5053,389.0000" style="fill: none; stroke: #000000; stroke-width: 1; stroke-opacity: 1.00; stroke-linecap: round; stroke-linejoin: round;" id="ezcGraphLine_36"/><ellipse cx="258.5053" cy="313.8982" rx="3.0000" ry="3.0000" style="fill: #000000; fill-opacity: 1.00; stroke: none;" id="ezcGraphCircle_37"/><ellipse cx="258.5053" cy="389.0000" rx="3.0000" ry="3.0000" style="fill: #000000; fill-opacity: 1.00; stroke: none;" id="ezcGraphCircle_38"/><g id="ezcGraphTextBox_3"><path d=" M 154.1000,42.0000 L 154.1000,0.5000 L 346.4000,0.5000 L 346.4000,42.0000 L 154.1000,42.0000 z " style="fill: #ffffff; fill-opacity: 0.00; stroke: none;" id="ezcGraphPolygon_40"/><text id="ezcGraphTextBox_3_text" x="154.6000" text-length="190.8000px" y="35.0000" style="font-size: 40px; font-family: 'Arial'; fill: #2e3436; fill-opacity: 1.00; stroke: none;">GPU Model</text></g><g id="ezcGraphTextBox_19"><path d=" M 41.4222,139.2500 L 41.4222,121.2500 L 165.3522,121.2500 L 165.3522,139.2500 L 41.4222,139.2500 z " style="fill: #ffffff; fill-opacity: 0.00; stroke: none;" id="ezcGraphPolygon_41"/><text id="ezcGraphTextBox_19_text" x="41.9222" text-length="122.4300px" y="135.7750" style="font-size: 16px; font-family: 'Arial'; fill: #2e3436; fill-opacity: 1.00; stroke: none;">Others (70.4%)</text></g><g id="ezcGraphTextBox_23" style=" cursor: pointer;" onclick="top.location = 'https://bsd-hardware.info/?view=computers&amp;f=gpu_model&amp;v=Intel+Atom%2FCeleron%2FPentium+Processor+x5-E8000%2FJ3xxx%2FN3xxx+Integrated+Graphics+Controller&amp;p=-1'"><path d=" M 14.0939,363.2500 L 14.0939,345.2500 L 216.7289,345.2500 L 216.7289,363.2500 L 14.0939,363.2500 z " style="fill: #ffffff; fill-opacity: 0.00; stroke: none;" id="ezcGraphPolygon_42"/><text id="ezcGraphTextBox_23_text" x="14.5939" text-length="201.1350px" y="359.7750" style="font-size: 16px; font-family: 'Arial'; fill: #2e3436; fill-opacity: 1.00; stroke: none;">Atom/Celeron/... (3.6%)</text></g><g id="ezcGraphTextBox_27" style=" cursor: pointer;" onclick="top.location = 'https://bsd-hardware.info/?view=computers&amp;f=gpu_model&amp;v=Intel+JasperLake+%5BUHD+Graphics%5D&amp;p=-1'"><path d=" M 382.0653,281.5500 L 382.0653,246.9500 L 488.5053,246.9500 L 488.5053,281.5500 L 382.0653,281.5500 z " style="fill: #ffffff; fill-opacity: 0.00; stroke: none;" id="ezcGraphPolygon_43"/><text id="ezcGraphTextBox_27_text" x="382.5653" text-length="87.4500px" y="261.4750" style="font-size: 16px; font-family: 'Arial'; fill: #2e3436; fill-opacity: 1.00; stroke: none;">JasperLake</text><text id="ezcGraphTextBox_27_text" x="382.5653" text-length="104.9400px" y="279.6250" style="font-size: 16px; font-family: 'Arial'; fill: #2e3436; fill-opacity: 1.00; stroke: none;">[U... (7.9%)</text></g><g id="ezcGraphTextBox_31" style=" cursor: pointer;" onclick="top.location = 'https://bsd-hardware.info/?view=computers&amp;f=gpu_model&amp;v=ASPEED+Technology+ASPEED+Graphics+Family&amp;p=-1'"><path d=" M 354.9666,331.5500 L 354.9666,296.9500 L 496.3866,296.9500 L 496.3866,331.5500 L 354.9666,331.5500 z " style="fill: #ffffff; fill-opacity: 0.00; stroke: none;" id="ezcGraphPolygon_44"/><text id="ezcGraphTextBox_31_text" x="355.4666" text-length="139.9200px" y="311.4750" style="font-size: 16px; font-family: 'Arial'; fill: #2e3436; fill-opacity: 1.00; stroke: none;">ASPEED Graphi...</text><text id="ezcGraphTextBox_31_text" x="355.4666" text-length="52.4700px" y="329.6250" style="font-size: 16px; font-family: 'Arial'; fill: #2e3436; fill-opacity: 1.00; stroke: none;">(7.5%)</text></g><g id="ezcGraphTextBox_35" style=" cursor: pointer;" onclick="top.location = 'https://bsd-hardware.info/?view=computers&amp;f=gpu_model&amp;v=Intel+Xeon+E3-1200+v3%2F4th+Gen+Core+Processor+Integrated+Graphics+Controller&amp;p=-1'"><path d=" M 294.7378,369.0500 L 294.7378,334.4500 L 436.1578,334.4500 L 436.1578,369.0500 L 294.7378,369.0500 z " style="fill: #ffffff; fill-opacity: 0.00; stroke: none;" id="ezcGraphPolygon_45"/><text id="ezcGraphTextBox_35_text" x="295.2378" text-length="139.9200px" y="348.9750" style="font-size: 16px; font-family: 'Arial'; fill: #2e3436; fill-opacity: 1.00; stroke: none;">Xeon E3-1200 ...</text><text id="ezcGraphTextBox_35_text" x="295.2378" text-length="52.4700px" y="367.1250" style="font-size: 16px; font-family: 'Arial'; fill: #2e3436; fill-opacity: 1.00; stroke: none;">(5.3%)</text></g><g id="ezcGraphTextBox_39" style=" cursor: pointer;" onclick="top.location = 'https://bsd-hardware.info/?view=computers&amp;f=gpu_model&amp;v=Intel+GeminiLake+%5BUHD+Graphics+600%5D&amp;p=-1'"><path d=" M 264.0053,398.2500 L 264.0053,380.2500 L 466.6403,380.2500 L 466.6403,398.2500 L 264.0053,398.2500 z " style="fill: #ffffff; fill-opacity: 0.00; stroke: none;" id="ezcGraphPolygon_46"/><text id="ezcGraphTextBox_39_text" x="264.5053" text-length="201.1350px" y="394.7750" style="font-size: 16px; font-family: 'Arial'; fill: #2e3436; fill-opacity: 1.00; stroke: none;">GeminiLake [U... (5.3%)</text></g></g></svg>
