<?xml version="1.0"?>
<svg xmlns="http://www.w3.org/2000/svg" width="500" height="420" version="1.0" id="ezcGraph"><defs/><g id="ezcGraphChart" color-rendering="optimizeQuality" shape-rendering="geometricPrecision" text-rendering="optimizeLegibility"><path d=" M 0.0000,420.0000 L 0.0000,0.0000 L 500.0000,0.0000 L 500.0000,420.0000 L 0.0000,420.0000 z " style="fill: #eeeeec; fill-opacity: 1.00; stroke: none;" id="ezcGraphPolygon_1"/><path d=" M 0.0000,42.0000 L 0.0000,0.0000 L 500.0000,0.0000 L 500.0000,42.0000 L 0.0000,42.0000 z " style="fill: #000000; fill-opacity: 0.00; stroke: none;" id="ezcGraphPolygon_2"/><path d=" M 0.0000,420.0000 L 0.0000,42.0000 L 100.0000,42.0000 L 100.0000,420.0000 L 0.0000,420.0000 z " style="fill: #000000; fill-opacity: 0.00; stroke: none;" id="ezcGraphPolygon_4"/><path d=" M 2.0000,58.0000 L 2.0000,44.0000 L 16.0000,44.0000 L 16.0000,58.0000 L 2.0000,58.0000 z " style="fill: #3465a4; fill-opacity: 1.00; stroke: none; cursor: pointer;" id="ezcGraphPolygon_5" onclick="top.location = 'https://bsd-hardware.info/?view=computers&amp;f=device_unsupported&amp;v=1&amp;p=-1'"/><path d=" M 2.0000,76.0000 L 2.0000,62.0000 L 16.0000,62.0000 L 16.0000,76.0000 L 2.0000,76.0000 z " style="fill: #4e9a06; fill-opacity: 1.00; stroke: none; cursor: pointer;" id="ezcGraphPolygon_7" onclick="top.location = 'https://bsd-hardware.info/?view=computers&amp;f=device_unsupported&amp;v=0&amp;p=-1'"/><path d=" M 2.0000,94.0000 L 2.0000,80.0000 L 16.0000,80.0000 L 16.0000,94.0000 L 2.0000,94.0000 z " style="fill: #cc0000; fill-opacity: 1.00; stroke: none; cursor: pointer;" id="ezcGraphPolygon_9" onclick="top.location = 'https://bsd-hardware.info/?view=computers&amp;f=device_unsupported&amp;v=2&amp;p=-1'"/><path d=" M 2.0000,112.0000 L 2.0000,98.0000 L 16.0000,98.0000 L 16.0000,112.0000 L 2.0000,112.0000 z " style="fill: #edd400; fill-opacity: 1.00; stroke: none; cursor: pointer;" id="ezcGraphPolygon_11" onclick="top.location = 'https://bsd-hardware.info/?view=computers&amp;f=device_unsupported&amp;v=3&amp;p=-1'"/><path d=" M 2.0000,130.0000 L 2.0000,116.0000 L 16.0000,116.0000 L 16.0000,130.0000 L 2.0000,130.0000 z " style="fill: #75505b; fill-opacity: 1.00; stroke: none; cursor: pointer;" id="ezcGraphPolygon_13" onclick="top.location = 'https://bsd-hardware.info/?view=computers&amp;f=device_unsupported&amp;v=4&amp;p=-1'"/><path d=" M 100.0000,382.2000 L 500.0000,382.2000" style="fill: none; stroke: #2e3436; stroke-width: 1; stroke-opacity: 1.00; stroke-linecap: round; stroke-linejoin: round;" id="ezcGraphLine_15"/><path d=" M 492.0000,378.2000 L 500.0000,382.2000 L 492.0000,386.2000 L 492.0000,378.2000 z " style="fill: #2e3436; fill-opacity: 1.00; stroke: none;" id="ezcGraphPolygon_16"/><path d=" M 185.7143,79.8000 L 185.7143,382.2000" style="fill: none; stroke: #000000; stroke-width: 1; stroke-opacity: 0.00; stroke-linecap: round; stroke-linejoin: round;" id="ezcGraphLine_19"/><path d=" M 185.7143,379.2000 L 185.7143,385.2000" style="fill: none; stroke: #2e3436; stroke-width: 1; stroke-opacity: 1.00; stroke-linecap: round; stroke-linejoin: round;" id="ezcGraphLine_20"/><path d=" M 231.4286,79.8000 L 231.4286,382.2000" style="fill: none; stroke: #000000; stroke-width: 1; stroke-opacity: 0.00; stroke-linecap: round; stroke-linejoin: round;" id="ezcGraphLine_22"/><path d=" M 231.4286,379.2000 L 231.4286,385.2000" style="fill: none; stroke: #2e3436; stroke-width: 1; stroke-opacity: 1.00; stroke-linecap: round; stroke-linejoin: round;" id="ezcGraphLine_23"/><path d=" M 277.1429,79.8000 L 277.1429,382.2000" style="fill: none; stroke: #000000; stroke-width: 1; stroke-opacity: 0.00; stroke-linecap: round; stroke-linejoin: round;" id="ezcGraphLine_25"/><path d=" M 277.1429,379.2000 L 277.1429,385.2000" style="fill: none; stroke: #2e3436; stroke-width: 1; stroke-opacity: 1.00; stroke-linecap: round; stroke-linejoin: round;" id="ezcGraphLine_26"/><path d=" M 322.8571,79.8000 L 322.8571,382.2000" style="fill: none; stroke: #000000; stroke-width: 1; stroke-opacity: 0.00; stroke-linecap: round; stroke-linejoin: round;" id="ezcGraphLine_28"/><path d=" M 322.8571,379.2000 L 322.8571,385.2000" style="fill: none; stroke: #2e3436; stroke-width: 1; stroke-opacity: 1.00; stroke-linecap: round; stroke-linejoin: round;" id="ezcGraphLine_29"/><path d=" M 368.5714,79.8000 L 368.5714,382.2000" style="fill: none; stroke: #000000; stroke-width: 1; stroke-opacity: 0.00; stroke-linecap: round; stroke-linejoin: round;" id="ezcGraphLine_31"/><path d=" M 368.5714,379.2000 L 368.5714,385.2000" style="fill: none; stroke: #2e3436; stroke-width: 1; stroke-opacity: 1.00; stroke-linecap: round; stroke-linejoin: round;" id="ezcGraphLine_32"/><path d=" M 414.2857,79.8000 L 414.2857,382.2000" style="fill: none; stroke: #000000; stroke-width: 1; stroke-opacity: 0.00; stroke-linecap: round; stroke-linejoin: round;" id="ezcGraphLine_34"/><path d=" M 414.2857,379.2000 L 414.2857,385.2000" style="fill: none; stroke: #2e3436; stroke-width: 1; stroke-opacity: 1.00; stroke-linecap: round; stroke-linejoin: round;" id="ezcGraphLine_35"/><path d=" M 460.0000,79.8000 L 460.0000,382.2000" style="fill: none; stroke: #000000; stroke-width: 1; stroke-opacity: 0.00; stroke-linecap: round; stroke-linejoin: round;" id="ezcGraphLine_37"/><path d=" M 460.0000,379.2000 L 460.0000,385.2000" style="fill: none; stroke: #2e3436; stroke-width: 1; stroke-opacity: 1.00; stroke-linecap: round; stroke-linejoin: round;" id="ezcGraphLine_38"/><path d=" M 140.0000,420.0000 L 140.0000,42.0000" style="fill: none; stroke: #2e3436; stroke-width: 1; stroke-opacity: 1.00; stroke-linecap: round; stroke-linejoin: round;" id="ezcGraphLine_39"/><path d=" M 136.0000,50.0000 L 140.0000,42.0000 L 144.0000,50.0000 L 136.0000,50.0000 z " style="fill: #2e3436; fill-opacity: 1.00; stroke: none;" id="ezcGraphPolygon_40"/><path d=" M 140.0000,79.8000 L 460.0000,79.8000" style="fill: none; stroke: #000000; stroke-width: 1; stroke-opacity: 0.00; stroke-linecap: round; stroke-linejoin: round;" id="ezcGraphLine_43"/><path d=" M 140.0000,79.8000 L 143.0000,79.8000" style="fill: none; stroke: #2e3436; stroke-width: 1; stroke-opacity: 1.00; stroke-linecap: round; stroke-linejoin: round;" id="ezcGraphLine_44"/><path d=" M 162.8571,102.1776 L 162.8571,102.1776" style="fill: none; stroke: #3465a4; stroke-width: 1; stroke-opacity: 1.00; stroke-linecap: round; stroke-linejoin: round;" id="ezcGraphLine_46"/><path d=" M 162.8571,102.1776 L 208.5714,171.1248" style="fill: none; stroke: #3465a4; stroke-width: 1; stroke-opacity: 1.00; stroke-linecap: round; stroke-linejoin: round;" id="ezcGraphLine_48"/><path d=" M 208.5714,171.1248 L 254.2857,143.3040" style="fill: none; stroke: #3465a4; stroke-width: 1; stroke-opacity: 1.00; stroke-linecap: round; stroke-linejoin: round;" id="ezcGraphLine_50"/><path d=" M 254.2857,143.3040 L 300.0000,180.8016" style="fill: none; stroke: #3465a4; stroke-width: 1; stroke-opacity: 1.00; stroke-linecap: round; stroke-linejoin: round;" id="ezcGraphLine_52"/><path d=" M 300.0000,180.8016 L 345.7143,180.8016" style="fill: none; stroke: #3465a4; stroke-width: 1; stroke-opacity: 1.00; stroke-linecap: round; stroke-linejoin: round;" id="ezcGraphLine_54"/><path d=" M 345.7143,180.8016 L 391.4286,114.8784" style="fill: none; stroke: #3465a4; stroke-width: 1; stroke-opacity: 1.00; stroke-linecap: round; stroke-linejoin: round;" id="ezcGraphLine_56"/><path d=" M 391.4286,114.8784 L 437.1429,128.7888" style="fill: none; stroke: #3465a4; stroke-width: 1; stroke-opacity: 1.00; stroke-linecap: round; stroke-linejoin: round;" id="ezcGraphLine_58"/><path d=" M 162.8571,257.0064 L 162.8571,257.0064" style="fill: none; stroke: #4e9a06; stroke-width: 1; stroke-opacity: 1.00; stroke-linecap: round; stroke-linejoin: round;" id="ezcGraphLine_60"/><path d=" M 162.8571,257.0064 L 208.5714,199.5504" style="fill: none; stroke: #4e9a06; stroke-width: 1; stroke-opacity: 1.00; stroke-linecap: round; stroke-linejoin: round;" id="ezcGraphLine_62"/><path d=" M 208.5714,199.5504 L 254.2857,241.2816" style="fill: none; stroke: #4e9a06; stroke-width: 1; stroke-opacity: 1.00; stroke-linecap: round; stroke-linejoin: round;" id="ezcGraphLine_64"/><path d=" M 254.2857,241.2816 L 300.0000,197.1312" style="fill: none; stroke: #4e9a06; stroke-width: 1; stroke-opacity: 1.00; stroke-linecap: round; stroke-linejoin: round;" id="ezcGraphLine_66"/><path d=" M 300.0000,197.1312 L 345.7143,180.8016" style="fill: none; stroke: #4e9a06; stroke-width: 1; stroke-opacity: 1.00; stroke-linecap: round; stroke-linejoin: round;" id="ezcGraphLine_68"/><path d=" M 345.7143,180.8016 L 391.4286,157.2144" style="fill: none; stroke: #4e9a06; stroke-width: 1; stroke-opacity: 1.00; stroke-linecap: round; stroke-linejoin: round;" id="ezcGraphLine_70"/><path d=" M 391.4286,157.2144 L 437.1429,220.7184" style="fill: none; stroke: #4e9a06; stroke-width: 1; stroke-opacity: 1.00; stroke-linecap: round; stroke-linejoin: round;" id="ezcGraphLine_72"/><path d=" M 162.8571,257.0064 L 162.8571,257.0064" style="fill: none; stroke: #cc0000; stroke-width: 1; stroke-opacity: 1.00; stroke-linecap: round; stroke-linejoin: round;" id="ezcGraphLine_74"/><path d=" M 162.8571,257.0064 L 208.5714,241.2816" style="fill: none; stroke: #cc0000; stroke-width: 1; stroke-opacity: 1.00; stroke-linecap: round; stroke-linejoin: round;" id="ezcGraphLine_76"/><path d=" M 208.5714,241.2816 L 254.2857,255.7968" style="fill: none; stroke: #cc0000; stroke-width: 1; stroke-opacity: 1.00; stroke-linecap: round; stroke-linejoin: round;" id="ezcGraphLine_78"/><path d=" M 254.2857,255.7968 L 300.0000,214.0656" style="fill: none; stroke: #cc0000; stroke-width: 1; stroke-opacity: 1.00; stroke-linecap: round; stroke-linejoin: round;" id="ezcGraphLine_80"/><path d=" M 300.0000,214.0656 L 345.7143,267.2880" style="fill: none; stroke: #cc0000; stroke-width: 1; stroke-opacity: 1.00; stroke-linecap: round; stroke-linejoin: round;" id="ezcGraphLine_82"/><path d=" M 345.7143,267.2880 L 391.4286,297.5280" style="fill: none; stroke: #cc0000; stroke-width: 1; stroke-opacity: 1.00; stroke-linecap: round; stroke-linejoin: round;" id="ezcGraphLine_84"/><path d=" M 391.4286,297.5280 L 437.1429,262.4496" style="fill: none; stroke: #cc0000; stroke-width: 1; stroke-opacity: 1.00; stroke-linecap: round; stroke-linejoin: round;" id="ezcGraphLine_86"/><path d=" M 162.8571,330.7920 L 162.8571,330.7920" style="fill: none; stroke: #edd400; stroke-width: 1; stroke-opacity: 1.00; stroke-linecap: round; stroke-linejoin: round;" id="ezcGraphLine_88"/><path d=" M 162.8571,330.7920 L 208.5714,325.9536" style="fill: none; stroke: #edd400; stroke-width: 1; stroke-opacity: 1.00; stroke-linecap: round; stroke-linejoin: round;" id="ezcGraphLine_90"/><path d=" M 208.5714,325.9536 L 254.2857,312.0432" style="fill: none; stroke: #edd400; stroke-width: 1; stroke-opacity: 1.00; stroke-linecap: round; stroke-linejoin: round;" id="ezcGraphLine_92"/><path d=" M 254.2857,312.0432 L 300.0000,332.0016" style="fill: none; stroke: #edd400; stroke-width: 1; stroke-opacity: 1.00; stroke-linecap: round; stroke-linejoin: round;" id="ezcGraphLine_94"/><path d=" M 300.0000,332.0016 L 345.7143,295.7136" style="fill: none; stroke: #edd400; stroke-width: 1; stroke-opacity: 1.00; stroke-linecap: round; stroke-linejoin: round;" id="ezcGraphLine_96"/><path d=" M 345.7143,295.7136 L 391.4286,368.2896" style="fill: none; stroke: #edd400; stroke-width: 1; stroke-opacity: 1.00; stroke-linecap: round; stroke-linejoin: round;" id="ezcGraphLine_98"/><path d=" M 391.4286,368.2896 L 437.1429,318.6960" style="fill: none; stroke: #edd400; stroke-width: 1; stroke-opacity: 1.00; stroke-linecap: round; stroke-linejoin: round;" id="ezcGraphLine_100"/><path d=" M 162.8571,359.8224 L 162.8571,359.8224" style="fill: none; stroke: #75505b; stroke-width: 1; stroke-opacity: 1.00; stroke-linecap: round; stroke-linejoin: round;" id="ezcGraphLine_102"/><path d=" M 162.8571,359.8224 L 208.5714,368.2896" style="fill: none; stroke: #75505b; stroke-width: 1; stroke-opacity: 1.00; stroke-linecap: round; stroke-linejoin: round;" id="ezcGraphLine_104"/><path d=" M 208.5714,368.2896 L 254.2857,353.7744" style="fill: none; stroke: #75505b; stroke-width: 1; stroke-opacity: 1.00; stroke-linecap: round; stroke-linejoin: round;" id="ezcGraphLine_106"/><path d=" M 254.2857,353.7744 L 391.4286,368.2896" style="fill: none; stroke: #75505b; stroke-width: 1; stroke-opacity: 1.00; stroke-linecap: round; stroke-linejoin: round;" id="ezcGraphLine_108"/><path d=" M 391.4286,368.2896 L 437.1429,374.9424" style="fill: none; stroke: #75505b; stroke-width: 1; stroke-opacity: 1.00; stroke-linecap: round; stroke-linejoin: round;" id="ezcGraphLine_110"/><path d=" M 159.8571,105.1776 L 159.8571,99.1776 L 165.8571,99.1776 L 165.8571,105.1776 L 159.8571,105.1776 z " style="fill: #3465a4; fill-opacity: 1.00; stroke: none; cursor: pointer;" id="ezcGraphPolygon_112" onclick="top.location = 'https://bsd-hardware.info/?view=computers&amp;f=device_unsupported&amp;v=1&amp;p=-1&amp;p=97'"/><path d=" M 205.5714,174.1248 L 205.5714,168.1248 L 211.5714,168.1248 L 211.5714,174.1248 L 205.5714,174.1248 z " style="fill: #3465a4; fill-opacity: 1.00; stroke: none; cursor: pointer;" id="ezcGraphPolygon_113" onclick="top.location = 'https://bsd-hardware.info/?view=computers&amp;f=device_unsupported&amp;v=1&amp;p=-1&amp;p=99'"/><path d=" M 251.2857,146.3040 L 251.2857,140.3040 L 257.2857,140.3040 L 257.2857,146.3040 L 251.2857,146.3040 z " style="fill: #3465a4; fill-opacity: 1.00; stroke: none; cursor: pointer;" id="ezcGraphPolygon_114" onclick="top.location = 'https://bsd-hardware.info/?view=computers&amp;f=device_unsupported&amp;v=1&amp;p=-1&amp;p=101'"/><path d=" M 297.0000,183.8016 L 297.0000,177.8016 L 303.0000,177.8016 L 303.0000,183.8016 L 297.0000,183.8016 z " style="fill: #3465a4; fill-opacity: 1.00; stroke: none; cursor: pointer;" id="ezcGraphPolygon_115" onclick="top.location = 'https://bsd-hardware.info/?view=computers&amp;f=device_unsupported&amp;v=1&amp;p=-1&amp;p=103'"/><path d=" M 342.7143,183.8016 L 342.7143,177.8016 L 348.7143,177.8016 L 348.7143,183.8016 L 342.7143,183.8016 z " style="fill: #3465a4; fill-opacity: 1.00; stroke: none; cursor: pointer;" id="ezcGraphPolygon_116" onclick="top.location = 'https://bsd-hardware.info/?view=computers&amp;f=device_unsupported&amp;v=1&amp;p=-1&amp;p=105'"/><path d=" M 388.4286,117.8784 L 388.4286,111.8784 L 394.4286,111.8784 L 394.4286,117.8784 L 388.4286,117.8784 z " style="fill: #3465a4; fill-opacity: 1.00; stroke: none; cursor: pointer;" id="ezcGraphPolygon_117" onclick="top.location = 'https://bsd-hardware.info/?view=computers&amp;f=device_unsupported&amp;v=1&amp;p=-1&amp;p=107'"/><path d=" M 434.1429,131.7888 L 434.1429,125.7888 L 440.1429,125.7888 L 440.1429,131.7888 L 434.1429,131.7888 z " style="fill: #3465a4; fill-opacity: 1.00; stroke: none; cursor: pointer;" id="ezcGraphPolygon_118" onclick="top.location = 'https://bsd-hardware.info/?view=computers&amp;f=device_unsupported&amp;v=1&amp;p=-1&amp;p=109'"/><path d=" M 159.8571,260.0064 L 159.8571,254.0064 L 165.8571,254.0064 L 165.8571,260.0064 L 159.8571,260.0064 z " style="fill: #4e9a06; fill-opacity: 1.00; stroke: none; cursor: pointer;" id="ezcGraphPolygon_119" onclick="top.location = 'https://bsd-hardware.info/?view=computers&amp;f=device_unsupported&amp;v=0&amp;p=-1&amp;p=97'"/><path d=" M 205.5714,202.5504 L 205.5714,196.5504 L 211.5714,196.5504 L 211.5714,202.5504 L 205.5714,202.5504 z " style="fill: #4e9a06; fill-opacity: 1.00; stroke: none; cursor: pointer;" id="ezcGraphPolygon_120" onclick="top.location = 'https://bsd-hardware.info/?view=computers&amp;f=device_unsupported&amp;v=0&amp;p=-1&amp;p=99'"/><path d=" M 251.2857,244.2816 L 251.2857,238.2816 L 257.2857,238.2816 L 257.2857,244.2816 L 251.2857,244.2816 z " style="fill: #4e9a06; fill-opacity: 1.00; stroke: none; cursor: pointer;" id="ezcGraphPolygon_121" onclick="top.location = 'https://bsd-hardware.info/?view=computers&amp;f=device_unsupported&amp;v=0&amp;p=-1&amp;p=101'"/><path d=" M 297.0000,200.1312 L 297.0000,194.1312 L 303.0000,194.1312 L 303.0000,200.1312 L 297.0000,200.1312 z " style="fill: #4e9a06; fill-opacity: 1.00; stroke: none; cursor: pointer;" id="ezcGraphPolygon_122" onclick="top.location = 'https://bsd-hardware.info/?view=computers&amp;f=device_unsupported&amp;v=0&amp;p=-1&amp;p=103'"/><path d=" M 342.7143,183.8016 L 342.7143,177.8016 L 348.7143,177.8016 L 348.7143,183.8016 L 342.7143,183.8016 z " style="fill: #4e9a06; fill-opacity: 1.00; stroke: none; cursor: pointer;" id="ezcGraphPolygon_123" onclick="top.location = 'https://bsd-hardware.info/?view=computers&amp;f=device_unsupported&amp;v=0&amp;p=-1&amp;p=105'"/><path d=" M 388.4286,160.2144 L 388.4286,154.2144 L 394.4286,154.2144 L 394.4286,160.2144 L 388.4286,160.2144 z " style="fill: #4e9a06; fill-opacity: 1.00; stroke: none; cursor: pointer;" id="ezcGraphPolygon_124" onclick="top.location = 'https://bsd-hardware.info/?view=computers&amp;f=device_unsupported&amp;v=0&amp;p=-1&amp;p=107'"/><path d=" M 434.1429,223.7184 L 434.1429,217.7184 L 440.1429,217.7184 L 440.1429,223.7184 L 434.1429,223.7184 z " style="fill: #4e9a06; fill-opacity: 1.00; stroke: none; cursor: pointer;" id="ezcGraphPolygon_125" onclick="top.location = 'https://bsd-hardware.info/?view=computers&amp;f=device_unsupported&amp;v=0&amp;p=-1&amp;p=109'"/><path d=" M 159.8571,260.0064 L 159.8571,254.0064 L 165.8571,254.0064 L 165.8571,260.0064 L 159.8571,260.0064 z " style="fill: #cc0000; fill-opacity: 1.00; stroke: none; cursor: pointer;" id="ezcGraphPolygon_126" onclick="top.location = 'https://bsd-hardware.info/?view=computers&amp;f=device_unsupported&amp;v=2&amp;p=-1&amp;p=97'"/><path d=" M 205.5714,244.2816 L 205.5714,238.2816 L 211.5714,238.2816 L 211.5714,244.2816 L 205.5714,244.2816 z " style="fill: #cc0000; fill-opacity: 1.00; stroke: none; cursor: pointer;" id="ezcGraphPolygon_127" onclick="top.location = 'https://bsd-hardware.info/?view=computers&amp;f=device_unsupported&amp;v=2&amp;p=-1&amp;p=99'"/><path d=" M 251.2857,258.7968 L 251.2857,252.7968 L 257.2857,252.7968 L 257.2857,258.7968 L 251.2857,258.7968 z " style="fill: #cc0000; fill-opacity: 1.00; stroke: none; cursor: pointer;" id="ezcGraphPolygon_128" onclick="top.location = 'https://bsd-hardware.info/?view=computers&amp;f=device_unsupported&amp;v=2&amp;p=-1&amp;p=101'"/><path d=" M 297.0000,217.0656 L 297.0000,211.0656 L 303.0000,211.0656 L 303.0000,217.0656 L 297.0000,217.0656 z " style="fill: #cc0000; fill-opacity: 1.00; stroke: none; cursor: pointer;" id="ezcGraphPolygon_129" onclick="top.location = 'https://bsd-hardware.info/?view=computers&amp;f=device_unsupported&amp;v=2&amp;p=-1&amp;p=103'"/><path d=" M 342.7143,270.2880 L 342.7143,264.2880 L 348.7143,264.2880 L 348.7143,270.2880 L 342.7143,270.2880 z " style="fill: #cc0000; fill-opacity: 1.00; stroke: none; cursor: pointer;" id="ezcGraphPolygon_130" onclick="top.location = 'https://bsd-hardware.info/?view=computers&amp;f=device_unsupported&amp;v=2&amp;p=-1&amp;p=105'"/><path d=" M 388.4286,300.5280 L 388.4286,294.5280 L 394.4286,294.5280 L 394.4286,300.5280 L 388.4286,300.5280 z " style="fill: #cc0000; fill-opacity: 1.00; stroke: none; cursor: pointer;" id="ezcGraphPolygon_131" onclick="top.location = 'https://bsd-hardware.info/?view=computers&amp;f=device_unsupported&amp;v=2&amp;p=-1&amp;p=107'"/><path d=" M 434.1429,265.4496 L 434.1429,259.4496 L 440.1429,259.4496 L 440.1429,265.4496 L 434.1429,265.4496 z " style="fill: #cc0000; fill-opacity: 1.00; stroke: none; cursor: pointer;" id="ezcGraphPolygon_132" onclick="top.location = 'https://bsd-hardware.info/?view=computers&amp;f=device_unsupported&amp;v=2&amp;p=-1&amp;p=109'"/><path d=" M 159.8571,333.7920 L 159.8571,327.7920 L 165.8571,327.7920 L 165.8571,333.7920 L 159.8571,333.7920 z " style="fill: #edd400; fill-opacity: 1.00; stroke: none; cursor: pointer;" id="ezcGraphPolygon_133" onclick="top.location = 'https://bsd-hardware.info/?view=computers&amp;f=device_unsupported&amp;v=3&amp;p=-1&amp;p=97'"/><path d=" M 205.5714,328.9536 L 205.5714,322.9536 L 211.5714,322.9536 L 211.5714,328.9536 L 205.5714,328.9536 z " style="fill: #edd400; fill-opacity: 1.00; stroke: none; cursor: pointer;" id="ezcGraphPolygon_134" onclick="top.location = 'https://bsd-hardware.info/?view=computers&amp;f=device_unsupported&amp;v=3&amp;p=-1&amp;p=99'"/><path d=" M 251.2857,315.0432 L 251.2857,309.0432 L 257.2857,309.0432 L 257.2857,315.0432 L 251.2857,315.0432 z " style="fill: #edd400; fill-opacity: 1.00; stroke: none; cursor: pointer;" id="ezcGraphPolygon_135" onclick="top.location = 'https://bsd-hardware.info/?view=computers&amp;f=device_unsupported&amp;v=3&amp;p=-1&amp;p=101'"/><path d=" M 297.0000,335.0016 L 297.0000,329.0016 L 303.0000,329.0016 L 303.0000,335.0016 L 297.0000,335.0016 z " style="fill: #edd400; fill-opacity: 1.00; stroke: none; cursor: pointer;" id="ezcGraphPolygon_136" onclick="top.location = 'https://bsd-hardware.info/?view=computers&amp;f=device_unsupported&amp;v=3&amp;p=-1&amp;p=103'"/><path d=" M 342.7143,298.7136 L 342.7143,292.7136 L 348.7143,292.7136 L 348.7143,298.7136 L 342.7143,298.7136 z " style="fill: #edd400; fill-opacity: 1.00; stroke: none; cursor: pointer;" id="ezcGraphPolygon_137" onclick="top.location = 'https://bsd-hardware.info/?view=computers&amp;f=device_unsupported&amp;v=3&amp;p=-1&amp;p=105'"/><path d=" M 388.4286,371.2896 L 388.4286,365.2896 L 394.4286,365.2896 L 394.4286,371.2896 L 388.4286,371.2896 z " style="fill: #edd400; fill-opacity: 1.00; stroke: none; cursor: pointer;" id="ezcGraphPolygon_138" onclick="top.location = 'https://bsd-hardware.info/?view=computers&amp;f=device_unsupported&amp;v=3&amp;p=-1&amp;p=107'"/><path d=" M 434.1429,321.6960 L 434.1429,315.6960 L 440.1429,315.6960 L 440.1429,321.6960 L 434.1429,321.6960 z " style="fill: #edd400; fill-opacity: 1.00; stroke: none; cursor: pointer;" id="ezcGraphPolygon_139" onclick="top.location = 'https://bsd-hardware.info/?view=computers&amp;f=device_unsupported&amp;v=3&amp;p=-1&amp;p=109'"/><path d=" M 159.8571,362.8224 L 159.8571,356.8224 L 165.8571,356.8224 L 165.8571,362.8224 L 159.8571,362.8224 z " style="fill: #75505b; fill-opacity: 1.00; stroke: none; cursor: pointer;" id="ezcGraphPolygon_140" onclick="top.location = 'https://bsd-hardware.info/?view=computers&amp;f=device_unsupported&amp;v=4&amp;p=-1&amp;p=97'"/><path d=" M 205.5714,371.2896 L 205.5714,365.2896 L 211.5714,365.2896 L 211.5714,371.2896 L 205.5714,371.2896 z " style="fill: #75505b; fill-opacity: 1.00; stroke: none; cursor: pointer;" id="ezcGraphPolygon_141" onclick="top.location = 'https://bsd-hardware.info/?view=computers&amp;f=device_unsupported&amp;v=4&amp;p=-1&amp;p=99'"/><path d=" M 251.2857,356.7744 L 251.2857,350.7744 L 257.2857,350.7744 L 257.2857,356.7744 L 251.2857,356.7744 z " style="fill: #75505b; fill-opacity: 1.00; stroke: none; cursor: pointer;" id="ezcGraphPolygon_142" onclick="top.location = 'https://bsd-hardware.info/?view=computers&amp;f=device_unsupported&amp;v=4&amp;p=-1&amp;p=101'"/><path d=" M 388.4286,371.2896 L 388.4286,365.2896 L 394.4286,365.2896 L 394.4286,371.2896 L 388.4286,371.2896 z " style="fill: #75505b; fill-opacity: 1.00; stroke: none; cursor: pointer;" id="ezcGraphPolygon_143" onclick="top.location = 'https://bsd-hardware.info/?view=computers&amp;f=device_unsupported&amp;v=4&amp;p=-1&amp;p=107'"/><path d=" M 434.1429,377.9424 L 434.1429,371.9424 L 440.1429,371.9424 L 440.1429,377.9424 L 434.1429,377.9424 z " style="fill: #75505b; fill-opacity: 1.00; stroke: none; cursor: pointer;" id="ezcGraphPolygon_144" onclick="top.location = 'https://bsd-hardware.info/?view=computers&amp;f=device_unsupported&amp;v=4&amp;p=-1&amp;p=109'"/><g id="ezcGraphTextBox_3"><path d=" M 48.1000,42.0000 L 48.1000,0.5000 L 452.4000,0.5000 L 452.4000,42.0000 L 48.1000,42.0000 z " style="fill: #ffffff; fill-opacity: 0.00; stroke: none;" id="ezcGraphPolygon_145"/><text id="ezcGraphTextBox_3_text" x="48.6000" text-length="402.8000px" y="35.0000" style="font-size: 40px; font-family: 'Arial'; fill: #2e3436; fill-opacity: 1.00; stroke: none;">Unsupported Devices</text></g><g id="ezcGraphTextBox_6" style=" cursor: pointer;" onclick="top.location = 'https://bsd-hardware.info/?view=computers&amp;f=device_unsupported&amp;v=1&amp;p=-1'"><path d=" M 16.5000,59.0000 L 16.5000,43.5000 L 26.6800,43.5000 L 26.6800,59.0000 L 16.5000,59.0000 z " style="fill: #ffffff; fill-opacity: 0.00; stroke: none;" id="ezcGraphPolygon_146"/><text id="ezcGraphTextBox_6_text" x="17.0000" text-length="8.6800px" y="55.9000" style="font-size: 14px; font-family: 'Arial'; fill: #2e3436; fill-opacity: 1.00; stroke: none;">1</text></g><g id="ezcGraphTextBox_8" style=" cursor: pointer;" onclick="top.location = 'https://bsd-hardware.info/?view=computers&amp;f=device_unsupported&amp;v=0&amp;p=-1'"><path d=" M 16.5000,77.0000 L 16.5000,61.5000 L 26.6800,61.5000 L 26.6800,77.0000 L 16.5000,77.0000 z " style="fill: #ffffff; fill-opacity: 0.00; stroke: none;" id="ezcGraphPolygon_147"/><text id="ezcGraphTextBox_8_text" x="17.0000" text-length="8.6800px" y="73.9000" style="font-size: 14px; font-family: 'Arial'; fill: #2e3436; fill-opacity: 1.00; stroke: none;">0</text></g><g id="ezcGraphTextBox_10" style=" cursor: pointer;" onclick="top.location = 'https://bsd-hardware.info/?view=computers&amp;f=device_unsupported&amp;v=2&amp;p=-1'"><path d=" M 16.5000,95.0000 L 16.5000,79.5000 L 26.6800,79.5000 L 26.6800,95.0000 L 16.5000,95.0000 z " style="fill: #ffffff; fill-opacity: 0.00; stroke: none;" id="ezcGraphPolygon_148"/><text id="ezcGraphTextBox_10_text" x="17.0000" text-length="8.6800px" y="91.9000" style="font-size: 14px; font-family: 'Arial'; fill: #2e3436; fill-opacity: 1.00; stroke: none;">2</text></g><g id="ezcGraphTextBox_12" style=" cursor: pointer;" onclick="top.location = 'https://bsd-hardware.info/?view=computers&amp;f=device_unsupported&amp;v=3&amp;p=-1'"><path d=" M 16.5000,113.0000 L 16.5000,97.5000 L 26.6800,97.5000 L 26.6800,113.0000 L 16.5000,113.0000 z " style="fill: #ffffff; fill-opacity: 0.00; stroke: none;" id="ezcGraphPolygon_149"/><text id="ezcGraphTextBox_12_text" x="17.0000" text-length="8.6800px" y="109.9000" style="font-size: 14px; font-family: 'Arial'; fill: #2e3436; fill-opacity: 1.00; stroke: none;">3</text></g><g id="ezcGraphTextBox_14" style=" cursor: pointer;" onclick="top.location = 'https://bsd-hardware.info/?view=computers&amp;f=device_unsupported&amp;v=4&amp;p=-1'"><path d=" M 16.5000,131.0000 L 16.5000,115.5000 L 26.6800,115.5000 L 26.6800,131.0000 L 16.5000,131.0000 z " style="fill: #ffffff; fill-opacity: 0.00; stroke: none;" id="ezcGraphPolygon_150"/><text id="ezcGraphTextBox_14_text" x="17.0000" text-length="8.6800px" y="127.9000" style="font-size: 14px; font-family: 'Arial'; fill: #2e3436; fill-opacity: 1.00; stroke: none;">4</text></g><g id="ezcGraphTextBox_17" transform="rotate( 0.00 493.0000 375.2000 )"><path d=" M 465.7000,381.2000 L 465.7000,367.7000 L 499.0000,367.7000 L 499.0000,381.2000 L 465.7000,381.2000 z " style="fill: #ffffff; fill-opacity: 0.00; stroke: none;" id="ezcGraphPolygon_151"/><text id="ezcGraphTextBox_17_text" x="466.2000" text-length="31.8000px" y="378.4000" style="font-size: 12px; font-family: 'Arial'; fill: #2e3436; fill-opacity: 1.00; stroke: none;">Time </text></g><g id="ezcGraphTextBox_18"><path d=" M 147.4771,409.3000 L 147.4771,383.7000 L 178.7371,383.7000 L 178.7371,409.3000 L 147.4771,409.3000 z " style="fill: #ffffff; fill-opacity: 0.00; stroke: none;" id="ezcGraphPolygon_152"/><text id="ezcGraphTextBox_18_text" x="153.3171" text-length="19.0800px" y="394.4000" style="font-size: 12px; font-family: 'Arial'; fill: #2e3436; fill-opacity: 1.00; stroke: none;">Jan</text><text id="ezcGraphTextBox_18_text" x="147.9771" text-length="29.7600px" y="407.6000" style="font-size: 12px; font-family: 'Arial'; fill: #2e3436; fill-opacity: 1.00; stroke: none;">2022</text></g><g id="ezcGraphTextBox_21"><path d=" M 193.1914,409.3000 L 193.1914,383.7000 L 224.4514,383.7000 L 224.4514,409.3000 L 193.1914,409.3000 z " style="fill: #ffffff; fill-opacity: 0.00; stroke: none;" id="ezcGraphPolygon_153"/><text id="ezcGraphTextBox_21_text" x="199.0314" text-length="19.0800px" y="394.4000" style="font-size: 12px; font-family: 'Arial'; fill: #2e3436; fill-opacity: 1.00; stroke: none;">Mar</text><text id="ezcGraphTextBox_21_text" x="193.6914" text-length="29.7600px" y="407.6000" style="font-size: 12px; font-family: 'Arial'; fill: #2e3436; fill-opacity: 1.00; stroke: none;">2022</text></g><g id="ezcGraphTextBox_24"><path d=" M 238.9057,409.3000 L 238.9057,383.7000 L 270.1657,383.7000 L 270.1657,409.3000 L 238.9057,409.3000 z " style="fill: #ffffff; fill-opacity: 0.00; stroke: none;" id="ezcGraphPolygon_154"/><text id="ezcGraphTextBox_24_text" x="244.7457" text-length="19.0800px" y="394.4000" style="font-size: 12px; font-family: 'Arial'; fill: #2e3436; fill-opacity: 1.00; stroke: none;">May</text><text id="ezcGraphTextBox_24_text" x="239.4057" text-length="29.7600px" y="407.6000" style="font-size: 12px; font-family: 'Arial'; fill: #2e3436; fill-opacity: 1.00; stroke: none;">2022</text></g><g id="ezcGraphTextBox_27"><path d=" M 284.6200,409.3000 L 284.6200,383.7000 L 315.8800,383.7000 L 315.8800,409.3000 L 284.6200,409.3000 z " style="fill: #ffffff; fill-opacity: 0.00; stroke: none;" id="ezcGraphPolygon_155"/><text id="ezcGraphTextBox_27_text" x="290.4600" text-length="19.0800px" y="394.4000" style="font-size: 12px; font-family: 'Arial'; fill: #2e3436; fill-opacity: 1.00; stroke: none;">Jul</text><text id="ezcGraphTextBox_27_text" x="285.1200" text-length="29.7600px" y="407.6000" style="font-size: 12px; font-family: 'Arial'; fill: #2e3436; fill-opacity: 1.00; stroke: none;">2022</text></g><g id="ezcGraphTextBox_30"><path d=" M 330.3343,409.3000 L 330.3343,383.7000 L 361.5943,383.7000 L 361.5943,409.3000 L 330.3343,409.3000 z " style="fill: #ffffff; fill-opacity: 0.00; stroke: none;" id="ezcGraphPolygon_156"/><text id="ezcGraphTextBox_30_text" x="336.1743" text-length="19.0800px" y="394.4000" style="font-size: 12px; font-family: 'Arial'; fill: #2e3436; fill-opacity: 1.00; stroke: none;">Sep</text><text id="ezcGraphTextBox_30_text" x="330.8343" text-length="29.7600px" y="407.6000" style="font-size: 12px; font-family: 'Arial'; fill: #2e3436; fill-opacity: 1.00; stroke: none;">2022</text></g><g id="ezcGraphTextBox_33"><path d=" M 376.0486,409.3000 L 376.0486,383.7000 L 407.3086,383.7000 L 407.3086,409.3000 L 376.0486,409.3000 z " style="fill: #ffffff; fill-opacity: 0.00; stroke: none;" id="ezcGraphPolygon_157"/><text id="ezcGraphTextBox_33_text" x="381.8886" text-length="19.0800px" y="394.4000" style="font-size: 12px; font-family: 'Arial'; fill: #2e3436; fill-opacity: 1.00; stroke: none;">Nov</text><text id="ezcGraphTextBox_33_text" x="376.5486" text-length="29.7600px" y="407.6000" style="font-size: 12px; font-family: 'Arial'; fill: #2e3436; fill-opacity: 1.00; stroke: none;">2022</text></g><g id="ezcGraphTextBox_36"><path d=" M 421.7629,409.3000 L 421.7629,383.7000 L 453.0229,383.7000 L 453.0229,409.3000 L 421.7629,409.3000 z " style="fill: #ffffff; fill-opacity: 0.00; stroke: none;" id="ezcGraphPolygon_158"/><text id="ezcGraphTextBox_36_text" x="427.6029" text-length="19.0800px" y="394.4000" style="font-size: 12px; font-family: 'Arial'; fill: #2e3436; fill-opacity: 1.00; stroke: none;">Jan</text><text id="ezcGraphTextBox_36_text" x="422.2629" text-length="29.7600px" y="407.6000" style="font-size: 12px; font-family: 'Arial'; fill: #2e3436; fill-opacity: 1.00; stroke: none;">2023</text></g><g id="ezcGraphTextBox_41" transform="rotate( 0.00 147.0000 49.0000 )"><path d=" M 141.5000,57.0000 L 141.5000,43.5000 L 391.0400,43.5000 L 391.0400,57.0000 L 141.5000,57.0000 z " style="fill: #ffffff; fill-opacity: 0.00; stroke: none;" id="ezcGraphPolygon_159"/><text id="ezcGraphTextBox_41_text" x="142.0000" text-length="248.0400px" y="54.2000" style="font-size: 12px; font-family: 'Arial'; fill: #2e3436; fill-opacity: 1.00; stroke: none;">Computers by "Unsupported Devices" in %</text></g><g id="ezcGraphTextBox_42"><path d=" M 130.0600,381.2000 L 130.0600,367.7000 L 139.0000,367.7000 L 139.0000,381.2000 L 130.0600,381.2000 z " style="fill: #ffffff; fill-opacity: 0.00; stroke: none;" id="ezcGraphPolygon_160"/><text id="ezcGraphTextBox_42_text" x="130.5600" text-length="7.4400px" y="378.4000" style="font-size: 12px; font-family: 'Arial'; fill: #2e3436; fill-opacity: 1.00; stroke: none;">0</text></g><g id="ezcGraphTextBox_45"><path d=" M 122.6200,94.8000 L 122.6200,81.3000 L 139.0000,81.3000 L 139.0000,94.8000 L 122.6200,94.8000 z " style="fill: #ffffff; fill-opacity: 0.00; stroke: none;" id="ezcGraphPolygon_161"/><text id="ezcGraphTextBox_45_text" x="123.1200" text-length="14.8800px" y="92.0000" style="font-size: 12px; font-family: 'Arial'; fill: #2e3436; fill-opacity: 1.00; stroke: none;">50</text></g><g id="ezcGraphTextBox_47"><path d=" M 149.9571,97.1776 L 149.9571,85.6776 L 176.2571,85.6776 L 176.2571,97.1776 L 149.9571,97.1776 z " style="fill: #ffffff; fill-opacity: 0.00; stroke: none;" id="ezcGraphPolygon_162"/><text id="ezcGraphTextBox_47_text" x="150.4571" text-length="24.8000px" y="94.6776" style="font-size: 10px; font-family: 'Arial'; fill: #2e3436; fill-opacity: 1.00; stroke: none;">46.3</text></g><g id="ezcGraphTextBox_49"><path d=" M 195.6714,166.1248 L 195.6714,154.6248 L 221.9714,154.6248 L 221.9714,166.1248 L 195.6714,166.1248 z " style="fill: #ffffff; fill-opacity: 0.00; stroke: none;" id="ezcGraphPolygon_163"/><text id="ezcGraphTextBox_49_text" x="196.1714" text-length="24.8000px" y="163.6248" style="font-size: 10px; font-family: 'Arial'; fill: #2e3436; fill-opacity: 1.00; stroke: none;">34.9</text></g><g id="ezcGraphTextBox_51"><path d=" M 241.3857,138.3040 L 241.3857,126.8040 L 267.6857,126.8040 L 267.6857,138.3040 L 241.3857,138.3040 z " style="fill: #ffffff; fill-opacity: 0.00; stroke: none;" id="ezcGraphPolygon_164"/><text id="ezcGraphTextBox_51_text" x="241.8857" text-length="24.8000px" y="135.8040" style="font-size: 10px; font-family: 'Arial'; fill: #2e3436; fill-opacity: 1.00; stroke: none;">39.5</text></g><g id="ezcGraphTextBox_53"><path d=" M 287.1000,175.8016 L 287.1000,164.3016 L 313.4000,164.3016 L 313.4000,175.8016 L 287.1000,175.8016 z " style="fill: #ffffff; fill-opacity: 0.00; stroke: none;" id="ezcGraphPolygon_165"/><text id="ezcGraphTextBox_53_text" x="287.6000" text-length="24.8000px" y="173.3016" style="font-size: 10px; font-family: 'Arial'; fill: #2e3436; fill-opacity: 1.00; stroke: none;">33.3</text></g><g id="ezcGraphTextBox_55"><path d=" M 332.8143,175.8016 L 332.8143,164.3016 L 359.1143,164.3016 L 359.1143,175.8016 L 332.8143,175.8016 z " style="fill: #ffffff; fill-opacity: 0.00; stroke: none;" id="ezcGraphPolygon_166"/><text id="ezcGraphTextBox_55_text" x="333.3143" text-length="24.8000px" y="173.3016" style="font-size: 10px; font-family: 'Arial'; fill: #2e3436; fill-opacity: 1.00; stroke: none;">33.3</text></g><g id="ezcGraphTextBox_57"><path d=" M 378.5286,109.8784 L 378.5286,98.3784 L 404.8286,98.3784 L 404.8286,109.8784 L 378.5286,109.8784 z " style="fill: #ffffff; fill-opacity: 0.00; stroke: none;" id="ezcGraphPolygon_167"/><text id="ezcGraphTextBox_57_text" x="379.0286" text-length="24.8000px" y="107.3784" style="font-size: 10px; font-family: 'Arial'; fill: #2e3436; fill-opacity: 1.00; stroke: none;">44.2</text></g><g id="ezcGraphTextBox_59"><path d=" M 424.2429,123.7888 L 424.2429,112.2888 L 450.5429,112.2888 L 450.5429,123.7888 L 424.2429,123.7888 z " style="fill: #ffffff; fill-opacity: 0.00; stroke: none;" id="ezcGraphPolygon_168"/><text id="ezcGraphTextBox_59_text" x="424.7429" text-length="24.8000px" y="121.2888" style="font-size: 10px; font-family: 'Arial'; fill: #2e3436; fill-opacity: 1.00; stroke: none;">41.9</text></g><g id="ezcGraphTextBox_61"><path d=" M 149.9571,252.0064 L 149.9571,240.5064 L 176.2571,240.5064 L 176.2571,252.0064 L 149.9571,252.0064 z " style="fill: #ffffff; fill-opacity: 0.00; stroke: none;" id="ezcGraphPolygon_169"/><text id="ezcGraphTextBox_61_text" x="150.4571" text-length="24.8000px" y="249.5064" style="font-size: 10px; font-family: 'Arial'; fill: #2e3436; fill-opacity: 1.00; stroke: none;">20.7</text></g><g id="ezcGraphTextBox_63"><path d=" M 195.6714,194.5504 L 195.6714,183.0504 L 221.9714,183.0504 L 221.9714,194.5504 L 195.6714,194.5504 z " style="fill: #ffffff; fill-opacity: 0.00; stroke: none;" id="ezcGraphPolygon_170"/><text id="ezcGraphTextBox_63_text" x="196.1714" text-length="24.8000px" y="192.0504" style="font-size: 10px; font-family: 'Arial'; fill: #2e3436; fill-opacity: 1.00; stroke: none;">30.2</text></g><g id="ezcGraphTextBox_65"><path d=" M 241.3857,236.2816 L 241.3857,224.7816 L 267.6857,224.7816 L 267.6857,236.2816 L 241.3857,236.2816 z " style="fill: #ffffff; fill-opacity: 0.00; stroke: none;" id="ezcGraphPolygon_171"/><text id="ezcGraphTextBox_65_text" x="241.8857" text-length="24.8000px" y="233.7816" style="font-size: 10px; font-family: 'Arial'; fill: #2e3436; fill-opacity: 1.00; stroke: none;">23.3</text></g><g id="ezcGraphTextBox_67"><path d=" M 287.1000,192.1312 L 287.1000,180.6312 L 313.4000,180.6312 L 313.4000,192.1312 L 287.1000,192.1312 z " style="fill: #ffffff; fill-opacity: 0.00; stroke: none;" id="ezcGraphPolygon_172"/><text id="ezcGraphTextBox_67_text" x="287.6000" text-length="24.8000px" y="189.6312" style="font-size: 10px; font-family: 'Arial'; fill: #2e3436; fill-opacity: 1.00; stroke: none;">30.6</text></g><g id="ezcGraphTextBox_69"><path d=" M 332.8143,175.8016 L 332.8143,164.3016 L 359.1143,164.3016 L 359.1143,175.8016 L 332.8143,175.8016 z " style="fill: #ffffff; fill-opacity: 0.00; stroke: none;" id="ezcGraphPolygon_173"/><text id="ezcGraphTextBox_69_text" x="333.3143" text-length="24.8000px" y="173.3016" style="font-size: 10px; font-family: 'Arial'; fill: #2e3436; fill-opacity: 1.00; stroke: none;">33.3</text></g><g id="ezcGraphTextBox_71"><path d=" M 378.5286,152.2144 L 378.5286,140.7144 L 404.8286,140.7144 L 404.8286,152.2144 L 378.5286,152.2144 z " style="fill: #ffffff; fill-opacity: 0.00; stroke: none;" id="ezcGraphPolygon_174"/><text id="ezcGraphTextBox_71_text" x="379.0286" text-length="24.8000px" y="149.7144" style="font-size: 10px; font-family: 'Arial'; fill: #2e3436; fill-opacity: 1.00; stroke: none;">37.2</text></g><g id="ezcGraphTextBox_73"><path d=" M 424.2429,215.7184 L 424.2429,204.2184 L 450.5429,204.2184 L 450.5429,215.7184 L 424.2429,215.7184 z " style="fill: #ffffff; fill-opacity: 0.00; stroke: none;" id="ezcGraphPolygon_175"/><text id="ezcGraphTextBox_73_text" x="424.7429" text-length="24.8000px" y="213.2184" style="font-size: 10px; font-family: 'Arial'; fill: #2e3436; fill-opacity: 1.00; stroke: none;">26.7</text></g><g id="ezcGraphTextBox_75"><path d=" M 149.9571,252.0064 L 149.9571,240.5064 L 176.2571,240.5064 L 176.2571,252.0064 L 149.9571,252.0064 z " style="fill: #ffffff; fill-opacity: 0.00; stroke: none;" id="ezcGraphPolygon_176"/><text id="ezcGraphTextBox_75_text" x="150.4571" text-length="24.8000px" y="249.5064" style="font-size: 10px; font-family: 'Arial'; fill: #2e3436; fill-opacity: 1.00; stroke: none;">20.7</text></g><g id="ezcGraphTextBox_77"><path d=" M 195.6714,236.2816 L 195.6714,224.7816 L 221.9714,224.7816 L 221.9714,236.2816 L 195.6714,236.2816 z " style="fill: #ffffff; fill-opacity: 0.00; stroke: none;" id="ezcGraphPolygon_177"/><text id="ezcGraphTextBox_77_text" x="196.1714" text-length="24.8000px" y="233.7816" style="font-size: 10px; font-family: 'Arial'; fill: #2e3436; fill-opacity: 1.00; stroke: none;">23.3</text></g><g id="ezcGraphTextBox_79"><path d=" M 241.3857,250.7968 L 241.3857,239.2968 L 267.6857,239.2968 L 267.6857,250.7968 L 241.3857,250.7968 z " style="fill: #ffffff; fill-opacity: 0.00; stroke: none;" id="ezcGraphPolygon_178"/><text id="ezcGraphTextBox_79_text" x="241.8857" text-length="24.8000px" y="248.2968" style="font-size: 10px; font-family: 'Arial'; fill: #2e3436; fill-opacity: 1.00; stroke: none;">20.9</text></g><g id="ezcGraphTextBox_81"><path d=" M 287.1000,209.0656 L 287.1000,197.5656 L 313.4000,197.5656 L 313.4000,209.0656 L 287.1000,209.0656 z " style="fill: #ffffff; fill-opacity: 0.00; stroke: none;" id="ezcGraphPolygon_179"/><text id="ezcGraphTextBox_81_text" x="287.6000" text-length="24.8000px" y="206.5656" style="font-size: 10px; font-family: 'Arial'; fill: #2e3436; fill-opacity: 1.00; stroke: none;">27.8</text></g><g id="ezcGraphTextBox_83"><path d=" M 339.0143,262.2880 L 339.0143,250.7880 L 352.9143,250.7880 L 352.9143,262.2880 L 339.0143,262.2880 z " style="fill: #ffffff; fill-opacity: 0.00; stroke: none;" id="ezcGraphPolygon_180"/><text id="ezcGraphTextBox_83_text" x="339.5143" text-length="12.4000px" y="259.7880" style="font-size: 10px; font-family: 'Arial'; fill: #2e3436; fill-opacity: 1.00; stroke: none;">19</text></g><g id="ezcGraphTextBox_85"><path d=" M 384.7286,292.5280 L 384.7286,281.0280 L 398.6286,281.0280 L 398.6286,292.5280 L 384.7286,292.5280 z " style="fill: #ffffff; fill-opacity: 0.00; stroke: none;" id="ezcGraphPolygon_181"/><text id="ezcGraphTextBox_85_text" x="385.2286" text-length="12.4000px" y="290.0280" style="font-size: 10px; font-family: 'Arial'; fill: #2e3436; fill-opacity: 1.00; stroke: none;">14</text></g><g id="ezcGraphTextBox_87"><path d=" M 424.2429,257.4496 L 424.2429,245.9496 L 450.5429,245.9496 L 450.5429,257.4496 L 424.2429,257.4496 z " style="fill: #ffffff; fill-opacity: 0.00; stroke: none;" id="ezcGraphPolygon_182"/><text id="ezcGraphTextBox_87_text" x="424.7429" text-length="24.8000px" y="254.9496" style="font-size: 10px; font-family: 'Arial'; fill: #2e3436; fill-opacity: 1.00; stroke: none;">19.8</text></g><g id="ezcGraphTextBox_89"><path d=" M 153.0571,325.7920 L 153.0571,314.2920 L 173.1571,314.2920 L 173.1571,325.7920 L 153.0571,325.7920 z " style="fill: #ffffff; fill-opacity: 0.00; stroke: none;" id="ezcGraphPolygon_183"/><text id="ezcGraphTextBox_89_text" x="153.5571" text-length="18.6000px" y="323.2920" style="font-size: 10px; font-family: 'Arial'; fill: #2e3436; fill-opacity: 1.00; stroke: none;">8.5</text></g><g id="ezcGraphTextBox_91"><path d=" M 198.7714,320.9536 L 198.7714,309.4536 L 218.8714,309.4536 L 218.8714,320.9536 L 198.7714,320.9536 z " style="fill: #ffffff; fill-opacity: 0.00; stroke: none;" id="ezcGraphPolygon_184"/><text id="ezcGraphTextBox_91_text" x="199.2714" text-length="18.6000px" y="318.4536" style="font-size: 10px; font-family: 'Arial'; fill: #2e3436; fill-opacity: 1.00; stroke: none;">9.3</text></g><g id="ezcGraphTextBox_93"><path d=" M 241.3857,307.0432 L 241.3857,295.5432 L 267.6857,295.5432 L 267.6857,307.0432 L 241.3857,307.0432 z " style="fill: #ffffff; fill-opacity: 0.00; stroke: none;" id="ezcGraphPolygon_185"/><text id="ezcGraphTextBox_93_text" x="241.8857" text-length="24.8000px" y="304.5432" style="font-size: 10px; font-family: 'Arial'; fill: #2e3436; fill-opacity: 1.00; stroke: none;">11.6</text></g><g id="ezcGraphTextBox_95"><path d=" M 290.2000,327.0016 L 290.2000,315.5016 L 310.3000,315.5016 L 310.3000,327.0016 L 290.2000,327.0016 z " style="fill: #ffffff; fill-opacity: 0.00; stroke: none;" id="ezcGraphPolygon_186"/><text id="ezcGraphTextBox_95_text" x="290.7000" text-length="18.6000px" y="324.5016" style="font-size: 10px; font-family: 'Arial'; fill: #2e3436; fill-opacity: 1.00; stroke: none;">8.3</text></g><g id="ezcGraphTextBox_97"><path d=" M 332.8143,290.7136 L 332.8143,279.2136 L 359.1143,279.2136 L 359.1143,290.7136 L 332.8143,290.7136 z " style="fill: #ffffff; fill-opacity: 0.00; stroke: none;" id="ezcGraphPolygon_187"/><text id="ezcGraphTextBox_97_text" x="333.3143" text-length="24.8000px" y="288.2136" style="font-size: 10px; font-family: 'Arial'; fill: #2e3436; fill-opacity: 1.00; stroke: none;">14.3</text></g><g id="ezcGraphTextBox_99"><path d=" M 381.6286,363.2896 L 381.6286,351.7896 L 401.7286,351.7896 L 401.7286,363.2896 L 381.6286,363.2896 z " style="fill: #ffffff; fill-opacity: 0.00; stroke: none;" id="ezcGraphPolygon_188"/><text id="ezcGraphTextBox_99_text" x="382.1286" text-length="18.6000px" y="360.7896" style="font-size: 10px; font-family: 'Arial'; fill: #2e3436; fill-opacity: 1.00; stroke: none;">2.3</text></g><g id="ezcGraphTextBox_101"><path d=" M 424.2429,313.6960 L 424.2429,302.1960 L 450.5429,302.1960 L 450.5429,313.6960 L 424.2429,313.6960 z " style="fill: #ffffff; fill-opacity: 0.00; stroke: none;" id="ezcGraphPolygon_189"/><text id="ezcGraphTextBox_101_text" x="424.7429" text-length="24.8000px" y="311.1960" style="font-size: 10px; font-family: 'Arial'; fill: #2e3436; fill-opacity: 1.00; stroke: none;">10.5</text></g><g id="ezcGraphTextBox_103"><path d=" M 153.0571,354.8224 L 153.0571,343.3224 L 173.1571,343.3224 L 173.1571,354.8224 L 153.0571,354.8224 z " style="fill: #ffffff; fill-opacity: 0.00; stroke: none;" id="ezcGraphPolygon_190"/><text id="ezcGraphTextBox_103_text" x="153.5571" text-length="18.6000px" y="352.3224" style="font-size: 10px; font-family: 'Arial'; fill: #2e3436; fill-opacity: 1.00; stroke: none;">3.7</text></g><g id="ezcGraphTextBox_105"><path d=" M 198.7714,363.2896 L 198.7714,351.7896 L 218.8714,351.7896 L 218.8714,363.2896 L 198.7714,363.2896 z " style="fill: #ffffff; fill-opacity: 0.00; stroke: none;" id="ezcGraphPolygon_191"/><text id="ezcGraphTextBox_105_text" x="199.2714" text-length="18.6000px" y="360.7896" style="font-size: 10px; font-family: 'Arial'; fill: #2e3436; fill-opacity: 1.00; stroke: none;">2.3</text></g><g id="ezcGraphTextBox_107"><path d=" M 244.4857,348.7744 L 244.4857,337.2744 L 264.5857,337.2744 L 264.5857,348.7744 L 244.4857,348.7744 z " style="fill: #ffffff; fill-opacity: 0.00; stroke: none;" id="ezcGraphPolygon_192"/><text id="ezcGraphTextBox_107_text" x="244.9857" text-length="18.6000px" y="346.2744" style="font-size: 10px; font-family: 'Arial'; fill: #2e3436; fill-opacity: 1.00; stroke: none;">4.7</text></g><g id="ezcGraphTextBox_109"><path d=" M 381.6286,363.2896 L 381.6286,351.7896 L 401.7286,351.7896 L 401.7286,363.2896 L 381.6286,363.2896 z " style="fill: #ffffff; fill-opacity: 0.00; stroke: none;" id="ezcGraphPolygon_193"/><text id="ezcGraphTextBox_109_text" x="382.1286" text-length="18.6000px" y="360.7896" style="font-size: 10px; font-family: 'Arial'; fill: #2e3436; fill-opacity: 1.00; stroke: none;">2.3</text></g><g id="ezcGraphTextBox_111"><path d=" M 427.3429,369.9424 L 427.3429,358.4424 L 447.4429,358.4424 L 447.4429,369.9424 L 427.3429,369.9424 z " style="fill: #ffffff; fill-opacity: 0.00; stroke: none;" id="ezcGraphPolygon_194"/><text id="ezcGraphTextBox_111_text" x="427.8429" text-length="18.6000px" y="367.4424" style="font-size: 10px; font-family: 'Arial'; fill: #2e3436; fill-opacity: 1.00; stroke: none;">1.2</text></g></g></svg>
