<?xml version="1.0"?>
<svg xmlns="http://www.w3.org/2000/svg" width="500" height="420" version="1.0" id="ezcGraph"><defs/><g id="ezcGraphChart" color-rendering="optimizeQuality" shape-rendering="geometricPrecision" text-rendering="optimizeLegibility"><path d=" M 0.0000,420.0000 L 0.0000,0.0000 L 500.0000,0.0000 L 500.0000,420.0000 L 0.0000,420.0000 z " style="fill: #eeeeec; fill-opacity: 1.00; stroke: none;" id="ezcGraphPolygon_1"/><path d=" M 0.0000,42.0000 L 0.0000,0.0000 L 500.0000,0.0000 L 500.0000,42.0000 L 0.0000,42.0000 z " style="fill: #000000; fill-opacity: 0.00; stroke: none;" id="ezcGraphPolygon_2"/><path d="M 261.38,236.17 L 373.88,236.17 A 112.50,112.50 0 0,1 335.47,320.83 z" style="fill: #3465a4; fill-opacity: 1.00; stroke: none; cursor: pointer;" id="ezcGraphCircleSector_4" onclick="top.location = 'https://bsd-hardware.info/?view=computers&amp;f=net_wireless_model&amp;v=Intel+Wi-Fi+6+AX200&amp;p=-1'"/><path d="M 262.48,236.67 L 373.38,236.67 A 112.00,112.00 0 0,1 335.51,320.12 z" style="fill: none; stroke: #1a3352; stroke-width: 1; stroke-opacity: 1.00; stroke-linecap: round; stroke-linejoin: round;" id="ezcGraphCircleSector_5"/><path d="M 250.00,231.00 L 324.08,315.66 A 112.50,112.50 0 0,1 270.84,341.55 z" style="fill: #4e9a06; fill-opacity: 1.00; stroke: none; cursor: pointer;" id="ezcGraphCircleSector_6" onclick="top.location = 'https://bsd-hardware.info/?view=computers&amp;f=net_wireless_model&amp;v=Intel+Wi-Fi+6E%28802.11ax%29+AX210%2FAX1675%2A+2x2+%5BTyphoon+Peak%5D&amp;p=-1'"/><path d="M 250.83,232.71 L 323.38,315.62 A 112.00,112.00 0 0,1 271.24,340.97 z" style="fill: none; stroke: #274d03; stroke-width: 1; stroke-opacity: 1.00; stroke-linecap: round; stroke-linejoin: round;" id="ezcGraphCircleSector_7"/><path d="M 250.00,231.00 L 270.84,341.55 A 112.50,112.50 0 0,1 223.30,340.29 z" style="fill: #cc0000; fill-opacity: 1.00; stroke: none; cursor: pointer;" id="ezcGraphCircleSector_8" onclick="top.location = 'https://bsd-hardware.info/?view=computers&amp;f=net_wireless_model&amp;v=Broadcom+BCM4360+802.11ac+Dual+Band+Wireless+Network+Adapter&amp;p=-1'"/><path d="M 249.94,233.36 L 270.26,341.15 A 112.00,112.00 0 0,1 223.91,339.92 z" style="fill: none; stroke: #660000; stroke-width: 1; stroke-opacity: 1.00; stroke-linecap: round; stroke-linejoin: round;" id="ezcGraphCircleSector_9"/><path d="M 250.00,231.00 L 223.30,340.29 A 112.50,112.50 0 0,1 190.33,326.37 z" style="fill: #edd400; fill-opacity: 1.00; stroke: none; cursor: pointer;" id="ezcGraphCircleSector_10" onclick="top.location = 'https://bsd-hardware.info/?view=computers&amp;f=net_wireless_model&amp;v=MediaTek+MT7922+802.11ax+PCI+Express+Wireless+Network+Adapter&amp;p=-1'"/><path d="M 248.78,233.90 L 222.93,339.68 A 112.00,112.00 0 0,1 191.02,326.21 z" style="fill: none; stroke: #776a00; stroke-width: 1; stroke-opacity: 1.00; stroke-linecap: round; stroke-linejoin: round;" id="ezcGraphCircleSector_11"/><path d="M 250.00,231.00 L 190.33,326.37 A 112.50,112.50 0 0,1 163.39,302.80 z" style="fill: #75505b; fill-opacity: 1.00; stroke: none; cursor: pointer;" id="ezcGraphCircleSector_12" onclick="top.location = 'https://bsd-hardware.info/?view=computers&amp;f=net_wireless_model&amp;v=Intel+Wireless+8265+%2F+8275&amp;p=-1'"/><path d="M 247.93,233.37 L 190.17,325.68 A 112.00,112.00 0 0,1 164.10,302.87 z" style="fill: none; stroke: #3b282e; stroke-width: 1; stroke-opacity: 1.00; stroke-linecap: round; stroke-linejoin: round;" id="ezcGraphCircleSector_13"/><path d="M 250.00,231.00 L 163.39,302.80 A 112.50,112.50 0 1,1 362.50,231.00 z" style="fill: #f57900; fill-opacity: 1.00; stroke: none;" id="ezcGraphCircleSector_14"/><path d="M 249.82,230.50 L 163.46,302.10 A 112.00,112.00 0 1,1 362.00,230.50 z" style="fill: none; stroke: #7b3d00; stroke-width: 1; stroke-opacity: 1.00; stroke-linecap: round; stroke-linejoin: round;" id="ezcGraphCircleSector_15"/><path d=" M 221.7301,152.6083 L 202.7568,113.0000" style="fill: none; stroke: #000000; stroke-width: 1; stroke-opacity: 1.00; stroke-linecap: round; stroke-linejoin: round;" id="ezcGraphLine_16"/><ellipse cx="221.7301" cy="152.6083" rx="3.0000" ry="3.0000" style="fill: #000000; fill-opacity: 1.00; stroke: none;" id="ezcGraphCircle_17"/><ellipse cx="202.7568" cy="113.0000" rx="3.0000" ry="3.0000" style="fill: #000000; fill-opacity: 1.00; stroke: none;" id="ezcGraphCircle_18"/><path d=" M 195.1241,293.7142 L 161.3203,324.7500" style="fill: none; stroke: #000000; stroke-width: 1; stroke-opacity: 1.00; stroke-linecap: round; stroke-linejoin: round;" id="ezcGraphLine_20"/><ellipse cx="195.1241" cy="293.7142" rx="3.0000" ry="3.0000" style="fill: #000000; fill-opacity: 1.00; stroke: none;" id="ezcGraphCircle_21"/><ellipse cx="161.3203" cy="324.7500" rx="3.0000" ry="3.0000" style="fill: #000000; fill-opacity: 1.00; stroke: none;" id="ezcGraphCircle_22"/><path d=" M 217.5980,307.7760 L 217.5980,362.2500" style="fill: none; stroke: #000000; stroke-width: 1; stroke-opacity: 1.00; stroke-linecap: round; stroke-linejoin: round;" id="ezcGraphLine_24"/><ellipse cx="217.5980" cy="307.7760" rx="3.0000" ry="3.0000" style="fill: #000000; fill-opacity: 1.00; stroke: none;" id="ezcGraphCircle_25"/><ellipse cx="217.5980" cy="362.2500" rx="3.0000" ry="3.0000" style="fill: #000000; fill-opacity: 1.00; stroke: none;" id="ezcGraphCircle_26"/><path d=" M 247.7816,314.3038 L 245.0000,399.7500" style="fill: none; stroke: #000000; stroke-width: 1; stroke-opacity: 1.00; stroke-linecap: round; stroke-linejoin: round;" id="ezcGraphLine_28"/><ellipse cx="247.7816" cy="314.3038" rx="3.0000" ry="3.0000" style="fill: #000000; fill-opacity: 1.00; stroke: none;" id="ezcGraphCircle_29"/><ellipse cx="245.0000" cy="399.7500" rx="3.0000" ry="3.0000" style="fill: #000000; fill-opacity: 1.00; stroke: none;" id="ezcGraphCircle_30"/><path d=" M 337.2692,270.5995 L 367.7542,287.0000" style="fill: none; stroke: #000000; stroke-width: 1; stroke-opacity: 1.00; stroke-linecap: round; stroke-linejoin: round;" id="ezcGraphLine_32"/><ellipse cx="337.2692" cy="270.5995" rx="3.0000" ry="3.0000" style="fill: #000000; fill-opacity: 1.00; stroke: none;" id="ezcGraphCircle_33"/><ellipse cx="367.7542" cy="287.0000" rx="3.0000" ry="3.0000" style="fill: #000000; fill-opacity: 1.00; stroke: none;" id="ezcGraphCircle_34"/><path d=" M 286.4423,305.9427 L 311.5068,343.0000" style="fill: none; stroke: #000000; stroke-width: 1; stroke-opacity: 1.00; stroke-linecap: round; stroke-linejoin: round;" id="ezcGraphLine_36"/><ellipse cx="286.4423" cy="305.9427" rx="3.0000" ry="3.0000" style="fill: #000000; fill-opacity: 1.00; stroke: none;" id="ezcGraphCircle_37"/><ellipse cx="311.5068" cy="343.0000" rx="3.0000" ry="3.0000" style="fill: #000000; fill-opacity: 1.00; stroke: none;" id="ezcGraphCircle_38"/><g id="ezcGraphTextBox_3"><path d=" M 101.1000,42.0000 L 101.1000,0.5000 L 399.4000,0.5000 L 399.4000,42.0000 L 101.1000,42.0000 z " style="fill: #ffffff; fill-opacity: 0.00; stroke: none;" id="ezcGraphPolygon_40"/><text id="ezcGraphTextBox_3_text" x="101.6000" text-length="296.8000px" y="35.0000" style="font-size: 40px; font-family: 'Arial'; fill: #2e3436; fill-opacity: 1.00; stroke: none;">Wireless Model</text></g><g id="ezcGraphTextBox_19"><path d=" M 70.1168,122.5000 L 70.1168,104.0000 L 197.7568,104.0000 L 197.7568,122.5000 L 70.1168,122.5000 z " style="fill: #ffffff; fill-opacity: 0.00; stroke: none;" id="ezcGraphPolygon_41"/><text id="ezcGraphTextBox_19_text" x="70.6168" text-length="126.1400px" y="118.9500" style="font-size: 17px; font-family: 'Arial'; fill: #2e3436; fill-opacity: 1.00; stroke: none;">Others (61.0%)</text></g><g id="ezcGraphTextBox_23" style=" cursor: pointer;" onclick="top.location = 'https://bsd-hardware.info/?view=computers&amp;f=net_wireless_model&amp;v=Intel+Wireless+8265+%2F+8275&amp;p=-1'"><path d=" M 10.6603,342.8000 L 10.6603,307.2000 L 156.3203,307.2000 L 156.3203,342.8000 L 10.6603,342.8000 z " style="fill: #ffffff; fill-opacity: 0.00; stroke: none;" id="ezcGraphPolygon_42"/><text id="ezcGraphTextBox_23_text" x="11.1603" text-length="144.1600px" y="322.1500" style="font-size: 17px; font-family: 'Arial'; fill: #2e3436; fill-opacity: 1.00; stroke: none;">Wireless 8265...</text><text id="ezcGraphTextBox_23_text" x="101.2603" text-length="54.0600px" y="340.8500" style="font-size: 17px; font-family: 'Arial'; fill: #2e3436; fill-opacity: 1.00; stroke: none;">(5.1%)</text></g><g id="ezcGraphTextBox_27" style=" cursor: pointer;" onclick="top.location = 'https://bsd-hardware.info/?view=computers&amp;f=net_wireless_model&amp;v=MediaTek+MT7922+802.11ax+PCI+Express+Wireless+Network+Adapter&amp;p=-1'"><path d=" M 66.9380,380.3000 L 66.9380,344.7000 L 212.5980,344.7000 L 212.5980,380.3000 L 66.9380,380.3000 z " style="fill: #ffffff; fill-opacity: 0.00; stroke: none;" id="ezcGraphPolygon_43"/><text id="ezcGraphTextBox_27_text" x="67.4380" text-length="144.1600px" y="359.6500" style="font-size: 17px; font-family: 'Arial'; fill: #2e3436; fill-opacity: 1.00; stroke: none;">MT7922 802.11...</text><text id="ezcGraphTextBox_27_text" x="157.5380" text-length="54.0600px" y="378.3500" style="font-size: 17px; font-family: 'Arial'; fill: #2e3436; fill-opacity: 1.00; stroke: none;">(5.1%)</text></g><g id="ezcGraphTextBox_31" style=" cursor: pointer;" onclick="top.location = 'https://bsd-hardware.info/?view=computers&amp;f=net_wireless_model&amp;v=Broadcom+BCM4360+802.11ac+Dual+Band+Wireless+Network+Adapter&amp;p=-1'"><path d=" M 31.2700,409.2500 L 31.2700,390.7500 L 240.0000,390.7500 L 240.0000,409.2500 L 31.2700,409.2500 z " style="fill: #ffffff; fill-opacity: 0.00; stroke: none;" id="ezcGraphPolygon_44"/><text id="ezcGraphTextBox_31_text" x="31.7700" text-length="207.2300px" y="405.7000" style="font-size: 17px; font-family: 'Arial'; fill: #2e3436; fill-opacity: 1.00; stroke: none;">BCM4360 802.1... (6.8%)</text></g><g id="ezcGraphTextBox_35" style=" cursor: pointer;" onclick="top.location = 'https://bsd-hardware.info/?view=computers&amp;f=net_wireless_model&amp;v=Intel+Wi-Fi+6+AX200&amp;p=-1'"><path d=" M 373.2542,305.0500 L 373.2542,269.4500 L 491.8842,269.4500 L 491.8842,305.0500 L 373.2542,305.0500 z " style="fill: #ffffff; fill-opacity: 0.00; stroke: none;" id="ezcGraphPolygon_45"/><text id="ezcGraphTextBox_35_text" x="373.7542" text-length="117.1300px" y="284.4000" style="font-size: 17px; font-family: 'Arial'; fill: #2e3436; fill-opacity: 1.00; stroke: none;">Wi-Fi 6 AX200</text><text id="ezcGraphTextBox_35_text" x="373.7542" text-length="63.0700px" y="303.1000" style="font-size: 17px; font-family: 'Arial'; fill: #2e3436; fill-opacity: 1.00; stroke: none;">(13.6%)</text></g><g id="ezcGraphTextBox_39" style=" cursor: pointer;" onclick="top.location = 'https://bsd-hardware.info/?view=computers&amp;f=net_wireless_model&amp;v=Intel+Wi-Fi+6E%28802.11ax%29+AX210%2FAX1675%2A+2x2+%5BTyphoon+Peak%5D&amp;p=-1'"><path d=" M 317.0068,361.0500 L 317.0068,325.4500 L 462.6668,325.4500 L 462.6668,361.0500 L 317.0068,361.0500 z " style="fill: #ffffff; fill-opacity: 0.00; stroke: none;" id="ezcGraphPolygon_46"/><text id="ezcGraphTextBox_39_text" x="317.5068" text-length="144.1600px" y="340.4000" style="font-size: 17px; font-family: 'Arial'; fill: #2e3436; fill-opacity: 1.00; stroke: none;">Wi-Fi 6E(802....</text><text id="ezcGraphTextBox_39_text" x="317.5068" text-length="54.0600px" y="359.1000" style="font-size: 17px; font-family: 'Arial'; fill: #2e3436; fill-opacity: 1.00; stroke: none;">(8.5%)</text></g></g></svg>
