<?xml version="1.0"?>
<svg xmlns="http://www.w3.org/2000/svg" width="500" height="420" version="1.0" id="ezcGraph"><defs/><g id="ezcGraphChart" color-rendering="optimizeQuality" shape-rendering="geometricPrecision" text-rendering="optimizeLegibility"><path d=" M 0.0000,420.0000 L 0.0000,0.0000 L 500.0000,0.0000 L 500.0000,420.0000 L 0.0000,420.0000 z " style="fill: #eeeeec; fill-opacity: 1.00; stroke: none;" id="ezcGraphPolygon_1"/><path d=" M 0.0000,42.0000 L 0.0000,0.0000 L 500.0000,0.0000 L 500.0000,42.0000 L 0.0000,42.0000 z " style="fill: #000000; fill-opacity: 0.00; stroke: none;" id="ezcGraphPolygon_2"/><path d="M 241.74,240.38 L 354.24,240.38 A 112.50,112.50 0 1,1 227.45,128.79 z" style="fill: #3465a4; fill-opacity: 1.00; stroke: none; cursor: pointer;" id="ezcGraphCircleSector_4" onclick="top.location = 'https://bsd-hardware.info/?view=computers&amp;f=net_wireless_vendor&amp;v=Intel&amp;p=-1'"/><path d="M 241.30,240.88 L 353.74,240.88 A 112.00,112.00 0 1,1 227.02,129.35 z" style="fill: none; stroke: #1a3352; stroke-width: 1; stroke-opacity: 1.00; stroke-linecap: round; stroke-linejoin: round;" id="ezcGraphCircleSector_5"/><path d="M 250.00,231.00 L 235.71,119.41 A 112.50,112.50 0 0,1 324.33,146.55 z" style="fill: #4e9a06; fill-opacity: 1.00; stroke: none; cursor: pointer;" id="ezcGraphCircleSector_6" onclick="top.location = 'https://bsd-hardware.info/?view=computers&amp;f=net_wireless_vendor&amp;v=Qualcomm+Atheros&amp;p=-1'"/><path d="M 250.36,229.84 L 236.27,119.84 A 112.00,112.00 0 0,1 323.62,146.59 z" style="fill: none; stroke: #274d03; stroke-width: 1; stroke-opacity: 1.00; stroke-linecap: round; stroke-linejoin: round;" id="ezcGraphCircleSector_7"/><path d="M 250.00,231.00 L 324.33,146.55 A 112.50,112.50 0 0,1 356.07,193.52 z" style="fill: #cc0000; fill-opacity: 1.00; stroke: none; cursor: pointer;" id="ezcGraphCircleSector_8" onclick="top.location = 'https://bsd-hardware.info/?view=computers&amp;f=net_wireless_vendor&amp;v=Realtek+Semiconductor&amp;p=-1'"/><path d="M 251.64,229.89 L 324.37,147.26 A 112.00,112.00 0 0,1 355.44,193.22 z" style="fill: none; stroke: #660000; stroke-width: 1; stroke-opacity: 1.00; stroke-linecap: round; stroke-linejoin: round;" id="ezcGraphCircleSector_9"/><path d="M 250.00,231.00 L 356.07,193.52 A 112.50,112.50 0 0,1 362.50,231.00 z" style="fill: #edd400; fill-opacity: 1.00; stroke: none; cursor: pointer;" id="ezcGraphCircleSector_10" onclick="top.location = 'https://bsd-hardware.info/?view=computers&amp;f=net_wireless_vendor&amp;v=TP-Link&amp;p=-1'"/><path d="M 252.92,230.50 L 355.77,194.16 A 112.00,112.00 0 0,1 362.00,230.50 z" style="fill: none; stroke: #776a00; stroke-width: 1; stroke-opacity: 1.00; stroke-linecap: round; stroke-linejoin: round;" id="ezcGraphCircleSector_11"/><path d=" M 186.6853,302.9394 L 173.1763,334.0000" style="fill: none; stroke: #000000; stroke-width: 1; stroke-opacity: 1.00; stroke-linecap: round; stroke-linejoin: round;" id="ezcGraphLine_12"/><ellipse cx="186.6853" cy="302.9394" rx="3.0000" ry="3.0000" style="fill: #000000; fill-opacity: 1.00; stroke: none;" id="ezcGraphCircle_13"/><ellipse cx="173.1763" cy="334.0000" rx="3.0000" ry="3.0000" style="fill: #000000; fill-opacity: 1.00; stroke: none;" id="ezcGraphCircle_14"/><path d=" M 274.4019,151.3194 L 291.0000,111.0000" style="fill: none; stroke: #000000; stroke-width: 1; stroke-opacity: 1.00; stroke-linecap: round; stroke-linejoin: round;" id="ezcGraphLine_16"/><ellipse cx="274.4019" cy="151.3194" rx="3.0000" ry="3.0000" style="fill: #000000; fill-opacity: 1.00; stroke: none;" id="ezcGraphCircle_17"/><ellipse cx="291.0000" cy="111.0000" rx="3.0000" ry="3.0000" style="fill: #000000; fill-opacity: 1.00; stroke: none;" id="ezcGraphCircle_18"/><path d=" M 319.0425,184.3354 L 359.5616,161.0000" style="fill: none; stroke: #000000; stroke-width: 1; stroke-opacity: 1.00; stroke-linecap: round; stroke-linejoin: round;" id="ezcGraphLine_20"/><ellipse cx="319.0425" cy="184.3354" rx="3.0000" ry="3.0000" style="fill: #000000; fill-opacity: 1.00; stroke: none;" id="ezcGraphCircle_21"/><ellipse cx="359.5616" cy="161.0000" rx="3.0000" ry="3.0000" style="fill: #000000; fill-opacity: 1.00; stroke: none;" id="ezcGraphCircle_22"/><path d=" M 332.1347,216.9166 L 379.0488,209.0000" style="fill: none; stroke: #000000; stroke-width: 1; stroke-opacity: 1.00; stroke-linecap: round; stroke-linejoin: round;" id="ezcGraphLine_24"/><ellipse cx="332.1347" cy="216.9166" rx="3.0000" ry="3.0000" style="fill: #000000; fill-opacity: 1.00; stroke: none;" id="ezcGraphCircle_25"/><ellipse cx="379.0488" cy="209.0000" rx="3.0000" ry="3.0000" style="fill: #000000; fill-opacity: 1.00; stroke: none;" id="ezcGraphCircle_26"/><g id="ezcGraphTextBox_3"><path d=" M 90.5000,42.0000 L 90.5000,0.5000 L 410.0000,0.5000 L 410.0000,42.0000 L 90.5000,42.0000 z " style="fill: #ffffff; fill-opacity: 0.00; stroke: none;" id="ezcGraphPolygon_28"/><text id="ezcGraphTextBox_3_text" x="91.0000" text-length="318.0000px" y="35.0000" style="font-size: 40px; font-family: 'Arial'; fill: #2e3436; fill-opacity: 1.00; stroke: none;">Wireless Vendor</text></g><g id="ezcGraphTextBox_15" style=" cursor: pointer;" onclick="top.location = 'https://bsd-hardware.info/?view=computers&amp;f=net_wireless_vendor&amp;v=Intel&amp;p=-1'"><path d=" M 56.4363,343.0000 L 56.4363,325.5000 L 168.1763,325.5000 L 168.1763,343.0000 L 56.4363,343.0000 z " style="fill: #ffffff; fill-opacity: 0.00; stroke: none;" id="ezcGraphPolygon_29"/><text id="ezcGraphTextBox_15_text" x="56.9363" text-length="110.2400px" y="339.6000" style="font-size: 16px; font-family: 'Arial'; fill: #2e3436; fill-opacity: 1.00; stroke: none;">Intel (73.0%)</text></g><g id="ezcGraphTextBox_19" style=" cursor: pointer;" onclick="top.location = 'https://bsd-hardware.info/?view=computers&amp;f=net_wireless_vendor&amp;v=Qualcomm+Atheros&amp;p=-1'"><path d=" M 296.5000,128.0500 L 296.5000,94.4500 L 433.6800,94.4500 L 433.6800,128.0500 L 296.5000,128.0500 z " style="fill: #ffffff; fill-opacity: 0.00; stroke: none;" id="ezcGraphPolygon_30"/><text id="ezcGraphTextBox_19_text" x="297.0000" text-length="135.6800px" y="108.5500" style="font-size: 16px; font-family: 'Arial'; fill: #2e3436; fill-opacity: 1.00; stroke: none;">Qualcomm Atheros</text><text id="ezcGraphTextBox_19_text" x="297.0000" text-length="59.3600px" y="126.1500" style="font-size: 16px; font-family: 'Arial'; fill: #2e3436; fill-opacity: 1.00; stroke: none;">(13.5%)</text></g><g id="ezcGraphTextBox_23" style=" cursor: pointer;" onclick="top.location = 'https://bsd-hardware.info/?view=computers&amp;f=net_wireless_vendor&amp;v=Realtek+Semiconductor&amp;p=-1'"><path d=" M 365.0616,178.0500 L 365.0616,144.4500 L 493.7616,144.4500 L 493.7616,178.0500 L 365.0616,178.0500 z " style="fill: #ffffff; fill-opacity: 0.00; stroke: none;" id="ezcGraphPolygon_31"/><text id="ezcGraphTextBox_23_text" x="365.5616" text-length="59.3600px" y="158.5500" style="font-size: 16px; font-family: 'Arial'; fill: #2e3436; fill-opacity: 1.00; stroke: none;">Realtek</text><text id="ezcGraphTextBox_23_text" x="365.5616" text-length="127.2000px" y="176.1500" style="font-size: 16px; font-family: 'Arial'; fill: #2e3436; fill-opacity: 1.00; stroke: none;">Semic... (8.1%)</text></g><g id="ezcGraphTextBox_27" style=" cursor: pointer;" onclick="top.location = 'https://bsd-hardware.info/?view=computers&amp;f=net_wireless_vendor&amp;v=TP-Link&amp;p=-1'"><path d=" M 384.5488,226.0500 L 384.5488,192.4500 L 445.4088,192.4500 L 445.4088,226.0500 L 384.5488,226.0500 z " style="fill: #ffffff; fill-opacity: 0.00; stroke: none;" id="ezcGraphPolygon_32"/><text id="ezcGraphTextBox_27_text" x="385.0488" text-length="59.3600px" y="206.5500" style="font-size: 16px; font-family: 'Arial'; fill: #2e3436; fill-opacity: 1.00; stroke: none;">TP-Link</text><text id="ezcGraphTextBox_27_text" x="385.0488" text-length="50.8800px" y="224.1500" style="font-size: 16px; font-family: 'Arial'; fill: #2e3436; fill-opacity: 1.00; stroke: none;">(5.4%)</text></g></g></svg>
