<?xml version="1.0"?>
<svg xmlns="http://www.w3.org/2000/svg" width="500" height="420" version="1.0" id="ezcGraph"><defs/><g id="ezcGraphChart" color-rendering="optimizeQuality" shape-rendering="geometricPrecision" text-rendering="optimizeLegibility"><path d=" M 0.0000,420.0000 L 0.0000,0.0000 L 500.0000,0.0000 L 500.0000,420.0000 L 0.0000,420.0000 z " style="fill: #eeeeec; fill-opacity: 1.00; stroke: none;" id="ezcGraphPolygon_1"/><path d=" M 0.0000,42.0000 L 0.0000,0.0000 L 500.0000,0.0000 L 500.0000,42.0000 L 0.0000,42.0000 z " style="fill: #000000; fill-opacity: 0.00; stroke: none;" id="ezcGraphPolygon_2"/><path d="M 257.96,240.64 L 370.46,240.64 A 112.50,112.50 0 0,1 236.62,351.10 z" style="fill: #3465a4; fill-opacity: 1.00; stroke: none; cursor: pointer;" id="ezcGraphCircleSector_4" onclick="top.location = 'http://127.0.0.1/bsd-hardware.info/index.php?view=computers&amp;f=node_ram_total&amp;v=16.0&amp;p=77'"/><path d="M 258.37,241.14 L 369.96,241.14 A 112.00,112.00 0 0,1 237.20,350.70 z" style="fill: none; stroke: #1a3352; stroke-width: 1; stroke-opacity: 1.00; stroke-linecap: round; stroke-linejoin: round;" id="ezcGraphCircleSector_5"/><path d="M 250.00,231.00 L 228.66,341.46 A 112.50,112.50 0 0,1 143.32,195.29 z" style="fill: #4e9a06; fill-opacity: 1.00; stroke: none; cursor: pointer;" id="ezcGraphCircleSector_6" onclick="top.location = 'http://127.0.0.1/bsd-hardware.info/index.php?view=computers&amp;f=node_ram_total&amp;v=24.0&amp;p=77'"/><path d="M 249.43,231.34 L 228.26,340.87 A 112.00,112.00 0 0,1 143.63,195.93 z" style="fill: none; stroke: #274d03; stroke-width: 1; stroke-opacity: 1.00; stroke-linecap: round; stroke-linejoin: round;" id="ezcGraphCircleSector_7"/><path d="M 250.00,231.00 L 143.32,195.29 A 112.50,112.50 0 0,1 209.63,125.99 z" style="fill: #cc0000; fill-opacity: 1.00; stroke: none; cursor: pointer;" id="ezcGraphCircleSector_8" onclick="top.location = 'http://127.0.0.1/bsd-hardware.info/index.php?view=computers&amp;f=node_ram_total&amp;v=64.0&amp;p=77'"/><path d="M 249.15,230.19 L 143.95,194.98 A 112.00,112.00 0 0,1 209.34,126.64 z" style="fill: none; stroke: #660000; stroke-width: 1; stroke-opacity: 1.00; stroke-linecap: round; stroke-linejoin: round;" id="ezcGraphCircleSector_9"/><path d="M 250.00,231.00 L 209.63,125.99 A 112.50,112.50 0 0,1 287.27,124.85 z" style="fill: #edd400; fill-opacity: 1.00; stroke: none; cursor: pointer;" id="ezcGraphCircleSector_10" onclick="top.location = 'http://127.0.0.1/bsd-hardware.info/index.php?view=computers&amp;f=node_ram_total&amp;v=8.0&amp;p=77'"/><path d="M 249.98,229.55 L 210.28,126.28 A 112.00,112.00 0 0,1 286.63,125.16 z" style="fill: none; stroke: #776a00; stroke-width: 1; stroke-opacity: 1.00; stroke-linecap: round; stroke-linejoin: round;" id="ezcGraphCircleSector_11"/><path d="M 250.00,231.00 L 287.27,124.85 A 112.50,112.50 0 0,1 316.39,140.18 z" style="fill: #75505b; fill-opacity: 1.00; stroke: none; cursor: pointer;" id="ezcGraphCircleSector_12" onclick="top.location = 'http://127.0.0.1/bsd-hardware.info/index.php?view=computers&amp;f=node_ram_total&amp;v=1.0&amp;p=77'"/><path d="M 251.59,227.98 L 287.57,125.49 A 112.00,112.00 0 0,1 315.69,140.29 z" style="fill: none; stroke: #3b282e; stroke-width: 1; stroke-opacity: 1.00; stroke-linecap: round; stroke-linejoin: round;" id="ezcGraphCircleSector_13"/><path d="M 250.00,231.00 L 316.39,140.18 A 112.50,112.50 0 0,1 362.50,231.00 z" style="fill: #f57900; fill-opacity: 1.00; stroke: none;" id="ezcGraphCircleSector_14"/><path d="M 250.98,230.50 L 316.50,140.88 A 112.00,112.00 0 0,1 362.00,230.50 z" style="fill: none; stroke: #7b3d00; stroke-width: 1; stroke-opacity: 1.00; stroke-linecap: round; stroke-linejoin: round;" id="ezcGraphCircleSector_15"/><path d=" M 248.7767,147.6756 L 244.0000,106.0000" style="fill: none; stroke: #000000; stroke-width: 1; stroke-opacity: 1.00; stroke-linecap: round; stroke-linejoin: round;" id="ezcGraphLine_16"/><ellipse cx="248.7767" cy="147.6756" rx="3.0000" ry="3.0000" style="fill: #000000; fill-opacity: 1.00; stroke: none;" id="ezcGraphCircle_17"/><ellipse cx="244.0000" cy="106.0000" rx="3.0000" ry="3.0000" style="fill: #000000; fill-opacity: 1.00; stroke: none;" id="ezcGraphCircle_18"/><path d=" M 189.7913,173.3862 L 154.2448,144.0000" style="fill: none; stroke: #000000; stroke-width: 1; stroke-opacity: 1.00; stroke-linecap: round; stroke-linejoin: round;" id="ezcGraphLine_20"/><ellipse cx="189.7913" cy="173.3862" rx="3.0000" ry="3.0000" style="fill: #000000; fill-opacity: 1.00; stroke: none;" id="ezcGraphCircle_21"/><ellipse cx="154.2448" cy="144.0000" rx="3.0000" ry="3.0000" style="fill: #000000; fill-opacity: 1.00; stroke: none;" id="ezcGraphCircle_22"/><path d=" M 178.0360,273.0193 L 136.0370,294.0000" style="fill: none; stroke: #000000; stroke-width: 1; stroke-opacity: 1.00; stroke-linecap: round; stroke-linejoin: round;" id="ezcGraphLine_24"/><ellipse cx="178.0360" cy="273.0193" rx="3.0000" ry="3.0000" style="fill: #000000; fill-opacity: 1.00; stroke: none;" id="ezcGraphCircle_25"/><ellipse cx="136.0370" cy="294.0000" rx="3.0000" ry="3.0000" style="fill: #000000; fill-opacity: 1.00; stroke: none;" id="ezcGraphCircle_26"/><path d=" M 288.8102,157.2558 L 313.4804,120.0000" style="fill: none; stroke: #000000; stroke-width: 1; stroke-opacity: 1.00; stroke-linecap: round; stroke-linejoin: round;" id="ezcGraphLine_28"/><ellipse cx="288.8102" cy="157.2558" rx="3.0000" ry="3.0000" style="fill: #000000; fill-opacity: 1.00; stroke: none;" id="ezcGraphCircle_29"/><ellipse cx="313.4804" cy="120.0000" rx="3.0000" ry="3.0000" style="fill: #000000; fill-opacity: 1.00; stroke: none;" id="ezcGraphCircle_30"/><path d=" M 324.3060,193.2765 L 367.2475,174.0000" style="fill: none; stroke: #000000; stroke-width: 1; stroke-opacity: 1.00; stroke-linecap: round; stroke-linejoin: round;" id="ezcGraphLine_32"/><ellipse cx="324.3060" cy="193.2765" rx="3.0000" ry="3.0000" style="fill: #000000; fill-opacity: 1.00; stroke: none;" id="ezcGraphCircle_33"/><ellipse cx="367.2475" cy="174.0000" rx="3.0000" ry="3.0000" style="fill: #000000; fill-opacity: 1.00; stroke: none;" id="ezcGraphCircle_34"/><path d=" M 310.9997,304.9125 L 322.2495,337.0000" style="fill: none; stroke: #000000; stroke-width: 1; stroke-opacity: 1.00; stroke-linecap: round; stroke-linejoin: round;" id="ezcGraphLine_36"/><ellipse cx="310.9997" cy="304.9125" rx="3.0000" ry="3.0000" style="fill: #000000; fill-opacity: 1.00; stroke: none;" id="ezcGraphCircle_37"/><ellipse cx="322.2495" cy="337.0000" rx="3.0000" ry="3.0000" style="fill: #000000; fill-opacity: 1.00; stroke: none;" id="ezcGraphCircle_38"/><g id="ezcGraphTextBox_3"><path d=" M 164.7000,42.0000 L 164.7000,0.5000 L 335.8000,0.5000 L 335.8000,42.0000 L 164.7000,42.0000 z " style="fill: #ffffff; fill-opacity: 0.00; stroke: none;" id="ezcGraphPolygon_40"/><text id="ezcGraphTextBox_3_text" x="165.2000" text-length="169.6000px" y="35.0000" style="font-size: 40px; font-family: 'Arial'; fill: #2e3436; fill-opacity: 1.00; stroke: none;">RAM Size</text></g><g id="ezcGraphTextBox_19" style=" cursor: pointer;" onclick="top.location = 'http://127.0.0.1/bsd-hardware.info/index.php?view=computers&amp;f=node_ram_total&amp;v=8.0&amp;p=77'"><path d=" M 58.2540,115.9000 L 58.2540,96.6000 L 239.0000,96.6000 L 239.0000,115.9000 L 58.2540,115.9000 z " style="fill: #ffffff; fill-opacity: 0.00; stroke: none;" id="ezcGraphPolygon_41"/><text id="ezcGraphTextBox_19_text" x="58.7540" text-length="179.2460px" y="112.2300" style="font-size: 17px; font-family: 'Arial'; fill: #2e3436; fill-opacity: 1.00; stroke: none;">4.01-8.0 GB (11.2%)</text></g><g id="ezcGraphTextBox_23" style=" cursor: pointer;" onclick="top.location = 'http://127.0.0.1/bsd-hardware.info/index.php?view=computers&amp;f=node_ram_total&amp;v=64.0&amp;p=77'"><path d=" M 25.1028,162.8500 L 25.1028,125.6500 L 149.2448,125.6500 L 149.2448,162.8500 L 25.1028,162.8500 z " style="fill: #ffffff; fill-opacity: 0.00; stroke: none;" id="ezcGraphPolygon_42"/><text id="ezcGraphTextBox_23_text" x="25.6028" text-length="122.6420px" y="141.2800" style="font-size: 17px; font-family: 'Arial'; fill: #2e3436; fill-opacity: 1.00; stroke: none;">32.01-64.0 GB</text><text id="ezcGraphTextBox_23_text" x="82.2068" text-length="66.0380px" y="160.8600" style="font-size: 17px; font-family: 'Arial'; fill: #2e3436; fill-opacity: 1.00; stroke: none;">(14.0%)</text></g><g id="ezcGraphTextBox_27" style=" cursor: pointer;" onclick="top.location = 'http://127.0.0.1/bsd-hardware.info/index.php?view=computers&amp;f=node_ram_total&amp;v=24.0&amp;p=77'"><path d=" M 6.8950,312.8500 L 6.8950,275.6500 L 131.0370,275.6500 L 131.0370,312.8500 L 6.8950,312.8500 z " style="fill: #ffffff; fill-opacity: 0.00; stroke: none;" id="ezcGraphPolygon_43"/><text id="ezcGraphTextBox_27_text" x="7.3950" text-length="122.6420px" y="291.2800" style="font-size: 17px; font-family: 'Arial'; fill: #2e3436; fill-opacity: 1.00; stroke: none;">16.01-24.0 GB</text><text id="ezcGraphTextBox_27_text" x="63.9990" text-length="66.0380px" y="310.8600" style="font-size: 17px; font-family: 'Arial'; fill: #2e3436; fill-opacity: 1.00; stroke: none;">(27.1%)</text></g><g id="ezcGraphTextBox_31" style=" cursor: pointer;" onclick="top.location = 'http://127.0.0.1/bsd-hardware.info/index.php?view=computers&amp;f=node_ram_total&amp;v=1.0&amp;p=77'"><path d=" M 318.9804,129.9000 L 318.9804,110.6000 L 490.2924,110.6000 L 490.2924,129.9000 L 318.9804,129.9000 z " style="fill: #ffffff; fill-opacity: 0.00; stroke: none;" id="ezcGraphPolygon_44"/><text id="ezcGraphTextBox_31_text" x="319.4804" text-length="169.8120px" y="126.2300" style="font-size: 17px; font-family: 'Arial'; fill: #2e3436; fill-opacity: 1.00; stroke: none;">0.01-1.0 GB (4.7%)</text></g><g id="ezcGraphTextBox_35"><path d=" M 372.7475,192.8500 L 372.7475,155.6500 L 440.2855,155.6500 L 440.2855,192.8500 L 372.7475,192.8500 z " style="fill: #ffffff; fill-opacity: 0.00; stroke: none;" id="ezcGraphPolygon_45"/><text id="ezcGraphTextBox_35_text" x="373.2475" text-length="56.6040px" y="171.2800" style="font-size: 17px; font-family: 'Arial'; fill: #2e3436; fill-opacity: 1.00; stroke: none;">Others</text><text id="ezcGraphTextBox_35_text" x="373.2475" text-length="66.0380px" y="190.8600" style="font-size: 17px; font-family: 'Arial'; fill: #2e3436; fill-opacity: 1.00; stroke: none;">(15.0%)</text></g><g id="ezcGraphTextBox_39" style=" cursor: pointer;" onclick="top.location = 'http://127.0.0.1/bsd-hardware.info/index.php?view=computers&amp;f=node_ram_total&amp;v=16.0&amp;p=77'"><path d=" M 327.7495,355.8500 L 327.7495,318.6500 L 442.4575,318.6500 L 442.4575,355.8500 L 327.7495,355.8500 z " style="fill: #ffffff; fill-opacity: 0.00; stroke: none;" id="ezcGraphPolygon_46"/><text id="ezcGraphTextBox_39_text" x="328.2495" text-length="113.2080px" y="334.2800" style="font-size: 17px; font-family: 'Arial'; fill: #2e3436; fill-opacity: 1.00; stroke: none;">8.01-16.0 GB</text><text id="ezcGraphTextBox_39_text" x="328.2495" text-length="66.0380px" y="353.8600" style="font-size: 17px; font-family: 'Arial'; fill: #2e3436; fill-opacity: 1.00; stroke: none;">(28.0%)</text></g></g></svg>
