<?xml version="1.0"?>
<svg xmlns="http://www.w3.org/2000/svg" width="500" height="420" version="1.0" id="ezcGraph"><defs/><g id="ezcGraphChart" color-rendering="optimizeQuality" shape-rendering="geometricPrecision" text-rendering="optimizeLegibility"><path d=" M 0.0000,420.0000 L 0.0000,0.0000 L 500.0000,0.0000 L 500.0000,420.0000 L 0.0000,420.0000 z " style="fill: #eeeeec; fill-opacity: 1.00; stroke: none;" id="ezcGraphPolygon_1"/><path d=" M 0.0000,42.0000 L 0.0000,0.0000 L 500.0000,0.0000 L 500.0000,42.0000 L 0.0000,42.0000 z " style="fill: #000000; fill-opacity: 0.00; stroke: none;" id="ezcGraphPolygon_2"/><path d="M 254.23,242.76 L 366.73,242.76 A 112.50,112.50 0 0,1 167.43,314.34 z" style="fill: #3465a4; fill-opacity: 1.00; stroke: none; cursor: pointer;" id="ezcGraphCircleSector_4" onclick="top.location = 'https://bsd-hardware.info/?view=computers&amp;f=os_name&amp;v=FreeBSD+15.0&amp;p=-1'"/><path d="M 254.40,243.26 L 366.23,243.26 A 112.00,112.00 0 0,1 168.14,314.41 z" style="fill: none; stroke: #1a3352; stroke-width: 1; stroke-opacity: 1.00; stroke-linecap: round; stroke-linejoin: round;" id="ezcGraphCircleSector_5"/><path d="M 250.00,231.00 L 163.21,302.58 A 112.50,112.50 0 0,1 163.21,159.42 z" style="fill: #4e9a06; fill-opacity: 1.00; stroke: none; cursor: pointer;" id="ezcGraphCircleSector_6" onclick="top.location = 'https://bsd-hardware.info/?view=computers&amp;f=os_name&amp;v=FreeBSD+15.0-p1&amp;p=-1'"/><path d="M 249.21,231.00 L 163.28,301.87 A 112.00,112.00 0 0,1 163.28,160.13 z" style="fill: none; stroke: #274d03; stroke-width: 1; stroke-opacity: 1.00; stroke-linecap: round; stroke-linejoin: round;" id="ezcGraphCircleSector_7"/><path d="M 250.00,231.00 L 163.21,159.42 A 112.50,112.50 0 0,1 211.97,125.12 z" style="fill: #cc0000; fill-opacity: 1.00; stroke: none; cursor: pointer;" id="ezcGraphCircleSector_8" onclick="top.location = 'https://bsd-hardware.info/?view=computers&amp;f=os_name&amp;v=FreeBSD+15.0-STABLE&amp;p=-1'"/><path d="M 248.91,229.46 L 163.91,159.36 A 112.00,112.00 0 0,1 211.67,125.76 z" style="fill: none; stroke: #660000; stroke-width: 1; stroke-opacity: 1.00; stroke-linecap: round; stroke-linejoin: round;" id="ezcGraphCircleSector_9"/><path d="M 250.00,231.00 L 211.97,125.12 A 112.50,112.50 0 0,1 262.90,119.24 z" style="fill: #edd400; fill-opacity: 1.00; stroke: none; cursor: pointer;" id="ezcGraphCircleSector_10" onclick="top.location = 'https://bsd-hardware.info/?view=computers&amp;f=os_name&amp;v=FreeBSD+14.3-p6&amp;p=-1'"/><path d="M 249.75,228.82 L 212.61,125.42 A 112.00,112.00 0 0,1 262.35,119.68 z" style="fill: none; stroke: #776a00; stroke-width: 1; stroke-opacity: 1.00; stroke-linecap: round; stroke-linejoin: round;" id="ezcGraphCircleSector_11"/><path d="M 250.00,231.00 L 262.90,119.24 A 112.50,112.50 0 0,1 303.74,132.17 z" style="fill: #75505b; fill-opacity: 1.00; stroke: none; cursor: pointer;" id="ezcGraphCircleSector_12" onclick="top.location = 'https://bsd-hardware.info/?view=computers&amp;f=os_name&amp;v=FreeBSD+16.0-CURRENT&amp;p=-1'"/><path d="M 250.79,228.50 L 263.34,119.80 A 112.00,112.00 0 0,1 303.07,132.37 z" style="fill: none; stroke: #3b282e; stroke-width: 1; stroke-opacity: 1.00; stroke-linecap: round; stroke-linejoin: round;" id="ezcGraphCircleSector_13"/><path d="M 250.00,231.00 L 303.74,132.17 A 112.50,112.50 0 0,1 362.50,231.00 z" style="fill: #f57900; fill-opacity: 1.00; stroke: none;" id="ezcGraphCircleSector_14"/><path d="M 250.84,230.50 L 303.94,132.85 A 112.00,112.00 0 0,1 362.00,230.50 z" style="fill: none; stroke: #7b3d00; stroke-width: 1; stroke-opacity: 1.00; stroke-linecap: round; stroke-linejoin: round;" id="ezcGraphCircleSector_15"/><path d=" M 240.4430,148.2165 L 244.0000,106.0000" style="fill: none; stroke: #000000; stroke-width: 1; stroke-opacity: 1.00; stroke-linecap: round; stroke-linejoin: round;" id="ezcGraphLine_16"/><ellipse cx="240.4430" cy="148.2165" rx="3.0000" ry="3.0000" style="fill: #000000; fill-opacity: 1.00; stroke: none;" id="ezcGraphCircle_17"/><ellipse cx="244.0000" cy="106.0000" rx="3.0000" ry="3.0000" style="fill: #000000; fill-opacity: 1.00; stroke: none;" id="ezcGraphCircle_18"/><path d=" M 202.0568,162.8392 L 154.4391,143.8000" style="fill: none; stroke: #000000; stroke-width: 1; stroke-opacity: 1.00; stroke-linecap: round; stroke-linejoin: round;" id="ezcGraphLine_20"/><ellipse cx="202.0568" cy="162.8392" rx="3.0000" ry="3.0000" style="fill: #000000; fill-opacity: 1.00; stroke: none;" id="ezcGraphCircle_21"/><ellipse cx="154.4391" cy="143.8000" rx="3.0000" ry="3.0000" style="fill: #000000; fill-opacity: 1.00; stroke: none;" id="ezcGraphCircle_22"/><path d=" M 166.6667,231.0000 L 119.0000,231.0000" style="fill: none; stroke: #000000; stroke-width: 1; stroke-opacity: 1.00; stroke-linecap: round; stroke-linejoin: round;" id="ezcGraphLine_24"/><ellipse cx="166.6667" cy="231.0000" rx="3.0000" ry="3.0000" style="fill: #000000; fill-opacity: 1.00; stroke: none;" id="ezcGraphCircle_25"/><ellipse cx="119.0000" cy="231.0000" rx="3.0000" ry="3.0000" style="fill: #000000; fill-opacity: 1.00; stroke: none;" id="ezcGraphCircle_26"/><path d=" M 275.1434,151.5503 L 291.0000,111.0000" style="fill: none; stroke: #000000; stroke-width: 1; stroke-opacity: 1.00; stroke-linecap: round; stroke-linejoin: round;" id="ezcGraphLine_28"/><ellipse cx="275.1434" cy="151.5503" rx="3.0000" ry="3.0000" style="fill: #000000; fill-opacity: 1.00; stroke: none;" id="ezcGraphCircle_29"/><ellipse cx="291.0000" cy="111.0000" rx="3.0000" ry="3.0000" style="fill: #000000; fill-opacity: 1.00; stroke: none;" id="ezcGraphCircle_30"/><path d=" M 321.6308,188.4151 L 363.3732,167.0000" style="fill: none; stroke: #000000; stroke-width: 1; stroke-opacity: 1.00; stroke-linecap: round; stroke-linejoin: round;" id="ezcGraphLine_32"/><ellipse cx="321.6308" cy="188.4151" rx="3.0000" ry="3.0000" style="fill: #000000; fill-opacity: 1.00; stroke: none;" id="ezcGraphCircle_33"/><ellipse cx="363.3732" cy="167.0000" rx="3.0000" ry="3.0000" style="fill: #000000; fill-opacity: 1.00; stroke: none;" id="ezcGraphCircle_34"/><path d=" M 282.3933,321.1926 L 282.3933,360.0000" style="fill: none; stroke: #000000; stroke-width: 1; stroke-opacity: 1.00; stroke-linecap: round; stroke-linejoin: round;" id="ezcGraphLine_36"/><ellipse cx="282.3933" cy="321.1926" rx="3.0000" ry="3.0000" style="fill: #000000; fill-opacity: 1.00; stroke: none;" id="ezcGraphCircle_37"/><ellipse cx="282.3933" cy="360.0000" rx="3.0000" ry="3.0000" style="fill: #000000; fill-opacity: 1.00; stroke: none;" id="ezcGraphCircle_38"/><g id="ezcGraphTextBox_3"><path d=" M 228.3000,42.0000 L 228.3000,0.5000 L 272.2000,0.5000 L 272.2000,42.0000 L 228.3000,42.0000 z " style="fill: #ffffff; fill-opacity: 0.00; stroke: none;" id="ezcGraphPolygon_40"/><text id="ezcGraphTextBox_3_text" x="228.8000" text-length="42.4000px" y="35.0000" style="font-size: 40px; font-family: 'Arial'; fill: #2e3436; fill-opacity: 1.00; stroke: none;">OS</text></g><g id="ezcGraphTextBox_19" style=" cursor: pointer;" onclick="top.location = 'https://bsd-hardware.info/?view=computers&amp;f=os_name&amp;v=FreeBSD+14.3-p6&amp;p=-1'"><path d=" M 74.2600,114.0000 L 74.2600,98.5000 L 239.0000,98.5000 L 239.0000,114.0000 L 74.2600,114.0000 z " style="fill: #ffffff; fill-opacity: 0.00; stroke: none;" id="ezcGraphPolygon_41"/><text id="ezcGraphTextBox_19_text" x="74.7600" text-length="163.2400px" y="110.9000" style="font-size: 14px; font-family: 'Arial'; fill: #2e3436; fill-opacity: 1.00; stroke: none;">FreeBSD 14.3-p6 (7.3%)</text></g><g id="ezcGraphTextBox_23" style=" cursor: pointer;" onclick="top.location = 'https://bsd-hardware.info/?view=computers&amp;f=os_name&amp;v=FreeBSD+15.0-STABLE&amp;p=-1'"><path d=" M 36.6391,158.8500 L 36.6391,129.2500 L 149.4391,129.2500 L 149.4391,158.8500 L 36.6391,158.8500 z " style="fill: #ffffff; fill-opacity: 0.00; stroke: none;" id="ezcGraphPolygon_42"/><text id="ezcGraphTextBox_23_text" x="96.4991" text-length="51.9400px" y="141.6500" style="font-size: 14px; font-family: 'Arial'; fill: #2e3436; fill-opacity: 1.00; stroke: none;">FreeBSD</text><text id="ezcGraphTextBox_23_text" x="37.1391" text-length="111.3000px" y="157.0500" style="font-size: 14px; font-family: 'Arial'; fill: #2e3436; fill-opacity: 1.00; stroke: none;">15.0-... (8.5%)</text></g><g id="ezcGraphTextBox_27" style=" cursor: pointer;" onclick="top.location = 'https://bsd-hardware.info/?view=computers&amp;f=os_name&amp;v=FreeBSD+15.0-p1&amp;p=-1'"><path d=" M 1.2000,246.0500 L 1.2000,216.4500 L 114.0000,216.4500 L 114.0000,246.0500 L 1.2000,246.0500 z " style="fill: #ffffff; fill-opacity: 0.00; stroke: none;" id="ezcGraphPolygon_43"/><text id="ezcGraphTextBox_27_text" x="1.7000" text-length="111.3000px" y="228.8500" style="font-size: 14px; font-family: 'Arial'; fill: #2e3436; fill-opacity: 1.00; stroke: none;">FreeBSD 15.0-p1</text><text id="ezcGraphTextBox_27_text" x="61.0600" text-length="51.9400px" y="244.2500" style="font-size: 14px; font-family: 'Arial'; fill: #2e3436; fill-opacity: 1.00; stroke: none;">(22.0%)</text></g><g id="ezcGraphTextBox_31" style=" cursor: pointer;" onclick="top.location = 'https://bsd-hardware.info/?view=computers&amp;f=os_name&amp;v=FreeBSD+16.0-CURRENT&amp;p=-1'"><path d=" M 296.5000,126.0500 L 296.5000,96.4500 L 416.7200,96.4500 L 416.7200,126.0500 L 296.5000,126.0500 z " style="fill: #ffffff; fill-opacity: 0.00; stroke: none;" id="ezcGraphPolygon_44"/><text id="ezcGraphTextBox_31_text" x="297.0000" text-length="118.7200px" y="108.8500" style="font-size: 14px; font-family: 'Arial'; fill: #2e3436; fill-opacity: 1.00; stroke: none;">FreeBSD 16.0-...</text><text id="ezcGraphTextBox_31_text" x="297.0000" text-length="44.5200px" y="124.2500" style="font-size: 14px; font-family: 'Arial'; fill: #2e3436; fill-opacity: 1.00; stroke: none;">(6.1%)</text></g><g id="ezcGraphTextBox_35"><path d=" M 368.8732,182.0500 L 368.8732,152.4500 L 422.3132,152.4500 L 422.3132,182.0500 L 368.8732,182.0500 z " style="fill: #ffffff; fill-opacity: 0.00; stroke: none;" id="ezcGraphPolygon_45"/><text id="ezcGraphTextBox_35_text" x="369.3732" text-length="44.5200px" y="164.8500" style="font-size: 14px; font-family: 'Arial'; fill: #2e3436; fill-opacity: 1.00; stroke: none;">Others</text><text id="ezcGraphTextBox_35_text" x="369.3732" text-length="51.9400px" y="180.2500" style="font-size: 14px; font-family: 'Arial'; fill: #2e3436; fill-opacity: 1.00; stroke: none;">(17.1%)</text></g><g id="ezcGraphTextBox_39" style=" cursor: pointer;" onclick="top.location = 'https://bsd-hardware.info/?view=computers&amp;f=os_name&amp;v=FreeBSD+15.0&amp;p=-1'"><path d=" M 287.8933,368.0000 L 287.8933,352.5000 L 437.7933,352.5000 L 437.7933,368.0000 L 287.8933,368.0000 z " style="fill: #ffffff; fill-opacity: 0.00; stroke: none;" id="ezcGraphPolygon_46"/><text id="ezcGraphTextBox_39_text" x="288.3933" text-length="148.4000px" y="364.9000" style="font-size: 14px; font-family: 'Arial'; fill: #2e3436; fill-opacity: 1.00; stroke: none;">FreeBSD 15.0 (39.0%)</text></g></g></svg>
