<?xml version="1.0"?>
<svg xmlns="http://www.w3.org/2000/svg" width="500" height="420" version="1.0" id="ezcGraph"><defs/><g id="ezcGraphChart" color-rendering="optimizeQuality" shape-rendering="geometricPrecision" text-rendering="optimizeLegibility"><path d=" M 0.0000,420.0000 L 0.0000,0.0000 L 500.0000,0.0000 L 500.0000,420.0000 L 0.0000,420.0000 z " style="fill: #eeeeec; fill-opacity: 1.00; stroke: none;" id="ezcGraphPolygon_1"/><path d=" M 0.0000,42.0000 L 0.0000,0.0000 L 500.0000,0.0000 L 500.0000,42.0000 L 0.0000,42.0000 z " style="fill: #000000; fill-opacity: 0.00; stroke: none;" id="ezcGraphPolygon_2"/><path d=" M 0.0000,420.0000 L 0.0000,42.0000 L 100.0000,42.0000 L 100.0000,420.0000 L 0.0000,420.0000 z " style="fill: #000000; fill-opacity: 0.00; stroke: none;" id="ezcGraphPolygon_4"/><path d=" M 2.0000,58.0000 L 2.0000,44.0000 L 16.0000,44.0000 L 16.0000,58.0000 L 2.0000,58.0000 z " style="fill: #3465a4; fill-opacity: 1.00; stroke: none; cursor: pointer;" id="ezcGraphPolygon_5" onclick="top.location = 'http://127.0.0.1/bsd-hardware.info/index.php?view=computers&amp;f=cpu_cores&amp;v=4&amp;p=-1'"/><path d=" M 2.0000,76.0000 L 2.0000,62.0000 L 16.0000,62.0000 L 16.0000,76.0000 L 2.0000,76.0000 z " style="fill: #4e9a06; fill-opacity: 1.00; stroke: none; cursor: pointer;" id="ezcGraphPolygon_7" onclick="top.location = 'http://127.0.0.1/bsd-hardware.info/index.php?view=computers&amp;f=cpu_cores&amp;v=2&amp;p=-1'"/><path d=" M 2.0000,94.0000 L 2.0000,80.0000 L 16.0000,80.0000 L 16.0000,94.0000 L 2.0000,94.0000 z " style="fill: #cc0000; fill-opacity: 1.00; stroke: none; cursor: pointer;" id="ezcGraphPolygon_9" onclick="top.location = 'http://127.0.0.1/bsd-hardware.info/index.php?view=computers&amp;f=cpu_cores&amp;v=8&amp;p=-1'"/><path d=" M 2.0000,112.0000 L 2.0000,98.0000 L 16.0000,98.0000 L 16.0000,112.0000 L 2.0000,112.0000 z " style="fill: #edd400; fill-opacity: 1.00; stroke: none; cursor: pointer;" id="ezcGraphPolygon_11" onclick="top.location = 'http://127.0.0.1/bsd-hardware.info/index.php?view=computers&amp;f=cpu_cores&amp;v=&amp;p=-1'"/><path d=" M 2.0000,130.0000 L 2.0000,116.0000 L 16.0000,116.0000 L 16.0000,130.0000 L 2.0000,130.0000 z " style="fill: #75505b; fill-opacity: 1.00; stroke: none; cursor: pointer;" id="ezcGraphPolygon_13" onclick="top.location = 'http://127.0.0.1/bsd-hardware.info/index.php?view=computers&amp;f=cpu_cores&amp;v=16&amp;p=-1'"/><path d=" M 100.0000,382.2000 L 500.0000,382.2000" style="fill: none; stroke: #2e3436; stroke-width: 1; stroke-opacity: 1.00; stroke-linecap: round; stroke-linejoin: round;" id="ezcGraphLine_15"/><path d=" M 492.0000,378.2000 L 500.0000,382.2000 L 492.0000,386.2000 L 492.0000,378.2000 z " style="fill: #2e3436; fill-opacity: 1.00; stroke: none;" id="ezcGraphPolygon_16"/><path d=" M 185.7143,79.8000 L 185.7143,382.2000" style="fill: none; stroke: #000000; stroke-width: 1; stroke-opacity: 0.00; stroke-linecap: round; stroke-linejoin: round;" id="ezcGraphLine_19"/><path d=" M 185.7143,379.2000 L 185.7143,385.2000" style="fill: none; stroke: #2e3436; stroke-width: 1; stroke-opacity: 1.00; stroke-linecap: round; stroke-linejoin: round;" id="ezcGraphLine_20"/><path d=" M 231.4286,79.8000 L 231.4286,382.2000" style="fill: none; stroke: #000000; stroke-width: 1; stroke-opacity: 0.00; stroke-linecap: round; stroke-linejoin: round;" id="ezcGraphLine_22"/><path d=" M 231.4286,379.2000 L 231.4286,385.2000" style="fill: none; stroke: #2e3436; stroke-width: 1; stroke-opacity: 1.00; stroke-linecap: round; stroke-linejoin: round;" id="ezcGraphLine_23"/><path d=" M 277.1429,79.8000 L 277.1429,382.2000" style="fill: none; stroke: #000000; stroke-width: 1; stroke-opacity: 0.00; stroke-linecap: round; stroke-linejoin: round;" id="ezcGraphLine_25"/><path d=" M 277.1429,379.2000 L 277.1429,385.2000" style="fill: none; stroke: #2e3436; stroke-width: 1; stroke-opacity: 1.00; stroke-linecap: round; stroke-linejoin: round;" id="ezcGraphLine_26"/><path d=" M 322.8571,79.8000 L 322.8571,382.2000" style="fill: none; stroke: #000000; stroke-width: 1; stroke-opacity: 0.00; stroke-linecap: round; stroke-linejoin: round;" id="ezcGraphLine_28"/><path d=" M 322.8571,379.2000 L 322.8571,385.2000" style="fill: none; stroke: #2e3436; stroke-width: 1; stroke-opacity: 1.00; stroke-linecap: round; stroke-linejoin: round;" id="ezcGraphLine_29"/><path d=" M 368.5714,79.8000 L 368.5714,382.2000" style="fill: none; stroke: #000000; stroke-width: 1; stroke-opacity: 0.00; stroke-linecap: round; stroke-linejoin: round;" id="ezcGraphLine_31"/><path d=" M 368.5714,379.2000 L 368.5714,385.2000" style="fill: none; stroke: #2e3436; stroke-width: 1; stroke-opacity: 1.00; stroke-linecap: round; stroke-linejoin: round;" id="ezcGraphLine_32"/><path d=" M 414.2857,79.8000 L 414.2857,382.2000" style="fill: none; stroke: #000000; stroke-width: 1; stroke-opacity: 0.00; stroke-linecap: round; stroke-linejoin: round;" id="ezcGraphLine_34"/><path d=" M 414.2857,379.2000 L 414.2857,385.2000" style="fill: none; stroke: #2e3436; stroke-width: 1; stroke-opacity: 1.00; stroke-linecap: round; stroke-linejoin: round;" id="ezcGraphLine_35"/><path d=" M 460.0000,79.8000 L 460.0000,382.2000" style="fill: none; stroke: #000000; stroke-width: 1; stroke-opacity: 0.00; stroke-linecap: round; stroke-linejoin: round;" id="ezcGraphLine_37"/><path d=" M 460.0000,379.2000 L 460.0000,385.2000" style="fill: none; stroke: #2e3436; stroke-width: 1; stroke-opacity: 1.00; stroke-linecap: round; stroke-linejoin: round;" id="ezcGraphLine_38"/><path d=" M 140.0000,420.0000 L 140.0000,42.0000" style="fill: none; stroke: #2e3436; stroke-width: 1; stroke-opacity: 1.00; stroke-linecap: round; stroke-linejoin: round;" id="ezcGraphLine_39"/><path d=" M 136.0000,50.0000 L 140.0000,42.0000 L 144.0000,50.0000 L 136.0000,50.0000 z " style="fill: #2e3436; fill-opacity: 1.00; stroke: none;" id="ezcGraphPolygon_40"/><path d=" M 140.0000,231.0000 L 460.0000,231.0000" style="fill: none; stroke: #000000; stroke-width: 1; stroke-opacity: 0.00; stroke-linecap: round; stroke-linejoin: round;" id="ezcGraphLine_43"/><path d=" M 140.0000,231.0000 L 143.0000,231.0000" style="fill: none; stroke: #2e3436; stroke-width: 1; stroke-opacity: 1.00; stroke-linecap: round; stroke-linejoin: round;" id="ezcGraphLine_44"/><path d=" M 140.0000,79.8000 L 460.0000,79.8000" style="fill: none; stroke: #000000; stroke-width: 1; stroke-opacity: 0.00; stroke-linecap: round; stroke-linejoin: round;" id="ezcGraphLine_46"/><path d=" M 140.0000,79.8000 L 143.0000,79.8000" style="fill: none; stroke: #2e3436; stroke-width: 1; stroke-opacity: 1.00; stroke-linecap: round; stroke-linejoin: round;" id="ezcGraphLine_47"/><path d=" M 162.8571,276.4657 L 162.8571,276.4657" style="fill: none; stroke: #3465a4; stroke-width: 1; stroke-opacity: 1.00; stroke-linecap: round; stroke-linejoin: round;" id="ezcGraphLine_49"/><path d=" M 162.8571,276.4657 L 208.5714,347.3077" style="fill: none; stroke: #3465a4; stroke-width: 1; stroke-opacity: 1.00; stroke-linecap: round; stroke-linejoin: round;" id="ezcGraphLine_51"/><path d=" M 208.5714,347.3077 L 254.2857,314.5301" style="fill: none; stroke: #3465a4; stroke-width: 1; stroke-opacity: 1.00; stroke-linecap: round; stroke-linejoin: round;" id="ezcGraphLine_53"/><path d=" M 254.2857,314.5301 L 300.0000,156.9860" style="fill: none; stroke: #3465a4; stroke-width: 1; stroke-opacity: 1.00; stroke-linecap: round; stroke-linejoin: round;" id="ezcGraphLine_55"/><path d=" M 300.0000,156.9860 L 345.7143,80.8573" style="fill: none; stroke: #3465a4; stroke-width: 1; stroke-opacity: 1.00; stroke-linecap: round; stroke-linejoin: round;" id="ezcGraphLine_57"/><path d=" M 345.7143,80.8573 L 391.4286,116.8070" style="fill: none; stroke: #3465a4; stroke-width: 1; stroke-opacity: 1.00; stroke-linecap: round; stroke-linejoin: round;" id="ezcGraphLine_59"/><path d=" M 391.4286,116.8070 L 437.1429,178.1329" style="fill: none; stroke: #3465a4; stroke-width: 1; stroke-opacity: 1.00; stroke-linecap: round; stroke-linejoin: round;" id="ezcGraphLine_61"/><path d=" M 162.8571,282.8098 L 162.8571,282.8098" style="fill: none; stroke: #4e9a06; stroke-width: 1; stroke-opacity: 1.00; stroke-linecap: round; stroke-linejoin: round;" id="ezcGraphLine_63"/><path d=" M 162.8571,282.8098 L 208.5714,342.0210" style="fill: none; stroke: #4e9a06; stroke-width: 1; stroke-opacity: 1.00; stroke-linecap: round; stroke-linejoin: round;" id="ezcGraphLine_65"/><path d=" M 208.5714,342.0210 L 254.2857,319.8168" style="fill: none; stroke: #4e9a06; stroke-width: 1; stroke-opacity: 1.00; stroke-linecap: round; stroke-linejoin: round;" id="ezcGraphLine_67"/><path d=" M 254.2857,319.8168 L 300.0000,234.1720" style="fill: none; stroke: #4e9a06; stroke-width: 1; stroke-opacity: 1.00; stroke-linecap: round; stroke-linejoin: round;" id="ezcGraphLine_69"/><path d=" M 300.0000,234.1720 L 345.7143,88.2587" style="fill: none; stroke: #4e9a06; stroke-width: 1; stroke-opacity: 1.00; stroke-linecap: round; stroke-linejoin: round;" id="ezcGraphLine_71"/><path d=" M 345.7143,88.2587 L 391.4286,172.8462" style="fill: none; stroke: #4e9a06; stroke-width: 1; stroke-opacity: 1.00; stroke-linecap: round; stroke-linejoin: round;" id="ezcGraphLine_73"/><path d=" M 391.4286,172.8462 L 437.1429,247.9175" style="fill: none; stroke: #4e9a06; stroke-width: 1; stroke-opacity: 1.00; stroke-linecap: round; stroke-linejoin: round;" id="ezcGraphLine_75"/><path d=" M 162.8571,354.7091 L 162.8571,354.7091" style="fill: none; stroke: #cc0000; stroke-width: 1; stroke-opacity: 1.00; stroke-linecap: round; stroke-linejoin: round;" id="ezcGraphLine_77"/><path d=" M 162.8571,354.7091 L 208.5714,371.6266" style="fill: none; stroke: #cc0000; stroke-width: 1; stroke-opacity: 1.00; stroke-linecap: round; stroke-linejoin: round;" id="ezcGraphLine_79"/><path d=" M 208.5714,371.6266 L 254.2857,362.1105" style="fill: none; stroke: #cc0000; stroke-width: 1; stroke-opacity: 1.00; stroke-linecap: round; stroke-linejoin: round;" id="ezcGraphLine_81"/><path d=" M 254.2857,362.1105 L 300.0000,365.2825" style="fill: none; stroke: #cc0000; stroke-width: 1; stroke-opacity: 1.00; stroke-linecap: round; stroke-linejoin: round;" id="ezcGraphLine_83"/><path d=" M 300.0000,365.2825 L 345.7143,348.3650" style="fill: none; stroke: #cc0000; stroke-width: 1; stroke-opacity: 1.00; stroke-linecap: round; stroke-linejoin: round;" id="ezcGraphLine_85"/><path d=" M 345.7143,348.3650 L 391.4286,342.0210" style="fill: none; stroke: #cc0000; stroke-width: 1; stroke-opacity: 1.00; stroke-linecap: round; stroke-linejoin: round;" id="ezcGraphLine_87"/><path d=" M 391.4286,342.0210 L 437.1429,359.9958" style="fill: none; stroke: #cc0000; stroke-width: 1; stroke-opacity: 1.00; stroke-linecap: round; stroke-linejoin: round;" id="ezcGraphLine_89"/><path d=" M 162.8571,355.7664 L 162.8571,355.7664" style="fill: none; stroke: #edd400; stroke-width: 1; stroke-opacity: 1.00; stroke-linecap: round; stroke-linejoin: round;" id="ezcGraphLine_91"/><path d=" M 162.8571,355.7664 L 208.5714,363.1678" style="fill: none; stroke: #edd400; stroke-width: 1; stroke-opacity: 1.00; stroke-linecap: round; stroke-linejoin: round;" id="ezcGraphLine_93"/><path d=" M 208.5714,363.1678 L 254.2857,367.3972" style="fill: none; stroke: #edd400; stroke-width: 1; stroke-opacity: 1.00; stroke-linecap: round; stroke-linejoin: round;" id="ezcGraphLine_95"/><path d=" M 254.2857,367.3972 L 300.0000,364.2252" style="fill: none; stroke: #edd400; stroke-width: 1; stroke-opacity: 1.00; stroke-linecap: round; stroke-linejoin: round;" id="ezcGraphLine_97"/><path d=" M 300.0000,364.2252 L 345.7143,337.7916" style="fill: none; stroke: #edd400; stroke-width: 1; stroke-opacity: 1.00; stroke-linecap: round; stroke-linejoin: round;" id="ezcGraphLine_99"/><path d=" M 345.7143,337.7916 L 391.4286,346.2503" style="fill: none; stroke: #edd400; stroke-width: 1; stroke-opacity: 1.00; stroke-linecap: round; stroke-linejoin: round;" id="ezcGraphLine_101"/><path d=" M 391.4286,346.2503 L 437.1429,365.2825" style="fill: none; stroke: #edd400; stroke-width: 1; stroke-opacity: 1.00; stroke-linecap: round; stroke-linejoin: round;" id="ezcGraphLine_103"/><path d=" M 162.8571,370.5692 L 162.8571,370.5692" style="fill: none; stroke: #75505b; stroke-width: 1; stroke-opacity: 1.00; stroke-linecap: round; stroke-linejoin: round;" id="ezcGraphLine_105"/><path d=" M 162.8571,370.5692 L 208.5714,372.6839" style="fill: none; stroke: #75505b; stroke-width: 1; stroke-opacity: 1.00; stroke-linecap: round; stroke-linejoin: round;" id="ezcGraphLine_107"/><path d=" M 208.5714,372.6839 L 254.2857,372.6839" style="fill: none; stroke: #75505b; stroke-width: 1; stroke-opacity: 1.00; stroke-linecap: round; stroke-linejoin: round;" id="ezcGraphLine_109"/><path d=" M 254.2857,372.6839 L 300.0000,372.6839" style="fill: none; stroke: #75505b; stroke-width: 1; stroke-opacity: 1.00; stroke-linecap: round; stroke-linejoin: round;" id="ezcGraphLine_111"/><path d=" M 300.0000,372.6839 L 345.7143,369.5119" style="fill: none; stroke: #75505b; stroke-width: 1; stroke-opacity: 1.00; stroke-linecap: round; stroke-linejoin: round;" id="ezcGraphLine_113"/><path d=" M 345.7143,369.5119 L 391.4286,376.9133" style="fill: none; stroke: #75505b; stroke-width: 1; stroke-opacity: 1.00; stroke-linecap: round; stroke-linejoin: round;" id="ezcGraphLine_115"/><path d=" M 391.4286,376.9133 L 437.1429,373.7413" style="fill: none; stroke: #75505b; stroke-width: 1; stroke-opacity: 1.00; stroke-linecap: round; stroke-linejoin: round;" id="ezcGraphLine_117"/><path d=" M 159.8571,279.4657 L 159.8571,273.4657 L 165.8571,273.4657 L 165.8571,279.4657 L 159.8571,279.4657 z " style="fill: #3465a4; fill-opacity: 1.00; stroke: none; cursor: pointer;" id="ezcGraphPolygon_119" onclick="top.location = 'http://127.0.0.1/bsd-hardware.info/index.php?view=computers&amp;f=cpu_cores&amp;v=4&amp;p=-1&amp;p=82'"/><path d=" M 205.5714,350.3077 L 205.5714,344.3077 L 211.5714,344.3077 L 211.5714,350.3077 L 205.5714,350.3077 z " style="fill: #3465a4; fill-opacity: 1.00; stroke: none; cursor: pointer;" id="ezcGraphPolygon_120" onclick="top.location = 'http://127.0.0.1/bsd-hardware.info/index.php?view=computers&amp;f=cpu_cores&amp;v=4&amp;p=-1&amp;p=83'"/><path d=" M 251.2857,317.5301 L 251.2857,311.5301 L 257.2857,311.5301 L 257.2857,317.5301 L 251.2857,317.5301 z " style="fill: #3465a4; fill-opacity: 1.00; stroke: none; cursor: pointer;" id="ezcGraphPolygon_121" onclick="top.location = 'http://127.0.0.1/bsd-hardware.info/index.php?view=computers&amp;f=cpu_cores&amp;v=4&amp;p=-1&amp;p=84'"/><path d=" M 297.0000,159.9860 L 297.0000,153.9860 L 303.0000,153.9860 L 303.0000,159.9860 L 297.0000,159.9860 z " style="fill: #3465a4; fill-opacity: 1.00; stroke: none; cursor: pointer;" id="ezcGraphPolygon_122" onclick="top.location = 'http://127.0.0.1/bsd-hardware.info/index.php?view=computers&amp;f=cpu_cores&amp;v=4&amp;p=-1&amp;p=85'"/><path d=" M 342.7143,83.8573 L 342.7143,77.8573 L 348.7143,77.8573 L 348.7143,83.8573 L 342.7143,83.8573 z " style="fill: #3465a4; fill-opacity: 1.00; stroke: none; cursor: pointer;" id="ezcGraphPolygon_123" onclick="top.location = 'http://127.0.0.1/bsd-hardware.info/index.php?view=computers&amp;f=cpu_cores&amp;v=4&amp;p=-1&amp;p=86'"/><path d=" M 388.4286,119.8070 L 388.4286,113.8070 L 394.4286,113.8070 L 394.4286,119.8070 L 388.4286,119.8070 z " style="fill: #3465a4; fill-opacity: 1.00; stroke: none; cursor: pointer;" id="ezcGraphPolygon_124" onclick="top.location = 'http://127.0.0.1/bsd-hardware.info/index.php?view=computers&amp;f=cpu_cores&amp;v=4&amp;p=-1&amp;p=87'"/><path d=" M 434.1429,181.1329 L 434.1429,175.1329 L 440.1429,175.1329 L 440.1429,181.1329 L 434.1429,181.1329 z " style="fill: #3465a4; fill-opacity: 1.00; stroke: none; cursor: pointer;" id="ezcGraphPolygon_125" onclick="top.location = 'http://127.0.0.1/bsd-hardware.info/index.php?view=computers&amp;f=cpu_cores&amp;v=4&amp;p=-1&amp;p=88'"/><path d=" M 159.8571,285.8098 L 159.8571,279.8098 L 165.8571,279.8098 L 165.8571,285.8098 L 159.8571,285.8098 z " style="fill: #4e9a06; fill-opacity: 1.00; stroke: none; cursor: pointer;" id="ezcGraphPolygon_126" onclick="top.location = 'http://127.0.0.1/bsd-hardware.info/index.php?view=computers&amp;f=cpu_cores&amp;v=2&amp;p=-1&amp;p=82'"/><path d=" M 205.5714,345.0210 L 205.5714,339.0210 L 211.5714,339.0210 L 211.5714,345.0210 L 205.5714,345.0210 z " style="fill: #4e9a06; fill-opacity: 1.00; stroke: none; cursor: pointer;" id="ezcGraphPolygon_127" onclick="top.location = 'http://127.0.0.1/bsd-hardware.info/index.php?view=computers&amp;f=cpu_cores&amp;v=2&amp;p=-1&amp;p=83'"/><path d=" M 251.2857,322.8168 L 251.2857,316.8168 L 257.2857,316.8168 L 257.2857,322.8168 L 251.2857,322.8168 z " style="fill: #4e9a06; fill-opacity: 1.00; stroke: none; cursor: pointer;" id="ezcGraphPolygon_128" onclick="top.location = 'http://127.0.0.1/bsd-hardware.info/index.php?view=computers&amp;f=cpu_cores&amp;v=2&amp;p=-1&amp;p=84'"/><path d=" M 297.0000,237.1720 L 297.0000,231.1720 L 303.0000,231.1720 L 303.0000,237.1720 L 297.0000,237.1720 z " style="fill: #4e9a06; fill-opacity: 1.00; stroke: none; cursor: pointer;" id="ezcGraphPolygon_129" onclick="top.location = 'http://127.0.0.1/bsd-hardware.info/index.php?view=computers&amp;f=cpu_cores&amp;v=2&amp;p=-1&amp;p=85'"/><path d=" M 342.7143,91.2587 L 342.7143,85.2587 L 348.7143,85.2587 L 348.7143,91.2587 L 342.7143,91.2587 z " style="fill: #4e9a06; fill-opacity: 1.00; stroke: none; cursor: pointer;" id="ezcGraphPolygon_130" onclick="top.location = 'http://127.0.0.1/bsd-hardware.info/index.php?view=computers&amp;f=cpu_cores&amp;v=2&amp;p=-1&amp;p=86'"/><path d=" M 388.4286,175.8462 L 388.4286,169.8462 L 394.4286,169.8462 L 394.4286,175.8462 L 388.4286,175.8462 z " style="fill: #4e9a06; fill-opacity: 1.00; stroke: none; cursor: pointer;" id="ezcGraphPolygon_131" onclick="top.location = 'http://127.0.0.1/bsd-hardware.info/index.php?view=computers&amp;f=cpu_cores&amp;v=2&amp;p=-1&amp;p=87'"/><path d=" M 434.1429,250.9175 L 434.1429,244.9175 L 440.1429,244.9175 L 440.1429,250.9175 L 434.1429,250.9175 z " style="fill: #4e9a06; fill-opacity: 1.00; stroke: none; cursor: pointer;" id="ezcGraphPolygon_132" onclick="top.location = 'http://127.0.0.1/bsd-hardware.info/index.php?view=computers&amp;f=cpu_cores&amp;v=2&amp;p=-1&amp;p=88'"/><path d=" M 159.8571,357.7091 L 159.8571,351.7091 L 165.8571,351.7091 L 165.8571,357.7091 L 159.8571,357.7091 z " style="fill: #cc0000; fill-opacity: 1.00; stroke: none; cursor: pointer;" id="ezcGraphPolygon_133" onclick="top.location = 'http://127.0.0.1/bsd-hardware.info/index.php?view=computers&amp;f=cpu_cores&amp;v=8&amp;p=-1&amp;p=82'"/><path d=" M 205.5714,374.6266 L 205.5714,368.6266 L 211.5714,368.6266 L 211.5714,374.6266 L 205.5714,374.6266 z " style="fill: #cc0000; fill-opacity: 1.00; stroke: none; cursor: pointer;" id="ezcGraphPolygon_134" onclick="top.location = 'http://127.0.0.1/bsd-hardware.info/index.php?view=computers&amp;f=cpu_cores&amp;v=8&amp;p=-1&amp;p=83'"/><path d=" M 251.2857,365.1105 L 251.2857,359.1105 L 257.2857,359.1105 L 257.2857,365.1105 L 251.2857,365.1105 z " style="fill: #cc0000; fill-opacity: 1.00; stroke: none; cursor: pointer;" id="ezcGraphPolygon_135" onclick="top.location = 'http://127.0.0.1/bsd-hardware.info/index.php?view=computers&amp;f=cpu_cores&amp;v=8&amp;p=-1&amp;p=84'"/><path d=" M 297.0000,368.2825 L 297.0000,362.2825 L 303.0000,362.2825 L 303.0000,368.2825 L 297.0000,368.2825 z " style="fill: #cc0000; fill-opacity: 1.00; stroke: none; cursor: pointer;" id="ezcGraphPolygon_136" onclick="top.location = 'http://127.0.0.1/bsd-hardware.info/index.php?view=computers&amp;f=cpu_cores&amp;v=8&amp;p=-1&amp;p=85'"/><path d=" M 342.7143,351.3650 L 342.7143,345.3650 L 348.7143,345.3650 L 348.7143,351.3650 L 342.7143,351.3650 z " style="fill: #cc0000; fill-opacity: 1.00; stroke: none; cursor: pointer;" id="ezcGraphPolygon_137" onclick="top.location = 'http://127.0.0.1/bsd-hardware.info/index.php?view=computers&amp;f=cpu_cores&amp;v=8&amp;p=-1&amp;p=86'"/><path d=" M 388.4286,345.0210 L 388.4286,339.0210 L 394.4286,339.0210 L 394.4286,345.0210 L 388.4286,345.0210 z " style="fill: #cc0000; fill-opacity: 1.00; stroke: none; cursor: pointer;" id="ezcGraphPolygon_138" onclick="top.location = 'http://127.0.0.1/bsd-hardware.info/index.php?view=computers&amp;f=cpu_cores&amp;v=8&amp;p=-1&amp;p=87'"/><path d=" M 434.1429,362.9958 L 434.1429,356.9958 L 440.1429,356.9958 L 440.1429,362.9958 L 434.1429,362.9958 z " style="fill: #cc0000; fill-opacity: 1.00; stroke: none; cursor: pointer;" id="ezcGraphPolygon_139" onclick="top.location = 'http://127.0.0.1/bsd-hardware.info/index.php?view=computers&amp;f=cpu_cores&amp;v=8&amp;p=-1&amp;p=88'"/><path d=" M 159.8571,358.7664 L 159.8571,352.7664 L 165.8571,352.7664 L 165.8571,358.7664 L 159.8571,358.7664 z " style="fill: #edd400; fill-opacity: 1.00; stroke: none; cursor: pointer;" id="ezcGraphPolygon_140" onclick="top.location = 'http://127.0.0.1/bsd-hardware.info/index.php?view=computers&amp;f=cpu_cores&amp;v=&amp;p=-1&amp;p=82'"/><path d=" M 205.5714,366.1678 L 205.5714,360.1678 L 211.5714,360.1678 L 211.5714,366.1678 L 205.5714,366.1678 z " style="fill: #edd400; fill-opacity: 1.00; stroke: none; cursor: pointer;" id="ezcGraphPolygon_141" onclick="top.location = 'http://127.0.0.1/bsd-hardware.info/index.php?view=computers&amp;f=cpu_cores&amp;v=&amp;p=-1&amp;p=83'"/><path d=" M 251.2857,370.3972 L 251.2857,364.3972 L 257.2857,364.3972 L 257.2857,370.3972 L 251.2857,370.3972 z " style="fill: #edd400; fill-opacity: 1.00; stroke: none; cursor: pointer;" id="ezcGraphPolygon_142" onclick="top.location = 'http://127.0.0.1/bsd-hardware.info/index.php?view=computers&amp;f=cpu_cores&amp;v=&amp;p=-1&amp;p=84'"/><path d=" M 297.0000,367.2252 L 297.0000,361.2252 L 303.0000,361.2252 L 303.0000,367.2252 L 297.0000,367.2252 z " style="fill: #edd400; fill-opacity: 1.00; stroke: none; cursor: pointer;" id="ezcGraphPolygon_143" onclick="top.location = 'http://127.0.0.1/bsd-hardware.info/index.php?view=computers&amp;f=cpu_cores&amp;v=&amp;p=-1&amp;p=85'"/><path d=" M 342.7143,340.7916 L 342.7143,334.7916 L 348.7143,334.7916 L 348.7143,340.7916 L 342.7143,340.7916 z " style="fill: #edd400; fill-opacity: 1.00; stroke: none; cursor: pointer;" id="ezcGraphPolygon_144" onclick="top.location = 'http://127.0.0.1/bsd-hardware.info/index.php?view=computers&amp;f=cpu_cores&amp;v=&amp;p=-1&amp;p=86'"/><path d=" M 388.4286,349.2503 L 388.4286,343.2503 L 394.4286,343.2503 L 394.4286,349.2503 L 388.4286,349.2503 z " style="fill: #edd400; fill-opacity: 1.00; stroke: none; cursor: pointer;" id="ezcGraphPolygon_145" onclick="top.location = 'http://127.0.0.1/bsd-hardware.info/index.php?view=computers&amp;f=cpu_cores&amp;v=&amp;p=-1&amp;p=87'"/><path d=" M 434.1429,368.2825 L 434.1429,362.2825 L 440.1429,362.2825 L 440.1429,368.2825 L 434.1429,368.2825 z " style="fill: #edd400; fill-opacity: 1.00; stroke: none; cursor: pointer;" id="ezcGraphPolygon_146" onclick="top.location = 'http://127.0.0.1/bsd-hardware.info/index.php?view=computers&amp;f=cpu_cores&amp;v=&amp;p=-1&amp;p=88'"/><path d=" M 159.8571,373.5692 L 159.8571,367.5692 L 165.8571,367.5692 L 165.8571,373.5692 L 159.8571,373.5692 z " style="fill: #75505b; fill-opacity: 1.00; stroke: none; cursor: pointer;" id="ezcGraphPolygon_147" onclick="top.location = 'http://127.0.0.1/bsd-hardware.info/index.php?view=computers&amp;f=cpu_cores&amp;v=16&amp;p=-1&amp;p=82'"/><path d=" M 205.5714,375.6839 L 205.5714,369.6839 L 211.5714,369.6839 L 211.5714,375.6839 L 205.5714,375.6839 z " style="fill: #75505b; fill-opacity: 1.00; stroke: none; cursor: pointer;" id="ezcGraphPolygon_148" onclick="top.location = 'http://127.0.0.1/bsd-hardware.info/index.php?view=computers&amp;f=cpu_cores&amp;v=16&amp;p=-1&amp;p=83'"/><path d=" M 251.2857,375.6839 L 251.2857,369.6839 L 257.2857,369.6839 L 257.2857,375.6839 L 251.2857,375.6839 z " style="fill: #75505b; fill-opacity: 1.00; stroke: none; cursor: pointer;" id="ezcGraphPolygon_149" onclick="top.location = 'http://127.0.0.1/bsd-hardware.info/index.php?view=computers&amp;f=cpu_cores&amp;v=16&amp;p=-1&amp;p=84'"/><path d=" M 297.0000,375.6839 L 297.0000,369.6839 L 303.0000,369.6839 L 303.0000,375.6839 L 297.0000,375.6839 z " style="fill: #75505b; fill-opacity: 1.00; stroke: none; cursor: pointer;" id="ezcGraphPolygon_150" onclick="top.location = 'http://127.0.0.1/bsd-hardware.info/index.php?view=computers&amp;f=cpu_cores&amp;v=16&amp;p=-1&amp;p=85'"/><path d=" M 342.7143,372.5119 L 342.7143,366.5119 L 348.7143,366.5119 L 348.7143,372.5119 L 342.7143,372.5119 z " style="fill: #75505b; fill-opacity: 1.00; stroke: none; cursor: pointer;" id="ezcGraphPolygon_151" onclick="top.location = 'http://127.0.0.1/bsd-hardware.info/index.php?view=computers&amp;f=cpu_cores&amp;v=16&amp;p=-1&amp;p=86'"/><path d=" M 388.4286,379.9133 L 388.4286,373.9133 L 394.4286,373.9133 L 394.4286,379.9133 L 388.4286,379.9133 z " style="fill: #75505b; fill-opacity: 1.00; stroke: none; cursor: pointer;" id="ezcGraphPolygon_152" onclick="top.location = 'http://127.0.0.1/bsd-hardware.info/index.php?view=computers&amp;f=cpu_cores&amp;v=16&amp;p=-1&amp;p=87'"/><path d=" M 434.1429,376.7413 L 434.1429,370.7413 L 440.1429,370.7413 L 440.1429,376.7413 L 434.1429,376.7413 z " style="fill: #75505b; fill-opacity: 1.00; stroke: none; cursor: pointer;" id="ezcGraphPolygon_153" onclick="top.location = 'http://127.0.0.1/bsd-hardware.info/index.php?view=computers&amp;f=cpu_cores&amp;v=16&amp;p=-1&amp;p=88'"/><g id="ezcGraphTextBox_3"><path d=" M 154.1000,42.0000 L 154.1000,0.5000 L 346.4000,0.5000 L 346.4000,42.0000 L 154.1000,42.0000 z " style="fill: #ffffff; fill-opacity: 0.00; stroke: none;" id="ezcGraphPolygon_154"/><text id="ezcGraphTextBox_3_text" x="154.6000" text-length="190.8000px" y="35.0000" style="font-size: 40px; font-family: 'Arial'; fill: #2e3436; fill-opacity: 1.00; stroke: none;">CPU Cores</text></g><g id="ezcGraphTextBox_6" style=" cursor: pointer;" onclick="top.location = 'http://127.0.0.1/bsd-hardware.info/index.php?view=computers&amp;f=cpu_cores&amp;v=4&amp;p=-1'"><path d=" M 16.5000,59.0000 L 16.5000,43.5000 L 26.6800,43.5000 L 26.6800,59.0000 L 16.5000,59.0000 z " style="fill: #ffffff; fill-opacity: 0.00; stroke: none;" id="ezcGraphPolygon_155"/><text id="ezcGraphTextBox_6_text" x="17.0000" text-length="8.6800px" y="55.9000" style="font-size: 14px; font-family: 'Arial'; fill: #2e3436; fill-opacity: 1.00; stroke: none;">4</text></g><g id="ezcGraphTextBox_8" style=" cursor: pointer;" onclick="top.location = 'http://127.0.0.1/bsd-hardware.info/index.php?view=computers&amp;f=cpu_cores&amp;v=2&amp;p=-1'"><path d=" M 16.5000,77.0000 L 16.5000,61.5000 L 26.6800,61.5000 L 26.6800,77.0000 L 16.5000,77.0000 z " style="fill: #ffffff; fill-opacity: 0.00; stroke: none;" id="ezcGraphPolygon_156"/><text id="ezcGraphTextBox_8_text" x="17.0000" text-length="8.6800px" y="73.9000" style="font-size: 14px; font-family: 'Arial'; fill: #2e3436; fill-opacity: 1.00; stroke: none;">2</text></g><g id="ezcGraphTextBox_10" style=" cursor: pointer;" onclick="top.location = 'http://127.0.0.1/bsd-hardware.info/index.php?view=computers&amp;f=cpu_cores&amp;v=8&amp;p=-1'"><path d=" M 16.5000,95.0000 L 16.5000,79.5000 L 26.6800,79.5000 L 26.6800,95.0000 L 16.5000,95.0000 z " style="fill: #ffffff; fill-opacity: 0.00; stroke: none;" id="ezcGraphPolygon_157"/><text id="ezcGraphTextBox_10_text" x="17.0000" text-length="8.6800px" y="91.9000" style="font-size: 14px; font-family: 'Arial'; fill: #2e3436; fill-opacity: 1.00; stroke: none;">8</text></g><g id="ezcGraphTextBox_12" style=" cursor: pointer;" onclick="top.location = 'http://127.0.0.1/bsd-hardware.info/index.php?view=computers&amp;f=cpu_cores&amp;v=&amp;p=-1'"><path d=" M 16.5000,113.0000 L 16.5000,97.5000 L 69.9400,97.5000 L 69.9400,113.0000 L 16.5000,113.0000 z " style="fill: #ffffff; fill-opacity: 0.00; stroke: none;" id="ezcGraphPolygon_158"/><text id="ezcGraphTextBox_12_text" x="17.0000" text-length="51.9400px" y="109.9000" style="font-size: 14px; font-family: 'Arial'; fill: #2e3436; fill-opacity: 1.00; stroke: none;">Unknown</text></g><g id="ezcGraphTextBox_14" style=" cursor: pointer;" onclick="top.location = 'http://127.0.0.1/bsd-hardware.info/index.php?view=computers&amp;f=cpu_cores&amp;v=16&amp;p=-1'"><path d=" M 16.5000,131.0000 L 16.5000,115.5000 L 35.3600,115.5000 L 35.3600,131.0000 L 16.5000,131.0000 z " style="fill: #ffffff; fill-opacity: 0.00; stroke: none;" id="ezcGraphPolygon_159"/><text id="ezcGraphTextBox_14_text" x="17.0000" text-length="17.3600px" y="127.9000" style="font-size: 14px; font-family: 'Arial'; fill: #2e3436; fill-opacity: 1.00; stroke: none;">16</text></g><g id="ezcGraphTextBox_17" transform="rotate( 0.00 493.0000 375.2000 )"><path d=" M 460.4000,381.2000 L 460.4000,365.7000 L 499.0000,365.7000 L 499.0000,381.2000 L 460.4000,381.2000 z " style="fill: #ffffff; fill-opacity: 0.00; stroke: none;" id="ezcGraphPolygon_160"/><text id="ezcGraphTextBox_17_text" x="460.9000" text-length="37.1000px" y="378.1000" style="font-size: 14px; font-family: 'Arial'; fill: #2e3436; fill-opacity: 1.00; stroke: none;">Time </text></g><g id="ezcGraphTextBox_18"><path d=" M 144.9971,413.3000 L 144.9971,383.7000 L 181.2171,383.7000 L 181.2171,413.3000 L 144.9971,413.3000 z " style="fill: #ffffff; fill-opacity: 0.00; stroke: none;" id="ezcGraphPolygon_161"/><text id="ezcGraphTextBox_18_text" x="151.7271" text-length="22.2600px" y="396.1000" style="font-size: 14px; font-family: 'Arial'; fill: #2e3436; fill-opacity: 1.00; stroke: none;">Oct</text><text id="ezcGraphTextBox_18_text" x="145.4971" text-length="34.7200px" y="411.5000" style="font-size: 14px; font-family: 'Arial'; fill: #2e3436; fill-opacity: 1.00; stroke: none;">2020</text></g><g id="ezcGraphTextBox_21"><path d=" M 190.7114,413.3000 L 190.7114,383.7000 L 226.9314,383.7000 L 226.9314,413.3000 L 190.7114,413.3000 z " style="fill: #ffffff; fill-opacity: 0.00; stroke: none;" id="ezcGraphPolygon_162"/><text id="ezcGraphTextBox_21_text" x="197.4414" text-length="22.2600px" y="396.1000" style="font-size: 14px; font-family: 'Arial'; fill: #2e3436; fill-opacity: 1.00; stroke: none;">Nov</text><text id="ezcGraphTextBox_21_text" x="191.2114" text-length="34.7200px" y="411.5000" style="font-size: 14px; font-family: 'Arial'; fill: #2e3436; fill-opacity: 1.00; stroke: none;">2020</text></g><g id="ezcGraphTextBox_24"><path d=" M 236.4257,413.3000 L 236.4257,383.7000 L 272.6457,383.7000 L 272.6457,413.3000 L 236.4257,413.3000 z " style="fill: #ffffff; fill-opacity: 0.00; stroke: none;" id="ezcGraphPolygon_163"/><text id="ezcGraphTextBox_24_text" x="243.1557" text-length="22.2600px" y="396.1000" style="font-size: 14px; font-family: 'Arial'; fill: #2e3436; fill-opacity: 1.00; stroke: none;">Dec</text><text id="ezcGraphTextBox_24_text" x="236.9257" text-length="34.7200px" y="411.5000" style="font-size: 14px; font-family: 'Arial'; fill: #2e3436; fill-opacity: 1.00; stroke: none;">2020</text></g><g id="ezcGraphTextBox_27"><path d=" M 282.1400,413.3000 L 282.1400,383.7000 L 318.3600,383.7000 L 318.3600,413.3000 L 282.1400,413.3000 z " style="fill: #ffffff; fill-opacity: 0.00; stroke: none;" id="ezcGraphPolygon_164"/><text id="ezcGraphTextBox_27_text" x="288.8700" text-length="22.2600px" y="396.1000" style="font-size: 14px; font-family: 'Arial'; fill: #2e3436; fill-opacity: 1.00; stroke: none;">Jan</text><text id="ezcGraphTextBox_27_text" x="282.6400" text-length="34.7200px" y="411.5000" style="font-size: 14px; font-family: 'Arial'; fill: #2e3436; fill-opacity: 1.00; stroke: none;">2021</text></g><g id="ezcGraphTextBox_30"><path d=" M 327.8543,413.3000 L 327.8543,383.7000 L 364.0743,383.7000 L 364.0743,413.3000 L 327.8543,413.3000 z " style="fill: #ffffff; fill-opacity: 0.00; stroke: none;" id="ezcGraphPolygon_165"/><text id="ezcGraphTextBox_30_text" x="334.5843" text-length="22.2600px" y="396.1000" style="font-size: 14px; font-family: 'Arial'; fill: #2e3436; fill-opacity: 1.00; stroke: none;">Feb</text><text id="ezcGraphTextBox_30_text" x="328.3543" text-length="34.7200px" y="411.5000" style="font-size: 14px; font-family: 'Arial'; fill: #2e3436; fill-opacity: 1.00; stroke: none;">2021</text></g><g id="ezcGraphTextBox_33"><path d=" M 373.5686,413.3000 L 373.5686,383.7000 L 409.7886,383.7000 L 409.7886,413.3000 L 373.5686,413.3000 z " style="fill: #ffffff; fill-opacity: 0.00; stroke: none;" id="ezcGraphPolygon_166"/><text id="ezcGraphTextBox_33_text" x="380.2986" text-length="22.2600px" y="396.1000" style="font-size: 14px; font-family: 'Arial'; fill: #2e3436; fill-opacity: 1.00; stroke: none;">Mar</text><text id="ezcGraphTextBox_33_text" x="374.0686" text-length="34.7200px" y="411.5000" style="font-size: 14px; font-family: 'Arial'; fill: #2e3436; fill-opacity: 1.00; stroke: none;">2021</text></g><g id="ezcGraphTextBox_36"><path d=" M 419.2829,413.3000 L 419.2829,383.7000 L 455.5029,383.7000 L 455.5029,413.3000 L 419.2829,413.3000 z " style="fill: #ffffff; fill-opacity: 0.00; stroke: none;" id="ezcGraphPolygon_167"/><text id="ezcGraphTextBox_36_text" x="426.0129" text-length="22.2600px" y="396.1000" style="font-size: 14px; font-family: 'Arial'; fill: #2e3436; fill-opacity: 1.00; stroke: none;">Apr</text><text id="ezcGraphTextBox_36_text" x="419.7829" text-length="34.7200px" y="411.5000" style="font-size: 14px; font-family: 'Arial'; fill: #2e3436; fill-opacity: 1.00; stroke: none;">2021</text></g><g id="ezcGraphTextBox_41" transform="rotate( 0.00 147.0000 49.0000 )"><path d=" M 141.5000,59.0000 L 141.5000,43.5000 L 321.0800,43.5000 L 321.0800,59.0000 L 141.5000,59.0000 z " style="fill: #ffffff; fill-opacity: 0.00; stroke: none;" id="ezcGraphPolygon_168"/><text id="ezcGraphTextBox_41_text" x="142.0000" text-length="178.0800px" y="55.9000" style="font-size: 14px; font-family: 'Arial'; fill: #2e3436; fill-opacity: 1.00; stroke: none;">Computers by "CPU Cores"</text></g><g id="ezcGraphTextBox_42"><path d=" M 128.8200,381.2000 L 128.8200,365.7000 L 139.0000,365.7000 L 139.0000,381.2000 L 128.8200,381.2000 z " style="fill: #ffffff; fill-opacity: 0.00; stroke: none;" id="ezcGraphPolygon_169"/><text id="ezcGraphTextBox_42_text" x="129.3200" text-length="8.6800px" y="378.1000" style="font-size: 14px; font-family: 'Arial'; fill: #2e3436; fill-opacity: 1.00; stroke: none;">0</text></g><g id="ezcGraphTextBox_45"><path d=" M 111.4600,230.0000 L 111.4600,214.5000 L 139.0000,214.5000 L 139.0000,230.0000 L 111.4600,230.0000 z " style="fill: #ffffff; fill-opacity: 0.00; stroke: none;" id="ezcGraphPolygon_170"/><text id="ezcGraphTextBox_45_text" x="111.9600" text-length="26.0400px" y="226.9000" style="font-size: 14px; font-family: 'Arial'; fill: #2e3436; fill-opacity: 1.00; stroke: none;">143</text></g><g id="ezcGraphTextBox_48"><path d=" M 111.4600,96.8000 L 111.4600,81.3000 L 139.0000,81.3000 L 139.0000,96.8000 L 111.4600,96.8000 z " style="fill: #ffffff; fill-opacity: 0.00; stroke: none;" id="ezcGraphPolygon_171"/><text id="ezcGraphTextBox_48_text" x="111.9600" text-length="26.0400px" y="93.7000" style="font-size: 14px; font-family: 'Arial'; fill: #2e3436; fill-opacity: 1.00; stroke: none;">286</text></g><g id="ezcGraphTextBox_50"><path d=" M 153.0571,271.4657 L 153.0571,259.9657 L 173.1571,259.9657 L 173.1571,271.4657 L 153.0571,271.4657 z " style="fill: #ffffff; fill-opacity: 0.00; stroke: none;" id="ezcGraphPolygon_172"/><text id="ezcGraphTextBox_50_text" x="153.5571" text-length="18.6000px" y="268.9657" style="font-size: 10px; font-family: 'Arial'; fill: #2e3436; fill-opacity: 1.00; stroke: none;">100</text></g><g id="ezcGraphTextBox_52"><path d=" M 201.8714,342.3077 L 201.8714,330.8077 L 215.7714,330.8077 L 215.7714,342.3077 L 201.8714,342.3077 z " style="fill: #ffffff; fill-opacity: 0.00; stroke: none;" id="ezcGraphPolygon_173"/><text id="ezcGraphTextBox_52_text" x="202.3714" text-length="12.4000px" y="339.8077" style="font-size: 10px; font-family: 'Arial'; fill: #2e3436; fill-opacity: 1.00; stroke: none;">33</text></g><g id="ezcGraphTextBox_54"><path d=" M 247.5857,309.5301 L 247.5857,298.0301 L 261.4857,298.0301 L 261.4857,309.5301 L 247.5857,309.5301 z " style="fill: #ffffff; fill-opacity: 0.00; stroke: none;" id="ezcGraphPolygon_174"/><text id="ezcGraphTextBox_54_text" x="248.0857" text-length="12.4000px" y="307.0301" style="font-size: 10px; font-family: 'Arial'; fill: #2e3436; fill-opacity: 1.00; stroke: none;">64</text></g><g id="ezcGraphTextBox_56"><path d=" M 290.2000,151.9860 L 290.2000,140.4860 L 310.3000,140.4860 L 310.3000,151.9860 L 290.2000,151.9860 z " style="fill: #ffffff; fill-opacity: 0.00; stroke: none;" id="ezcGraphPolygon_175"/><text id="ezcGraphTextBox_56_text" x="290.7000" text-length="18.6000px" y="149.4860" style="font-size: 10px; font-family: 'Arial'; fill: #2e3436; fill-opacity: 1.00; stroke: none;">213</text></g><g id="ezcGraphTextBox_58"><path d=" M 335.9143,75.8573 L 335.9143,64.3573 L 356.0143,64.3573 L 356.0143,75.8573 L 335.9143,75.8573 z " style="fill: #ffffff; fill-opacity: 0.00; stroke: none;" id="ezcGraphPolygon_176"/><text id="ezcGraphTextBox_58_text" x="336.4143" text-length="18.6000px" y="73.3573" style="font-size: 10px; font-family: 'Arial'; fill: #2e3436; fill-opacity: 1.00; stroke: none;">285</text></g><g id="ezcGraphTextBox_60"><path d=" M 381.6286,111.8070 L 381.6286,100.3070 L 401.7286,100.3070 L 401.7286,111.8070 L 381.6286,111.8070 z " style="fill: #ffffff; fill-opacity: 0.00; stroke: none;" id="ezcGraphPolygon_177"/><text id="ezcGraphTextBox_60_text" x="382.1286" text-length="18.6000px" y="109.3070" style="font-size: 10px; font-family: 'Arial'; fill: #2e3436; fill-opacity: 1.00; stroke: none;">251</text></g><g id="ezcGraphTextBox_62"><path d=" M 427.3429,173.1329 L 427.3429,161.6329 L 447.4429,161.6329 L 447.4429,173.1329 L 427.3429,173.1329 z " style="fill: #ffffff; fill-opacity: 0.00; stroke: none;" id="ezcGraphPolygon_178"/><text id="ezcGraphTextBox_62_text" x="427.8429" text-length="18.6000px" y="170.6329" style="font-size: 10px; font-family: 'Arial'; fill: #2e3436; fill-opacity: 1.00; stroke: none;">193</text></g><g id="ezcGraphTextBox_64"><path d=" M 156.1571,277.8098 L 156.1571,266.3098 L 170.0571,266.3098 L 170.0571,277.8098 L 156.1571,277.8098 z " style="fill: #ffffff; fill-opacity: 0.00; stroke: none;" id="ezcGraphPolygon_179"/><text id="ezcGraphTextBox_64_text" x="156.6571" text-length="12.4000px" y="275.3098" style="font-size: 10px; font-family: 'Arial'; fill: #2e3436; fill-opacity: 1.00; stroke: none;">94</text></g><g id="ezcGraphTextBox_66"><path d=" M 201.8714,337.0210 L 201.8714,325.5210 L 215.7714,325.5210 L 215.7714,337.0210 L 201.8714,337.0210 z " style="fill: #ffffff; fill-opacity: 0.00; stroke: none;" id="ezcGraphPolygon_180"/><text id="ezcGraphTextBox_66_text" x="202.3714" text-length="12.4000px" y="334.5210" style="font-size: 10px; font-family: 'Arial'; fill: #2e3436; fill-opacity: 1.00; stroke: none;">38</text></g><g id="ezcGraphTextBox_68"><path d=" M 247.5857,314.8168 L 247.5857,303.3168 L 261.4857,303.3168 L 261.4857,314.8168 L 247.5857,314.8168 z " style="fill: #ffffff; fill-opacity: 0.00; stroke: none;" id="ezcGraphPolygon_181"/><text id="ezcGraphTextBox_68_text" x="248.0857" text-length="12.4000px" y="312.3168" style="font-size: 10px; font-family: 'Arial'; fill: #2e3436; fill-opacity: 1.00; stroke: none;">59</text></g><g id="ezcGraphTextBox_70"><path d=" M 290.2000,229.1720 L 290.2000,217.6720 L 310.3000,217.6720 L 310.3000,229.1720 L 290.2000,229.1720 z " style="fill: #ffffff; fill-opacity: 0.00; stroke: none;" id="ezcGraphPolygon_182"/><text id="ezcGraphTextBox_70_text" x="290.7000" text-length="18.6000px" y="226.6720" style="font-size: 10px; font-family: 'Arial'; fill: #2e3436; fill-opacity: 1.00; stroke: none;">140</text></g><g id="ezcGraphTextBox_72"><path d=" M 335.9143,83.2587 L 335.9143,71.7587 L 356.0143,71.7587 L 356.0143,83.2587 L 335.9143,83.2587 z " style="fill: #ffffff; fill-opacity: 0.00; stroke: none;" id="ezcGraphPolygon_183"/><text id="ezcGraphTextBox_72_text" x="336.4143" text-length="18.6000px" y="80.7587" style="font-size: 10px; font-family: 'Arial'; fill: #2e3436; fill-opacity: 1.00; stroke: none;">278</text></g><g id="ezcGraphTextBox_74"><path d=" M 381.6286,167.8462 L 381.6286,156.3462 L 401.7286,156.3462 L 401.7286,167.8462 L 381.6286,167.8462 z " style="fill: #ffffff; fill-opacity: 0.00; stroke: none;" id="ezcGraphPolygon_184"/><text id="ezcGraphTextBox_74_text" x="382.1286" text-length="18.6000px" y="165.3462" style="font-size: 10px; font-family: 'Arial'; fill: #2e3436; fill-opacity: 1.00; stroke: none;">198</text></g><g id="ezcGraphTextBox_76"><path d=" M 427.3429,242.9175 L 427.3429,231.4175 L 447.4429,231.4175 L 447.4429,242.9175 L 427.3429,242.9175 z " style="fill: #ffffff; fill-opacity: 0.00; stroke: none;" id="ezcGraphPolygon_185"/><text id="ezcGraphTextBox_76_text" x="427.8429" text-length="18.6000px" y="240.4175" style="font-size: 10px; font-family: 'Arial'; fill: #2e3436; fill-opacity: 1.00; stroke: none;">127</text></g><g id="ezcGraphTextBox_78"><path d=" M 156.1571,349.7091 L 156.1571,338.2091 L 170.0571,338.2091 L 170.0571,349.7091 L 156.1571,349.7091 z " style="fill: #ffffff; fill-opacity: 0.00; stroke: none;" id="ezcGraphPolygon_186"/><text id="ezcGraphTextBox_78_text" x="156.6571" text-length="12.4000px" y="347.2091" style="font-size: 10px; font-family: 'Arial'; fill: #2e3436; fill-opacity: 1.00; stroke: none;">26</text></g><g id="ezcGraphTextBox_80"><path d=" M 201.8714,366.6266 L 201.8714,355.1266 L 215.7714,355.1266 L 215.7714,366.6266 L 201.8714,366.6266 z " style="fill: #ffffff; fill-opacity: 0.00; stroke: none;" id="ezcGraphPolygon_187"/><text id="ezcGraphTextBox_80_text" x="202.3714" text-length="12.4000px" y="364.1266" style="font-size: 10px; font-family: 'Arial'; fill: #2e3436; fill-opacity: 1.00; stroke: none;">10</text></g><g id="ezcGraphTextBox_82"><path d=" M 247.5857,357.1105 L 247.5857,345.6105 L 261.4857,345.6105 L 261.4857,357.1105 L 247.5857,357.1105 z " style="fill: #ffffff; fill-opacity: 0.00; stroke: none;" id="ezcGraphPolygon_188"/><text id="ezcGraphTextBox_82_text" x="248.0857" text-length="12.4000px" y="354.6105" style="font-size: 10px; font-family: 'Arial'; fill: #2e3436; fill-opacity: 1.00; stroke: none;">19</text></g><g id="ezcGraphTextBox_84"><path d=" M 293.3000,360.2825 L 293.3000,348.7825 L 307.2000,348.7825 L 307.2000,360.2825 L 293.3000,360.2825 z " style="fill: #ffffff; fill-opacity: 0.00; stroke: none;" id="ezcGraphPolygon_189"/><text id="ezcGraphTextBox_84_text" x="293.8000" text-length="12.4000px" y="357.7825" style="font-size: 10px; font-family: 'Arial'; fill: #2e3436; fill-opacity: 1.00; stroke: none;">16</text></g><g id="ezcGraphTextBox_86"><path d=" M 339.0143,343.3650 L 339.0143,331.8650 L 352.9143,331.8650 L 352.9143,343.3650 L 339.0143,343.3650 z " style="fill: #ffffff; fill-opacity: 0.00; stroke: none;" id="ezcGraphPolygon_190"/><text id="ezcGraphTextBox_86_text" x="339.5143" text-length="12.4000px" y="340.8650" style="font-size: 10px; font-family: 'Arial'; fill: #2e3436; fill-opacity: 1.00; stroke: none;">32</text></g><g id="ezcGraphTextBox_88"><path d=" M 384.7286,337.0210 L 384.7286,325.5210 L 398.6286,325.5210 L 398.6286,337.0210 L 384.7286,337.0210 z " style="fill: #ffffff; fill-opacity: 0.00; stroke: none;" id="ezcGraphPolygon_191"/><text id="ezcGraphTextBox_88_text" x="385.2286" text-length="12.4000px" y="334.5210" style="font-size: 10px; font-family: 'Arial'; fill: #2e3436; fill-opacity: 1.00; stroke: none;">38</text></g><g id="ezcGraphTextBox_90"><path d=" M 430.4429,354.9958 L 430.4429,343.4958 L 444.3429,343.4958 L 444.3429,354.9958 L 430.4429,354.9958 z " style="fill: #ffffff; fill-opacity: 0.00; stroke: none;" id="ezcGraphPolygon_192"/><text id="ezcGraphTextBox_90_text" x="430.9429" text-length="12.4000px" y="352.4958" style="font-size: 10px; font-family: 'Arial'; fill: #2e3436; fill-opacity: 1.00; stroke: none;">21</text></g><g id="ezcGraphTextBox_92"><path d=" M 156.1571,350.7664 L 156.1571,339.2664 L 170.0571,339.2664 L 170.0571,350.7664 L 156.1571,350.7664 z " style="fill: #ffffff; fill-opacity: 0.00; stroke: none;" id="ezcGraphPolygon_193"/><text id="ezcGraphTextBox_92_text" x="156.6571" text-length="12.4000px" y="348.2664" style="font-size: 10px; font-family: 'Arial'; fill: #2e3436; fill-opacity: 1.00; stroke: none;">25</text></g><g id="ezcGraphTextBox_94"><path d=" M 201.8714,358.1678 L 201.8714,346.6678 L 215.7714,346.6678 L 215.7714,358.1678 L 201.8714,358.1678 z " style="fill: #ffffff; fill-opacity: 0.00; stroke: none;" id="ezcGraphPolygon_194"/><text id="ezcGraphTextBox_94_text" x="202.3714" text-length="12.4000px" y="355.6678" style="font-size: 10px; font-family: 'Arial'; fill: #2e3436; fill-opacity: 1.00; stroke: none;">18</text></g><g id="ezcGraphTextBox_96"><path d=" M 247.5857,362.3972 L 247.5857,350.8972 L 261.4857,350.8972 L 261.4857,362.3972 L 247.5857,362.3972 z " style="fill: #ffffff; fill-opacity: 0.00; stroke: none;" id="ezcGraphPolygon_195"/><text id="ezcGraphTextBox_96_text" x="248.0857" text-length="12.4000px" y="359.8972" style="font-size: 10px; font-family: 'Arial'; fill: #2e3436; fill-opacity: 1.00; stroke: none;">14</text></g><g id="ezcGraphTextBox_98"><path d=" M 293.3000,359.2252 L 293.3000,347.7252 L 307.2000,347.7252 L 307.2000,359.2252 L 293.3000,359.2252 z " style="fill: #ffffff; fill-opacity: 0.00; stroke: none;" id="ezcGraphPolygon_196"/><text id="ezcGraphTextBox_98_text" x="293.8000" text-length="12.4000px" y="356.7252" style="font-size: 10px; font-family: 'Arial'; fill: #2e3436; fill-opacity: 1.00; stroke: none;">17</text></g><g id="ezcGraphTextBox_100"><path d=" M 339.0143,332.7916 L 339.0143,321.2916 L 352.9143,321.2916 L 352.9143,332.7916 L 339.0143,332.7916 z " style="fill: #ffffff; fill-opacity: 0.00; stroke: none;" id="ezcGraphPolygon_197"/><text id="ezcGraphTextBox_100_text" x="339.5143" text-length="12.4000px" y="330.2916" style="font-size: 10px; font-family: 'Arial'; fill: #2e3436; fill-opacity: 1.00; stroke: none;">42</text></g><g id="ezcGraphTextBox_102"><path d=" M 384.7286,341.2503 L 384.7286,329.7503 L 398.6286,329.7503 L 398.6286,341.2503 L 384.7286,341.2503 z " style="fill: #ffffff; fill-opacity: 0.00; stroke: none;" id="ezcGraphPolygon_198"/><text id="ezcGraphTextBox_102_text" x="385.2286" text-length="12.4000px" y="338.7503" style="font-size: 10px; font-family: 'Arial'; fill: #2e3436; fill-opacity: 1.00; stroke: none;">34</text></g><g id="ezcGraphTextBox_104"><path d=" M 430.4429,360.2825 L 430.4429,348.7825 L 444.3429,348.7825 L 444.3429,360.2825 L 430.4429,360.2825 z " style="fill: #ffffff; fill-opacity: 0.00; stroke: none;" id="ezcGraphPolygon_199"/><text id="ezcGraphTextBox_104_text" x="430.9429" text-length="12.4000px" y="357.7825" style="font-size: 10px; font-family: 'Arial'; fill: #2e3436; fill-opacity: 1.00; stroke: none;">16</text></g><g id="ezcGraphTextBox_106"><path d=" M 156.1571,365.5692 L 156.1571,354.0692 L 170.0571,354.0692 L 170.0571,365.5692 L 156.1571,365.5692 z " style="fill: #ffffff; fill-opacity: 0.00; stroke: none;" id="ezcGraphPolygon_200"/><text id="ezcGraphTextBox_106_text" x="156.6571" text-length="12.4000px" y="363.0692" style="font-size: 10px; font-family: 'Arial'; fill: #2e3436; fill-opacity: 1.00; stroke: none;">11</text></g><g id="ezcGraphTextBox_108"><path d=" M 204.9714,367.6839 L 204.9714,356.1839 L 212.6714,356.1839 L 212.6714,367.6839 L 204.9714,367.6839 z " style="fill: #ffffff; fill-opacity: 0.00; stroke: none;" id="ezcGraphPolygon_201"/><text id="ezcGraphTextBox_108_text" x="205.4714" text-length="6.2000px" y="365.1839" style="font-size: 10px; font-family: 'Arial'; fill: #2e3436; fill-opacity: 1.00; stroke: none;">9</text></g><g id="ezcGraphTextBox_110"><path d=" M 250.6857,367.6839 L 250.6857,356.1839 L 258.3857,356.1839 L 258.3857,367.6839 L 250.6857,367.6839 z " style="fill: #ffffff; fill-opacity: 0.00; stroke: none;" id="ezcGraphPolygon_202"/><text id="ezcGraphTextBox_110_text" x="251.1857" text-length="6.2000px" y="365.1839" style="font-size: 10px; font-family: 'Arial'; fill: #2e3436; fill-opacity: 1.00; stroke: none;">9</text></g><g id="ezcGraphTextBox_112"><path d=" M 296.4000,367.6839 L 296.4000,356.1839 L 304.1000,356.1839 L 304.1000,367.6839 L 296.4000,367.6839 z " style="fill: #ffffff; fill-opacity: 0.00; stroke: none;" id="ezcGraphPolygon_203"/><text id="ezcGraphTextBox_112_text" x="296.9000" text-length="6.2000px" y="365.1839" style="font-size: 10px; font-family: 'Arial'; fill: #2e3436; fill-opacity: 1.00; stroke: none;">9</text></g><g id="ezcGraphTextBox_114"><path d=" M 339.0143,364.5119 L 339.0143,353.0119 L 352.9143,353.0119 L 352.9143,364.5119 L 339.0143,364.5119 z " style="fill: #ffffff; fill-opacity: 0.00; stroke: none;" id="ezcGraphPolygon_204"/><text id="ezcGraphTextBox_114_text" x="339.5143" text-length="12.4000px" y="362.0119" style="font-size: 10px; font-family: 'Arial'; fill: #2e3436; fill-opacity: 1.00; stroke: none;">12</text></g><g id="ezcGraphTextBox_116"><path d=" M 387.8286,371.9133 L 387.8286,360.4133 L 395.5286,360.4133 L 395.5286,371.9133 L 387.8286,371.9133 z " style="fill: #ffffff; fill-opacity: 0.00; stroke: none;" id="ezcGraphPolygon_205"/><text id="ezcGraphTextBox_116_text" x="388.3286" text-length="6.2000px" y="369.4133" style="font-size: 10px; font-family: 'Arial'; fill: #2e3436; fill-opacity: 1.00; stroke: none;">5</text></g><g id="ezcGraphTextBox_118"><path d=" M 433.5429,368.7413 L 433.5429,357.2413 L 441.2429,357.2413 L 441.2429,368.7413 L 433.5429,368.7413 z " style="fill: #ffffff; fill-opacity: 0.00; stroke: none;" id="ezcGraphPolygon_206"/><text id="ezcGraphTextBox_118_text" x="434.0429" text-length="6.2000px" y="366.2413" style="font-size: 10px; font-family: 'Arial'; fill: #2e3436; fill-opacity: 1.00; stroke: none;">8</text></g></g></svg>
