<?xml version="1.0"?>
<svg xmlns="http://www.w3.org/2000/svg" width="500" height="420" version="1.0" id="ezcGraph"><defs/><g id="ezcGraphChart" color-rendering="optimizeQuality" shape-rendering="geometricPrecision" text-rendering="optimizeLegibility"><path d=" M 0.0000,420.0000 L 0.0000,0.0000 L 500.0000,0.0000 L 500.0000,420.0000 L 0.0000,420.0000 z " style="fill: #eeeeec; fill-opacity: 1.00; stroke: none;" id="ezcGraphPolygon_1"/><path d=" M 0.0000,42.0000 L 0.0000,0.0000 L 500.0000,0.0000 L 500.0000,42.0000 L 0.0000,42.0000 z " style="fill: #000000; fill-opacity: 0.00; stroke: none;" id="ezcGraphPolygon_2"/><path d="M 260.69,237.48 L 373.19,237.48 A 112.50,112.50 0 0,1 312.81,337.17 z" style="fill: #3465a4; fill-opacity: 1.00; stroke: none; cursor: pointer;" id="ezcGraphCircleSector_4" onclick="top.location = 'https://bsd-hardware.info/?view=computers&amp;f=memory_vendor&amp;v=Samsung+Electronics&amp;p=-1'"/><path d="M 261.52,237.98 L 372.69,237.98 A 112.00,112.00 0 0,1 313.02,336.50 z" style="fill: none; stroke: #1a3352; stroke-width: 1; stroke-opacity: 1.00; stroke-linecap: round; stroke-linejoin: round;" id="ezcGraphCircleSector_5"/><path d="M 250.00,231.00 L 302.12,330.70 A 112.50,112.50 0 0,1 185.79,323.38 z" style="fill: #4e9a06; fill-opacity: 1.00; stroke: none; cursor: pointer;" id="ezcGraphCircleSector_6" onclick="top.location = 'https://bsd-hardware.info/?view=computers&amp;f=memory_vendor&amp;v=SK+Hynix&amp;p=-1'"/><path d="M 249.94,231.96 L 301.45,330.49 A 112.00,112.00 0 0,1 186.49,323.25 z" style="fill: none; stroke: #274d03; stroke-width: 1; stroke-opacity: 1.00; stroke-linecap: round; stroke-linejoin: round;" id="ezcGraphCircleSector_7"/><path d="M 250.00,231.00 L 185.79,323.38 A 112.50,112.50 0 0,1 139.96,254.39 z" style="fill: #cc0000; fill-opacity: 1.00; stroke: none; cursor: pointer;" id="ezcGraphCircleSector_8" onclick="top.location = 'https://bsd-hardware.info/?view=computers&amp;f=memory_vendor&amp;v=Kingston&amp;p=-1'"/><path d="M 248.87,231.75 L 185.67,322.68 A 112.00,112.00 0 0,1 140.55,254.78 z" style="fill: none; stroke: #660000; stroke-width: 1; stroke-opacity: 1.00; stroke-linecap: round; stroke-linejoin: round;" id="ezcGraphCircleSector_9"/><path d="M 250.00,231.00 L 139.96,254.39 A 112.50,112.50 0 0,1 149.23,180.98 z" style="fill: #edd400; fill-opacity: 1.00; stroke: none; cursor: pointer;" id="ezcGraphCircleSector_10" onclick="top.location = 'https://bsd-hardware.info/?view=computers&amp;f=memory_vendor&amp;v=Unknown&amp;p=-1'"/><path d="M 248.49,230.81 L 140.34,253.80 A 112.00,112.00 0 0,1 149.46,181.65 z" style="fill: none; stroke: #776a00; stroke-width: 1; stroke-opacity: 1.00; stroke-linecap: round; stroke-linejoin: round;" id="ezcGraphCircleSector_11"/><path d="M 250.00,231.00 L 149.23,180.98 A 112.50,112.50 0 0,1 193.75,133.57 z" style="fill: #75505b; fill-opacity: 1.00; stroke: none; cursor: pointer;" id="ezcGraphCircleSector_12" onclick="top.location = 'https://bsd-hardware.info/?view=computers&amp;f=memory_vendor&amp;v=Crucial&amp;p=-1'"/><path d="M 248.74,229.82 L 149.90,180.75 A 112.00,112.00 0 0,1 193.57,134.26 z" style="fill: none; stroke: #3b282e; stroke-width: 1; stroke-opacity: 1.00; stroke-linecap: round; stroke-linejoin: round;" id="ezcGraphCircleSector_13"/><path d="M 250.00,231.00 L 193.75,133.57 A 112.50,112.50 0 0,1 362.50,231.00 z" style="fill: #f57900; fill-opacity: 1.00; stroke: none;" id="ezcGraphCircleSector_14"/><path d="M 250.29,230.50 L 194.43,133.76 A 112.00,112.00 0 0,1 362.00,230.50 z" style="fill: none; stroke: #7b3d00; stroke-width: 1; stroke-opacity: 1.00; stroke-linecap: round; stroke-linejoin: round;" id="ezcGraphCircleSector_15"/><path d=" M 189.2526,173.9544 L 153.2862,145.0000" style="fill: none; stroke: #000000; stroke-width: 1; stroke-opacity: 1.00; stroke-linecap: round; stroke-linejoin: round;" id="ezcGraphLine_16"/><ellipse cx="189.2526" cy="173.9544" rx="3.0000" ry="3.0000" style="fill: #000000; fill-opacity: 1.00; stroke: none;" id="ezcGraphCircle_17"/><ellipse cx="153.2862" cy="145.0000" rx="3.0000" ry="3.0000" style="fill: #000000; fill-opacity: 1.00; stroke: none;" id="ezcGraphCircle_18"/><path d=" M 167.3238,220.5556 L 120.0282,215.0000" style="fill: none; stroke: #000000; stroke-width: 1; stroke-opacity: 1.00; stroke-linecap: round; stroke-linejoin: round;" id="ezcGraphLine_20"/><ellipse cx="167.3238" cy="220.5556" rx="3.0000" ry="3.0000" style="fill: #000000; fill-opacity: 1.00; stroke: none;" id="ezcGraphCircle_21"/><ellipse cx="120.0282" cy="215.0000" rx="3.0000" ry="3.0000" style="fill: #000000; fill-opacity: 1.00; stroke: none;" id="ezcGraphCircle_22"/><path d=" M 180.5899,277.1160 L 139.7695,300.0000" style="fill: none; stroke: #000000; stroke-width: 1; stroke-opacity: 1.00; stroke-linecap: round; stroke-linejoin: round;" id="ezcGraphLine_24"/><ellipse cx="180.5899" cy="277.1160" rx="3.0000" ry="3.0000" style="fill: #000000; fill-opacity: 1.00; stroke: none;" id="ezcGraphCircle_25"/><ellipse cx="139.7695" cy="300.0000" rx="3.0000" ry="3.0000" style="fill: #000000; fill-opacity: 1.00; stroke: none;" id="ezcGraphCircle_26"/><path d=" M 244.7675,314.1689 L 228.2203,355.0000" style="fill: none; stroke: #000000; stroke-width: 1; stroke-opacity: 1.00; stroke-linecap: round; stroke-linejoin: round;" id="ezcGraphLine_28"/><ellipse cx="244.7675" cy="314.1689" rx="3.0000" ry="3.0000" style="fill: #000000; fill-opacity: 1.00; stroke: none;" id="ezcGraphCircle_29"/><ellipse cx="228.2203" cy="355.0000" rx="3.0000" ry="3.0000" style="fill: #000000; fill-opacity: 1.00; stroke: none;" id="ezcGraphCircle_30"/><path d=" M 291.6667,158.8312 L 317.1882,122.0000" style="fill: none; stroke: #000000; stroke-width: 1; stroke-opacity: 1.00; stroke-linecap: round; stroke-linejoin: round;" id="ezcGraphLine_32"/><ellipse cx="291.6667" cy="158.8312" rx="3.0000" ry="3.0000" style="fill: #000000; fill-opacity: 1.00; stroke: none;" id="ezcGraphCircle_33"/><ellipse cx="317.1882" cy="122.0000" rx="3.0000" ry="3.0000" style="fill: #000000; fill-opacity: 1.00; stroke: none;" id="ezcGraphCircle_34"/><path d=" M 331.9724,280.6443 L 358.8786,302.0000" style="fill: none; stroke: #000000; stroke-width: 1; stroke-opacity: 1.00; stroke-linecap: round; stroke-linejoin: round;" id="ezcGraphLine_36"/><ellipse cx="331.9724" cy="280.6443" rx="3.0000" ry="3.0000" style="fill: #000000; fill-opacity: 1.00; stroke: none;" id="ezcGraphCircle_37"/><ellipse cx="358.8786" cy="302.0000" rx="3.0000" ry="3.0000" style="fill: #000000; fill-opacity: 1.00; stroke: none;" id="ezcGraphCircle_38"/><g id="ezcGraphTextBox_3"><path d=" M 111.7000,42.0000 L 111.7000,0.5000 L 388.8000,0.5000 L 388.8000,42.0000 L 111.7000,42.0000 z " style="fill: #ffffff; fill-opacity: 0.00; stroke: none;" id="ezcGraphPolygon_40"/><text id="ezcGraphTextBox_3_text" x="112.2000" text-length="275.6000px" y="35.0000" style="font-size: 40px; font-family: 'Arial'; fill: #2e3436; fill-opacity: 1.00; stroke: none;">Memory Vendor</text></g><g id="ezcGraphTextBox_19" style=" cursor: pointer;" onclick="top.location = 'https://bsd-hardware.info/?view=computers&amp;f=memory_vendor&amp;v=Crucial&amp;p=-1'"><path d=" M 35.4862,153.5000 L 35.4862,137.0000 L 148.2862,137.0000 L 148.2862,153.5000 L 35.4862,153.5000 z " style="fill: #ffffff; fill-opacity: 0.00; stroke: none;" id="ezcGraphPolygon_41"/><text id="ezcGraphTextBox_19_text" x="35.9862" text-length="111.3000px" y="150.2500" style="font-size: 15px; font-family: 'Arial'; fill: #2e3436; fill-opacity: 1.00; stroke: none;">Crucial (9.3%)</text></g><g id="ezcGraphTextBox_23" style=" cursor: pointer;" onclick="top.location = 'https://bsd-hardware.info/?view=computers&amp;f=memory_vendor&amp;v=Unknown&amp;p=-1'"><path d=" M 57.8782,231.0500 L 57.8782,199.4500 L 115.0282,199.4500 L 115.0282,231.0500 L 57.8782,231.0500 z " style="fill: #ffffff; fill-opacity: 0.00; stroke: none;" id="ezcGraphPolygon_42"/><text id="ezcGraphTextBox_23_text" x="58.3782" text-length="55.6500px" y="212.7000" style="font-size: 15px; font-family: 'Arial'; fill: #2e3436; fill-opacity: 1.00; stroke: none;">Unknown</text><text id="ezcGraphTextBox_23_text" x="58.3782" text-length="55.6500px" y="229.2000" style="font-size: 15px; font-family: 'Arial'; fill: #2e3436; fill-opacity: 1.00; stroke: none;">(10.7%)</text></g><g id="ezcGraphTextBox_27" style=" cursor: pointer;" onclick="top.location = 'https://bsd-hardware.info/?view=computers&amp;f=memory_vendor&amp;v=Kingston&amp;p=-1'"><path d=" M 69.6695,316.0500 L 69.6695,284.4500 L 134.7695,284.4500 L 134.7695,316.0500 L 69.6695,316.0500 z " style="fill: #ffffff; fill-opacity: 0.00; stroke: none;" id="ezcGraphPolygon_43"/><text id="ezcGraphTextBox_27_text" x="70.1695" text-length="63.6000px" y="297.7000" style="font-size: 15px; font-family: 'Arial'; fill: #2e3436; fill-opacity: 1.00; stroke: none;">Kingston</text><text id="ezcGraphTextBox_27_text" x="78.1195" text-length="55.6500px" y="314.2000" style="font-size: 15px; font-family: 'Arial'; fill: #2e3436; fill-opacity: 1.00; stroke: none;">(12.0%)</text></g><g id="ezcGraphTextBox_31" style=" cursor: pointer;" onclick="top.location = 'https://bsd-hardware.info/?view=computers&amp;f=memory_vendor&amp;v=SK+Hynix&amp;p=-1'"><path d=" M 94.5203,363.5000 L 94.5203,347.0000 L 223.2203,347.0000 L 223.2203,363.5000 L 94.5203,363.5000 z " style="fill: #ffffff; fill-opacity: 0.00; stroke: none;" id="ezcGraphPolygon_44"/><text id="ezcGraphTextBox_31_text" x="95.0203" text-length="127.2000px" y="360.2500" style="font-size: 15px; font-family: 'Arial'; fill: #2e3436; fill-opacity: 1.00; stroke: none;">SK Hynix (17.3%)</text></g><g id="ezcGraphTextBox_35"><path d=" M 322.6882,130.5000 L 322.6882,114.0000 L 435.4882,114.0000 L 435.4882,130.5000 L 322.6882,130.5000 z " style="fill: #ffffff; fill-opacity: 0.00; stroke: none;" id="ezcGraphPolygon_45"/><text id="ezcGraphTextBox_35_text" x="323.1882" text-length="111.3000px" y="127.2500" style="font-size: 15px; font-family: 'Arial'; fill: #2e3436; fill-opacity: 1.00; stroke: none;">Others (33.3%)</text></g><g id="ezcGraphTextBox_39" style=" cursor: pointer;" onclick="top.location = 'https://bsd-hardware.info/?view=computers&amp;f=memory_vendor&amp;v=Samsung+Electronics&amp;p=-1'"><path d=" M 364.3786,318.0500 L 364.3786,286.4500 L 493.0786,286.4500 L 493.0786,318.0500 L 364.3786,318.0500 z " style="fill: #ffffff; fill-opacity: 0.00; stroke: none;" id="ezcGraphPolygon_46"/><text id="ezcGraphTextBox_39_text" x="364.8786" text-length="127.2000px" y="299.7000" style="font-size: 15px; font-family: 'Arial'; fill: #2e3436; fill-opacity: 1.00; stroke: none;">Samsung Elect...</text><text id="ezcGraphTextBox_39_text" x="364.8786" text-length="55.6500px" y="316.2000" style="font-size: 15px; font-family: 'Arial'; fill: #2e3436; fill-opacity: 1.00; stroke: none;">(17.3%)</text></g></g></svg>
