<?xml version="1.0"?>
<svg xmlns="http://www.w3.org/2000/svg" width="500" height="420" version="1.0" id="ezcGraph"><defs/><g id="ezcGraphChart" color-rendering="optimizeQuality" shape-rendering="geometricPrecision" text-rendering="optimizeLegibility"><path d=" M 0.0000,420.0000 L 0.0000,0.0000 L 500.0000,0.0000 L 500.0000,420.0000 L 0.0000,420.0000 z " style="fill: #eeeeec; fill-opacity: 1.00; stroke: none;" id="ezcGraphPolygon_1"/><path d=" M 0.0000,42.0000 L 0.0000,0.0000 L 500.0000,0.0000 L 500.0000,42.0000 L 0.0000,42.0000 z " style="fill: #000000; fill-opacity: 0.00; stroke: none;" id="ezcGraphPolygon_2"/><path d=" M 0.0000,420.0000 L 0.0000,42.0000 L 100.0000,42.0000 L 100.0000,420.0000 L 0.0000,420.0000 z " style="fill: #000000; fill-opacity: 0.00; stroke: none;" id="ezcGraphPolygon_4"/><path d=" M 2.0000,58.0000 L 2.0000,44.0000 L 16.0000,44.0000 L 16.0000,58.0000 L 2.0000,58.0000 z " style="fill: #3465a4; fill-opacity: 1.00; stroke: none; cursor: pointer;" id="ezcGraphPolygon_5" onclick="top.location = 'http://127.0.0.1/bsd-hardware.info/index.php?view=computers&amp;type=notebook&amp;f=os_arch&amp;v=amd64&amp;p=-1'"/><path d=" M 2.0000,76.0000 L 2.0000,62.0000 L 16.0000,62.0000 L 16.0000,76.0000 L 2.0000,76.0000 z " style="fill: #4e9a06; fill-opacity: 1.00; stroke: none; cursor: pointer;" id="ezcGraphPolygon_7" onclick="top.location = 'http://127.0.0.1/bsd-hardware.info/index.php?view=computers&amp;type=notebook&amp;f=os_arch&amp;v=i386&amp;p=-1'"/><path d=" M 100.0000,382.2000 L 500.0000,382.2000" style="fill: none; stroke: #2e3436; stroke-width: 1; stroke-opacity: 1.00; stroke-linecap: round; stroke-linejoin: round;" id="ezcGraphLine_9"/><path d=" M 492.0000,378.2000 L 500.0000,382.2000 L 492.0000,386.2000 L 492.0000,378.2000 z " style="fill: #2e3436; fill-opacity: 1.00; stroke: none;" id="ezcGraphPolygon_10"/><path d=" M 193.3333,79.8000 L 193.3333,382.2000" style="fill: none; stroke: #000000; stroke-width: 1; stroke-opacity: 0.00; stroke-linecap: round; stroke-linejoin: round;" id="ezcGraphLine_13"/><path d=" M 193.3333,379.2000 L 193.3333,385.2000" style="fill: none; stroke: #2e3436; stroke-width: 1; stroke-opacity: 1.00; stroke-linecap: round; stroke-linejoin: round;" id="ezcGraphLine_14"/><path d=" M 246.6667,79.8000 L 246.6667,382.2000" style="fill: none; stroke: #000000; stroke-width: 1; stroke-opacity: 0.00; stroke-linecap: round; stroke-linejoin: round;" id="ezcGraphLine_16"/><path d=" M 246.6667,379.2000 L 246.6667,385.2000" style="fill: none; stroke: #2e3436; stroke-width: 1; stroke-opacity: 1.00; stroke-linecap: round; stroke-linejoin: round;" id="ezcGraphLine_17"/><path d=" M 300.0000,79.8000 L 300.0000,382.2000" style="fill: none; stroke: #000000; stroke-width: 1; stroke-opacity: 0.00; stroke-linecap: round; stroke-linejoin: round;" id="ezcGraphLine_19"/><path d=" M 300.0000,379.2000 L 300.0000,385.2000" style="fill: none; stroke: #2e3436; stroke-width: 1; stroke-opacity: 1.00; stroke-linecap: round; stroke-linejoin: round;" id="ezcGraphLine_20"/><path d=" M 353.3333,79.8000 L 353.3333,382.2000" style="fill: none; stroke: #000000; stroke-width: 1; stroke-opacity: 0.00; stroke-linecap: round; stroke-linejoin: round;" id="ezcGraphLine_22"/><path d=" M 353.3333,379.2000 L 353.3333,385.2000" style="fill: none; stroke: #2e3436; stroke-width: 1; stroke-opacity: 1.00; stroke-linecap: round; stroke-linejoin: round;" id="ezcGraphLine_23"/><path d=" M 406.6667,79.8000 L 406.6667,382.2000" style="fill: none; stroke: #000000; stroke-width: 1; stroke-opacity: 0.00; stroke-linecap: round; stroke-linejoin: round;" id="ezcGraphLine_25"/><path d=" M 406.6667,379.2000 L 406.6667,385.2000" style="fill: none; stroke: #2e3436; stroke-width: 1; stroke-opacity: 1.00; stroke-linecap: round; stroke-linejoin: round;" id="ezcGraphLine_26"/><path d=" M 460.0000,79.8000 L 460.0000,382.2000" style="fill: none; stroke: #000000; stroke-width: 1; stroke-opacity: 0.00; stroke-linecap: round; stroke-linejoin: round;" id="ezcGraphLine_28"/><path d=" M 460.0000,379.2000 L 460.0000,385.2000" style="fill: none; stroke: #2e3436; stroke-width: 1; stroke-opacity: 1.00; stroke-linecap: round; stroke-linejoin: round;" id="ezcGraphLine_29"/><path d=" M 140.0000,420.0000 L 140.0000,42.0000" style="fill: none; stroke: #2e3436; stroke-width: 1; stroke-opacity: 1.00; stroke-linecap: round; stroke-linejoin: round;" id="ezcGraphLine_30"/><path d=" M 136.0000,50.0000 L 140.0000,42.0000 L 144.0000,50.0000 L 136.0000,50.0000 z " style="fill: #2e3436; fill-opacity: 1.00; stroke: none;" id="ezcGraphPolygon_31"/><path d=" M 140.0000,231.0000 L 460.0000,231.0000" style="fill: none; stroke: #000000; stroke-width: 1; stroke-opacity: 0.00; stroke-linecap: round; stroke-linejoin: round;" id="ezcGraphLine_34"/><path d=" M 140.0000,231.0000 L 143.0000,231.0000" style="fill: none; stroke: #2e3436; stroke-width: 1; stroke-opacity: 1.00; stroke-linecap: round; stroke-linejoin: round;" id="ezcGraphLine_35"/><path d=" M 140.0000,79.8000 L 460.0000,79.8000" style="fill: none; stroke: #000000; stroke-width: 1; stroke-opacity: 0.00; stroke-linecap: round; stroke-linejoin: round;" id="ezcGraphLine_37"/><path d=" M 140.0000,79.8000 L 143.0000,79.8000" style="fill: none; stroke: #2e3436; stroke-width: 1; stroke-opacity: 1.00; stroke-linecap: round; stroke-linejoin: round;" id="ezcGraphLine_38"/><path d=" M 166.6667,84.6774 L 166.6667,84.6774" style="fill: none; stroke: #3465a4; stroke-width: 1; stroke-opacity: 1.00; stroke-linecap: round; stroke-linejoin: round;" id="ezcGraphLine_40"/><path d=" M 166.6667,84.6774 L 220.0000,289.5290" style="fill: none; stroke: #3465a4; stroke-width: 1; stroke-opacity: 1.00; stroke-linecap: round; stroke-linejoin: round;" id="ezcGraphLine_42"/><path d=" M 220.0000,289.5290 L 273.3333,216.3677" style="fill: none; stroke: #3465a4; stroke-width: 1; stroke-opacity: 1.00; stroke-linecap: round; stroke-linejoin: round;" id="ezcGraphLine_44"/><path d=" M 273.3333,216.3677 L 326.6667,84.6774" style="fill: none; stroke: #3465a4; stroke-width: 1; stroke-opacity: 1.00; stroke-linecap: round; stroke-linejoin: round;" id="ezcGraphLine_46"/><path d=" M 326.6667,84.6774 L 380.0000,240.7548" style="fill: none; stroke: #3465a4; stroke-width: 1; stroke-opacity: 1.00; stroke-linecap: round; stroke-linejoin: round;" id="ezcGraphLine_48"/><path d=" M 380.0000,240.7548 L 433.3333,143.2065" style="fill: none; stroke: #3465a4; stroke-width: 1; stroke-opacity: 1.00; stroke-linecap: round; stroke-linejoin: round;" id="ezcGraphLine_50"/><path d=" M 166.6667,367.5677 L 166.6667,367.5677" style="fill: none; stroke: #4e9a06; stroke-width: 1; stroke-opacity: 1.00; stroke-linecap: round; stroke-linejoin: round;" id="ezcGraphLine_52"/><path d=" M 166.6667,367.5677 L 273.3333,377.3226" style="fill: none; stroke: #4e9a06; stroke-width: 1; stroke-opacity: 1.00; stroke-linecap: round; stroke-linejoin: round;" id="ezcGraphLine_54"/><path d=" M 273.3333,377.3226 L 326.6667,352.9355" style="fill: none; stroke: #4e9a06; stroke-width: 1; stroke-opacity: 1.00; stroke-linecap: round; stroke-linejoin: round;" id="ezcGraphLine_56"/><path d=" M 326.6667,352.9355 L 380.0000,372.4452" style="fill: none; stroke: #4e9a06; stroke-width: 1; stroke-opacity: 1.00; stroke-linecap: round; stroke-linejoin: round;" id="ezcGraphLine_58"/><path d=" M 380.0000,372.4452 L 433.3333,357.8129" style="fill: none; stroke: #4e9a06; stroke-width: 1; stroke-opacity: 1.00; stroke-linecap: round; stroke-linejoin: round;" id="ezcGraphLine_60"/><path d=" M 163.6667,87.6774 L 163.6667,81.6774 L 169.6667,81.6774 L 169.6667,87.6774 L 163.6667,87.6774 z " style="fill: #3465a4; fill-opacity: 1.00; stroke: none; cursor: pointer;" id="ezcGraphPolygon_62" onclick="top.location = 'http://127.0.0.1/bsd-hardware.info/index.php?view=computers&amp;type=notebook&amp;f=os_arch&amp;v=amd64&amp;p=-1&amp;p=77'"/><path d=" M 217.0000,292.5290 L 217.0000,286.5290 L 223.0000,286.5290 L 223.0000,292.5290 L 217.0000,292.5290 z " style="fill: #3465a4; fill-opacity: 1.00; stroke: none; cursor: pointer;" id="ezcGraphPolygon_63" onclick="top.location = 'http://127.0.0.1/bsd-hardware.info/index.php?view=computers&amp;type=notebook&amp;f=os_arch&amp;v=amd64&amp;p=-1&amp;p=78'"/><path d=" M 270.3333,219.3677 L 270.3333,213.3677 L 276.3333,213.3677 L 276.3333,219.3677 L 270.3333,219.3677 z " style="fill: #3465a4; fill-opacity: 1.00; stroke: none; cursor: pointer;" id="ezcGraphPolygon_64" onclick="top.location = 'http://127.0.0.1/bsd-hardware.info/index.php?view=computers&amp;type=notebook&amp;f=os_arch&amp;v=amd64&amp;p=-1&amp;p=79'"/><path d=" M 323.6667,87.6774 L 323.6667,81.6774 L 329.6667,81.6774 L 329.6667,87.6774 L 323.6667,87.6774 z " style="fill: #3465a4; fill-opacity: 1.00; stroke: none; cursor: pointer;" id="ezcGraphPolygon_65" onclick="top.location = 'http://127.0.0.1/bsd-hardware.info/index.php?view=computers&amp;type=notebook&amp;f=os_arch&amp;v=amd64&amp;p=-1&amp;p=80'"/><path d=" M 377.0000,243.7548 L 377.0000,237.7548 L 383.0000,237.7548 L 383.0000,243.7548 L 377.0000,243.7548 z " style="fill: #3465a4; fill-opacity: 1.00; stroke: none; cursor: pointer;" id="ezcGraphPolygon_66" onclick="top.location = 'http://127.0.0.1/bsd-hardware.info/index.php?view=computers&amp;type=notebook&amp;f=os_arch&amp;v=amd64&amp;p=-1&amp;p=81'"/><path d=" M 430.3333,146.2065 L 430.3333,140.2065 L 436.3333,140.2065 L 436.3333,146.2065 L 430.3333,146.2065 z " style="fill: #3465a4; fill-opacity: 1.00; stroke: none; cursor: pointer;" id="ezcGraphPolygon_67" onclick="top.location = 'http://127.0.0.1/bsd-hardware.info/index.php?view=computers&amp;type=notebook&amp;f=os_arch&amp;v=amd64&amp;p=-1&amp;p=82'"/><path d=" M 163.6667,370.5677 L 163.6667,364.5677 L 169.6667,364.5677 L 169.6667,370.5677 L 163.6667,370.5677 z " style="fill: #4e9a06; fill-opacity: 1.00; stroke: none; cursor: pointer;" id="ezcGraphPolygon_68" onclick="top.location = 'http://127.0.0.1/bsd-hardware.info/index.php?view=computers&amp;type=notebook&amp;f=os_arch&amp;v=i386&amp;p=-1&amp;p=77'"/><path d=" M 270.3333,380.3226 L 270.3333,374.3226 L 276.3333,374.3226 L 276.3333,380.3226 L 270.3333,380.3226 z " style="fill: #4e9a06; fill-opacity: 1.00; stroke: none; cursor: pointer;" id="ezcGraphPolygon_69" onclick="top.location = 'http://127.0.0.1/bsd-hardware.info/index.php?view=computers&amp;type=notebook&amp;f=os_arch&amp;v=i386&amp;p=-1&amp;p=79'"/><path d=" M 323.6667,355.9355 L 323.6667,349.9355 L 329.6667,349.9355 L 329.6667,355.9355 L 323.6667,355.9355 z " style="fill: #4e9a06; fill-opacity: 1.00; stroke: none; cursor: pointer;" id="ezcGraphPolygon_70" onclick="top.location = 'http://127.0.0.1/bsd-hardware.info/index.php?view=computers&amp;type=notebook&amp;f=os_arch&amp;v=i386&amp;p=-1&amp;p=80'"/><path d=" M 377.0000,375.4452 L 377.0000,369.4452 L 383.0000,369.4452 L 383.0000,375.4452 L 377.0000,375.4452 z " style="fill: #4e9a06; fill-opacity: 1.00; stroke: none; cursor: pointer;" id="ezcGraphPolygon_71" onclick="top.location = 'http://127.0.0.1/bsd-hardware.info/index.php?view=computers&amp;type=notebook&amp;f=os_arch&amp;v=i386&amp;p=-1&amp;p=81'"/><path d=" M 430.3333,360.8129 L 430.3333,354.8129 L 436.3333,354.8129 L 436.3333,360.8129 L 430.3333,360.8129 z " style="fill: #4e9a06; fill-opacity: 1.00; stroke: none; cursor: pointer;" id="ezcGraphPolygon_72" onclick="top.location = 'http://127.0.0.1/bsd-hardware.info/index.php?view=computers&amp;type=notebook&amp;f=os_arch&amp;v=i386&amp;p=-1&amp;p=82'"/><g id="ezcGraphTextBox_3"><path d=" M 207.1000,42.0000 L 207.1000,0.5000 L 293.4000,0.5000 L 293.4000,42.0000 L 207.1000,42.0000 z " style="fill: #ffffff; fill-opacity: 0.00; stroke: none;" id="ezcGraphPolygon_73"/><text id="ezcGraphTextBox_3_text" x="207.6000" text-length="84.8000px" y="35.0000" style="font-size: 40px; font-family: 'Arial'; fill: #2e3436; fill-opacity: 1.00; stroke: none;">Arch</text></g><g id="ezcGraphTextBox_6" style=" cursor: pointer;" onclick="top.location = 'http://127.0.0.1/bsd-hardware.info/index.php?view=computers&amp;type=notebook&amp;f=os_arch&amp;v=amd64&amp;p=-1'"><path d=" M 16.5000,59.0000 L 16.5000,43.5000 L 55.1000,43.5000 L 55.1000,59.0000 L 16.5000,59.0000 z " style="fill: #ffffff; fill-opacity: 0.00; stroke: none;" id="ezcGraphPolygon_74"/><text id="ezcGraphTextBox_6_text" x="17.0000" text-length="37.1000px" y="55.9000" style="font-size: 14px; font-family: 'Arial'; fill: #2e3436; fill-opacity: 1.00; stroke: none;">amd64</text></g><g id="ezcGraphTextBox_8" style=" cursor: pointer;" onclick="top.location = 'http://127.0.0.1/bsd-hardware.info/index.php?view=computers&amp;type=notebook&amp;f=os_arch&amp;v=i386&amp;p=-1'"><path d=" M 16.5000,77.0000 L 16.5000,61.5000 L 47.6800,61.5000 L 47.6800,77.0000 L 16.5000,77.0000 z " style="fill: #ffffff; fill-opacity: 0.00; stroke: none;" id="ezcGraphPolygon_75"/><text id="ezcGraphTextBox_8_text" x="17.0000" text-length="29.6800px" y="73.9000" style="font-size: 14px; font-family: 'Arial'; fill: #2e3436; fill-opacity: 1.00; stroke: none;">i386</text></g><g id="ezcGraphTextBox_11" transform="rotate( 0.00 493.0000 375.2000 )"><path d=" M 460.4000,381.2000 L 460.4000,365.7000 L 499.0000,365.7000 L 499.0000,381.2000 L 460.4000,381.2000 z " style="fill: #ffffff; fill-opacity: 0.00; stroke: none;" id="ezcGraphPolygon_76"/><text id="ezcGraphTextBox_11_text" x="460.9000" text-length="37.1000px" y="378.1000" style="font-size: 14px; font-family: 'Arial'; fill: #2e3436; fill-opacity: 1.00; stroke: none;">Time </text></g><g id="ezcGraphTextBox_12"><path d=" M 148.8067,413.3000 L 148.8067,383.7000 L 185.0267,383.7000 L 185.0267,413.3000 L 148.8067,413.3000 z " style="fill: #ffffff; fill-opacity: 0.00; stroke: none;" id="ezcGraphPolygon_77"/><text id="ezcGraphTextBox_12_text" x="155.5367" text-length="22.2600px" y="396.1000" style="font-size: 14px; font-family: 'Arial'; fill: #2e3436; fill-opacity: 1.00; stroke: none;">May</text><text id="ezcGraphTextBox_12_text" x="149.3067" text-length="34.7200px" y="411.5000" style="font-size: 14px; font-family: 'Arial'; fill: #2e3436; fill-opacity: 1.00; stroke: none;">2020</text></g><g id="ezcGraphTextBox_15"><path d=" M 202.1400,413.3000 L 202.1400,383.7000 L 238.3600,383.7000 L 238.3600,413.3000 L 202.1400,413.3000 z " style="fill: #ffffff; fill-opacity: 0.00; stroke: none;" id="ezcGraphPolygon_78"/><text id="ezcGraphTextBox_15_text" x="208.8700" text-length="22.2600px" y="396.1000" style="font-size: 14px; font-family: 'Arial'; fill: #2e3436; fill-opacity: 1.00; stroke: none;">Jun</text><text id="ezcGraphTextBox_15_text" x="202.6400" text-length="34.7200px" y="411.5000" style="font-size: 14px; font-family: 'Arial'; fill: #2e3436; fill-opacity: 1.00; stroke: none;">2020</text></g><g id="ezcGraphTextBox_18"><path d=" M 255.4733,413.3000 L 255.4733,383.7000 L 291.6933,383.7000 L 291.6933,413.3000 L 255.4733,413.3000 z " style="fill: #ffffff; fill-opacity: 0.00; stroke: none;" id="ezcGraphPolygon_79"/><text id="ezcGraphTextBox_18_text" x="262.2033" text-length="22.2600px" y="396.1000" style="font-size: 14px; font-family: 'Arial'; fill: #2e3436; fill-opacity: 1.00; stroke: none;">Jul</text><text id="ezcGraphTextBox_18_text" x="255.9733" text-length="34.7200px" y="411.5000" style="font-size: 14px; font-family: 'Arial'; fill: #2e3436; fill-opacity: 1.00; stroke: none;">2020</text></g><g id="ezcGraphTextBox_21"><path d=" M 308.8067,413.3000 L 308.8067,383.7000 L 345.0267,383.7000 L 345.0267,413.3000 L 308.8067,413.3000 z " style="fill: #ffffff; fill-opacity: 0.00; stroke: none;" id="ezcGraphPolygon_80"/><text id="ezcGraphTextBox_21_text" x="315.5367" text-length="22.2600px" y="396.1000" style="font-size: 14px; font-family: 'Arial'; fill: #2e3436; fill-opacity: 1.00; stroke: none;">Aug</text><text id="ezcGraphTextBox_21_text" x="309.3067" text-length="34.7200px" y="411.5000" style="font-size: 14px; font-family: 'Arial'; fill: #2e3436; fill-opacity: 1.00; stroke: none;">2020</text></g><g id="ezcGraphTextBox_24"><path d=" M 362.1400,413.3000 L 362.1400,383.7000 L 398.3600,383.7000 L 398.3600,413.3000 L 362.1400,413.3000 z " style="fill: #ffffff; fill-opacity: 0.00; stroke: none;" id="ezcGraphPolygon_81"/><text id="ezcGraphTextBox_24_text" x="368.8700" text-length="22.2600px" y="396.1000" style="font-size: 14px; font-family: 'Arial'; fill: #2e3436; fill-opacity: 1.00; stroke: none;">Sep</text><text id="ezcGraphTextBox_24_text" x="362.6400" text-length="34.7200px" y="411.5000" style="font-size: 14px; font-family: 'Arial'; fill: #2e3436; fill-opacity: 1.00; stroke: none;">2020</text></g><g id="ezcGraphTextBox_27"><path d=" M 415.4733,413.3000 L 415.4733,383.7000 L 451.6933,383.7000 L 451.6933,413.3000 L 415.4733,413.3000 z " style="fill: #ffffff; fill-opacity: 0.00; stroke: none;" id="ezcGraphPolygon_82"/><text id="ezcGraphTextBox_27_text" x="422.2033" text-length="22.2600px" y="396.1000" style="font-size: 14px; font-family: 'Arial'; fill: #2e3436; fill-opacity: 1.00; stroke: none;">Oct</text><text id="ezcGraphTextBox_27_text" x="415.9733" text-length="34.7200px" y="411.5000" style="font-size: 14px; font-family: 'Arial'; fill: #2e3436; fill-opacity: 1.00; stroke: none;">2020</text></g><g id="ezcGraphTextBox_32" transform="rotate( 0.00 147.0000 49.0000 )"><path d=" M 141.5000,59.0000 L 141.5000,43.5000 L 269.1400,43.5000 L 269.1400,59.0000 L 141.5000,59.0000 z " style="fill: #ffffff; fill-opacity: 0.00; stroke: none;" id="ezcGraphPolygon_83"/><text id="ezcGraphTextBox_32_text" x="142.0000" text-length="126.1400px" y="55.9000" style="font-size: 14px; font-family: 'Arial'; fill: #2e3436; fill-opacity: 1.00; stroke: none;">Notebooks by Arch</text></g><g id="ezcGraphTextBox_33"><path d=" M 128.8200,381.2000 L 128.8200,365.7000 L 139.0000,365.7000 L 139.0000,381.2000 L 128.8200,381.2000 z " style="fill: #ffffff; fill-opacity: 0.00; stroke: none;" id="ezcGraphPolygon_84"/><text id="ezcGraphTextBox_33_text" x="129.3200" text-length="8.6800px" y="378.1000" style="font-size: 14px; font-family: 'Arial'; fill: #2e3436; fill-opacity: 1.00; stroke: none;">0</text></g><g id="ezcGraphTextBox_36"><path d=" M 120.1400,230.0000 L 120.1400,214.5000 L 139.0000,214.5000 L 139.0000,230.0000 L 120.1400,230.0000 z " style="fill: #ffffff; fill-opacity: 0.00; stroke: none;" id="ezcGraphPolygon_85"/><text id="ezcGraphTextBox_36_text" x="120.6400" text-length="17.3600px" y="226.9000" style="font-size: 14px; font-family: 'Arial'; fill: #2e3436; fill-opacity: 1.00; stroke: none;">31</text></g><g id="ezcGraphTextBox_39"><path d=" M 120.1400,96.8000 L 120.1400,81.3000 L 139.0000,81.3000 L 139.0000,96.8000 L 120.1400,96.8000 z " style="fill: #ffffff; fill-opacity: 0.00; stroke: none;" id="ezcGraphPolygon_86"/><text id="ezcGraphTextBox_39_text" x="120.6400" text-length="17.3600px" y="93.7000" style="font-size: 14px; font-family: 'Arial'; fill: #2e3436; fill-opacity: 1.00; stroke: none;">62</text></g><g id="ezcGraphTextBox_41"><path d=" M 159.9667,79.6774 L 159.9667,68.1774 L 173.8667,68.1774 L 173.8667,79.6774 L 159.9667,79.6774 z " style="fill: #ffffff; fill-opacity: 0.00; stroke: none;" id="ezcGraphPolygon_87"/><text id="ezcGraphTextBox_41_text" x="160.4667" text-length="12.4000px" y="77.1774" style="font-size: 10px; font-family: 'Arial'; fill: #2e3436; fill-opacity: 1.00; stroke: none;">61</text></g><g id="ezcGraphTextBox_43"><path d=" M 213.3000,284.5290 L 213.3000,273.0290 L 227.2000,273.0290 L 227.2000,284.5290 L 213.3000,284.5290 z " style="fill: #ffffff; fill-opacity: 0.00; stroke: none;" id="ezcGraphPolygon_88"/><text id="ezcGraphTextBox_43_text" x="213.8000" text-length="12.4000px" y="282.0290" style="font-size: 10px; font-family: 'Arial'; fill: #2e3436; fill-opacity: 1.00; stroke: none;">19</text></g><g id="ezcGraphTextBox_45"><path d=" M 266.6333,211.3677 L 266.6333,199.8677 L 280.5333,199.8677 L 280.5333,211.3677 L 266.6333,211.3677 z " style="fill: #ffffff; fill-opacity: 0.00; stroke: none;" id="ezcGraphPolygon_89"/><text id="ezcGraphTextBox_45_text" x="267.1333" text-length="12.4000px" y="208.8677" style="font-size: 10px; font-family: 'Arial'; fill: #2e3436; fill-opacity: 1.00; stroke: none;">34</text></g><g id="ezcGraphTextBox_47"><path d=" M 319.9667,79.6774 L 319.9667,68.1774 L 333.8667,68.1774 L 333.8667,79.6774 L 319.9667,79.6774 z " style="fill: #ffffff; fill-opacity: 0.00; stroke: none;" id="ezcGraphPolygon_90"/><text id="ezcGraphTextBox_47_text" x="320.4667" text-length="12.4000px" y="77.1774" style="font-size: 10px; font-family: 'Arial'; fill: #2e3436; fill-opacity: 1.00; stroke: none;">61</text></g><g id="ezcGraphTextBox_49"><path d=" M 373.3000,235.7548 L 373.3000,224.2548 L 387.2000,224.2548 L 387.2000,235.7548 L 373.3000,235.7548 z " style="fill: #ffffff; fill-opacity: 0.00; stroke: none;" id="ezcGraphPolygon_91"/><text id="ezcGraphTextBox_49_text" x="373.8000" text-length="12.4000px" y="233.2548" style="font-size: 10px; font-family: 'Arial'; fill: #2e3436; fill-opacity: 1.00; stroke: none;">29</text></g><g id="ezcGraphTextBox_51"><path d=" M 426.6333,138.2065 L 426.6333,126.7065 L 440.5333,126.7065 L 440.5333,138.2065 L 426.6333,138.2065 z " style="fill: #ffffff; fill-opacity: 0.00; stroke: none;" id="ezcGraphPolygon_92"/><text id="ezcGraphTextBox_51_text" x="427.1333" text-length="12.4000px" y="135.7065" style="font-size: 10px; font-family: 'Arial'; fill: #2e3436; fill-opacity: 1.00; stroke: none;">49</text></g><g id="ezcGraphTextBox_53"><path d=" M 163.0667,362.5677 L 163.0667,351.0677 L 170.7667,351.0677 L 170.7667,362.5677 L 163.0667,362.5677 z " style="fill: #ffffff; fill-opacity: 0.00; stroke: none;" id="ezcGraphPolygon_93"/><text id="ezcGraphTextBox_53_text" x="163.5667" text-length="6.2000px" y="360.0677" style="font-size: 10px; font-family: 'Arial'; fill: #2e3436; fill-opacity: 1.00; stroke: none;">3</text></g><g id="ezcGraphTextBox_55"><path d=" M 269.7333,372.3226 L 269.7333,360.8226 L 277.4333,360.8226 L 277.4333,372.3226 L 269.7333,372.3226 z " style="fill: #ffffff; fill-opacity: 0.00; stroke: none;" id="ezcGraphPolygon_94"/><text id="ezcGraphTextBox_55_text" x="270.2333" text-length="6.2000px" y="369.8226" style="font-size: 10px; font-family: 'Arial'; fill: #2e3436; fill-opacity: 1.00; stroke: none;">1</text></g><g id="ezcGraphTextBox_57"><path d=" M 323.0667,347.9355 L 323.0667,336.4355 L 330.7667,336.4355 L 330.7667,347.9355 L 323.0667,347.9355 z " style="fill: #ffffff; fill-opacity: 0.00; stroke: none;" id="ezcGraphPolygon_95"/><text id="ezcGraphTextBox_57_text" x="323.5667" text-length="6.2000px" y="345.4355" style="font-size: 10px; font-family: 'Arial'; fill: #2e3436; fill-opacity: 1.00; stroke: none;">6</text></g><g id="ezcGraphTextBox_59"><path d=" M 376.4000,367.4452 L 376.4000,355.9452 L 384.1000,355.9452 L 384.1000,367.4452 L 376.4000,367.4452 z " style="fill: #ffffff; fill-opacity: 0.00; stroke: none;" id="ezcGraphPolygon_96"/><text id="ezcGraphTextBox_59_text" x="376.9000" text-length="6.2000px" y="364.9452" style="font-size: 10px; font-family: 'Arial'; fill: #2e3436; fill-opacity: 1.00; stroke: none;">2</text></g><g id="ezcGraphTextBox_61"><path d=" M 429.7333,352.8129 L 429.7333,341.3129 L 437.4333,341.3129 L 437.4333,352.8129 L 429.7333,352.8129 z " style="fill: #ffffff; fill-opacity: 0.00; stroke: none;" id="ezcGraphPolygon_97"/><text id="ezcGraphTextBox_61_text" x="430.2333" text-length="6.2000px" y="350.3129" style="font-size: 10px; font-family: 'Arial'; fill: #2e3436; fill-opacity: 1.00; stroke: none;">5</text></g></g></svg>
