<?xml version="1.0"?>
<svg xmlns="http://www.w3.org/2000/svg" width="500" height="420" version="1.0" id="ezcGraph"><defs/><g id="ezcGraphChart" color-rendering="optimizeQuality" shape-rendering="geometricPrecision" text-rendering="optimizeLegibility"><path d=" M 0.0000,420.0000 L 0.0000,0.0000 L 500.0000,0.0000 L 500.0000,420.0000 L 0.0000,420.0000 z " style="fill: #eeeeec; fill-opacity: 1.00; stroke: none;" id="ezcGraphPolygon_1"/><path d=" M 0.0000,42.0000 L 0.0000,0.0000 L 500.0000,0.0000 L 500.0000,42.0000 L 0.0000,42.0000 z " style="fill: #000000; fill-opacity: 0.00; stroke: none;" id="ezcGraphPolygon_2"/><path d="M 253.07,243.12 L 365.57,243.12 A 112.50,112.50 0 0,1 154.13,296.66 z" style="fill: #3465a4; fill-opacity: 1.00; stroke: none; cursor: pointer;" id="ezcGraphCircleSector_4" onclick="top.location = 'https://bsd-hardware.info/?view=computers&amp;type=notebook&amp;f=net_wireless_vendor&amp;v=Intel&amp;p=-1'"/><path d="M 253.20,243.62 L 365.07,243.62 A 112.00,112.00 0 0,1 154.81,296.86 z" style="fill: none; stroke: #1a3352; stroke-width: 1; stroke-opacity: 1.00; stroke-linecap: round; stroke-linejoin: round;" id="ezcGraphCircleSector_5"/><path d="M 250.00,231.00 L 151.06,284.54 A 112.50,112.50 0 0,1 240.71,118.88 z" style="fill: #4e9a06; fill-opacity: 1.00; stroke: none; cursor: pointer;" id="ezcGraphCircleSector_6" onclick="top.location = 'https://bsd-hardware.info/?view=computers&amp;type=notebook&amp;f=net_wireless_vendor&amp;v=Qualcomm+Atheros&amp;p=-1'"/><path d="M 249.47,230.72 L 151.26,283.87 A 112.00,112.00 0 0,1 240.25,119.42 z" style="fill: none; stroke: #274d03; stroke-width: 1; stroke-opacity: 1.00; stroke-linecap: round; stroke-linejoin: round;" id="ezcGraphCircleSector_7"/><path d="M 250.00,231.00 L 240.71,118.88 A 112.50,112.50 0 0,1 326.19,148.23 z" style="fill: #cc0000; fill-opacity: 1.00; stroke: none; cursor: pointer;" id="ezcGraphCircleSector_8" onclick="top.location = 'https://bsd-hardware.info/?view=computers&amp;type=notebook&amp;f=net_wireless_vendor&amp;v=Realtek+Semiconductor&amp;p=-1'"/><path d="M 250.40,229.82 L 241.25,119.34 A 112.00,112.00 0 0,1 325.49,148.26 z" style="fill: none; stroke: #660000; stroke-width: 1; stroke-opacity: 1.00; stroke-linecap: round; stroke-linejoin: round;" id="ezcGraphCircleSector_9"/><path d="M 250.00,231.00 L 326.19,148.23 A 112.50,112.50 0 0,1 360.97,212.48 z" style="fill: #edd400; fill-opacity: 1.00; stroke: none; cursor: pointer;" id="ezcGraphCircleSector_10" onclick="top.location = 'https://bsd-hardware.info/?view=computers&amp;type=notebook&amp;f=net_wireless_vendor&amp;v=Broadcom&amp;p=-1'"/><path d="M 251.35,230.27 L 326.22,148.94 A 112.00,112.00 0 0,1 360.39,212.07 z" style="fill: none; stroke: #776a00; stroke-width: 1; stroke-opacity: 1.00; stroke-linecap: round; stroke-linejoin: round;" id="ezcGraphCircleSector_11"/><path d="M 250.00,231.00 L 360.97,212.48 A 112.50,112.50 0 0,1 362.50,231.00 z" style="fill: #75505b; fill-opacity: 1.00; stroke: none; cursor: pointer;" id="ezcGraphCircleSector_12" onclick="top.location = 'https://bsd-hardware.info/?view=computers&amp;type=notebook&amp;f=net_wireless_vendor&amp;v=Dell&amp;p=-1'"/><path d="M 256.03,230.50 L 360.55,213.06 A 112.00,112.00 0 0,1 362.00,230.50 z" style="fill: none; stroke: #3b282e; stroke-width: 1; stroke-opacity: 1.00; stroke-linecap: round; stroke-linejoin: round;" id="ezcGraphCircleSector_13"/><path d=" M 176.7105,191.3377 L 134.3414,171.0000" style="fill: none; stroke: #000000; stroke-width: 1; stroke-opacity: 1.00; stroke-linecap: round; stroke-linejoin: round;" id="ezcGraphLine_14"/><ellipse cx="176.7105" cy="191.3377" rx="3.0000" ry="3.0000" style="fill: #000000; fill-opacity: 1.00; stroke: none;" id="ezcGraphCircle_15"/><ellipse cx="134.3414" cy="171.0000" rx="3.0000" ry="3.0000" style="fill: #000000; fill-opacity: 1.00; stroke: none;" id="ezcGraphCircle_16"/><path d=" M 277.0583,152.1819 L 294.2623,112.0000" style="fill: none; stroke: #000000; stroke-width: 1; stroke-opacity: 1.00; stroke-linecap: round; stroke-linejoin: round;" id="ezcGraphLine_18"/><ellipse cx="277.0583" cy="152.1819" rx="3.0000" ry="3.0000" style="fill: #000000; fill-opacity: 1.00; stroke: none;" id="ezcGraphCircle_19"/><ellipse cx="294.2623" cy="112.0000" rx="3.0000" ry="3.0000" style="fill: #000000; fill-opacity: 1.00; stroke: none;" id="ezcGraphCircle_20"/><path d=" M 323.2895,191.3377 L 365.6586,171.0000" style="fill: none; stroke: #000000; stroke-width: 1; stroke-opacity: 1.00; stroke-linecap: round; stroke-linejoin: round;" id="ezcGraphLine_22"/><ellipse cx="323.2895" cy="191.3377" rx="3.0000" ry="3.0000" style="fill: #000000; fill-opacity: 1.00; stroke: none;" id="ezcGraphCircle_23"/><ellipse cx="365.6586" cy="171.0000" rx="3.0000" ry="3.0000" style="fill: #000000; fill-opacity: 1.00; stroke: none;" id="ezcGraphCircle_24"/><path d=" M 333.0487,224.1184 L 380.5151,220.0000" style="fill: none; stroke: #000000; stroke-width: 1; stroke-opacity: 1.00; stroke-linecap: round; stroke-linejoin: round;" id="ezcGraphLine_26"/><ellipse cx="333.0487" cy="224.1184" rx="3.0000" ry="3.0000" style="fill: #000000; fill-opacity: 1.00; stroke: none;" id="ezcGraphCircle_27"/><ellipse cx="380.5151" cy="220.0000" rx="3.0000" ry="3.0000" style="fill: #000000; fill-opacity: 1.00; stroke: none;" id="ezcGraphCircle_28"/><path d=" M 273.5257,323.9009 L 273.5257,364.0000" style="fill: none; stroke: #000000; stroke-width: 1; stroke-opacity: 1.00; stroke-linecap: round; stroke-linejoin: round;" id="ezcGraphLine_30"/><ellipse cx="273.5257" cy="323.9009" rx="3.0000" ry="3.0000" style="fill: #000000; fill-opacity: 1.00; stroke: none;" id="ezcGraphCircle_31"/><ellipse cx="273.5257" cy="364.0000" rx="3.0000" ry="3.0000" style="fill: #000000; fill-opacity: 1.00; stroke: none;" id="ezcGraphCircle_32"/><g id="ezcGraphTextBox_3"><path d=" M 90.5000,42.0000 L 90.5000,0.5000 L 410.0000,0.5000 L 410.0000,42.0000 L 90.5000,42.0000 z " style="fill: #ffffff; fill-opacity: 0.00; stroke: none;" id="ezcGraphPolygon_34"/><text id="ezcGraphTextBox_3_text" x="91.0000" text-length="318.0000px" y="35.0000" style="font-size: 40px; font-family: 'Arial'; fill: #2e3436; fill-opacity: 1.00; stroke: none;">Wireless Vendor</text></g><g id="ezcGraphTextBox_17" style=" cursor: pointer;" onclick="top.location = 'https://bsd-hardware.info/?view=computers&amp;type=notebook&amp;f=net_wireless_vendor&amp;v=Qualcomm+Atheros&amp;p=-1'"><path d=" M 0.6414,188.0500 L 0.6414,154.4500 L 129.3414,154.4500 L 129.3414,188.0500 L 0.6414,188.0500 z " style="fill: #ffffff; fill-opacity: 0.00; stroke: none;" id="ezcGraphPolygon_35"/><text id="ezcGraphTextBox_17_text" x="60.5014" text-length="67.8400px" y="168.5500" style="font-size: 16px; font-family: 'Arial'; fill: #2e3436; fill-opacity: 1.00; stroke: none;">Qualcomm</text><text id="ezcGraphTextBox_17_text" x="1.1414" text-length="127.2000px" y="186.1500" style="font-size: 16px; font-family: 'Arial'; fill: #2e3436; fill-opacity: 1.00; stroke: none;">Atheros (31.6%)</text></g><g id="ezcGraphTextBox_21" style=" cursor: pointer;" onclick="top.location = 'https://bsd-hardware.info/?view=computers&amp;type=notebook&amp;f=net_wireless_vendor&amp;v=Realtek+Semiconductor&amp;p=-1'"><path d=" M 299.7623,129.0500 L 299.7623,95.4500 L 436.9423,95.4500 L 436.9423,129.0500 L 299.7623,129.0500 z " style="fill: #ffffff; fill-opacity: 0.00; stroke: none;" id="ezcGraphPolygon_36"/><text id="ezcGraphTextBox_21_text" x="300.2623" text-length="135.6800px" y="109.5500" style="font-size: 16px; font-family: 'Arial'; fill: #2e3436; fill-opacity: 1.00; stroke: none;">Realtek Semic...</text><text id="ezcGraphTextBox_21_text" x="300.2623" text-length="59.3600px" y="127.1500" style="font-size: 16px; font-family: 'Arial'; fill: #2e3436; fill-opacity: 1.00; stroke: none;">(13.2%)</text></g><g id="ezcGraphTextBox_25" style=" cursor: pointer;" onclick="top.location = 'https://bsd-hardware.info/?view=computers&amp;type=notebook&amp;f=net_wireless_vendor&amp;v=Broadcom&amp;p=-1'"><path d=" M 371.1586,188.0500 L 371.1586,154.4500 L 440.4986,154.4500 L 440.4986,188.0500 L 371.1586,188.0500 z " style="fill: #ffffff; fill-opacity: 0.00; stroke: none;" id="ezcGraphPolygon_37"/><text id="ezcGraphTextBox_25_text" x="371.6586" text-length="67.8400px" y="168.5500" style="font-size: 16px; font-family: 'Arial'; fill: #2e3436; fill-opacity: 1.00; stroke: none;">Broadcom</text><text id="ezcGraphTextBox_25_text" x="371.6586" text-length="59.3600px" y="186.1500" style="font-size: 16px; font-family: 'Arial'; fill: #2e3436; fill-opacity: 1.00; stroke: none;">(10.5%)</text></g><g id="ezcGraphTextBox_29" style=" cursor: pointer;" onclick="top.location = 'https://bsd-hardware.info/?view=computers&amp;type=notebook&amp;f=net_wireless_vendor&amp;v=Dell&amp;p=-1'"><path d=" M 386.0151,229.0000 L 386.0151,211.5000 L 480.7951,211.5000 L 480.7951,229.0000 L 386.0151,229.0000 z " style="fill: #ffffff; fill-opacity: 0.00; stroke: none;" id="ezcGraphPolygon_38"/><text id="ezcGraphTextBox_29_text" x="386.5151" text-length="93.2800px" y="225.6000" style="font-size: 16px; font-family: 'Arial'; fill: #2e3436; fill-opacity: 1.00; stroke: none;">Dell (2.6%)</text></g><g id="ezcGraphTextBox_33" style=" cursor: pointer;" onclick="top.location = 'https://bsd-hardware.info/?view=computers&amp;type=notebook&amp;f=net_wireless_vendor&amp;v=Intel&amp;p=-1'"><path d=" M 279.0257,373.0000 L 279.0257,355.5000 L 390.7657,355.5000 L 390.7657,373.0000 L 279.0257,373.0000 z " style="fill: #ffffff; fill-opacity: 0.00; stroke: none;" id="ezcGraphPolygon_39"/><text id="ezcGraphTextBox_33_text" x="279.5257" text-length="110.2400px" y="369.6000" style="font-size: 16px; font-family: 'Arial'; fill: #2e3436; fill-opacity: 1.00; stroke: none;">Intel (42.1%)</text></g></g></svg>
