<?xml version="1.0"?>
<svg xmlns="http://www.w3.org/2000/svg" width="500" height="420" version="1.0" id="ezcGraph"><defs/><g id="ezcGraphChart" color-rendering="optimizeQuality" shape-rendering="geometricPrecision" text-rendering="optimizeLegibility"><path d=" M 0.0000,420.0000 L 0.0000,0.0000 L 500.0000,0.0000 L 500.0000,420.0000 L 0.0000,420.0000 z " style="fill: #eeeeec; fill-opacity: 1.00; stroke: none;" id="ezcGraphPolygon_1"/><path d=" M 0.0000,42.0000 L 0.0000,0.0000 L 500.0000,0.0000 L 500.0000,42.0000 L 0.0000,42.0000 z " style="fill: #000000; fill-opacity: 0.00; stroke: none;" id="ezcGraphPolygon_2"/><path d=" M 0.0000,420.0000 L 0.0000,42.0000 L 100.0000,42.0000 L 100.0000,420.0000 L 0.0000,420.0000 z " style="fill: #000000; fill-opacity: 0.00; stroke: none;" id="ezcGraphPolygon_4"/><path d=" M 2.0000,58.0000 L 2.0000,44.0000 L 16.0000,44.0000 L 16.0000,58.0000 L 2.0000,58.0000 z " style="fill: #3465a4; fill-opacity: 1.00; stroke: none; cursor: pointer;" id="ezcGraphPolygon_5" onclick="top.location = 'http://127.0.0.1/bsd-hardware.info/index.php?view=computers&amp;type=desktop&amp;f=snd_vendor&amp;v=Intel&amp;p=-1'"/><path d=" M 2.0000,76.0000 L 2.0000,62.0000 L 16.0000,62.0000 L 16.0000,76.0000 L 2.0000,76.0000 z " style="fill: #4e9a06; fill-opacity: 1.00; stroke: none; cursor: pointer;" id="ezcGraphPolygon_7" onclick="top.location = 'http://127.0.0.1/bsd-hardware.info/index.php?view=computers&amp;type=desktop&amp;f=snd_vendor&amp;v=Nvidia&amp;p=-1'"/><path d=" M 2.0000,94.0000 L 2.0000,80.0000 L 16.0000,80.0000 L 16.0000,94.0000 L 2.0000,94.0000 z " style="fill: #cc0000; fill-opacity: 1.00; stroke: none; cursor: pointer;" id="ezcGraphPolygon_9" onclick="top.location = 'http://127.0.0.1/bsd-hardware.info/index.php?view=computers&amp;type=desktop&amp;f=snd_vendor&amp;v=AMD&amp;p=-1'"/><path d=" M 2.0000,112.0000 L 2.0000,98.0000 L 16.0000,98.0000 L 16.0000,112.0000 L 2.0000,112.0000 z " style="fill: #edd400; fill-opacity: 1.00; stroke: none; cursor: pointer;" id="ezcGraphPolygon_11" onclick="top.location = 'http://127.0.0.1/bsd-hardware.info/index.php?view=computers&amp;type=desktop&amp;f=snd_vendor&amp;v=C-Media+Electronics&amp;p=-1'"/><path d=" M 2.0000,130.0000 L 2.0000,116.0000 L 16.0000,116.0000 L 16.0000,130.0000 L 2.0000,130.0000 z " style="fill: #75505b; fill-opacity: 1.00; stroke: none; cursor: pointer;" id="ezcGraphPolygon_13" onclick="top.location = 'http://127.0.0.1/bsd-hardware.info/index.php?view=computers&amp;type=desktop&amp;f=snd_vendor&amp;v=XMOS&amp;p=-1'"/><path d=" M 100.0000,382.2000 L 500.0000,382.2000" style="fill: none; stroke: #2e3436; stroke-width: 1; stroke-opacity: 1.00; stroke-linecap: round; stroke-linejoin: round;" id="ezcGraphLine_15"/><path d=" M 492.0000,378.2000 L 500.0000,382.2000 L 492.0000,386.2000 L 492.0000,378.2000 z " style="fill: #2e3436; fill-opacity: 1.00; stroke: none;" id="ezcGraphPolygon_16"/><path d=" M 193.3333,79.8000 L 193.3333,382.2000" style="fill: none; stroke: #000000; stroke-width: 1; stroke-opacity: 0.00; stroke-linecap: round; stroke-linejoin: round;" id="ezcGraphLine_19"/><path d=" M 193.3333,379.2000 L 193.3333,385.2000" style="fill: none; stroke: #2e3436; stroke-width: 1; stroke-opacity: 1.00; stroke-linecap: round; stroke-linejoin: round;" id="ezcGraphLine_20"/><path d=" M 246.6667,79.8000 L 246.6667,382.2000" style="fill: none; stroke: #000000; stroke-width: 1; stroke-opacity: 0.00; stroke-linecap: round; stroke-linejoin: round;" id="ezcGraphLine_22"/><path d=" M 246.6667,379.2000 L 246.6667,385.2000" style="fill: none; stroke: #2e3436; stroke-width: 1; stroke-opacity: 1.00; stroke-linecap: round; stroke-linejoin: round;" id="ezcGraphLine_23"/><path d=" M 300.0000,79.8000 L 300.0000,382.2000" style="fill: none; stroke: #000000; stroke-width: 1; stroke-opacity: 0.00; stroke-linecap: round; stroke-linejoin: round;" id="ezcGraphLine_25"/><path d=" M 300.0000,379.2000 L 300.0000,385.2000" style="fill: none; stroke: #2e3436; stroke-width: 1; stroke-opacity: 1.00; stroke-linecap: round; stroke-linejoin: round;" id="ezcGraphLine_26"/><path d=" M 353.3333,79.8000 L 353.3333,382.2000" style="fill: none; stroke: #000000; stroke-width: 1; stroke-opacity: 0.00; stroke-linecap: round; stroke-linejoin: round;" id="ezcGraphLine_28"/><path d=" M 353.3333,379.2000 L 353.3333,385.2000" style="fill: none; stroke: #2e3436; stroke-width: 1; stroke-opacity: 1.00; stroke-linecap: round; stroke-linejoin: round;" id="ezcGraphLine_29"/><path d=" M 406.6667,79.8000 L 406.6667,382.2000" style="fill: none; stroke: #000000; stroke-width: 1; stroke-opacity: 0.00; stroke-linecap: round; stroke-linejoin: round;" id="ezcGraphLine_31"/><path d=" M 406.6667,379.2000 L 406.6667,385.2000" style="fill: none; stroke: #2e3436; stroke-width: 1; stroke-opacity: 1.00; stroke-linecap: round; stroke-linejoin: round;" id="ezcGraphLine_32"/><path d=" M 460.0000,79.8000 L 460.0000,382.2000" style="fill: none; stroke: #000000; stroke-width: 1; stroke-opacity: 0.00; stroke-linecap: round; stroke-linejoin: round;" id="ezcGraphLine_34"/><path d=" M 460.0000,379.2000 L 460.0000,385.2000" style="fill: none; stroke: #2e3436; stroke-width: 1; stroke-opacity: 1.00; stroke-linecap: round; stroke-linejoin: round;" id="ezcGraphLine_35"/><path d=" M 140.0000,420.0000 L 140.0000,42.0000" style="fill: none; stroke: #2e3436; stroke-width: 1; stroke-opacity: 1.00; stroke-linecap: round; stroke-linejoin: round;" id="ezcGraphLine_36"/><path d=" M 136.0000,50.0000 L 140.0000,42.0000 L 144.0000,50.0000 L 136.0000,50.0000 z " style="fill: #2e3436; fill-opacity: 1.00; stroke: none;" id="ezcGraphPolygon_37"/><path d=" M 140.0000,231.0000 L 460.0000,231.0000" style="fill: none; stroke: #000000; stroke-width: 1; stroke-opacity: 0.00; stroke-linecap: round; stroke-linejoin: round;" id="ezcGraphLine_40"/><path d=" M 140.0000,231.0000 L 143.0000,231.0000" style="fill: none; stroke: #2e3436; stroke-width: 1; stroke-opacity: 1.00; stroke-linecap: round; stroke-linejoin: round;" id="ezcGraphLine_41"/><path d=" M 140.0000,79.8000 L 460.0000,79.8000" style="fill: none; stroke: #000000; stroke-width: 1; stroke-opacity: 0.00; stroke-linecap: round; stroke-linejoin: round;" id="ezcGraphLine_43"/><path d=" M 140.0000,79.8000 L 143.0000,79.8000" style="fill: none; stroke: #2e3436; stroke-width: 1; stroke-opacity: 1.00; stroke-linecap: round; stroke-linejoin: round;" id="ezcGraphLine_44"/><path d=" M 166.6667,348.0581 L 166.6667,348.0581" style="fill: none; stroke: #3465a4; stroke-width: 1; stroke-opacity: 1.00; stroke-linecap: round; stroke-linejoin: round;" id="ezcGraphLine_46"/><path d=" M 166.6667,348.0581 L 220.0000,79.8000" style="fill: none; stroke: #3465a4; stroke-width: 1; stroke-opacity: 1.00; stroke-linecap: round; stroke-linejoin: round;" id="ezcGraphLine_48"/><path d=" M 220.0000,79.8000 L 273.3333,279.7742" style="fill: none; stroke: #3465a4; stroke-width: 1; stroke-opacity: 1.00; stroke-linecap: round; stroke-linejoin: round;" id="ezcGraphLine_50"/><path d=" M 273.3333,279.7742 L 326.6667,362.6903" style="fill: none; stroke: #3465a4; stroke-width: 1; stroke-opacity: 1.00; stroke-linecap: round; stroke-linejoin: round;" id="ezcGraphLine_52"/><path d=" M 326.6667,362.6903 L 380.0000,372.4452" style="fill: none; stroke: #3465a4; stroke-width: 1; stroke-opacity: 1.00; stroke-linecap: round; stroke-linejoin: round;" id="ezcGraphLine_54"/><path d=" M 380.0000,372.4452 L 433.3333,260.2645" style="fill: none; stroke: #3465a4; stroke-width: 1; stroke-opacity: 1.00; stroke-linecap: round; stroke-linejoin: round;" id="ezcGraphLine_56"/><path d=" M 166.6667,362.6903 L 166.6667,362.6903" style="fill: none; stroke: #4e9a06; stroke-width: 1; stroke-opacity: 1.00; stroke-linecap: round; stroke-linejoin: round;" id="ezcGraphLine_58"/><path d=" M 166.6667,362.6903 L 220.0000,206.6129" style="fill: none; stroke: #4e9a06; stroke-width: 1; stroke-opacity: 1.00; stroke-linecap: round; stroke-linejoin: round;" id="ezcGraphLine_60"/><path d=" M 220.0000,206.6129 L 273.3333,333.4258" style="fill: none; stroke: #4e9a06; stroke-width: 1; stroke-opacity: 1.00; stroke-linecap: round; stroke-linejoin: round;" id="ezcGraphLine_62"/><path d=" M 273.3333,333.4258 L 326.6667,372.4452" style="fill: none; stroke: #4e9a06; stroke-width: 1; stroke-opacity: 1.00; stroke-linecap: round; stroke-linejoin: round;" id="ezcGraphLine_64"/><path d=" M 326.6667,372.4452 L 380.0000,367.5677" style="fill: none; stroke: #4e9a06; stroke-width: 1; stroke-opacity: 1.00; stroke-linecap: round; stroke-linejoin: round;" id="ezcGraphLine_66"/><path d=" M 380.0000,367.5677 L 433.3333,289.5290" style="fill: none; stroke: #4e9a06; stroke-width: 1; stroke-opacity: 1.00; stroke-linecap: round; stroke-linejoin: round;" id="ezcGraphLine_68"/><path d=" M 166.6667,367.5677 L 166.6667,367.5677" style="fill: none; stroke: #cc0000; stroke-width: 1; stroke-opacity: 1.00; stroke-linecap: round; stroke-linejoin: round;" id="ezcGraphLine_70"/><path d=" M 166.6667,367.5677 L 220.0000,240.7548" style="fill: none; stroke: #cc0000; stroke-width: 1; stroke-opacity: 1.00; stroke-linecap: round; stroke-linejoin: round;" id="ezcGraphLine_72"/><path d=" M 220.0000,240.7548 L 273.3333,318.7935" style="fill: none; stroke: #cc0000; stroke-width: 1; stroke-opacity: 1.00; stroke-linecap: round; stroke-linejoin: round;" id="ezcGraphLine_74"/><path d=" M 273.3333,318.7935 L 380.0000,372.4452" style="fill: none; stroke: #cc0000; stroke-width: 1; stroke-opacity: 1.00; stroke-linecap: round; stroke-linejoin: round;" id="ezcGraphLine_76"/><path d=" M 380.0000,372.4452 L 433.3333,323.6710" style="fill: none; stroke: #cc0000; stroke-width: 1; stroke-opacity: 1.00; stroke-linecap: round; stroke-linejoin: round;" id="ezcGraphLine_78"/><path d=" M 166.6667,372.4452 L 166.6667,372.4452" style="fill: none; stroke: #edd400; stroke-width: 1; stroke-opacity: 1.00; stroke-linecap: round; stroke-linejoin: round;" id="ezcGraphLine_80"/><path d=" M 166.6667,372.4452 L 220.0000,357.8129" style="fill: none; stroke: #edd400; stroke-width: 1; stroke-opacity: 1.00; stroke-linecap: round; stroke-linejoin: round;" id="ezcGraphLine_82"/><path d=" M 220.0000,357.8129 L 273.3333,377.3226" style="fill: none; stroke: #edd400; stroke-width: 1; stroke-opacity: 1.00; stroke-linecap: round; stroke-linejoin: round;" id="ezcGraphLine_84"/><path d=" M 273.3333,377.3226 L 433.3333,372.4452" style="fill: none; stroke: #edd400; stroke-width: 1; stroke-opacity: 1.00; stroke-linecap: round; stroke-linejoin: round;" id="ezcGraphLine_86"/><path d=" M 433.3333,377.3226 L 433.3333,377.3226" style="fill: none; stroke: #75505b; stroke-width: 1; stroke-opacity: 1.00; stroke-linecap: round; stroke-linejoin: round;" id="ezcGraphLine_88"/><path d=" M 163.6667,351.0581 L 163.6667,345.0581 L 169.6667,345.0581 L 169.6667,351.0581 L 163.6667,351.0581 z " style="fill: #3465a4; fill-opacity: 1.00; stroke: none; cursor: pointer;" id="ezcGraphPolygon_90" onclick="top.location = 'http://127.0.0.1/bsd-hardware.info/index.php?view=computers&amp;type=desktop&amp;f=snd_vendor&amp;v=Intel&amp;p=-1&amp;p=85'"/><path d=" M 217.0000,82.8000 L 217.0000,76.8000 L 223.0000,76.8000 L 223.0000,82.8000 L 217.0000,82.8000 z " style="fill: #3465a4; fill-opacity: 1.00; stroke: none; cursor: pointer;" id="ezcGraphPolygon_91" onclick="top.location = 'http://127.0.0.1/bsd-hardware.info/index.php?view=computers&amp;type=desktop&amp;f=snd_vendor&amp;v=Intel&amp;p=-1&amp;p=86'"/><path d=" M 270.3333,282.7742 L 270.3333,276.7742 L 276.3333,276.7742 L 276.3333,282.7742 L 270.3333,282.7742 z " style="fill: #3465a4; fill-opacity: 1.00; stroke: none; cursor: pointer;" id="ezcGraphPolygon_92" onclick="top.location = 'http://127.0.0.1/bsd-hardware.info/index.php?view=computers&amp;type=desktop&amp;f=snd_vendor&amp;v=Intel&amp;p=-1&amp;p=87'"/><path d=" M 323.6667,365.6903 L 323.6667,359.6903 L 329.6667,359.6903 L 329.6667,365.6903 L 323.6667,365.6903 z " style="fill: #3465a4; fill-opacity: 1.00; stroke: none; cursor: pointer;" id="ezcGraphPolygon_93" onclick="top.location = 'http://127.0.0.1/bsd-hardware.info/index.php?view=computers&amp;type=desktop&amp;f=snd_vendor&amp;v=Intel&amp;p=-1&amp;p=88'"/><path d=" M 377.0000,375.4452 L 377.0000,369.4452 L 383.0000,369.4452 L 383.0000,375.4452 L 377.0000,375.4452 z " style="fill: #3465a4; fill-opacity: 1.00; stroke: none; cursor: pointer;" id="ezcGraphPolygon_94" onclick="top.location = 'http://127.0.0.1/bsd-hardware.info/index.php?view=computers&amp;type=desktop&amp;f=snd_vendor&amp;v=Intel&amp;p=-1&amp;p=89'"/><path d=" M 430.3333,263.2645 L 430.3333,257.2645 L 436.3333,257.2645 L 436.3333,263.2645 L 430.3333,263.2645 z " style="fill: #3465a4; fill-opacity: 1.00; stroke: none; cursor: pointer;" id="ezcGraphPolygon_95" onclick="top.location = 'http://127.0.0.1/bsd-hardware.info/index.php?view=computers&amp;type=desktop&amp;f=snd_vendor&amp;v=Intel&amp;p=-1&amp;p=90'"/><path d=" M 163.6667,365.6903 L 163.6667,359.6903 L 169.6667,359.6903 L 169.6667,365.6903 L 163.6667,365.6903 z " style="fill: #4e9a06; fill-opacity: 1.00; stroke: none; cursor: pointer;" id="ezcGraphPolygon_96" onclick="top.location = 'http://127.0.0.1/bsd-hardware.info/index.php?view=computers&amp;type=desktop&amp;f=snd_vendor&amp;v=Nvidia&amp;p=-1&amp;p=85'"/><path d=" M 217.0000,209.6129 L 217.0000,203.6129 L 223.0000,203.6129 L 223.0000,209.6129 L 217.0000,209.6129 z " style="fill: #4e9a06; fill-opacity: 1.00; stroke: none; cursor: pointer;" id="ezcGraphPolygon_97" onclick="top.location = 'http://127.0.0.1/bsd-hardware.info/index.php?view=computers&amp;type=desktop&amp;f=snd_vendor&amp;v=Nvidia&amp;p=-1&amp;p=86'"/><path d=" M 270.3333,336.4258 L 270.3333,330.4258 L 276.3333,330.4258 L 276.3333,336.4258 L 270.3333,336.4258 z " style="fill: #4e9a06; fill-opacity: 1.00; stroke: none; cursor: pointer;" id="ezcGraphPolygon_98" onclick="top.location = 'http://127.0.0.1/bsd-hardware.info/index.php?view=computers&amp;type=desktop&amp;f=snd_vendor&amp;v=Nvidia&amp;p=-1&amp;p=87'"/><path d=" M 323.6667,375.4452 L 323.6667,369.4452 L 329.6667,369.4452 L 329.6667,375.4452 L 323.6667,375.4452 z " style="fill: #4e9a06; fill-opacity: 1.00; stroke: none; cursor: pointer;" id="ezcGraphPolygon_99" onclick="top.location = 'http://127.0.0.1/bsd-hardware.info/index.php?view=computers&amp;type=desktop&amp;f=snd_vendor&amp;v=Nvidia&amp;p=-1&amp;p=88'"/><path d=" M 377.0000,370.5677 L 377.0000,364.5677 L 383.0000,364.5677 L 383.0000,370.5677 L 377.0000,370.5677 z " style="fill: #4e9a06; fill-opacity: 1.00; stroke: none; cursor: pointer;" id="ezcGraphPolygon_100" onclick="top.location = 'http://127.0.0.1/bsd-hardware.info/index.php?view=computers&amp;type=desktop&amp;f=snd_vendor&amp;v=Nvidia&amp;p=-1&amp;p=89'"/><path d=" M 430.3333,292.5290 L 430.3333,286.5290 L 436.3333,286.5290 L 436.3333,292.5290 L 430.3333,292.5290 z " style="fill: #4e9a06; fill-opacity: 1.00; stroke: none; cursor: pointer;" id="ezcGraphPolygon_101" onclick="top.location = 'http://127.0.0.1/bsd-hardware.info/index.php?view=computers&amp;type=desktop&amp;f=snd_vendor&amp;v=Nvidia&amp;p=-1&amp;p=90'"/><path d=" M 163.6667,370.5677 L 163.6667,364.5677 L 169.6667,364.5677 L 169.6667,370.5677 L 163.6667,370.5677 z " style="fill: #cc0000; fill-opacity: 1.00; stroke: none; cursor: pointer;" id="ezcGraphPolygon_102" onclick="top.location = 'http://127.0.0.1/bsd-hardware.info/index.php?view=computers&amp;type=desktop&amp;f=snd_vendor&amp;v=AMD&amp;p=-1&amp;p=85'"/><path d=" M 217.0000,243.7548 L 217.0000,237.7548 L 223.0000,237.7548 L 223.0000,243.7548 L 217.0000,243.7548 z " style="fill: #cc0000; fill-opacity: 1.00; stroke: none; cursor: pointer;" id="ezcGraphPolygon_103" onclick="top.location = 'http://127.0.0.1/bsd-hardware.info/index.php?view=computers&amp;type=desktop&amp;f=snd_vendor&amp;v=AMD&amp;p=-1&amp;p=86'"/><path d=" M 270.3333,321.7935 L 270.3333,315.7935 L 276.3333,315.7935 L 276.3333,321.7935 L 270.3333,321.7935 z " style="fill: #cc0000; fill-opacity: 1.00; stroke: none; cursor: pointer;" id="ezcGraphPolygon_104" onclick="top.location = 'http://127.0.0.1/bsd-hardware.info/index.php?view=computers&amp;type=desktop&amp;f=snd_vendor&amp;v=AMD&amp;p=-1&amp;p=87'"/><path d=" M 377.0000,375.4452 L 377.0000,369.4452 L 383.0000,369.4452 L 383.0000,375.4452 L 377.0000,375.4452 z " style="fill: #cc0000; fill-opacity: 1.00; stroke: none; cursor: pointer;" id="ezcGraphPolygon_105" onclick="top.location = 'http://127.0.0.1/bsd-hardware.info/index.php?view=computers&amp;type=desktop&amp;f=snd_vendor&amp;v=AMD&amp;p=-1&amp;p=89'"/><path d=" M 430.3333,326.6710 L 430.3333,320.6710 L 436.3333,320.6710 L 436.3333,326.6710 L 430.3333,326.6710 z " style="fill: #cc0000; fill-opacity: 1.00; stroke: none; cursor: pointer;" id="ezcGraphPolygon_106" onclick="top.location = 'http://127.0.0.1/bsd-hardware.info/index.php?view=computers&amp;type=desktop&amp;f=snd_vendor&amp;v=AMD&amp;p=-1&amp;p=90'"/><path d=" M 163.6667,375.4452 L 163.6667,369.4452 L 169.6667,369.4452 L 169.6667,375.4452 L 163.6667,375.4452 z " style="fill: #edd400; fill-opacity: 1.00; stroke: none; cursor: pointer;" id="ezcGraphPolygon_107" onclick="top.location = 'http://127.0.0.1/bsd-hardware.info/index.php?view=computers&amp;type=desktop&amp;f=snd_vendor&amp;v=C-Media+Electronics&amp;p=-1&amp;p=85'"/><path d=" M 217.0000,360.8129 L 217.0000,354.8129 L 223.0000,354.8129 L 223.0000,360.8129 L 217.0000,360.8129 z " style="fill: #edd400; fill-opacity: 1.00; stroke: none; cursor: pointer;" id="ezcGraphPolygon_108" onclick="top.location = 'http://127.0.0.1/bsd-hardware.info/index.php?view=computers&amp;type=desktop&amp;f=snd_vendor&amp;v=C-Media+Electronics&amp;p=-1&amp;p=86'"/><path d=" M 270.3333,380.3226 L 270.3333,374.3226 L 276.3333,374.3226 L 276.3333,380.3226 L 270.3333,380.3226 z " style="fill: #edd400; fill-opacity: 1.00; stroke: none; cursor: pointer;" id="ezcGraphPolygon_109" onclick="top.location = 'http://127.0.0.1/bsd-hardware.info/index.php?view=computers&amp;type=desktop&amp;f=snd_vendor&amp;v=C-Media+Electronics&amp;p=-1&amp;p=87'"/><path d=" M 430.3333,375.4452 L 430.3333,369.4452 L 436.3333,369.4452 L 436.3333,375.4452 L 430.3333,375.4452 z " style="fill: #edd400; fill-opacity: 1.00; stroke: none; cursor: pointer;" id="ezcGraphPolygon_110" onclick="top.location = 'http://127.0.0.1/bsd-hardware.info/index.php?view=computers&amp;type=desktop&amp;f=snd_vendor&amp;v=C-Media+Electronics&amp;p=-1&amp;p=90'"/><path d=" M 430.3333,380.3226 L 430.3333,374.3226 L 436.3333,374.3226 L 436.3333,380.3226 L 430.3333,380.3226 z " style="fill: #75505b; fill-opacity: 1.00; stroke: none; cursor: pointer;" id="ezcGraphPolygon_111" onclick="top.location = 'http://127.0.0.1/bsd-hardware.info/index.php?view=computers&amp;type=desktop&amp;f=snd_vendor&amp;v=XMOS&amp;p=-1&amp;p=90'"/><g id="ezcGraphTextBox_3"><path d=" M 122.3000,42.0000 L 122.3000,0.5000 L 378.2000,0.5000 L 378.2000,42.0000 L 122.3000,42.0000 z " style="fill: #ffffff; fill-opacity: 0.00; stroke: none;" id="ezcGraphPolygon_112"/><text id="ezcGraphTextBox_3_text" x="122.8000" text-length="254.4000px" y="35.0000" style="font-size: 40px; font-family: 'Arial'; fill: #2e3436; fill-opacity: 1.00; stroke: none;">Sound Vendor</text></g><g id="ezcGraphTextBox_6" style=" cursor: pointer;" onclick="top.location = 'http://127.0.0.1/bsd-hardware.info/index.php?view=computers&amp;type=desktop&amp;f=snd_vendor&amp;v=Intel&amp;p=-1'"><path d=" M 16.5000,56.5000 L 16.5000,46.0000 L 41.8500,46.0000 L 41.8500,56.5000 L 16.5000,56.5000 z " style="fill: #ffffff; fill-opacity: 0.00; stroke: none;" id="ezcGraphPolygon_113"/><text id="ezcGraphTextBox_6_text" x="17.0000" text-length="23.8500px" y="54.1500" style="font-size: 9px; font-family: 'Arial'; fill: #2e3436; fill-opacity: 1.00; stroke: none;">Intel</text></g><g id="ezcGraphTextBox_8" style=" cursor: pointer;" onclick="top.location = 'http://127.0.0.1/bsd-hardware.info/index.php?view=computers&amp;type=desktop&amp;f=snd_vendor&amp;v=Nvidia&amp;p=-1'"><path d=" M 16.5000,74.5000 L 16.5000,64.0000 L 46.6200,64.0000 L 46.6200,74.5000 L 16.5000,74.5000 z " style="fill: #ffffff; fill-opacity: 0.00; stroke: none;" id="ezcGraphPolygon_114"/><text id="ezcGraphTextBox_8_text" x="17.0000" text-length="28.6200px" y="72.1500" style="font-size: 9px; font-family: 'Arial'; fill: #2e3436; fill-opacity: 1.00; stroke: none;">Nvidia</text></g><g id="ezcGraphTextBox_10" style=" cursor: pointer;" onclick="top.location = 'http://127.0.0.1/bsd-hardware.info/index.php?view=computers&amp;type=desktop&amp;f=snd_vendor&amp;v=AMD&amp;p=-1'"><path d=" M 16.5000,92.5000 L 16.5000,82.0000 L 32.3100,82.0000 L 32.3100,92.5000 L 16.5000,92.5000 z " style="fill: #ffffff; fill-opacity: 0.00; stroke: none;" id="ezcGraphPolygon_115"/><text id="ezcGraphTextBox_10_text" x="17.0000" text-length="14.3100px" y="90.1500" style="font-size: 9px; font-family: 'Arial'; fill: #2e3436; fill-opacity: 1.00; stroke: none;">AMD</text></g><g id="ezcGraphTextBox_12" style=" cursor: pointer;" onclick="top.location = 'http://127.0.0.1/bsd-hardware.info/index.php?view=computers&amp;type=desktop&amp;f=snd_vendor&amp;v=C-Media+Electronics&amp;p=-1'"><path d=" M 16.5000,110.5000 L 16.5000,100.0000 L 94.3200,100.0000 L 94.3200,110.5000 L 16.5000,110.5000 z " style="fill: #ffffff; fill-opacity: 0.00; stroke: none;" id="ezcGraphPolygon_116"/><text id="ezcGraphTextBox_12_text" x="17.0000" text-length="76.3200px" y="108.1500" style="font-size: 9px; font-family: 'Arial'; fill: #2e3436; fill-opacity: 1.00; stroke: none;">C-Media Elect...</text></g><g id="ezcGraphTextBox_14" style=" cursor: pointer;" onclick="top.location = 'http://127.0.0.1/bsd-hardware.info/index.php?view=computers&amp;type=desktop&amp;f=snd_vendor&amp;v=XMOS&amp;p=-1'"><path d=" M 16.5000,128.5000 L 16.5000,118.0000 L 37.0800,118.0000 L 37.0800,128.5000 L 16.5000,128.5000 z " style="fill: #ffffff; fill-opacity: 0.00; stroke: none;" id="ezcGraphPolygon_117"/><text id="ezcGraphTextBox_14_text" x="17.0000" text-length="19.0800px" y="126.1500" style="font-size: 9px; font-family: 'Arial'; fill: #2e3436; fill-opacity: 1.00; stroke: none;">XMOS</text></g><g id="ezcGraphTextBox_17" transform="rotate( 0.00 493.0000 375.2000 )"><path d=" M 460.4000,381.2000 L 460.4000,365.7000 L 499.0000,365.7000 L 499.0000,381.2000 L 460.4000,381.2000 z " style="fill: #ffffff; fill-opacity: 0.00; stroke: none;" id="ezcGraphPolygon_118"/><text id="ezcGraphTextBox_17_text" x="460.9000" text-length="37.1000px" y="378.1000" style="font-size: 14px; font-family: 'Arial'; fill: #2e3436; fill-opacity: 1.00; stroke: none;">Time </text></g><g id="ezcGraphTextBox_18"><path d=" M 148.8067,413.3000 L 148.8067,383.7000 L 185.0267,383.7000 L 185.0267,413.3000 L 148.8067,413.3000 z " style="fill: #ffffff; fill-opacity: 0.00; stroke: none;" id="ezcGraphPolygon_119"/><text id="ezcGraphTextBox_18_text" x="155.5367" text-length="22.2600px" y="396.1000" style="font-size: 14px; font-family: 'Arial'; fill: #2e3436; fill-opacity: 1.00; stroke: none;">Jan</text><text id="ezcGraphTextBox_18_text" x="149.3067" text-length="34.7200px" y="411.5000" style="font-size: 14px; font-family: 'Arial'; fill: #2e3436; fill-opacity: 1.00; stroke: none;">2021</text></g><g id="ezcGraphTextBox_21"><path d=" M 202.1400,413.3000 L 202.1400,383.7000 L 238.3600,383.7000 L 238.3600,413.3000 L 202.1400,413.3000 z " style="fill: #ffffff; fill-opacity: 0.00; stroke: none;" id="ezcGraphPolygon_120"/><text id="ezcGraphTextBox_21_text" x="208.8700" text-length="22.2600px" y="396.1000" style="font-size: 14px; font-family: 'Arial'; fill: #2e3436; fill-opacity: 1.00; stroke: none;">Feb</text><text id="ezcGraphTextBox_21_text" x="202.6400" text-length="34.7200px" y="411.5000" style="font-size: 14px; font-family: 'Arial'; fill: #2e3436; fill-opacity: 1.00; stroke: none;">2021</text></g><g id="ezcGraphTextBox_24"><path d=" M 255.4733,413.3000 L 255.4733,383.7000 L 291.6933,383.7000 L 291.6933,413.3000 L 255.4733,413.3000 z " style="fill: #ffffff; fill-opacity: 0.00; stroke: none;" id="ezcGraphPolygon_121"/><text id="ezcGraphTextBox_24_text" x="262.2033" text-length="22.2600px" y="396.1000" style="font-size: 14px; font-family: 'Arial'; fill: #2e3436; fill-opacity: 1.00; stroke: none;">Mar</text><text id="ezcGraphTextBox_24_text" x="255.9733" text-length="34.7200px" y="411.5000" style="font-size: 14px; font-family: 'Arial'; fill: #2e3436; fill-opacity: 1.00; stroke: none;">2021</text></g><g id="ezcGraphTextBox_27"><path d=" M 308.8067,413.3000 L 308.8067,383.7000 L 345.0267,383.7000 L 345.0267,413.3000 L 308.8067,413.3000 z " style="fill: #ffffff; fill-opacity: 0.00; stroke: none;" id="ezcGraphPolygon_122"/><text id="ezcGraphTextBox_27_text" x="315.5367" text-length="22.2600px" y="396.1000" style="font-size: 14px; font-family: 'Arial'; fill: #2e3436; fill-opacity: 1.00; stroke: none;">Apr</text><text id="ezcGraphTextBox_27_text" x="309.3067" text-length="34.7200px" y="411.5000" style="font-size: 14px; font-family: 'Arial'; fill: #2e3436; fill-opacity: 1.00; stroke: none;">2021</text></g><g id="ezcGraphTextBox_30"><path d=" M 362.1400,413.3000 L 362.1400,383.7000 L 398.3600,383.7000 L 398.3600,413.3000 L 362.1400,413.3000 z " style="fill: #ffffff; fill-opacity: 0.00; stroke: none;" id="ezcGraphPolygon_123"/><text id="ezcGraphTextBox_30_text" x="368.8700" text-length="22.2600px" y="396.1000" style="font-size: 14px; font-family: 'Arial'; fill: #2e3436; fill-opacity: 1.00; stroke: none;">May</text><text id="ezcGraphTextBox_30_text" x="362.6400" text-length="34.7200px" y="411.5000" style="font-size: 14px; font-family: 'Arial'; fill: #2e3436; fill-opacity: 1.00; stroke: none;">2021</text></g><g id="ezcGraphTextBox_33"><path d=" M 415.4733,413.3000 L 415.4733,383.7000 L 451.6933,383.7000 L 451.6933,413.3000 L 415.4733,413.3000 z " style="fill: #ffffff; fill-opacity: 0.00; stroke: none;" id="ezcGraphPolygon_124"/><text id="ezcGraphTextBox_33_text" x="422.2033" text-length="22.2600px" y="396.1000" style="font-size: 14px; font-family: 'Arial'; fill: #2e3436; fill-opacity: 1.00; stroke: none;">Jun</text><text id="ezcGraphTextBox_33_text" x="415.9733" text-length="34.7200px" y="411.5000" style="font-size: 14px; font-family: 'Arial'; fill: #2e3436; fill-opacity: 1.00; stroke: none;">2021</text></g><g id="ezcGraphTextBox_38" transform="rotate( 0.00 147.0000 49.0000 )"><path d=" M 141.5000,59.0000 L 141.5000,43.5000 L 335.9200,43.5000 L 335.9200,59.0000 L 141.5000,59.0000 z " style="fill: #ffffff; fill-opacity: 0.00; stroke: none;" id="ezcGraphPolygon_125"/><text id="ezcGraphTextBox_38_text" x="142.0000" text-length="192.9200px" y="55.9000" style="font-size: 14px; font-family: 'Arial'; fill: #2e3436; fill-opacity: 1.00; stroke: none;">Desktops by "Sound Vendor"</text></g><g id="ezcGraphTextBox_39"><path d=" M 128.8200,381.2000 L 128.8200,365.7000 L 139.0000,365.7000 L 139.0000,381.2000 L 128.8200,381.2000 z " style="fill: #ffffff; fill-opacity: 0.00; stroke: none;" id="ezcGraphPolygon_126"/><text id="ezcGraphTextBox_39_text" x="129.3200" text-length="8.6800px" y="378.1000" style="font-size: 14px; font-family: 'Arial'; fill: #2e3436; fill-opacity: 1.00; stroke: none;">0</text></g><g id="ezcGraphTextBox_42"><path d=" M 120.1400,230.0000 L 120.1400,214.5000 L 139.0000,214.5000 L 139.0000,230.0000 L 120.1400,230.0000 z " style="fill: #ffffff; fill-opacity: 0.00; stroke: none;" id="ezcGraphPolygon_127"/><text id="ezcGraphTextBox_42_text" x="120.6400" text-length="17.3600px" y="226.9000" style="font-size: 14px; font-family: 'Arial'; fill: #2e3436; fill-opacity: 1.00; stroke: none;">31</text></g><g id="ezcGraphTextBox_45"><path d=" M 120.1400,96.8000 L 120.1400,81.3000 L 139.0000,81.3000 L 139.0000,96.8000 L 120.1400,96.8000 z " style="fill: #ffffff; fill-opacity: 0.00; stroke: none;" id="ezcGraphPolygon_128"/><text id="ezcGraphTextBox_45_text" x="120.6400" text-length="17.3600px" y="93.7000" style="font-size: 14px; font-family: 'Arial'; fill: #2e3436; fill-opacity: 1.00; stroke: none;">62</text></g><g id="ezcGraphTextBox_47"><path d=" M 163.0667,343.0581 L 163.0667,331.5581 L 170.7667,331.5581 L 170.7667,343.0581 L 163.0667,343.0581 z " style="fill: #ffffff; fill-opacity: 0.00; stroke: none;" id="ezcGraphPolygon_129"/><text id="ezcGraphTextBox_47_text" x="163.5667" text-length="6.2000px" y="340.5581" style="font-size: 10px; font-family: 'Arial'; fill: #2e3436; fill-opacity: 1.00; stroke: none;">7</text></g><g id="ezcGraphTextBox_49"><path d=" M 213.3000,74.8000 L 213.3000,63.3000 L 227.2000,63.3000 L 227.2000,74.8000 L 213.3000,74.8000 z " style="fill: #ffffff; fill-opacity: 0.00; stroke: none;" id="ezcGraphPolygon_130"/><text id="ezcGraphTextBox_49_text" x="213.8000" text-length="12.4000px" y="72.3000" style="font-size: 10px; font-family: 'Arial'; fill: #2e3436; fill-opacity: 1.00; stroke: none;">62</text></g><g id="ezcGraphTextBox_51"><path d=" M 266.6333,274.7742 L 266.6333,263.2742 L 280.5333,263.2742 L 280.5333,274.7742 L 266.6333,274.7742 z " style="fill: #ffffff; fill-opacity: 0.00; stroke: none;" id="ezcGraphPolygon_131"/><text id="ezcGraphTextBox_51_text" x="267.1333" text-length="12.4000px" y="272.2742" style="font-size: 10px; font-family: 'Arial'; fill: #2e3436; fill-opacity: 1.00; stroke: none;">21</text></g><g id="ezcGraphTextBox_53"><path d=" M 323.0667,357.6903 L 323.0667,346.1903 L 330.7667,346.1903 L 330.7667,357.6903 L 323.0667,357.6903 z " style="fill: #ffffff; fill-opacity: 0.00; stroke: none;" id="ezcGraphPolygon_132"/><text id="ezcGraphTextBox_53_text" x="323.5667" text-length="6.2000px" y="355.1903" style="font-size: 10px; font-family: 'Arial'; fill: #2e3436; fill-opacity: 1.00; stroke: none;">4</text></g><g id="ezcGraphTextBox_55"><path d=" M 376.4000,367.4452 L 376.4000,355.9452 L 384.1000,355.9452 L 384.1000,367.4452 L 376.4000,367.4452 z " style="fill: #ffffff; fill-opacity: 0.00; stroke: none;" id="ezcGraphPolygon_133"/><text id="ezcGraphTextBox_55_text" x="376.9000" text-length="6.2000px" y="364.9452" style="font-size: 10px; font-family: 'Arial'; fill: #2e3436; fill-opacity: 1.00; stroke: none;">2</text></g><g id="ezcGraphTextBox_57"><path d=" M 426.6333,255.2645 L 426.6333,243.7645 L 440.5333,243.7645 L 440.5333,255.2645 L 426.6333,255.2645 z " style="fill: #ffffff; fill-opacity: 0.00; stroke: none;" id="ezcGraphPolygon_134"/><text id="ezcGraphTextBox_57_text" x="427.1333" text-length="12.4000px" y="252.7645" style="font-size: 10px; font-family: 'Arial'; fill: #2e3436; fill-opacity: 1.00; stroke: none;">25</text></g><g id="ezcGraphTextBox_59"><path d=" M 163.0667,357.6903 L 163.0667,346.1903 L 170.7667,346.1903 L 170.7667,357.6903 L 163.0667,357.6903 z " style="fill: #ffffff; fill-opacity: 0.00; stroke: none;" id="ezcGraphPolygon_135"/><text id="ezcGraphTextBox_59_text" x="163.5667" text-length="6.2000px" y="355.1903" style="font-size: 10px; font-family: 'Arial'; fill: #2e3436; fill-opacity: 1.00; stroke: none;">4</text></g><g id="ezcGraphTextBox_61"><path d=" M 213.3000,201.6129 L 213.3000,190.1129 L 227.2000,190.1129 L 227.2000,201.6129 L 213.3000,201.6129 z " style="fill: #ffffff; fill-opacity: 0.00; stroke: none;" id="ezcGraphPolygon_136"/><text id="ezcGraphTextBox_61_text" x="213.8000" text-length="12.4000px" y="199.1129" style="font-size: 10px; font-family: 'Arial'; fill: #2e3436; fill-opacity: 1.00; stroke: none;">36</text></g><g id="ezcGraphTextBox_63"><path d=" M 266.6333,328.4258 L 266.6333,316.9258 L 280.5333,316.9258 L 280.5333,328.4258 L 266.6333,328.4258 z " style="fill: #ffffff; fill-opacity: 0.00; stroke: none;" id="ezcGraphPolygon_137"/><text id="ezcGraphTextBox_63_text" x="267.1333" text-length="12.4000px" y="325.9258" style="font-size: 10px; font-family: 'Arial'; fill: #2e3436; fill-opacity: 1.00; stroke: none;">10</text></g><g id="ezcGraphTextBox_65"><path d=" M 323.0667,367.4452 L 323.0667,355.9452 L 330.7667,355.9452 L 330.7667,367.4452 L 323.0667,367.4452 z " style="fill: #ffffff; fill-opacity: 0.00; stroke: none;" id="ezcGraphPolygon_138"/><text id="ezcGraphTextBox_65_text" x="323.5667" text-length="6.2000px" y="364.9452" style="font-size: 10px; font-family: 'Arial'; fill: #2e3436; fill-opacity: 1.00; stroke: none;">2</text></g><g id="ezcGraphTextBox_67"><path d=" M 376.4000,362.5677 L 376.4000,351.0677 L 384.1000,351.0677 L 384.1000,362.5677 L 376.4000,362.5677 z " style="fill: #ffffff; fill-opacity: 0.00; stroke: none;" id="ezcGraphPolygon_139"/><text id="ezcGraphTextBox_67_text" x="376.9000" text-length="6.2000px" y="360.0677" style="font-size: 10px; font-family: 'Arial'; fill: #2e3436; fill-opacity: 1.00; stroke: none;">3</text></g><g id="ezcGraphTextBox_69"><path d=" M 426.6333,284.5290 L 426.6333,273.0290 L 440.5333,273.0290 L 440.5333,284.5290 L 426.6333,284.5290 z " style="fill: #ffffff; fill-opacity: 0.00; stroke: none;" id="ezcGraphPolygon_140"/><text id="ezcGraphTextBox_69_text" x="427.1333" text-length="12.4000px" y="282.0290" style="font-size: 10px; font-family: 'Arial'; fill: #2e3436; fill-opacity: 1.00; stroke: none;">19</text></g><g id="ezcGraphTextBox_71"><path d=" M 163.0667,362.5677 L 163.0667,351.0677 L 170.7667,351.0677 L 170.7667,362.5677 L 163.0667,362.5677 z " style="fill: #ffffff; fill-opacity: 0.00; stroke: none;" id="ezcGraphPolygon_141"/><text id="ezcGraphTextBox_71_text" x="163.5667" text-length="6.2000px" y="360.0677" style="font-size: 10px; font-family: 'Arial'; fill: #2e3436; fill-opacity: 1.00; stroke: none;">3</text></g><g id="ezcGraphTextBox_73"><path d=" M 213.3000,235.7548 L 213.3000,224.2548 L 227.2000,224.2548 L 227.2000,235.7548 L 213.3000,235.7548 z " style="fill: #ffffff; fill-opacity: 0.00; stroke: none;" id="ezcGraphPolygon_142"/><text id="ezcGraphTextBox_73_text" x="213.8000" text-length="12.4000px" y="233.2548" style="font-size: 10px; font-family: 'Arial'; fill: #2e3436; fill-opacity: 1.00; stroke: none;">29</text></g><g id="ezcGraphTextBox_75"><path d=" M 266.6333,313.7935 L 266.6333,302.2935 L 280.5333,302.2935 L 280.5333,313.7935 L 266.6333,313.7935 z " style="fill: #ffffff; fill-opacity: 0.00; stroke: none;" id="ezcGraphPolygon_143"/><text id="ezcGraphTextBox_75_text" x="267.1333" text-length="12.4000px" y="311.2935" style="font-size: 10px; font-family: 'Arial'; fill: #2e3436; fill-opacity: 1.00; stroke: none;">13</text></g><g id="ezcGraphTextBox_77"><path d=" M 376.4000,367.4452 L 376.4000,355.9452 L 384.1000,355.9452 L 384.1000,367.4452 L 376.4000,367.4452 z " style="fill: #ffffff; fill-opacity: 0.00; stroke: none;" id="ezcGraphPolygon_144"/><text id="ezcGraphTextBox_77_text" x="376.9000" text-length="6.2000px" y="364.9452" style="font-size: 10px; font-family: 'Arial'; fill: #2e3436; fill-opacity: 1.00; stroke: none;">2</text></g><g id="ezcGraphTextBox_79"><path d=" M 426.6333,318.6710 L 426.6333,307.1710 L 440.5333,307.1710 L 440.5333,318.6710 L 426.6333,318.6710 z " style="fill: #ffffff; fill-opacity: 0.00; stroke: none;" id="ezcGraphPolygon_145"/><text id="ezcGraphTextBox_79_text" x="427.1333" text-length="12.4000px" y="316.1710" style="font-size: 10px; font-family: 'Arial'; fill: #2e3436; fill-opacity: 1.00; stroke: none;">12</text></g><g id="ezcGraphTextBox_81"><path d=" M 163.0667,367.4452 L 163.0667,355.9452 L 170.7667,355.9452 L 170.7667,367.4452 L 163.0667,367.4452 z " style="fill: #ffffff; fill-opacity: 0.00; stroke: none;" id="ezcGraphPolygon_146"/><text id="ezcGraphTextBox_81_text" x="163.5667" text-length="6.2000px" y="364.9452" style="font-size: 10px; font-family: 'Arial'; fill: #2e3436; fill-opacity: 1.00; stroke: none;">2</text></g><g id="ezcGraphTextBox_83"><path d=" M 216.4000,352.8129 L 216.4000,341.3129 L 224.1000,341.3129 L 224.1000,352.8129 L 216.4000,352.8129 z " style="fill: #ffffff; fill-opacity: 0.00; stroke: none;" id="ezcGraphPolygon_147"/><text id="ezcGraphTextBox_83_text" x="216.9000" text-length="6.2000px" y="350.3129" style="font-size: 10px; font-family: 'Arial'; fill: #2e3436; fill-opacity: 1.00; stroke: none;">5</text></g><g id="ezcGraphTextBox_85"><path d=" M 269.7333,372.3226 L 269.7333,360.8226 L 277.4333,360.8226 L 277.4333,372.3226 L 269.7333,372.3226 z " style="fill: #ffffff; fill-opacity: 0.00; stroke: none;" id="ezcGraphPolygon_148"/><text id="ezcGraphTextBox_85_text" x="270.2333" text-length="6.2000px" y="369.8226" style="font-size: 10px; font-family: 'Arial'; fill: #2e3436; fill-opacity: 1.00; stroke: none;">1</text></g><g id="ezcGraphTextBox_87"><path d=" M 429.7333,367.4452 L 429.7333,355.9452 L 437.4333,355.9452 L 437.4333,367.4452 L 429.7333,367.4452 z " style="fill: #ffffff; fill-opacity: 0.00; stroke: none;" id="ezcGraphPolygon_149"/><text id="ezcGraphTextBox_87_text" x="430.2333" text-length="6.2000px" y="364.9452" style="font-size: 10px; font-family: 'Arial'; fill: #2e3436; fill-opacity: 1.00; stroke: none;">2</text></g><g id="ezcGraphTextBox_89"><path d=" M 429.7333,372.3226 L 429.7333,360.8226 L 437.4333,360.8226 L 437.4333,372.3226 L 429.7333,372.3226 z " style="fill: #ffffff; fill-opacity: 0.00; stroke: none;" id="ezcGraphPolygon_150"/><text id="ezcGraphTextBox_89_text" x="430.2333" text-length="6.2000px" y="369.8226" style="font-size: 10px; font-family: 'Arial'; fill: #2e3436; fill-opacity: 1.00; stroke: none;">1</text></g></g></svg>
